<?xml version="1.0" encoding="UTF-8"?>
<svg xmlns="http://www.w3.org/2000/svg" width="90" height="90" viewBox="0 0 90 90" fill="none">
  <rect width="90" height="90" rx="10" fill="white"></rect>
  <rect width="90" height="90" rx="10" fill="#112521" fill-opacity="0.07"></rect>
  <mask id="mask0_178_694" style="mask-type:alpha" maskUnits="userSpaceOnUse" x="21" y="21" width="48" height="48">
    <rect x="21" y="21" width="48" height="48" fill="#D9D9D9"></rect>
  </mask>
  <g mask="url(#mask0_178_694)">
    <path d="M29 67V63H61V67H29ZM29 27V23H61V27H29ZM45 47C46.6667 47 48.0833 46.4167 49.25 45.25C50.4167 44.0833 51 42.6667 51 41C51 39.3333 50.4167 37.9167 49.25 36.75C48.0833 35.5833 46.6667 35 45 35C43.3333 35 41.9167 35.5833 40.75 36.75C39.5833 37.9167 39 39.3333 39 41C39 42.6667 39.5833 44.0833 40.75 45.25C41.9167 46.4167 43.3333 47 45 47ZM29 61C27.9 61 26.9583 60.6083 26.175 59.825C25.3917 59.0417 25 58.1 25 57V33C25 31.9 25.3917 30.9583 26.175 30.175C26.9583 29.3917 27.9 29 29 29H61C62.1 29 63.0417 29.3917 63.825 30.175C64.6083 30.9583 65 31.9 65 33V57C65 58.1 64.6083 59.0417 63.825 59.825C63.0417 60.6083 62.1 61 61 61H29ZM32.5 57C34 55.1333 35.8167 53.6667 37.95 52.6C40.0833 51.5333 42.4333 51 45 51C47.5667 51 49.9167 51.5333 52.05 52.6C54.1833 53.6667 56 55.1333 57.5 57H61V33H29V57H32.5ZM38.4 57H51.6C50.6333 56.3333 49.5917 55.8333 48.475 55.5C47.3583 55.1667 46.2 55 45 55C43.8 55 42.6417 55.1667 41.525 55.5C40.4083 55.8333 39.3667 56.3333 38.4 57ZM45 43C44.4333 43 43.9583 42.8083 43.575 42.425C43.1917 42.0417 43 41.5667 43 41C43 40.4333 43.1917 39.9583 43.575 39.575C43.9583 39.1917 44.4333 39 45 39C45.5667 39 46.0417 39.1917 46.425 39.575C46.8083 39.9583 47 40.4333 47 41C47 41.5667 46.8083 42.0417 46.425 42.425C46.0417 42.8083 45.5667 43 45 43Z" fill="#9DD741"></path>
    <path d="M29 63V67H61V63H29Z" fill="#122622"></path>
    <path d="M29 23V27H61V23H29Z" fill="#122622"></path>
    <path fill-rule="evenodd" clip-rule="evenodd" d="M26.175 59.825C26.9583 60.6083 27.9 61 29 61H61C62.1 61 63.0417 60.6083 63.825 59.825C64.6083 59.0417 65 58.1 65 57V33C65 31.9 64.6083 30.9583 63.825 30.175C63.0417 29.3917 62.1 29 61 29H29C27.9 29 26.9583 29.3917 26.175 30.175C25.3917 30.9583 25 31.9 25 33V57C25 58.1 25.3917 59.0417 26.175 59.825ZM61 57V33H29V57H61Z" fill="#122622"></path>
  </g>
</svg>
