<?xml version="1.0" encoding="UTF-8"?>
<svg xmlns="http://www.w3.org/2000/svg" width="90" height="86" viewBox="0 0 90 86" fill="none">
  <rect width="90" height="85.1377" rx="10" fill="white"></rect>
  <rect width="90" height="85.1377" rx="10" fill="#112521" fill-opacity="0.07"></rect>
  <mask id="mask0_178_696" style="mask-type:alpha" maskUnits="userSpaceOnUse" x="20" y="17" width="50" height="51">
    <rect x="20" y="17.5688" width="50" height="50" fill="#D9D9D9"></rect>
  </mask>
  <g mask="url(#mask0_178_696)">
    <path d="M38.75 63.4022V52.9855C36.6319 52.8119 34.5313 52.5601 32.4479 52.2303C30.3646 51.9004 28.2986 51.4577 26.25 50.9022L27.2917 46.7355C30.2083 47.5341 33.1337 48.081 36.0677 48.3761C39.0017 48.6713 41.9792 48.8188 45 48.8188C48.0208 48.8188 50.9983 48.6713 53.9323 48.3761C56.8663 48.081 59.7917 47.5341 62.7083 46.7355L63.75 50.9022C61.7014 51.4577 59.6354 51.9004 57.5521 52.2303C55.4688 52.5601 53.3681 52.8119 51.25 52.9855V63.4022H38.75ZM45 46.7355C43.8542 46.7355 42.8733 46.3275 42.0573 45.5115C41.2413 44.6956 40.8333 43.7147 40.8333 42.5688C40.8333 41.423 41.2413 40.4421 42.0573 39.6261C42.8733 38.8101 43.8542 38.4022 45 38.4022C46.1458 38.4022 47.1267 38.8101 47.9427 39.6261C48.7587 40.4421 49.1667 41.423 49.1667 42.5688C49.1667 43.7147 48.7587 44.6956 47.9427 45.5115C47.1267 46.3275 46.1458 46.7355 45 46.7355Z" fill="#122622"></path>
    <path d="M31.4585 43.402L23.3335 35.277L31.4585 27.152L39.5835 35.277L31.4585 43.402ZM31.4585 37.5687L33.7502 35.277L31.4585 32.9854L29.1668 35.277L31.4585 37.5687Z" fill="#9DD741"></path>
    <path d="M45 32.1522C43.2639 32.1522 41.7882 31.5445 40.5729 30.3292C39.3576 29.114 38.75 27.6383 38.75 25.9022C38.75 24.166 39.3576 22.6904 40.5729 21.4751C41.7882 20.2598 43.2639 19.6522 45 19.6522C46.7361 19.6522 48.2118 20.2598 49.4271 21.4751C50.6424 22.6904 51.25 24.166 51.25 25.9022C51.25 27.6383 50.6424 29.114 49.4271 30.3292C48.2118 31.5445 46.7361 32.1522 45 32.1522ZM45 27.9855C45.5903 27.9855 46.0851 27.7858 46.4844 27.3865C46.8837 26.9872 47.0833 26.4924 47.0833 25.9022C47.0833 25.3119 46.8837 24.8171 46.4844 24.4178C46.0851 24.0185 45.5903 23.8188 45 23.8188C44.4097 23.8188 43.9149 24.0185 43.5156 24.4178C43.1163 24.8171 42.9167 25.3119 42.9167 25.9022C42.9167 26.4924 43.1163 26.9872 43.5156 27.3865C43.9149 27.7858 44.4097 27.9855 45 27.9855Z" fill="#BBB9B4"></path>
    <path d="M55.5207 42.5688L51.979 36.3188L55.5207 30.0688H62.604L66.1457 36.3188L62.604 42.5688H55.5207ZM57.9165 38.4022H60.2082L61.354 36.3188L60.2082 34.2355H57.9165L56.7707 36.3188L57.9165 38.4022Z" fill="#9DD741"></path>
  </g>
</svg>
