<?xml version="1.0" encoding="UTF-8"?>
<svg xmlns="http://www.w3.org/2000/svg" width="90" height="86" viewBox="0 0 90 86" fill="none">
  <rect width="90" height="85.1377" rx="10" fill="white"></rect>
  <rect width="90" height="85.1377" rx="10" fill="#112521" fill-opacity="0.07"></rect>
  <mask id="mask0_178_698" style="mask-type:alpha" maskUnits="userSpaceOnUse" x="20" y="17" width="50" height="51">
    <rect x="20" y="17.5688" width="50" height="50" fill="#D9D9D9"></rect>
  </mask>
  <g mask="url(#mask0_178_698)">
    <path d="M51.5656 63.0864V58.9197H59.8989V38.0864H30.7323V46.4197H26.5656V29.7531C26.5656 28.6072 26.9736 27.6263 27.7896 26.8104C28.6055 25.9944 29.5864 25.5864 30.7323 25.5864H32.8156V21.4197H36.9823V25.5864H53.6489V21.4197H57.8156V25.5864H59.8989C61.0448 25.5864 62.0257 25.9944 62.8416 26.8104C63.6576 27.6263 64.0656 28.6072 64.0656 29.7531V58.9197C64.0656 60.0656 63.6576 61.0465 62.8416 61.8624C62.0257 62.6784 61.0448 63.0864 59.8989 63.0864H51.5656ZM36.9823 67.2531L34.0656 64.3364L39.4302 58.9197H22.3989V54.7531H39.4302L34.0656 49.3364L36.9823 46.4197L47.3989 56.8364L36.9823 67.2531ZM30.7323 33.9197H59.8989V29.7531H30.7323V33.9197Z" fill="#122622"></path>
    <path d="M36.9823 67.2533L34.0656 64.3367L39.4302 58.92H22.3989V54.7533H39.4302L34.0656 49.3366L36.9823 46.42L47.3989 56.8366L36.9823 67.2533Z" fill="#9DD741"></path>
  </g>
</svg>
