<?xml version="1.0" encoding="UTF-8"?>
<svg xmlns="http://www.w3.org/2000/svg" width="500" height="300" viewBox="0 0 500 300" fill="none">
  <path d="M40.0594 123.669C40.0594 118.312 34.9214 117 30.8765 117V117.765C33.2816 117.765 35.14 118.53 35.14 120.498C35.14 121.591 34.3748 123.231 31.8604 123.231C30.002 123.231 25.9572 122.138 23.0055 121.045C19.5073 119.733 16.337 118.64 13.604 118.64C8.24735 118.64 4.42116 122.685 4.42116 127.276C4.42116 131.321 7.37279 132.633 8.46599 133.179L8.68463 132.633C8.13803 132.086 7.37279 131.54 7.37279 129.9C7.37279 128.807 8.46599 126.948 11.0897 126.948C13.4947 126.948 16.7743 128.041 21.0378 129.353C24.7546 130.446 28.7995 131.212 30.9859 131.54V139.848L26.941 143.346V143.565L30.9859 147.063V158.651C28.7995 159.963 26.3944 160.291 24.3174 160.291C20.2725 160.291 16.7743 159.197 13.8227 156.027L24.864 150.67V132.086L11.6363 137.989C12.7295 134.491 15.6811 132.086 18.6327 130.446L18.3048 129.681C10.2151 131.867 3 139.411 3 148.484C3 159.197 11.8549 167.287 21.803 167.287C32.5163 167.287 39.5128 158.651 39.5128 149.796H39.0755C37.4357 153.294 35.0307 156.464 32.0791 158.104V147.063L36.3425 143.565V143.346L32.0791 139.848V131.54C36.1239 131.54 40.0594 128.807 40.0594 123.669ZM16.665 153.294L13.3854 154.934C11.5269 152.529 10.4337 149.249 10.4337 144.767C10.4337 142.909 10.4337 140.722 10.9803 139.083L16.665 136.678V153.294ZM45.1974 159.525L41.6992 162.258L42.2458 162.805L43.8856 161.493L49.7889 166.85L57.8785 161.493L57.6599 160.947L55.4735 162.258L52.7405 159.525V141.16L54.9269 139.52L59.5183 143.237V159.635C59.5183 169.801 57.3319 171.441 52.8498 173.081V173.846C60.3929 174.065 67.3894 171.66 67.3894 158.542V140.941L69.7944 139.083L69.2478 138.536L67.0614 140.176L60.2836 134.491L52.7405 140.176V118.093H52.1939L42.7924 124.543V125.09C43.8856 125.636 45.5254 126.183 45.5254 129.134L45.1974 159.525ZM94.3913 156.574L87.7228 161.712L81.0543 156.355V153.076L93.7354 144.439V144.221L87.1762 134.491L73.1833 142.034V159.744L70.4503 161.93L70.9969 162.477L73.4019 160.619L82.5848 167.287L94.7193 157.558L94.3913 156.574ZM80.945 151.982V138.755L81.4916 138.536L87.3949 147.937L80.945 151.982ZM145.772 121.263C145.772 120.498 145.553 119.624 145.225 118.858H144.678C143.913 121.045 142.82 122.138 140.087 122.138C137.682 122.138 136.042 120.826 134.949 119.733L127.187 128.588L127.734 129.134L130.467 126.729C132.107 128.041 133.419 129.134 137.135 129.462V151.764L121.284 124.543C119.972 122.357 118.004 119.405 114.288 119.405C110.024 119.405 106.198 123.122 106.744 129.134H107.51C107.728 127.495 108.603 125.636 110.461 125.636C111.773 125.636 113.194 126.948 113.96 128.369V137.224C109.15 137.224 105.87 139.411 105.87 143.455C105.87 145.642 106.963 148.812 110.133 149.687V149.14C109.587 148.593 109.368 148.047 109.368 147.282C109.368 145.97 110.461 144.877 112.32 144.877H113.632V156.136C107.947 156.136 103.465 159.416 103.465 164.773C103.465 169.911 107.728 172.316 112.648 171.988V171.441C109.696 171.223 108.384 169.801 108.384 167.943C108.384 165.538 110.024 164.445 112.101 164.445C114.288 164.445 116.146 165.757 117.458 167.396L125.22 158.76L124.673 158.214L122.814 160.4C119.863 157.667 118.223 156.902 114.725 156.355V129.353L136.37 166.959H138.01V129.353C141.945 129.134 145.772 125.855 145.772 121.263ZM165.34 156.574L158.671 161.712L152.003 156.355V153.076L164.684 144.439V144.221L158.234 134.491L144.241 142.034V159.744L141.508 161.93L142.055 162.477L144.46 160.619L153.643 167.287L165.777 157.558C165.668 157.558 165.34 156.574 165.34 156.574ZM151.894 151.982V138.755L152.44 138.536L158.343 147.937C158.453 147.937 151.894 151.982 151.894 151.982ZM209.177 137.443L207.319 138.755L202.181 134.491L196.277 139.848L198.682 142.253V162.368L192.233 158.323V141.706L194.419 140.394L188.188 134.491L182.284 139.848L184.689 142.253V161.602L183.924 162.149L178.24 158.104V142.034C178.24 138.317 176.381 137.224 174.195 135.803C172.336 134.491 171.243 133.617 171.243 131.758C171.243 130.118 172.883 129.353 173.648 128.807V128.26C171.462 128.26 165.886 130.446 165.886 135.475C165.886 138.208 167.198 139.192 168.619 140.613C169.931 141.925 171.352 143.018 171.352 145.423V161.056L168.401 163.242L168.947 163.789L171.68 161.602L177.912 166.959L184.58 162.368L192.123 166.959L206.335 158.651V140.613L209.833 137.88L209.177 137.443ZM259.246 122.685L256.513 125.09L250.609 119.733L241.754 126.183V120.28H240.989L241.208 163.789C240.443 163.789 237.928 163.242 236.07 162.696L235.523 126.402C235.523 123.669 233.665 119.952 228.855 119.952C224.045 119.952 220.765 123.669 220.765 127.495H221.53C221.749 125.855 222.623 124.543 224.263 124.543C225.903 124.543 227.215 125.636 227.215 129.134V139.629C222.405 139.848 219.453 142.581 219.453 146.079C219.453 148.265 220.546 151.436 223.717 151.436V150.889C222.623 150.343 222.405 149.577 222.405 149.031C222.405 147.391 223.717 146.844 225.903 146.844H226.996V163.461C222.951 164.773 221.312 167.724 221.312 171.004C221.312 175.595 224.81 178.766 230.167 178.766C233.883 178.766 237.163 178.219 240.333 177.454C243.066 176.907 246.564 176.142 248.095 176.142C250.281 176.142 251.047 177.235 251.047 178.547C251.047 180.405 250.281 181.28 249.188 181.499V182.045C253.452 181.28 256.185 178.547 256.185 174.502C256.185 170.457 252.14 168.052 247.876 168.052C245.69 168.052 241.208 168.818 237.928 169.364C234.211 170.129 230.385 170.676 229.292 170.676C227.434 170.676 225.247 169.911 225.247 167.178C225.247 164.991 227.106 163.133 231.697 163.133C234.102 163.133 237.054 163.352 240.005 164.226C243.285 164.991 246.237 165.866 248.86 165.866C252.905 165.866 256.403 164.554 256.403 158.869V125.855L259.683 123.122L259.246 122.685ZM248.204 139.083C247.439 139.848 246.346 140.722 244.925 140.722C243.504 140.722 242.192 139.957 241.645 139.083V127.167L244.378 125.308L248.095 128.807C248.204 128.807 248.204 139.083 248.204 139.083ZM248.204 147.063C247.658 146.516 246.346 145.751 244.925 145.751C243.504 145.751 242.192 146.516 241.645 147.063V140.066C242.192 140.613 243.504 141.378 244.925 141.378C246.346 141.378 247.658 140.613 248.204 140.066V147.063ZM248.204 159.744C248.204 161.93 246.892 164.008 243.941 164.008H241.754V148.156C242.301 147.61 243.613 146.844 245.034 146.844C246.455 146.844 247.439 147.61 248.314 148.156C248.204 148.156 248.204 159.744 248.204 159.744ZM285.045 140.613L276.409 134.382L263.181 141.925V159.416L260.448 161.602L260.667 162.149L262.853 160.509L271.489 166.959L284.936 158.869C285.045 158.979 285.045 140.613 285.045 140.613ZM270.506 157.558V138.208L277.174 143.018V162.149C277.283 162.149 270.506 157.558 270.506 157.558ZM310.626 135.038H310.079C309.314 135.584 308.44 136.131 307.674 136.131C306.581 136.131 305.269 135.584 304.723 134.819H304.176L299.585 139.957L294.993 134.819L286.904 140.176L287.122 140.722L289.309 139.411L292.042 142.362V159.307L288.543 162.04L289.09 162.586L290.73 161.275L297.18 166.631L305.488 160.947L305.269 160.4L302.864 161.712L299.585 158.979V140.176C300.896 141.488 302.536 142.909 304.395 142.909C308.112 143.127 310.298 139.301 310.626 135.038ZM342.875 160.837L333.692 167.068L321.339 148.265L330.194 134.6H330.741C331.834 135.694 333.474 136.787 335.332 136.787C337.191 136.787 338.612 135.694 339.377 134.6H339.924C339.705 139.957 335.879 143.237 333.255 143.237C330.522 143.237 329.21 141.925 327.57 141.05L326.805 142.362L340.252 162.258L342.985 160.619V160.837H342.875ZM313.25 159.525L309.751 162.258L310.298 162.805L311.938 161.493L317.841 166.85L325.931 161.493L325.384 160.947L323.198 162.258L320.465 159.525V118.093H320.246L310.517 124.543V125.09C311.61 125.636 313.25 125.855 313.25 129.134V159.525ZM387.478 123.669C387.478 118.312 382.34 117 378.295 117V117.765C380.7 117.765 382.558 118.53 382.558 120.498C382.558 121.591 381.793 123.231 379.279 123.231C377.42 123.231 373.375 122.138 370.424 121.045C366.926 119.952 363.755 118.858 361.022 118.858C355.666 118.858 351.839 122.903 351.839 127.495C351.839 131.54 354.791 132.851 355.884 133.398L356.103 132.851C355.338 132.305 354.463 131.758 354.463 130.118C354.463 129.025 355.556 127.167 358.18 127.167C360.585 127.167 363.865 128.26 368.128 129.572C371.845 130.665 375.89 131.43 378.076 131.758V140.066L374.031 143.565V143.783L378.076 147.282V158.869C375.89 160.181 373.485 160.509 371.408 160.509C367.363 160.509 363.865 159.416 360.913 156.246L371.954 150.889V132.086L358.508 137.989C359.82 134.491 362.771 132.086 365.504 130.228L365.286 129.681C357.196 131.867 349.981 139.083 349.981 148.265C349.981 158.979 358.836 167.068 368.784 167.068C379.497 167.068 386.494 158.432 386.494 149.577H385.947C384.307 153.076 381.902 156.246 378.951 157.886V146.844L383.214 143.346V143.127L379.169 139.629V131.54C383.433 131.54 387.478 128.807 387.478 123.669ZM364.083 153.294L360.804 154.934C358.945 152.529 357.852 149.249 357.852 144.767C357.852 142.909 358.071 140.722 358.617 139.083L364.302 136.678L364.083 153.294ZM396.879 121.045H396.551L391.195 125.636V125.855L395.786 130.993H396.333L401.689 126.402V126.183L396.879 121.045ZM404.969 160.837L402.783 162.149L400.05 159.416V140.832L402.783 138.973L402.236 138.427L400.377 140.066L395.567 134.382L387.806 139.739L388.352 140.504L390.211 139.192L392.616 142.144V159.635L389.118 162.368L389.336 162.914L391.195 161.602L397.098 166.959L405.188 161.602L404.969 160.837ZM449.79 160.509L447.932 161.821L444.98 159.088V140.941L447.713 138.755L447.166 138.208L444.98 140.066L438.749 134.382L430.659 140.066L424.428 134.382L416.885 140.066L412.075 134.382L404.313 139.739L404.532 140.504L406.39 139.192L409.123 142.144V159.635L406.937 161.821L413.168 166.959L419.071 161.602L416.666 159.197V140.941L419.071 139.301L423.116 143.018V159.197L420.93 161.384L427.161 166.522L433.064 161.165L430.659 158.76V140.941L432.845 139.629L437.109 143.346V159.525L435.25 161.384L441.482 167.068L449.79 161.384V160.509ZM473.184 156.574L466.516 161.712L459.847 156.355V153.076L472.529 144.439V144.221L466.079 134.491L452.086 142.034V160.291L461.487 166.959L473.622 157.23C473.512 157.339 473.184 156.574 473.184 156.574ZM459.738 151.982V138.755L460.285 138.536L466.188 147.937L459.738 151.982ZM497.672 149.577L492.534 145.532C496.032 142.581 497.344 138.536 497.344 135.803V134.163H496.798C496.251 135.475 495.158 136.896 493.081 136.896C490.894 136.896 489.582 135.803 488.271 134.163L476.136 140.832V150.561L480.728 154.059C476.136 158.104 475.371 160.728 475.371 162.914C475.371 165.647 476.683 167.506 478.869 168.271L479.088 167.724C478.541 167.178 477.995 166.959 477.995 165.538C477.995 164.773 479.088 163.352 481.274 163.352C484.007 163.352 485.538 165.21 486.412 166.085L498 159.088V149.359C498 149.577 497.672 149.577 497.672 149.577ZM494.72 141.488C492.862 144.767 488.817 147.937 486.412 149.577L483.46 147.172V137.771C484.554 140.504 487.505 142.581 490.457 142.581C492.315 142.581 493.409 142.253 494.72 141.488ZM490.129 163.024C488.817 160.072 485.538 157.886 482.367 157.886C481.602 157.886 479.416 157.886 477.229 159.197C478.541 157.011 482.039 153.294 486.631 150.561L489.91 153.294L490.129 163.024Z" fill="white"></path>
</svg>
