<?xml version="1.0" encoding="UTF-8"?>
<svg xmlns="http://www.w3.org/2000/svg" width="500" height="300" viewBox="0 0 500 300" fill="none">
  <path d="M106.375 116.02L115.689 99.8397C118.404 95.1028 116.807 89.0353 112.07 86.3209C107.333 83.6065 101.266 85.2032 98.5514 89.9401L89.184 106.12C69.2783 99.8397 46.9775 107.983 36.1199 126.824C29.2008 138.8 28.3492 152.584 32.5539 164.666L49.7984 134.755C53.7369 127.889 60.177 122.992 67.8412 120.916C75.5055 118.841 83.489 119.905 90.3549 123.897C104.512 132.093 109.409 150.296 101.213 164.453C93.0161 178.611 74.8668 183.508 60.656 175.311L70.5557 158.173C75.2926 160.887 81.3601 159.291 84.0745 154.554C86.7889 149.817 85.1922 143.749 80.4553 141.035C75.7184 138.321 69.6509 139.917 66.9364 144.654L35.428 199.315C32.7136 204.052 34.3103 210.119 39.0472 212.834C43.7841 215.548 49.8516 213.951 52.566 209.215L61.9334 193.035C81.8391 199.315 104.14 191.172 114.997 172.331C125.855 153.543 121.757 130.177 106.375 116.02Z" fill="white"></path>
  <path d="M148.262 127.782H163.59C172.479 127.782 179.823 132.2 179.823 142.419C179.823 152.638 172.479 157.108 163.59 157.108H157.257V171.426H148.262V127.782ZM163.324 149.231C167.742 149.231 170.562 147.262 170.562 142.419C170.562 137.522 167.635 135.712 163.324 135.712H157.257V149.231H163.324Z" fill="white"></path>
  <path d="M192.971 127.782H221.818V135.659H201.966V145.665H219.476V153.383H201.966V163.495H222.723V171.372H192.971V127.782Z" fill="white"></path>
  <path d="M237.785 127.782H246.727V163.495H266.473V171.372H237.785V127.782Z" fill="white"></path>
  <path d="M276.479 149.604C276.479 136.724 286.485 127.25 299.045 127.25C311.606 127.25 321.612 136.724 321.612 149.604C321.612 162.484 311.606 171.958 299.045 171.958C286.485 171.958 276.479 162.484 276.479 149.604ZM312.351 149.604C312.351 141.461 306.976 135.233 299.045 135.233C291.115 135.233 285.739 141.461 285.739 149.604C285.739 157.747 291.115 163.974 299.045 163.974C306.976 163.974 312.351 157.747 312.351 149.604Z" fill="white"></path>
  <path d="M343.7 135.659H331.246V127.782H365.096V135.659H352.642V171.372H343.647V135.659H343.7Z" fill="white"></path>
  <path d="M374.678 149.604C374.678 136.724 384.684 127.25 397.245 127.25C409.805 127.25 419.811 136.724 419.811 149.604C419.811 162.484 409.805 171.958 397.245 171.958C384.684 171.958 374.678 162.484 374.678 149.604ZM410.551 149.604C410.551 141.461 405.175 135.233 397.245 135.233C389.314 135.233 383.939 141.461 383.939 149.604C383.939 157.747 389.314 163.974 397.245 163.974C405.175 163.974 410.551 157.747 410.551 149.604Z" fill="white"></path>
  <path d="M447.166 151.147C444.984 149.072 441.95 145.186 441.95 145.186C441.95 145.186 442.589 149.977 442.589 153.117V171.372H434.18V127.41H435.084L457.066 148.06C459.195 150.03 462.175 154.022 462.175 154.022C462.175 154.022 461.59 149.072 461.59 146.091V127.835H469.999V171.798H469.094L447.166 151.147Z" fill="white"></path>
</svg>
