<?xml version="1.0" encoding="UTF-8"?>
<svg xmlns="http://www.w3.org/2000/svg" width="500" height="300" viewBox="0 0 500 300" fill="none">
  <path d="M235.467 172.546H264.669L274.991 147.963C277.979 140.764 279.201 137.233 282.19 130.034H282.597C282.597 138.727 282.325 141.715 282.325 151.222L282.19 172.546H310.712L342.902 98.3879H316.416L306.23 126.096C304.057 131.8 303.242 135.196 301.205 143.073H300.797C301.476 132.887 301.612 130.034 301.612 124.194L302.019 98.3879H275.127L265.348 123.922C263.175 129.627 261.137 135.331 258.964 142.666H258.557C259.236 132.887 259.372 130.17 259.643 124.466L260.458 98.2521H236.01L235.467 172.546ZM183.719 154.346L191.733 116.045H196.758C202.055 116.045 205.043 119.169 205.043 126.639C205.043 132.072 203.549 141.036 200.018 147.148C196.894 152.581 193.498 154.346 187.386 154.346H183.719ZM152.616 172.546H185.756C205.179 172.546 215.094 166.163 221.885 157.334C227.861 149.457 231.121 137.64 231.121 127.725C231.121 117.403 227.725 109.525 222.428 104.907C216.724 99.882 208.846 98.3879 198.524 98.3879H168.371L152.616 172.546ZM81.1739 140.357C80.359 162.767 92.3113 173.769 112.684 173.769C123.279 173.769 132.379 171.46 139.985 165.891C148.813 159.1 152.888 148.913 153.703 142.802H127.082C125.588 148.913 121.785 154.618 116.487 154.618C111.462 154.618 108.881 149.728 109.153 140.9C109.425 135.196 110.376 129.084 113.364 123.787C116.352 118.49 119.747 116.452 123.143 116.452C127.761 116.452 130.477 121.342 130.07 129.084V129.627H155.604C156.419 120.527 154.517 112.649 150.307 107.488C145.417 100.697 136.182 97.1656 125.316 97.1656C111.598 97.1656 101.004 102.055 93.6695 109.389C85.9277 117.539 81.4456 128.812 81.1739 140.357ZM189.016 241C230.713 241 277.164 229.32 317.503 210.169C370.202 185.042 421.135 146.333 421.135 104.228C421.135 71.6311 386.5 58.9998 345.482 58.9998C299.031 58.9998 244.839 75.9774 221.206 91.3252C220.119 92.0043 220.527 92.5476 221.477 92.1402C253.395 77.6073 291.697 68.6431 322.528 68.6431C352.817 68.6431 387.859 77.7431 387.859 111.291C387.859 144.296 352.409 175.399 308.131 197.266C268.2 217.096 223.786 228.912 186.843 228.912C160.222 228.912 119.204 223.615 119.204 193.191C119.204 189.66 119.476 184.499 120.698 180.696C120.97 180.288 120.698 179.881 120.019 180.424C117.031 184.227 115.129 191.154 115.129 198.352C114.993 231.493 157.506 241 189.016 241Z" fill="white"></path>
</svg>
