<?xml version="1.0" encoding="UTF-8"?>
<svg xmlns="http://www.w3.org/2000/svg" width="500" height="300" viewBox="0 0 500 300" fill="none">
  <path d="M233.21 181.19V163.277C233.21 154.799 230.176 149.853 223.734 148.689C231.256 146.694 233.293 140.377 233.293 132.314C233.293 120.926 229.178 113.819 215.92 113.819H192.105V187.59H207.94V155.505H211.847C215.671 155.505 217.458 158.124 217.458 161.656V181.273C217.458 184.557 218.123 186.926 218.58 187.59H234.581C234.041 186.967 233.21 184.432 233.21 181.19ZM212.138 143.078L207.94 143.162V126.496H212.72C216.336 126.496 217.541 129.155 217.541 134.974C217.541 140.793 216.211 143.078 212.138 143.078Z" fill="white"></path>
  <path d="M55.5348 175.039C58.361 172.67 58.8597 169.761 58.8597 167.142V156.129H43.4821V171.091C43.4821 173.21 41.7365 174.956 39.6169 174.956C37.4973 174.956 35.8764 173.21 35.8764 171.091V128.698C35.8764 126.579 37.4557 124.833 39.6169 124.833C41.7365 124.833 43.4821 126.579 43.4821 128.698V143.743H58.8597V128.116C58.8182 119.472 53.1658 112.365 39.4506 112.365C25.3198 112.365 20 119.513 20 128.116V172.379C20 180.941 26.7745 187.424 35.4608 187.424H40.2403L55.5348 175.039Z" fill="white"></path>
  <path d="M478.627 181.148V163.235C478.627 154.757 475.594 149.811 469.152 148.647C476.674 146.652 478.711 140.335 478.711 132.272C478.711 120.884 474.596 113.777 461.338 113.777H437.523V187.549H453.4V155.463H457.265C461.089 155.463 462.876 158.082 462.876 161.614V181.231C462.876 184.515 463.541 186.925 463.998 187.549H479.999C479.5 186.925 478.627 184.39 478.627 181.148ZM457.556 143.037H453.358V126.412H458.179C461.795 126.412 463 129.072 463 134.891C463 140.751 461.671 143.037 457.556 143.037Z" fill="white"></path>
  <path d="M419.284 113.653H397.963L385.328 187.549H401.371L402.95 174.499H414.421L416 187.549H432.043L419.284 113.653ZM404.571 161.033L408.686 126.62L412.8 161.033H404.571Z" fill="white"></path>
  <path d="M313.088 187.549V113.819H329.338V173.543H346.254V187.549H313.088Z" fill="white"></path>
  <path d="M304.489 113.819H288.238V187.549H304.489V113.819Z" fill="white"></path>
  <path d="M350.166 187.549V113.819H366.416V173.543H383.332V187.549H350.166Z" fill="white"></path>
  <path d="M265.751 113.819H240.98V187.59H256.857V158.331H265.751C280.339 158.331 282.791 149.022 282.791 136.096C282.791 123.087 280.339 113.819 265.751 113.819ZM261.636 145.24L256.815 145.198V126.496H261.636C265.751 126.496 266.457 129.322 266.457 136.055C266.457 143.037 265.751 145.24 261.636 145.24Z" fill="white"></path>
  <path d="M164.676 127.867V142.496H181.509V156.918H164.676V173.293H184.667V187.507L148.426 187.549V113.777H184.002V127.867H164.676Z" fill="white"></path>
  <path d="M116.215 176.785V128.158H105.617V113.819H144.061V128.158H133.38V187.341H128.808L116.215 176.785Z" fill="white"></path>
  <path d="M123.114 187.424L85.6678 156.046L46.8496 187.424H123.114Z" fill="white"></path>
  <path d="M96.3481 113.902H74.9025L62.3926 169.969L85.6669 151.183L109.939 171.506L96.3481 113.902ZM81.5107 147.609L85.6669 126.412L89.7814 147.609H81.5107Z" fill="white"></path>
</svg>
