<?xml version="1.0" encoding="UTF-8"?>
<svg xmlns="http://www.w3.org/2000/svg" width="500" height="300" viewBox="0 0 500 300" fill="none">
  <g clip-path="url(#clip0_135_360)">
    <path d="M473.014 194.805C473.777 192.788 474.377 190.771 474.922 188.7C476.557 181.831 476.939 174.744 475.958 167.766C475.794 170.11 475.467 172.4 475.031 174.689C475.194 175.18 475.467 175.998 475.576 176.488C475.194 180.25 474.486 183.957 473.45 187.555C472.959 185.756 472.305 184.066 472.251 183.957C470.779 187.718 469.143 191.316 467.235 194.86L473.014 194.805Z" fill="white"></path>
    <path d="M460.911 194.805H464.237C473.723 180.795 474.213 168.365 474.213 165.967C474.268 161.933 473.559 157.898 472.196 154.028C470.833 150.648 469.143 147.432 467.181 144.433C467.726 146.014 468.162 147.704 468.544 149.34C468.544 149.449 468.598 149.558 468.598 149.667C469.198 150.702 471.924 155.5 472.305 160.788C472.687 166.076 470.397 158.117 468.925 156.372C468.871 159.261 468.489 162.151 467.889 164.985C469.361 166.73 470.779 168.529 472.033 170.437C471.433 173.544 470.506 176.597 469.307 179.541C467.998 177.633 466.527 175.834 465 174.09C463.528 177.633 461.784 181.067 459.821 184.393C459.821 184.393 463.419 188.645 464.237 189.844C463.147 191.589 462.111 193.17 460.911 194.805Z" fill="white"></path>
    <path d="M449.027 194.805C455.351 187.773 460.693 179.487 463.91 170.601C466.69 162.914 468.217 153.483 465.763 145.142C465.6 144.597 465.382 144.052 465.218 143.452C464.51 141.544 463.528 139.799 462.274 138.219C459.276 134.839 455.842 131.84 452.08 129.333C452.625 130.041 453.116 130.75 453.552 131.513C453.552 131.513 458.077 134.893 460.748 138.328C459.003 137.019 457.15 135.82 455.187 134.839C455.951 136.692 456.496 138.655 456.877 140.672C459.603 142.144 462.165 143.888 464.51 145.905C465 148.249 465.218 150.593 465.164 152.992C462.711 150.866 460.039 148.958 457.259 147.268C457.15 150.048 456.823 152.774 456.223 155.445C459.003 157.244 461.62 159.316 464.128 161.497C463.419 164.549 462.438 167.548 461.239 170.437C458.785 168.202 456.278 166.021 453.606 164.059C452.244 167.439 450.663 170.655 448.755 173.762C452.462 177.033 456.005 180.359 456.005 180.359C453.825 183.684 451.426 186.901 448.809 189.844L442.104 183.194C439.378 186.519 436.434 189.681 433.218 192.57L435.289 194.86L449.027 194.805Z" fill="white"></path>
    <path d="M450.772 129.987C450.335 129.387 449.845 128.787 449.3 128.242C448.809 127.806 448.318 127.37 447.828 126.988C442.267 122.791 432.018 120.719 432.018 120.719C433 121.264 433.817 121.755 433.817 121.755C436.489 122.464 439.105 123.39 441.668 124.59C441.668 124.59 438.342 123.826 436.216 123.554C437.088 124.372 437.96 125.189 438.669 126.171C438.669 126.171 445.484 127.424 448.427 129.06C449.518 130.259 450.39 131.622 451.044 133.094C447.828 131.84 444.502 130.913 441.122 130.205C441.831 131.786 442.322 133.476 442.649 135.22C446.138 136.092 449.518 137.292 452.789 138.709C453.17 140.835 453.334 142.961 453.225 145.087C449.899 143.452 446.465 142.035 442.976 140.89C442.867 143.234 442.485 145.524 441.886 147.759C441.886 147.759 448.918 150.921 452.08 152.774C451.371 155.554 450.39 158.28 449.245 160.897C444.448 157.789 439.378 155.009 439.378 155.009C438.124 158.062 434.962 163.077 434.962 163.077C435.017 163.132 440.25 166.73 444.284 169.892C442.267 172.945 440.032 175.834 437.579 178.56C436.761 177.742 429.02 170.928 429.02 170.928C426.621 173.708 424.005 176.325 421.279 178.778L428.693 187.173C425.64 189.681 422.424 192.025 419.044 194.151L412.883 185.32C409.176 187.936 405.251 190.226 401.163 192.134V194.696H425.367C452.243 174.362 461.838 145.142 450.772 129.987Z" fill="white"></path>
    <path d="M437.034 126.934C430.328 117.939 419.861 119.193 416.7 119.629C414.683 119.901 412.665 120.338 410.648 120.883C411.412 120.937 412.447 121.101 413.211 121.264C413.756 121.155 418.608 120.01 422.097 120.501C419.916 120.828 417.735 121.319 415.664 121.973C416.536 122.246 417.354 122.627 418.117 123.063C421.279 122.246 424.55 121.755 427.821 121.591C428.966 122.137 430.056 122.736 431.146 123.445C427.494 123.445 423.841 123.827 420.243 124.59C421.006 125.244 421.661 126.007 422.26 126.825C426.24 126.225 430.274 126.062 434.254 126.28C434.254 126.28 435.017 127.206 435.344 127.697C435.78 128.351 436.216 129.06 436.543 129.769C432.291 129.333 427.93 129.224 423.678 129.551C424.114 130.695 424.441 131.895 424.55 133.149C429.02 133.203 433.545 133.639 437.961 134.457C438.179 136.201 438.233 137.946 438.015 139.69C433.599 138.546 429.129 137.782 424.604 137.292C424.441 138.982 424.168 140.617 423.732 142.253C424.441 142.416 432.291 144.27 436.707 146.069C436.598 146.341 436.543 146.614 436.434 146.886C435.78 148.849 435.017 150.703 434.09 152.556C430.546 150.812 421.824 147.432 421.824 147.432C420.897 149.449 419.861 151.411 418.662 153.319C418.662 153.319 426.131 157.571 429.729 159.916C428.039 162.369 426.131 164.658 424.114 166.839C421.497 164.495 415.01 159.479 414.519 159.098C412.447 161.606 409.776 164.222 408.958 164.986L416.754 173.926L416.536 174.144C414.846 175.561 413.047 176.87 411.466 177.906C410.103 178.832 409.013 179.541 408.631 179.759C408.522 179.596 403.452 171.473 402.635 170.164C402.09 170.601 401.49 170.982 400.945 171.364V188.154C401.871 187.718 402.798 187.282 403.725 186.737C408.25 184.502 412.447 181.776 416.373 178.614C419.153 176.434 421.77 174.035 424.223 171.473C427.276 168.42 430.001 165.04 432.454 161.497C441.122 148.74 443.412 135.493 437.034 126.934Z" fill="white"></path>
    <path d="M419.698 126.28C416.481 122.627 411.193 121.373 405.033 122.246L404.543 122.3C404.052 122.409 403.616 122.464 403.125 122.573C402.471 122.736 401.762 122.9 401.108 123.172V125.026C401.708 124.535 402.362 124.099 402.962 123.663C404.161 123.39 405.36 123.227 406.56 123.172C404.652 124.263 402.853 125.516 401.108 126.825V128.242L401.163 128.297C401.163 128.297 405.687 124.699 409.285 123.172C410.103 123.227 410.975 123.336 411.793 123.554C408.413 124.971 405.197 126.77 402.198 128.842C402.58 129.06 402.962 129.333 403.343 129.605C406.832 127.479 410.539 125.735 414.355 124.372C415.119 124.699 415.882 125.135 416.536 125.68C412.338 126.934 408.195 128.569 404.27 130.586C404.597 130.968 404.924 131.404 405.142 131.84L405.251 131.786C409.504 130.041 413.919 128.624 418.444 127.643C418.989 128.406 419.425 129.224 419.752 130.096C415.01 130.75 410.376 131.84 405.851 133.312C406.069 133.912 406.178 134.566 406.287 135.22C410.975 134.239 415.718 133.585 420.461 133.367C420.57 134.566 420.516 135.765 420.352 136.965C416.318 136.747 406.723 137.292 406.342 137.292C406.287 138.219 406.178 139.091 405.96 139.963C410.43 140.127 414.955 140.617 419.371 141.38C418.88 142.907 418.226 144.433 417.517 145.905C413.265 144.597 406.778 143.07 405.088 142.689C404.652 143.834 404.052 144.924 403.398 145.96C403.398 145.96 411.303 149.394 414.301 151.084C413.102 152.72 411.793 154.301 410.376 155.827C409.613 155.282 408.904 154.737 408.25 154.246L401.163 149.285V155.827L405.251 160.624C403.943 161.66 402.58 162.696 401.163 163.568V167.439L401.326 167.33C403.234 166.021 405.088 164.604 406.832 163.077C420.843 150.757 426.676 134.293 419.698 126.28Z" fill="white"></path>
    <path d="M401.054 144.978C404.652 139.854 405.197 133.966 402.035 131.077C401.762 130.804 401.435 130.586 401.054 130.368V144.978ZM420.788 117.339C452.789 117.339 478.847 143.506 478.847 175.616C478.847 182.158 477.757 188.591 475.631 194.751H489.859V106H401.054V120.828H401.108C407.432 118.539 414.083 117.339 420.788 117.339ZM355.915 155.936C355.479 157.353 354.661 158.607 353.516 159.534C352.263 160.515 350.791 161.169 349.21 161.497C347.138 161.933 345.012 162.096 342.831 162.096H332.365V138.655H342.831C345.012 138.6 347.193 138.818 349.319 139.309C350.9 139.636 352.317 140.345 353.571 141.38C354.661 142.362 355.479 143.616 355.915 145.033C356.406 146.777 356.678 148.576 356.624 150.375C356.678 152.283 356.46 154.137 355.915 155.936ZM363.929 134.293C361.53 132.222 358.695 130.695 355.643 129.823C352.263 128.733 348.228 128.242 343.486 128.242H319.553V172.563H343.486C351.99 172.563 358.586 170.71 363.275 167.057C367.963 163.35 370.253 157.844 370.253 150.43C370.307 147.323 369.762 144.27 368.726 141.38C367.69 138.6 366.055 136.201 363.929 134.293ZM268.636 154.355H292.896V145.687H268.636V138.328H297.42L297.202 128.242H255.771V172.563H298.402L298.62 162.587H268.636V154.355ZM190.352 128.242L190.025 138.709H206.98V172.563H219.9V138.709H236.854L236.581 128.242H190.352ZM157.262 128.242H170.4V172.563H157.262V128.242ZM120.845 150.266L120.954 155.009L120.845 155.118L117.465 151.684L93.4788 128.242H82.8483V172.563H94.5691V149.285L94.4601 144.488L94.6236 144.433L98.0036 147.813L124.116 172.563H132.566V128.242H120.845V150.266ZM47.2499 153.21C47.2499 156.536 46.3231 159.043 44.4151 160.679C42.507 162.314 39.5087 163.132 35.311 163.132C31.1134 163.132 28.006 162.314 26.0434 160.679C24.0809 159.043 23.0996 156.536 23.0996 153.21V128.242H10.1795V153.101C10.1795 159.97 12.3601 165.095 16.6668 168.42C20.9735 171.8 27.1883 173.49 35.2565 173.49C43.4338 173.49 49.594 171.8 53.7372 168.474C57.9349 165.149 60.0064 160.025 60.0064 153.101V128.242H47.2499V153.21Z" fill="white"></path>
  </g>
  <defs>
    <clipPath id="clip0_135_360">
      <rect width="480" height="88.8598" fill="white" transform="translate(10 106)"></rect>
    </clipPath>
  </defs>
</svg>
