<?xml version="1.0" encoding="UTF-8"?>
<svg xmlns="http://www.w3.org/2000/svg" width="500" height="300" viewBox="0 0 500 300" fill="none">
  <g clip-path="url(#clip0_261_4297)">
    <path d="M204.166 74.3756C199.312 62.9059 193.351 54.1616 190.996 50.6237C188.633 54.1616 182.672 62.9095 177.825 74.3756C182.571 79.4812 187.26 85.5001 190.996 92.3279C194.724 85.4965 199.423 79.4848 204.166 74.3756ZM177.822 223.683C182.668 235.145 188.63 243.889 190.992 247.427C193.347 243.889 199.312 235.149 204.162 223.683C199.42 218.566 194.721 212.547 190.992 205.723C187.26 212.547 182.579 218.566 177.822 223.683ZM177.825 74.3756C169.365 65.2502 160.761 59.0767 157.334 56.5598C156.328 60.6839 153.725 70.949 153.095 83.3823C159.29 86.5607 165.766 90.6093 171.601 95.7365C172.774 88.0529 175.121 80.7935 177.825 74.3756ZM204.166 223.683C212.615 232.804 221.227 238.978 224.657 241.491C225.653 237.363 228.27 227.105 228.892 214.679C222.694 211.505 216.215 207.431 210.386 202.311C209.214 209.998 206.863 217.257 204.166 223.683ZM153.095 83.3823C142.018 77.7122 131.824 74.843 127.747 73.6385C128.204 77.8704 129.261 88.4088 132.928 100.303C139.839 101.158 147.303 102.758 154.548 105.592C153.016 97.9693 152.736 90.3324 153.095 83.3823ZM228.892 214.679C239.966 220.346 250.156 223.212 254.241 224.405C253.784 220.177 252.72 209.642 249.052 197.752C242.142 196.892 234.685 195.282 227.429 192.456C228.964 200.092 229.248 207.711 228.889 214.676" fill="white"></path>
    <path d="M141.891 120.679C137.849 114.031 134.98 106.951 132.927 100.303C120.577 98.7568 110.024 99.5478 105.777 99.8247C107.658 103.636 112.257 113.168 119.75 123.102C126.552 121.542 134.117 120.502 141.891 120.679ZM240.088 177.373C244.133 184.024 247.02 191.097 249.051 197.755C261.405 199.294 271.962 198.507 276.215 198.241C274.328 194.412 269.736 184.876 262.229 174.942C255.433 176.506 247.876 177.552 240.088 177.373ZM119.75 123.102C107.626 125.871 97.9789 130.221 94.085 131.94C97.1591 134.87 104.742 142.266 115.191 149.029C121.033 145.25 127.782 141.666 135.156 139.177C129.08 134.316 123.964 128.643 119.75 123.102Z" fill="white"></path>
    <path d="M266.788 149.025C260.942 152.808 254.193 156.385 246.826 158.877C252.895 163.731 258.022 169.394 262.225 174.949C274.36 172.173 284.007 167.83 287.901 166.115C284.827 163.181 277.244 155.774 266.788 149.025ZM135.156 158.873C127.782 156.385 121.033 152.811 115.191 149.025C104.742 155.774 97.1591 163.181 94.085 166.115C97.9789 167.826 107.626 172.173 119.75 174.945C123.964 169.397 129.08 163.735 135.156 158.873ZM246.826 139.181C254.196 141.665 260.942 145.25 266.788 149.025C277.244 142.266 284.827 134.87 287.901 131.936C284.007 130.221 274.36 125.87 262.229 123.098C258.022 128.646 252.895 134.32 246.826 139.181Z" fill="white"></path>
    <path d="M119.75 174.946C112.257 184.876 107.655 194.412 105.774 198.241C110.024 198.507 120.577 199.294 132.928 197.752C134.981 191.097 137.85 184.017 141.891 177.373C134.118 177.549 126.549 176.502 119.75 174.946ZM262.226 123.102C269.74 113.171 274.328 103.632 276.216 99.8103C271.962 99.5478 261.409 98.7568 249.052 100.306C247.02 106.951 244.133 114.034 240.088 120.679C247.876 120.499 255.434 121.542 262.226 123.102ZM154.547 192.456C147.302 195.282 139.842 196.889 132.928 197.752C129.26 209.642 128.203 220.177 127.75 224.405C131.824 223.212 142.017 220.342 153.098 214.676C152.739 207.711 153.016 200.093 154.547 192.456ZM227.428 105.592C234.684 102.759 242.141 101.159 249.052 100.306C252.719 88.4053 253.783 77.8705 254.24 73.635C250.156 74.8323 239.966 77.6979 228.892 83.3716C229.251 90.3325 228.964 97.955 227.428 105.592Z" fill="white"></path>
    <path d="M153.095 214.676C153.724 227.102 156.327 237.363 157.337 241.487C160.76 238.974 169.361 232.801 177.821 223.679C175.117 217.257 172.777 209.994 171.601 202.311C165.765 207.431 159.29 211.497 153.095 214.676ZM228.892 83.3714C228.266 70.9489 225.656 60.6837 224.653 56.5597C221.222 59.0765 212.615 65.25 204.162 74.3754C206.862 80.7754 209.213 88.0527 210.382 95.7399C216.214 90.6163 222.696 86.5534 228.892 83.3714Z" fill="white"></path>
    <path d="M184.244 110.773C185.492 104.121 187.911 97.9547 190.989 92.3277C187.257 85.4963 182.572 79.4846 177.819 74.3754C175.119 80.7933 172.774 88.0527 171.599 95.7327C176.417 99.9861 180.81 104.948 184.244 110.773ZM197.738 187.274C196.487 193.93 194.078 200.099 190.989 205.719C194.718 212.543 199.421 218.566 204.163 223.682C206.86 217.257 209.211 209.998 210.383 202.314C205.562 198.068 201.168 193.099 197.738 187.274Z" fill="black"></path>
    <path d="M154.548 105.592C160.516 107.921 166.341 111.093 171.569 115.382C170.465 108.716 170.627 102.089 171.605 95.7362C165.766 90.6126 159.29 86.5605 153.095 83.3821C152.736 90.3322 153.016 97.9691 154.548 105.592ZM227.429 192.455C221.464 190.129 215.646 186.954 210.422 182.665C211.522 189.338 211.35 195.954 210.386 202.311C216.214 207.431 222.693 211.501 228.889 214.679C229.248 207.711 228.964 200.089 227.429 192.455Z" fill="black"></path>
    <path d="M161.241 124.055C157.912 118.165 155.812 111.884 154.547 105.588C147.302 102.758 139.837 101.158 132.927 100.303C134.976 106.954 137.849 114.03 141.89 120.678C148.29 120.822 154.863 121.811 161.241 124.055ZM220.751 173.993C224.066 179.886 226.176 186.163 227.428 192.459C234.683 195.285 242.14 196.892 249.051 197.752C247.019 191.096 244.136 184.017 240.087 177.372C233.68 177.229 227.129 176.243 220.751 173.993Z" fill="black"></path>
    <path d="M135.156 139.181C141.229 137.121 147.726 135.808 154.492 135.736C149.354 131.339 145.212 126.158 141.89 120.678C134.117 120.499 126.548 121.541 119.749 123.098C123.963 128.646 129.079 134.32 135.156 139.181ZM246.825 158.873C240.749 160.923 234.255 162.235 227.488 162.311C232.63 166.708 236.758 171.9 240.087 177.376C247.875 177.548 255.433 176.502 262.225 174.945C258.021 169.394 252.894 163.735 246.825 158.873Z" fill="black"></path>
    <path d="M152.142 149.025C145.814 146.652 140.162 143.183 135.157 139.177C127.779 141.665 121.03 145.254 115.188 149.029C121.03 152.808 127.779 156.385 135.157 158.873C140.162 154.857 145.814 151.398 152.142 149.025ZM229.834 149.025C236.173 151.398 241.821 154.857 246.83 158.877C254.193 156.385 260.946 152.808 266.792 149.025C260.946 145.25 254.193 141.665 246.83 139.177C241.821 143.183 236.173 146.645 229.834 149.025ZM141.891 177.372C145.217 171.9 149.356 166.712 154.497 162.314C147.73 162.239 141.23 160.93 135.153 158.873C129.084 163.734 123.964 169.401 119.75 174.945C126.553 176.506 134.118 177.552 141.891 177.372ZM240.088 120.678C236.759 126.158 232.631 131.339 227.49 135.743C234.256 135.808 240.75 137.121 246.826 139.177C252.895 134.316 258.023 128.646 262.226 123.105C255.434 121.541 247.88 120.502 240.088 120.678ZM161.242 173.992C154.864 176.243 148.295 177.228 141.891 177.372C137.85 184.02 134.981 191.096 132.928 197.752C139.838 196.889 147.303 195.285 154.547 192.459C155.813 186.163 157.913 179.885 161.242 173.992ZM220.752 124.054C227.13 121.814 233.681 120.819 240.088 120.678C244.137 114.03 247.02 106.951 249.052 100.303C242.141 101.158 234.684 102.755 227.428 105.588C226.177 111.884 224.067 118.165 220.752 124.054ZM184.246 187.274C180.813 193.099 176.423 198.068 171.605 202.314C172.777 209.998 175.121 217.257 177.821 223.682C182.575 218.566 187.259 212.543 190.992 205.719C187.914 200.099 185.49 193.93 184.246 187.274ZM171.569 182.668C166.341 186.947 160.516 190.129 154.547 192.459C153.016 200.096 152.735 207.711 153.095 214.676C159.29 211.504 165.765 207.431 171.601 202.314C170.63 195.957 170.465 189.334 171.569 182.668ZM197.74 110.773C201.17 104.948 205.564 99.9718 210.386 95.7363C209.214 88.0527 206.862 80.779 204.166 74.3754C199.423 79.481 194.72 85.4999 190.992 92.3277C194.08 97.9547 196.489 104.121 197.74 110.773Z" fill="black"></path>
    <path d="M210.42 115.379C215.644 111.089 221.462 107.922 227.426 105.588C228.962 97.955 229.249 90.3325 228.886 83.368C222.691 86.5501 216.216 90.613 210.384 95.7366C211.355 102.086 211.523 108.716 210.42 115.379Z" fill="black"></path>
    <path d="M184.273 130.581C181.029 124.763 176.72 119.607 171.57 115.382C172.653 121.952 174.958 128.261 178.366 133.982C173.33 129.629 167.52 126.263 161.24 124.058C164.497 129.867 168.825 135.007 173.993 139.206C167.769 136.837 161.154 135.661 154.495 135.74C159.545 140.079 165.365 143.429 171.653 145.617C164.555 145.527 158.062 146.803 152.144 149.029C158.062 151.247 164.555 152.524 171.653 152.438C165.364 154.624 159.544 157.974 154.495 162.314C161.154 162.392 167.769 161.216 173.993 158.848C168.826 163.047 164.498 168.186 161.24 173.993C167.521 171.787 173.332 168.421 178.369 164.069C174.96 169.789 172.655 176.098 171.574 182.669C176.719 178.446 181.027 173.296 184.273 167.485C183.029 174.022 183.02 180.734 184.248 187.274C187.639 181.55 189.927 175.24 190.993 168.671C192.061 175.239 194.35 181.549 197.742 187.274C198.968 180.734 198.958 174.022 197.713 167.485C200.959 173.299 205.271 178.45 210.423 182.669C209.339 176.096 207.026 169.786 203.606 164.069C208.651 168.421 214.469 171.787 220.757 173.993C217.488 168.192 213.161 163.055 208 158.848C214.644 161.362 221.177 162.383 227.491 162.314C222.438 157.979 216.618 154.625 210.333 152.427C216.989 152.528 223.605 151.376 229.835 149.029C223.607 146.676 216.991 145.518 210.333 145.613C216.619 143.423 222.438 140.074 227.491 135.74C220.83 135.661 214.214 136.836 207.989 139.206C213.156 135.002 217.486 129.863 220.753 124.058C214.468 126.267 208.652 129.633 203.606 133.982C207.025 128.265 209.338 121.955 210.423 115.382C205.268 119.604 200.956 124.76 197.713 130.581C199.022 123.598 198.903 116.975 197.742 110.769C194.348 116.5 192.059 122.816 190.993 129.39C189.929 122.817 187.641 116.502 184.248 110.773C183.02 117.319 183.029 124.037 184.273 130.581Z" fill="white"></path>
    <path d="M184.272 130.58C183.028 124.036 183.019 117.317 184.247 110.769C180.813 104.944 176.42 99.9826 171.602 95.7399C170.631 102.09 170.465 108.716 171.569 115.382C176.719 119.607 181.028 124.763 184.272 130.58ZM197.712 167.485C198.961 174.021 198.97 180.734 197.741 187.274C201.171 193.099 205.565 198.068 210.386 202.314C211.354 195.957 211.526 189.342 210.422 182.668C205.271 178.448 200.96 173.298 197.712 167.485Z" fill="white"></path>
    <path d="M171.567 115.379C166.339 111.089 160.514 107.922 154.546 105.588C155.811 111.884 157.908 118.165 161.241 124.055C167.52 126.261 173.329 129.627 178.366 133.978C174.957 128.258 172.652 121.949 171.571 115.379M210.42 182.669C215.644 186.947 221.462 190.129 227.427 192.459C226.176 186.163 224.065 179.886 220.75 173.993C214.464 171.787 208.647 168.421 203.603 164.069C207.026 169.785 209.338 176.095 210.42 182.669ZM173.99 139.206C168.822 135.007 164.496 129.863 161.241 124.055C154.862 121.815 148.297 120.822 141.89 120.678C145.212 126.162 149.354 131.339 154.492 135.74C160.795 135.668 167.339 136.693 173.99 139.206Z" fill="white"></path>
    <path d="M208.001 158.848C213.16 163.054 217.485 168.191 220.751 173.992C227.125 176.247 233.68 177.228 240.087 177.372C236.761 171.9 232.63 166.712 227.489 162.307C220.833 162.389 214.222 161.215 208.001 158.848ZM171.65 145.617C165.364 143.429 159.545 140.078 154.496 135.74C147.729 135.808 141.229 137.121 135.152 139.177C140.164 143.183 145.817 146.652 152.145 149.025C158.376 146.674 164.995 145.518 171.654 145.617" fill="white"></path>
    <path d="M210.331 152.423C216.616 154.624 222.436 157.977 227.492 162.311C234.252 162.239 240.753 160.919 246.829 158.873C241.82 154.861 236.172 151.398 229.833 149.025C223.604 151.374 216.988 152.527 210.331 152.423ZM152.141 149.025C145.813 151.398 140.161 154.857 135.156 158.877C141.225 160.926 147.726 162.235 154.493 162.311C159.541 157.971 165.362 154.62 171.651 152.434C164.549 152.52 158.06 151.247 152.141 149.025ZM229.833 149.025C236.172 146.652 241.82 143.183 246.829 139.177C240.753 137.121 234.256 135.808 227.492 135.736C222.438 140.071 216.617 143.422 210.331 145.617C217.425 145.523 223.922 146.803 229.833 149.025ZM173.991 158.848C167.34 161.362 160.799 162.383 154.493 162.311C149.355 166.712 145.216 171.9 141.891 177.372C148.294 177.228 154.863 176.247 161.242 173.993C164.496 168.184 168.823 163.045 173.991 158.848Z" fill="white"></path>
    <path d="M207.989 139.206C214.214 136.837 220.83 135.661 227.491 135.74C232.632 131.339 236.76 126.162 240.09 120.675C233.682 120.819 227.128 121.818 220.753 124.055C217.485 129.86 213.155 135 207.989 139.206ZM184.248 187.274C185.495 193.93 187.915 200.1 190.993 205.719C194.081 200.1 196.49 193.93 197.742 187.274C194.351 181.548 192.062 175.237 190.993 168.668C189.928 175.237 187.64 181.549 184.248 187.274ZM184.273 167.485C181.026 173.296 176.717 178.446 171.57 182.669C170.466 189.335 170.628 195.958 171.606 202.314C176.424 198.068 180.814 193.103 184.248 187.274C183.02 180.734 183.029 174.022 184.273 167.485ZM161.244 173.993C157.914 179.886 155.814 186.163 154.549 192.459C160.517 190.129 166.342 186.951 171.57 182.669C172.655 176.098 174.962 169.789 178.373 164.069C173.335 168.42 167.524 171.786 161.244 173.993ZM197.742 110.773C196.49 104.121 194.081 97.9548 190.993 92.3279C187.915 97.9548 185.492 104.121 184.248 110.773C187.643 116.501 189.931 122.817 190.993 129.39C192.059 122.817 194.348 116.502 197.742 110.773Z" fill="white"></path>
    <path d="M197.712 130.58C200.956 124.761 205.268 119.605 210.422 115.382C211.526 108.716 211.353 102.09 210.386 95.7399C205.565 99.9754 201.171 104.944 197.741 110.769C198.971 117.316 198.961 124.037 197.712 130.58Z" fill="white"></path>
    <path d="M220.751 124.055C224.066 118.165 226.176 111.884 227.427 105.588C221.459 107.925 215.645 111.089 210.421 115.379C209.337 121.953 207.025 128.264 203.604 133.982C208.65 129.634 214.466 126.264 220.751 124.055Z" fill="white"></path>
    <path d="M347.464 148.637C347.464 156.385 344.731 167.075 333.765 167.075C320.519 167.075 320.519 152.233 320.519 149.108C320.519 146.084 320.519 130.214 334.124 130.214C346.511 130.214 347.464 143.905 347.464 148.637ZM320.717 107.249H311.829V164.332L311.642 172.835H320.249L320.436 165.655C321.371 167.075 322.417 168.675 325.056 170.458C329.134 173.216 333.376 173.496 335.649 173.496C342.167 173.496 348.513 170.76 352.289 165.371C354.655 162.243 356.812 157.238 356.812 148.065C356.812 137.671 353.605 132.946 351.243 130.214C346.899 125.288 340.941 124.155 336.213 124.155C325.434 124.155 321.939 130.113 320.717 132.281V107.249ZM371.751 150.528C371.751 146.271 371.751 131.256 385.932 131.256C396.431 131.256 398.98 140.119 398.98 148.637C398.98 152.038 398.502 158.841 395.104 163.476C392.084 167.639 387.349 168.114 385.08 168.114C372.6 168.114 371.751 156.285 371.751 150.528ZM363.244 191.075H372.046V167.539C374.584 171.702 379.686 174.629 386.597 174.629C397.934 174.629 408.242 166.881 408.242 149.202C408.242 131.62 398.498 124.634 388.287 124.634C384.418 124.634 376.58 125.763 372.129 133.227L371.949 125.389H362.96C363.147 129.912 363.244 131.052 363.244 133.13V191.075Z" fill="white"></path>
  </g>
  <defs>
    <clipPath id="clip0_261_4297">
      <rect width="320" height="197.753" fill="white" transform="translate(90.5 50.6237)"></rect>
    </clipPath>
  </defs>
</svg>
