<?xml version="1.0" encoding="UTF-8"?>
<svg xmlns="http://www.w3.org/2000/svg" width="500" height="300" viewBox="0 0 500 300" fill="none">
  <path d="M51.9487 169.203C47.0949 169.203 44.3801 164.596 44.3801 156.287C44.3801 147.813 47.0949 143.371 51.9487 143.371C56.8024 143.371 59.5172 147.896 59.5172 156.287C59.5172 164.76 56.8024 169.203 51.9487 169.203ZM51.9487 139.998C42.0767 139.998 36.5648 147.402 36.5648 156.369C36.5648 165.336 42.0767 172.74 51.9487 172.74C61.8207 172.74 67.3325 165.336 67.3325 156.369C67.3325 147.32 61.8207 139.998 51.9487 139.998ZM120.641 139.998C115.952 139.998 113.402 142.055 111.921 144.605H111.592V140.656H104.188V172.164H111.592V151.762C111.592 147.073 113.978 144.358 117.844 144.358C121.546 144.358 123.192 146.826 123.192 150.528V172.082H130.596V150.446C130.596 143.947 127.14 139.998 120.641 139.998ZM147.46 139.998C140.632 139.998 135.449 142.877 135.449 149.047C135.449 154.313 139.069 157.11 143.1 158.097L149.352 159.66C152.725 160.483 154.206 161.717 154.206 164.349C154.206 167.557 151.903 169.367 147.954 169.367C143.676 169.367 141.455 167.311 140.797 162.046L134.133 163.938C134.544 169.367 139.563 172.658 147.131 172.658C155.605 172.658 160.212 168.709 160.212 162.375C160.212 156.451 156.098 153.983 151.82 152.914L145.815 151.433C142.771 150.693 141.455 149.294 141.455 147.238C141.455 144.687 143.594 143.207 146.802 143.207C150.586 143.207 152.89 145.263 153.219 149.212L159.471 147.32C158.731 143.042 154.371 139.998 147.46 139.998ZM178.639 169.203C173.786 169.203 171.071 164.596 171.071 156.287C171.071 147.813 173.786 143.371 178.639 143.371C183.493 143.371 186.208 147.896 186.208 156.287C186.208 164.76 183.493 169.203 178.639 169.203ZM178.639 139.998C168.767 139.998 163.255 147.402 163.255 156.369C163.255 165.336 168.767 172.74 178.639 172.74C188.511 172.74 194.023 165.336 194.023 156.369C194.023 147.32 188.511 139.998 178.639 139.998ZM214.919 139.998C210.23 139.998 207.679 142.055 206.199 144.605H205.787V140.656H198.383V172.164H205.787V151.762C205.787 147.073 208.173 144.358 212.04 144.358C215.742 144.358 217.387 146.826 217.387 150.528V172.082H224.791V150.446C224.791 143.947 221.418 139.998 214.919 139.998ZM325.239 169.203C320.385 169.203 317.67 164.596 317.67 156.287C317.67 147.813 320.385 143.371 325.239 143.371C330.092 143.371 332.807 147.896 332.807 156.287C332.725 164.76 330.092 169.203 325.239 169.203ZM325.239 139.998C315.367 139.998 309.855 147.402 309.855 156.369C309.855 165.336 315.367 172.74 325.239 172.74C335.111 172.74 340.622 165.336 340.622 156.369C340.54 147.32 335.111 139.998 325.239 139.998ZM393.849 139.998C389.16 139.998 386.609 142.055 385.129 144.605H384.717V140.656H377.313V172.164H384.717V151.762C384.717 147.073 387.103 144.358 390.97 144.358C394.672 144.358 396.317 146.826 396.317 150.528V172.082H403.721V150.446C403.803 143.947 400.43 139.998 393.849 139.998ZM420.668 139.998C413.84 139.998 408.657 142.877 408.657 149.047C408.657 154.313 412.277 157.11 416.308 158.097L422.56 159.66C425.933 160.483 427.414 161.717 427.414 164.349C427.414 167.557 425.11 169.367 421.161 169.367C416.884 169.367 414.662 167.311 414.004 162.046L407.341 163.938C407.752 169.367 412.77 172.658 420.339 172.658C428.812 172.658 433.419 168.709 433.419 162.375C433.419 156.451 429.306 153.983 425.028 152.914L419.023 151.433C415.979 150.693 414.662 149.294 414.662 147.238C414.662 144.687 416.801 143.207 420.01 143.207C423.794 143.207 426.097 145.263 426.427 149.212L432.679 147.32C432.021 143.042 427.661 139.998 420.668 139.998ZM451.929 169.203C447.075 169.203 444.361 164.596 444.361 156.287C444.361 147.813 447.075 143.371 451.929 143.371C456.783 143.371 459.498 147.896 459.498 156.287C459.415 164.76 456.701 169.203 451.929 169.203ZM451.929 139.998C442.057 139.998 436.545 147.402 436.545 156.369C436.545 165.336 442.057 172.74 451.929 172.74C461.801 172.74 467.313 165.336 467.313 156.369C467.231 147.32 461.801 139.998 451.929 139.998ZM488.127 139.998C483.437 139.998 480.887 142.055 479.406 144.605H478.995V140.656H471.591V172.164H478.995V151.762C478.995 147.073 481.381 144.358 485.247 144.358C488.949 144.358 490.595 146.826 490.595 150.528V172.082H497.999V150.446C498.081 143.947 494.708 139.998 488.127 139.998ZM32.2047 127.987H24.3893V160.483C24.3893 165.748 22.3327 168.874 17.5612 168.874C12.872 168.956 10.8153 165.665 10.8153 159.907V153.901L3 155.793V158.508C3 166.735 7.11333 173.069 17.5612 173.069C28.0913 173.069 32.1224 166.817 32.1224 158.508V127.987H32.2047ZM79.1789 127.987H71.7749V172H79.1789V151.762C79.1789 147.073 81.5647 144.358 85.4312 144.358C89.1332 144.358 90.7785 146.826 90.7785 150.528V172.082H98.1825V150.446C98.1825 143.947 94.8096 139.916 88.2283 139.916C83.5391 139.916 80.9888 141.973 79.508 144.523H79.0967V127.987H79.1789ZM305.412 127.987H297.597V160.483C297.597 165.748 295.54 168.874 290.769 168.874C286.08 168.874 283.941 165.501 283.941 159.824V153.819L276.125 155.793V158.508C276.125 166.735 280.239 173.069 290.687 173.069C301.217 173.069 305.248 166.817 305.248 158.508V127.987H305.412ZM352.387 127.987H344.983V172H352.387V151.762C352.387 147.073 354.772 144.358 358.639 144.358C362.341 144.358 363.986 146.826 363.986 150.528V172.082H371.39V150.446C371.39 143.947 368.017 139.916 361.436 139.916C356.747 139.916 354.196 141.973 352.716 144.523H352.304V127.987H352.387ZM249.306 168.462C243.301 168.462 239.517 163.526 239.517 158.344C239.517 155.053 240.997 152.091 243.383 150.364L257.615 165.912C254.983 167.475 252.021 168.462 249.306 168.462ZM263.127 160.729L250.787 147.155C253.008 146.25 255.147 145.921 256.875 145.921C261.975 145.921 265.102 148.883 265.102 153.983C265.184 156.287 264.526 158.59 263.127 160.729ZM249.142 145.345L246.427 142.302C244.041 139.669 243.383 138.024 243.383 136.049C243.383 132.43 245.687 130.291 249.389 130.291C253.091 130.291 255.312 132.43 255.312 136.296C255.23 139.998 253.502 143.371 249.142 145.345ZM249.471 127C240.751 127 236.473 131.854 236.473 137.859C236.473 141.15 237.871 144.441 241.491 148.389L241.573 148.554C235.403 151.515 232.606 156.287 232.606 161.223C232.606 167.722 237.542 173.152 245.275 173.152C249.718 173.152 254.818 171.342 259.507 168.051L263.292 172.164H273.164V171.835L265.102 162.951C268.475 158.919 270.449 154.559 270.449 150.693C270.449 145.921 267.241 142.713 262.222 142.713C259.59 142.713 256.628 143.453 254.654 144.194L254.489 143.947C259.261 141.397 261.317 139.011 261.317 135.638C261.317 130.784 257.039 127 249.471 127Z" fill="white"></path>
</svg>
