<?xml version="1.0" encoding="UTF-8"?>
<svg xmlns="http://www.w3.org/2000/svg" width="500" height="300" viewBox="0 0 500 300" fill="none">
  <g clip-path="url(#clip0_274_5790)">
    <path d="M309.204 72C310.5 74.5 310.884 76.172 312.228 78.006C315.812 82.934 323.386 92.916 327.348 96.99C319.914 102.45 292.376 120.062 284.69 120.58C280.434 120.874 266.994 111.466 263.172 108.092C275.058 100.504 291.928 87.722 301.56 77.572C303.17 75.864 305 74.5 309.204 72Z" fill="white"></path>
    <path d="M327.346 96.99C343.166 113.23 372.3 132.788 392.88 143.526C403.492 149.07 416.54 152.99 426.424 158.786C428.23 159.85 429.938 158.534 429.168 162.23C387.056 159.374 346.05 148.538 306.99 133.152C236.822 158.996 162.104 168.054 87.4004 162.23L109.086 158.03C161.376 153.858 218.188 136.82 263.156 108.106C266.978 111.48 280.418 120.874 284.674 120.594C292.36 120.076 319.884 102.478 327.332 97.004L327.346 96.99Z" fill="white"></path>
  </g>
  <path d="M59.2722 213.8L75.175 176.429H82.7022L98.605 213.8H90.0705L86.6779 205.478H70.9872L67.5946 213.8H59.2722ZM73.9027 198.268H83.7624L78.8326 186.235L73.9027 198.268ZM102.899 213.8V188.632H108.436V208.767H120.984V213.8H102.899ZM125.16 213.8V188.632H130.697V208.767H143.244V213.8H125.16ZM162.052 214.33C156.433 214.33 150.761 212.369 146.308 208.393L151.132 202.615C154.472 205.372 157.97 207.121 162.211 207.121C165.551 207.121 167.565 205.796 167.565 203.622V203.516C167.565 201.449 166.293 200.389 160.091 198.798C152.616 196.89 147.793 194.823 147.793 187.455V187.349C147.793 180.616 153.199 176.164 160.78 176.164C166.187 176.164 170.799 177.86 174.562 180.881L170.321 187.03C167.035 184.751 163.801 183.373 160.674 183.373C157.546 183.373 155.903 184.804 155.903 186.606V186.712C155.903 189.151 157.493 189.946 163.907 191.589C171.435 193.551 175.675 196.254 175.675 202.721V202.827C175.675 210.195 170.056 214.33 162.052 214.33ZM181.327 213.8V188.632H191.61C197.614 188.632 201.246 192.192 201.246 197.333V197.405C201.246 203.23 196.715 206.25 191.071 206.25H186.864V213.8H181.327ZM186.864 201.324H191.25C194.019 201.324 195.637 199.67 195.637 197.513V197.441C195.637 194.96 193.911 193.63 191.143 193.63H186.864V201.324ZM205.595 213.8V188.632H211.132V213.8H205.595ZM217.421 213.8V188.632H228.927C232.126 188.632 234.607 189.531 236.261 191.185C237.663 192.587 238.418 194.565 238.418 196.938V197.01C238.418 201.072 236.225 203.625 233.025 204.812L239.173 213.8H232.702L227.309 205.746H222.958V213.8H217.421ZM222.958 200.857H228.567C231.264 200.857 232.81 199.419 232.81 197.297V197.225C232.81 194.852 231.156 193.63 228.459 193.63H222.958V200.857ZM243.403 213.8V188.632H262.387V193.558H248.904V198.664H260.769V203.589H248.904V208.874H262.567V213.8H243.403ZM284.815 213.8V176.694H292.978V191.377H308.033V176.694H316.196V213.8H308.033V198.904H292.978V213.8H284.815ZM323.656 213.8V188.632H342.64V193.558H329.157V198.664H341.022V203.589H329.157V208.874H342.82V213.8H323.656ZM345.585 213.8L356.371 188.453H361.477L372.263 213.8H366.474L364.173 208.155H353.531L351.23 213.8H345.585ZM355.509 203.266H362.196L358.852 195.104L355.509 203.266ZM376.147 213.8V188.632H381.684V208.767H394.232V213.8H376.147ZM400.687 213.8V193.738H393.029V188.632H413.882V193.738H406.224V213.8H400.687ZM418.14 213.8V188.632H423.677V198.592H433.888V188.632H439.425V213.8H433.888V203.697H423.677V213.8H418.14Z" fill="white"></path>
  <defs>
    <clipPath id="clip0_274_5790">
      <rect width="341.964" height="91.924" fill="white" transform="translate(87.4004 72)"></rect>
    </clipPath>
  </defs>
</svg>
