<?xml version="1.0" encoding="UTF-8"?>
<svg xmlns="http://www.w3.org/2000/svg" width="500" height="300" viewBox="0 0 500 300" fill="none">
  <path d="M467.908 167.864C467.908 159.725 471.559 154.705 476.67 154.705C479.299 154.705 481.709 155.922 483.462 158.051V176.535C481.417 179.35 478.935 180.871 476.232 180.871C471.339 180.871 467.908 176.005 467.908 167.864ZM472.362 187.718C476.89 187.718 481.052 185.132 483.462 180.872V186.881H495C493.539 183.915 493.247 178.59 493.247 174.71V131.658L481.636 133.483C483.17 136.298 483.462 141.622 483.462 145.73V152.424C481.124 149.457 477.766 147.86 474.188 147.86C465.133 147.86 457.903 156.075 457.903 168.018C457.903 180.036 464.184 187.718 472.362 187.718ZM431.688 186.882H444.832C443.517 184.069 443.079 178.667 443.079 174.255V162.921C445.344 158.89 448.191 156.455 452.062 156.455C453.815 156.455 455.64 156.759 456.808 157.217L456.225 148.316C455.567 148.012 454.325 147.784 453.084 147.784C449.141 147.784 445.197 151.055 443.079 158.357V148.316L431.469 150.14C433.002 153.031 433.294 158.356 433.294 162.387V174.253C433.294 178.666 432.929 184.066 431.688 186.882ZM409.196 181.101C404.085 181.101 400.653 176.309 400.653 167.865C400.653 159.422 404.085 154.63 409.05 154.63C414.162 154.63 417.595 159.422 417.595 167.865C417.595 176.309 414.235 181.101 409.196 181.101ZM409.123 187.718C419.711 187.718 427.672 179.276 427.672 167.638C427.672 156.151 419.785 147.861 409.123 147.861C398.535 147.861 390.575 156.228 390.575 167.865C390.575 179.427 398.462 187.718 409.123 187.718ZM369.763 186.882H382.981C381.666 184.069 381.228 178.667 381.228 174.255V154.933H389.698V148.694H381.155C381.081 146.87 381.008 145.045 381.008 143.218C381.008 139.567 382.541 137.817 385.536 137.817C387.069 137.817 388.895 138.274 390.502 139.11L389.626 131.808C387.873 131.199 385.609 130.819 383.564 130.819C375.97 130.819 371.37 135.841 371.37 144.283V148.696H365.162L363.776 154.933H371.37V174.255C371.37 178.666 371.005 184.069 369.763 186.882ZM354.209 187.643C357.057 187.643 360.05 186.807 362.023 185.818L362.533 179.732C361.366 180.265 359.686 180.949 358.08 180.949C355.304 180.949 353.698 179.427 353.698 176.309V154.933H361.511L362.899 148.694H353.698V138.427L343.985 140.556V148.696H338.655L338.947 154.933H343.985V177.373C343.985 183.99 347.564 187.643 354.209 187.643ZM311.782 186.881H324.927C323.613 184.067 323.174 178.666 323.174 174.253V162.92C325.438 158.889 328.287 156.454 332.156 156.454C333.909 156.454 335.734 156.758 336.902 157.215L336.319 148.314C335.661 148.011 334.419 147.783 333.178 147.783C329.235 147.783 325.292 151.054 323.174 158.356V148.316L311.563 150.14C313.096 153.031 313.388 158.356 313.388 162.387V174.253C313.388 178.666 313.024 184.065 311.782 186.881ZM282.939 176.612C282.939 174.102 284.399 172.124 287.905 171.44L295.572 169.766V176.384C293.674 178.817 290.752 181.024 287.685 181.024C284.691 181.024 282.939 179.275 282.939 176.612ZM283.961 187.641C288.853 187.641 293.089 184.37 295.572 180.188C295.644 182.546 295.937 185.359 296.449 186.881H307.11C305.795 184.523 305.284 180.339 305.284 177.22V162.161C305.284 153.184 300.246 147.86 290.315 147.86C285.786 147.86 281.04 149.001 277.024 151.131L276.001 158.737C281.04 155.695 284.472 154.63 288.124 154.63C292.796 154.63 295.572 156.912 295.572 162.085V164.443L285.786 166.116C277.389 167.561 273.518 171.441 273.518 177.45C273.518 183.46 277.754 187.644 283.961 187.644M225.031 186.882H239.272C237.81 183.916 237.445 176.918 237.445 172.125V163.454H257.6V172.125C257.6 176.918 257.162 183.916 255.702 186.882H270.015C268.553 183.916 268.115 176.918 268.115 172.125V148.391C268.115 143.6 268.553 136.601 270.015 133.634H255.702C257.162 136.602 257.6 143.599 257.6 148.391V155.922H237.445V148.391C237.445 143.6 237.81 136.601 239.272 133.634H225.031C226.419 136.602 226.93 143.599 226.93 148.391V172.124C226.93 176.917 226.419 183.916 225.031 186.882ZM193.924 154.477C197.867 154.477 200.788 157.369 201.518 163.454H186.475C187.205 157.901 189.835 154.477 193.924 154.477ZM195.969 187.643C200.351 187.643 205.169 186.274 208.092 184.144L208.967 176.994C205.462 179.58 201.518 180.949 197.648 180.949C191.368 180.949 187.205 176.994 186.402 169.539H210.793C211.085 156.076 204.221 147.86 193.851 147.86C183.409 147.86 176.472 156.684 176.472 167.788C176.472 179.427 184.212 187.643 195.969 187.643ZM136.892 186.882H149.818C148.649 184.22 148.284 178.743 148.284 174.56V159.193C150.255 156.758 152.593 155.009 155.441 155.009C158.727 155.009 161.282 157.367 161.282 161.854V174.559C161.282 178.742 160.917 184.219 159.748 186.881H172.748C171.506 184.067 171.068 178.666 171.068 174.253V160.488C171.068 152.577 166.614 147.86 159.895 147.86C154.856 147.86 150.913 150.75 148.284 155.162V131.658L136.673 133.483C138.207 136.298 138.499 141.622 138.499 145.73V174.255C138.499 178.667 138.134 184.066 136.892 186.882ZM104.835 186.882H119.367C117.906 183.916 117.394 176.918 117.394 172.125V141.013H119.659C124.698 141.013 129.517 141.545 134.191 143.98L132.584 133.634H90.9589L89.3537 143.98C94.0265 141.545 99.1388 141.012 104.178 141.012H106.88V172.124C106.88 176.917 106.368 183.916 104.835 186.882ZM73.0584 182.057L72.6618 179.741C72.4635 177.49 72.9927 175.372 73.9853 173.916C76.3685 170.342 79.2807 168.242 79.2807 160.479C79.2807 153.596 74.1179 148.698 67.8299 148.698C66.3927 148.698 65.4064 148.635 63.7267 147.869L63.709 147.892C66.1768 150.623 66.3068 155.984 66.3068 156.708H66.2588C64.6044 151.544 61.211 147.771 55.6504 145.124C55.9156 147.64 55.1477 150.883 54.9482 151.677H54.9229C54.9229 151.611 54.9229 144.264 49.4293 140.955L47.9062 140.027C46.7809 139.365 46.517 138.903 46.1192 137.182L44.1995 128.776H39.6366L39.6316 128.747L45.1253 126.327C46.2518 125.864 47.1118 125.267 47.3101 124.342C47.0449 124.54 46.5827 124.804 45.7883 124.804C44.8613 124.804 44.0013 124.473 43.4721 123.68H47.1118C47.7079 123.68 48.1714 123.216 48.1714 122.686V121.302C48.1714 121.144 48.1086 120.992 47.9968 120.88C47.885 120.769 47.7334 120.706 47.5753 120.706H44.4092C44.3448 120.706 44.281 120.718 44.2215 120.743C44.1619 120.767 44.1079 120.803 44.0623 120.849C44.0168 120.894 43.9807 120.949 43.9561 121.008C43.9316 121.068 43.919 121.131 43.9192 121.196V121.265C43.9192 121.402 44.0088 121.578 44.1187 121.659L44.4951 121.936C44.5787 121.997 44.641 122.083 44.6727 122.181C44.7045 122.279 44.7043 122.385 44.672 122.484C44.6397 122.582 44.577 122.668 44.493 122.728C44.409 122.788 44.3081 122.821 44.2046 122.82H42.4113V121.203C42.4113 120.476 43.0074 119.947 43.6691 119.947H47.0878V119.916C46.4917 119.577 45.4561 119.245 45.4561 119.245C46.2518 118.714 46.8453 117.656 47.0449 116.067C47.0449 116.067 44.8171 116.459 44.7944 116.465C44.2614 116.604 43.5618 116.673 43.0932 117.274L41.8808 115.97L46.4387 114.745C48.5099 114.189 50.7364 113.285 52.3643 112.244C56.3993 109.669 58.3252 105.879 58.8127 102.772L57.7127 101.657C57.2631 104.335 55.9712 106.56 54.1563 108.372C54.356 107.747 54.4806 107.1 54.5276 106.445C54.5529 106.064 54.5567 105.683 54.5441 105.303C55.2803 104.019 56.0053 101.765 55.9888 99.9549L54.7916 98.8144C54.8522 99.9258 54.4645 101.314 54.0086 102.064C53.2559 99.2577 51.0029 95.6824 47.6422 93L46.7532 93.8891C47.9428 95.1192 49.9824 97.3432 50.8134 98.995C47.9719 98.1287 44.9737 97.8218 42.8356 97.8066L41.5601 99.0809C45.6885 99.2198 49.9003 100.586 52.0132 101.619C52.4299 102.809 52.6308 104.105 52.6308 105.053C52.6308 107.837 51.7467 110.019 48.645 111.628C49.2663 110.197 49.548 108.584 49.6616 107.025L48.4998 105.862C48.472 107.205 47.3505 111.101 45.7062 112.621L42.9 113.252C44.4799 110.369 45.7239 106.372 45.9487 103.313L44.7742 102.137C44.61 104.791 42.3746 110.272 40.085 113.44C39.7233 113.916 39.3169 114.356 38.8713 114.755C38.8536 114.742 42.5009 118.582 42.5009 118.582H40.5586C39.4333 118.582 38.7715 118.648 38.0428 119.509L37.6463 119.972C37.1828 120.634 36.3076 121.164 35.5499 121.164C34.2933 121.164 33.5014 120.089 33.4092 119.443H36.785L37.4468 118.714V118.582C36.1523 118.582 36.1119 117.192 34.6014 117.192C33.9396 117.192 33.2779 117.458 32.8144 117.92V116.596C33.4105 116.133 34.5357 115.736 36.1232 115.736H38.0428L36.9833 114.675C36.9833 114.675 34.2781 113.982 34.0407 113.919C34.1165 113.681 34.8616 111.284 34.8616 108.956C34.8616 105.548 33.8336 102.202 32.3661 99.1516L31.3077 100.216C31.8887 101.833 32.798 104.756 32.798 107.967C32.798 109.732 32.4254 111.48 31.775 113.119C29.1355 111.14 25.9732 106.836 25.6208 100.532L24.3769 101.775C24.464 106.694 26.7082 110.897 27.8095 112.276C26.2839 111.874 21.9698 110.754 20.304 110.325C19.4452 109.591 17.7933 107.266 17.2477 104.577L16.1414 105.681C16.3056 106.979 16.8992 108.629 17.374 109.581C16.8394 109.444 16.308 109.295 15.7802 109.134C14.575 108.002 13.5499 106.693 12.7404 105.252L12.753 105.255C13.8985 100.494 19.161 97.0868 22.3638 96.4099L21.3093 95.3566C17.4271 96.3732 13.531 98.9433 11.6038 102.628C11.0683 101.007 10.7778 99.3045 10.6604 97.5983C10.5758 96.2949 10.577 94.979 10.5897 93.6706L9.25096 95.0093C9.22949 95.5018 9.20929 95.9918 9.20424 96.4869C9.14614 102.166 10.5328 105.368 11.9372 107.617C8.96176 106.328 6.47382 103.533 6.16819 100.005L5 101.174C5.25006 104.859 8.4326 107.755 10.5278 108.972C12.7972 110.291 15.2864 111.143 17.8085 111.805C21.183 112.78 26.419 114.281 30.4313 115.438V117.82L30.4022 117.825C30.0297 116.704 28.7478 116.262 27.7173 116.133L22.9523 115.602C23.2832 119.045 25.5337 121.361 29.0421 121.825C27.5859 126.391 25.9303 133.143 25.9303 137.775C25.9303 140.291 26.3937 143.005 26.8572 144.263C27.3877 145.785 27.519 147.572 27.1881 149.558C26.9898 150.682 26.592 152.602 26.3268 154.059C25.9959 155.912 25.809 158.174 26.6577 160.546C28.8981 166.801 31.5565 165.708 31.9531 169.282L33.2109 180.535L21.9584 179.343L20.7005 186.756H90.4638L90.5964 184.042L73.0584 182.057ZM37.9784 169.548L41.7508 170.607L38.2436 177.755L37.9784 169.548ZM47.444 179.344L46.9805 182.057L41.5525 181.462L48.2383 172.593L51.3489 173.518C52.7381 173.982 54.7903 174.38 57.1734 174.38H58.7622C59.8862 178.019 61.6745 179.012 62.998 180.997L47.444 179.343V179.344Z" fill="white"></path>
</svg>
