<?xml version="1.0" encoding="UTF-8"?>
<svg xmlns="http://www.w3.org/2000/svg" width="500" height="300" viewBox="0 0 500 300" fill="none">
  <path d="M251.5 65.8C135.441 65.8 41.5 103.327 41.5 149.8C41.5 196.025 135.441 233.8 251.5 233.8C367.559 233.8 461.5 196.025 461.5 149.8C461.5 103.327 367.559 65.8 251.5 65.8Z" fill="white"></path>
  <path d="M251.499 75.2439C139.168 75.2439 47.9609 108.794 47.9609 149.8C47.9609 190.806 138.92 224.108 251.499 224.108C364.079 224.108 455.038 190.558 455.038 149.8C455.038 108.794 363.831 75.2439 251.499 75.2439ZM251.499 219.386C140.659 219.386 50.9432 188.072 50.9432 149.8C50.9432 111.528 140.659 80.2143 251.499 80.2143C362.34 80.2143 452.056 111.528 452.056 149.8C452.056 187.824 362.34 219.386 251.499 219.386ZM204.778 160.486C203.038 163.22 199.31 167.694 196.576 167.694C195.831 167.694 195.334 167.197 195.334 166.451C195.334 165.208 195.831 163.966 195.831 163.966L207.263 131.907H197.819L196.576 135.386C194.837 132.652 192.6 131.658 189.866 131.658C178.931 131.658 160.789 147.563 160.789 163.717C160.789 170.676 165.014 174.652 170.73 174.652C176.446 174.652 181.665 169.93 185.393 164.214H185.641C185.393 165.208 185.144 166.7 185.144 168.191C185.144 171.67 186.884 174.404 190.363 174.404C198.316 174.404 205.026 163.966 207.263 160.486H204.778ZM193.594 143.339C193.594 143.339 190.612 150.794 187.381 156.51C184.896 161.232 179.18 168.439 175.204 168.439C172.221 168.439 170.73 166.451 170.73 162.723C170.73 150.794 183.405 134.392 190.612 134.392C193.097 134.392 194.34 136.38 194.34 139.114C194.34 140.605 194.091 141.847 193.594 143.339ZM336.245 169.93C331.026 169.93 328.541 165.954 328.541 161.729C328.541 160.238 328.789 158.001 329.038 156.759C349.417 156.013 358.612 148.806 358.612 140.853C358.612 135.137 353.89 131.161 346.434 131.161C329.535 131.161 318.103 147.066 318.103 160.486C318.103 169.93 323.819 174.901 333.263 174.901C342.458 174.901 351.405 167.694 355.133 161.729H352.647C349.417 164.96 343.452 169.93 336.245 169.93ZM345.192 133.895C348.422 133.895 349.665 136.38 349.665 139.114C349.665 143.339 344.198 153.528 329.535 153.776C331.026 145.078 337.736 133.895 345.192 133.895ZM222.174 173.41H212.979C212.979 173.41 220.931 151.043 223.168 143.339C223.665 141.847 223.914 140.356 223.914 139.611C223.914 139.114 223.665 138.617 222.92 138.617C221.925 138.617 219.689 139.611 215.215 145.824H212.73C217.949 137.374 224.411 131.658 228.884 131.658C231.866 131.658 233.109 133.398 233.109 135.883C233.109 137.623 232.363 141.102 230.375 148.309C238.825 133.149 244.044 130.913 247.523 131.161C251.002 131.161 252.991 133.646 252.991 136.38C252.991 139.362 250.505 143.09 247.026 143.09C244.541 143.09 243.05 141.35 243.05 138.12V137.126C240.564 138.368 234.6 143.836 227.144 161.978L222.174 173.41ZM159.547 117.989C158.056 117.492 156.067 117.244 154.328 117.244C135.689 117.244 119.286 135.386 119.286 153.528C119.286 166.948 127.488 170.427 134.198 170.427C142.15 170.427 147.618 167.445 152.837 162.723H155.57C151.594 168.191 143.144 175.149 130.967 175.149C114.316 175.149 107.854 164.96 107.854 153.528C107.854 131.907 130.718 113.765 154.825 113.765C164.269 113.765 169.488 117.244 169.488 121.966C169.488 124.948 167.251 127.682 163.523 127.682C160.541 127.682 158.056 125.942 158.056 122.463C158.304 121.22 158.801 119.481 159.547 117.989ZM302.943 131.907H312.387L301.204 163.469C300.955 163.966 300.458 165.457 300.458 166.948C300.458 167.942 300.955 168.439 301.701 168.439C304.186 168.439 308.659 164.463 311.144 160.735H313.63C309.405 167.694 301.949 174.901 295.239 174.901C292.008 174.901 290.02 172.913 290.02 169.93C290.02 168.191 290.517 165.208 292.257 160.735L302.943 131.907ZM316.363 119.729C316.363 123.705 312.884 127.682 309.156 127.682C306.92 127.682 305.18 126.191 305.18 123.457C305.18 119.481 308.659 115.504 312.387 115.504C314.624 115.256 316.363 116.747 316.363 119.729ZM263.18 173.41H253.736C253.736 173.41 261.689 151.043 263.925 143.339C264.422 141.847 264.671 140.356 264.671 139.611C264.671 139.114 264.422 138.617 263.677 138.617C262.683 138.617 260.198 139.611 255.973 145.824H253.488C258.707 137.374 265.168 131.658 269.641 131.658C272.624 131.658 273.866 133.398 273.866 135.883C273.866 137.623 273.121 141.102 271.133 148.309C279.582 133.149 284.801 130.913 288.28 131.161C291.76 131.161 293.748 133.646 293.748 136.38C293.748 139.362 291.263 143.09 287.783 143.09C285.298 143.09 283.807 141.35 283.807 138.12V137.126C281.322 138.368 275.357 143.836 267.902 161.978L263.18 173.41ZM373.026 173.41H363.582C363.582 173.41 371.535 151.043 373.772 143.339C374.269 141.847 374.517 140.356 374.517 139.611C374.517 139.114 374.269 138.617 373.523 138.617C372.529 138.617 370.044 139.611 365.819 145.824H363.334C368.553 137.374 375.014 131.658 379.488 131.658C382.47 131.658 383.712 133.398 383.712 135.883C383.712 137.623 382.967 141.102 380.979 148.309C389.428 133.149 394.647 130.913 398.127 131.161C401.606 131.161 403.594 133.646 403.594 136.38C403.594 139.362 401.109 143.09 397.63 143.09C395.144 143.09 393.653 141.35 393.653 138.12V137.126C391.168 138.368 385.204 143.836 377.748 161.978L373.026 173.41Z" fill="black"></path>
</svg>
