<?xml version="1.0" encoding="UTF-8"?>
<svg xmlns="http://www.w3.org/2000/svg" width="500" height="300" viewBox="0 0 500 300" fill="none">
  <path fill-rule="evenodd" clip-rule="evenodd" d="M134 20V279.996H144.517V185.81H164.482C170.993 185.81 180.356 186.556 185.035 193.528C188.95 199.255 189.713 206.251 189.713 213.893C189.713 224.04 187.899 235.381 180.26 239.988C174.434 243.723 167.641 242.603 161.321 242.976V279.997H207.729C200.299 275.66 197.673 264.6 197.673 251.788V213.412C197.673 193.108 204.835 183.649 220.194 183.649C234.499 183.649 242.998 191.615 242.998 210.671V217.649H226.194V212.541C226.194 204.566 225.432 200.582 220.956 200.454C215.717 200.33 214.48 204.069 214.48 210.174V256.401C214.48 261.634 216.29 264.749 220.67 264.749C226.385 264.749 226.576 258.768 226.576 252.718V245.396H220.575V228.592H243.381V256.619L314.178 23.3996V280H323.516V185.815H362.025V204.529H340.323V221.717H361.355V240.431H340.323V260.675H363.171V279.999H366.463V20H134Z" fill="white"></path>
  <path fill-rule="evenodd" clip-rule="evenodd" d="M170.802 223.789C168.122 226.542 164.484 226.042 161.323 226.169V202.614H163.142C165.823 202.614 168.122 202.614 169.749 203.366C172.622 205.12 172.909 210.633 172.909 214.267C172.909 217.523 172.524 221.282 170.802 223.789Z" fill="white"></path>
  <path d="M282.265 201.13C301.733 201.13 300.099 223.416 300.09 223.537H286.681C287.188 217.085 284.981 214.88 281.929 214.878C278.873 214.878 277.006 217.932 277.006 220.478C277.006 223.027 278.022 225.064 279.892 227.947C281.754 230.828 291.899 244.188 291.943 244.247V234.909H304.844V279.996H275.815C270.383 279.996 254.765 275.991 254.765 259.187C254.765 242.378 268.177 235.25 268.177 235.25C260.901 226.622 262.058 217.995 262.066 217.935C262.066 217.935 262.745 201.13 282.265 201.13ZM276.326 247.472C276.326 247.472 270.044 250.018 270.044 258.336C270.045 266.655 282.435 272.936 289.564 265.296L276.326 247.472Z" fill="white"></path>
</svg>
