<?xml version="1.0" encoding="UTF-8"?>
<svg xmlns="http://www.w3.org/2000/svg" width="500" height="300" viewBox="0 0 500 300" fill="none">
  <g clip-path="url(#clip0_261_1111)">
    <path d="M462.104 181.151C466.467 188.269 473.355 188.269 475.269 188.269H497.771L471.136 156.2C458.813 156.735 452.46 164.466 453.838 167.757L462.104 181.151Z" fill="white"></path>
    <path d="M464.324 143.8C453.072 143.8 444.883 145.714 444.883 150.077C444.883 151.76 445.419 153.062 446.796 155.587L454.22 167.91C454.22 167.91 453.379 166.226 453.379 164.313C453.379 156.889 459.961 152.755 467.385 151.148C469.605 150.612 471.748 150.612 473.967 150.612C475.881 150.612 477.565 150.612 478.942 151.148C477.794 147.933 475.804 143.8 464.324 143.8Z" fill="white"></path>
    <path d="M434.933 136.147C437.918 141.122 439.066 142.423 446.49 142.423C452.001 142.423 460.497 142.423 460.497 142.423L441.286 118.007C436.923 112.802 434.703 111.731 430.57 111.731H420.161L434.933 136.147Z" fill="white"></path>
    <path d="M221.008 172.885V154.516C221.008 150.919 219.324 148.775 216.339 148.775C212.512 148.775 209.757 152.909 209.757 158.649V172.656H203.174C203.174 172.656 203.174 152.373 203.174 151.837C203.174 149.617 202.868 146.097 202.868 144.183C202.868 144.183 205.853 144.183 208.073 144.183C208.609 144.183 208.915 144.489 208.915 145.025C208.915 145.561 208.915 148.622 208.915 148.622H209.221C210.063 147.245 211.976 143.647 218.023 143.647C224.069 143.647 227.59 147.704 227.59 152.296V172.349H221.008V172.885ZM170.492 166.839C170.799 166.839 171.028 166.839 171.028 167.374C171.028 168.752 171.334 170.972 171.334 171.737C169.957 172.273 167.201 173.651 163.91 173.651C155.414 173.651 149.904 168.676 149.904 158.802C149.904 149.77 154.572 143.954 163.91 143.954C166.895 143.954 169.65 145.025 171.334 145.867C171.334 146.939 171.334 149.158 171.028 150.23C171.028 150.536 170.722 150.765 170.492 150.765C170.186 150.765 170.186 150.765 169.957 150.765C167.737 149.694 165.824 149.082 164.216 149.082C158.705 149.082 156.562 152.679 156.562 158.649C156.562 164.16 158.476 168.216 164.216 168.216C166.436 168.216 168.579 167.374 169.727 166.839C170.263 166.839 170.492 166.839 170.492 166.839ZM192.995 172.885C192.459 172.885 192.153 172.579 191.923 172.043C191.923 171.201 191.617 169.288 191.617 169.288C191.311 169.824 188.862 173.421 183.121 173.421C177.381 173.421 174.319 169.058 174.319 164.389C174.319 157.807 180.595 154.516 190.239 154.516H191.617V153.444C191.617 150.459 189.397 148.775 185.571 148.775C181.973 148.775 178.988 150.153 177.917 150.689C177.917 150.689 177.61 150.995 177.381 150.995C177.075 150.995 176.845 150.689 176.845 150.459C176.845 149.388 176.539 147.474 176.539 146.097C177.61 145.561 181.514 144.183 185.877 144.183C194.372 144.183 197.97 148.01 197.97 154.363V165.308C197.97 169.441 198.276 171.89 198.506 172.962C198.506 172.885 193.301 172.885 192.995 172.885ZM191.387 158.649H190.316C182.05 158.649 180.749 161.404 180.749 164.389C180.749 166.839 182.432 169.058 185.417 169.058C189.55 169.058 191.694 165.231 191.694 161.098V158.649H191.387ZM110.41 166.839C110.716 166.839 110.945 167.145 110.945 167.374C110.945 168.446 111.252 171.201 111.252 172.043C110.41 172.349 107.118 173.421 102.45 173.421C93.4181 173.421 87.9073 168.752 87.9073 158.572C87.9073 150.077 92.5761 143.724 100.766 143.724C109.032 143.724 112.859 149.235 112.859 156.047C112.859 156.889 112.859 158.266 112.553 159.874H94.4131C94.4131 164.849 97.3981 168.14 103.215 168.14C106.2 168.14 108.955 167.068 109.797 166.456C110.18 166.839 110.18 166.839 110.41 166.839ZM94.4896 155.894H106.583C106.889 151.225 104.363 148.775 100.842 148.775C97.0154 148.775 94.7957 151.531 94.4896 155.894ZM76.6561 172.885V154.822C76.6561 151.531 75.2784 149.082 71.9873 149.082C68.1603 149.082 65.9407 153.215 65.9407 158.955V172.962H59.3584V154.592C59.3584 151.607 57.9807 148.852 54.6895 148.852C50.8626 148.852 48.643 152.985 48.643 159.032V173.038H42.0607C42.0607 173.038 42.0607 155.205 42.0607 152.449C42.0607 149.694 41.7545 145.867 41.7545 144.795C41.7545 144.795 45.0457 144.795 46.9591 144.795C47.4949 144.795 47.8011 145.102 47.8011 145.637C47.8011 146.479 47.8011 149.235 47.8011 149.235H48.1072C48.4134 148.393 50.5565 144.26 56.603 144.26C62.1138 144.26 64.2569 148.087 64.8692 149.464C65.4049 148.393 67.8542 144.26 73.3649 144.26C79.1053 144.26 82.9323 147.245 82.9323 153.597V173.344H76.6561V172.885ZM124.416 159.185V173.191H117.834C117.834 173.191 117.834 153.98 117.834 152.067C117.834 150.153 117.528 146.02 117.528 144.642C117.528 144.642 120.283 144.642 122.732 144.642C123.268 144.642 123.574 144.949 123.574 145.484C123.574 146.326 123.574 149.082 123.574 149.082H123.88C124.416 148.01 126.33 144.107 131.534 144.107C133.448 144.107 134.519 144.642 134.825 144.642C134.825 145.714 134.825 148.469 134.519 149.311C134.519 149.847 134.213 149.847 133.983 149.847C133.754 149.847 133.677 149.847 133.448 149.847C133.142 149.541 132.07 149.311 130.692 149.311C127.401 149.311 124.416 151.76 124.416 159.185ZM138.117 172.885V144.642H144.699V173.191H138.117V172.885ZM138.117 140.509V134.233H144.699V140.509H138.117ZM32.4933 172.885L29.5083 164.389H13.5883L10.6033 172.885H3.71484L18.2572 135.611H25.6814L39.688 172.885H32.4933ZM21.8545 142.423L15.8079 159.414H27.901L21.8545 142.423ZM402.328 173.421C410.824 173.421 414.65 169.824 414.65 164.925C414.65 160.027 411.053 157.807 407.226 156.429C406.155 156.123 405.007 155.587 404.241 155.358C401.792 154.516 400.414 153.444 400.414 151.76C400.414 150.077 402.098 148.775 405.389 148.775C408.374 148.775 410.9 149.847 411.665 150.459C411.972 150.459 411.972 150.765 412.201 150.765C412.507 150.765 412.737 150.765 412.737 150.23C412.737 149.388 413.043 147.474 413.043 145.867C412.201 145.561 409.446 143.954 404.777 143.954C397.889 143.954 393.526 147.551 393.526 152.449C393.526 157.118 396.817 159.338 400.108 160.409C400.95 160.716 402.328 161.251 403.093 161.481C406.69 162.552 407.762 163.701 407.762 165.614C407.762 167.834 405.313 168.905 401.486 168.905C398.195 168.905 395.975 167.834 394.904 167.221C394.597 167.221 394.597 166.915 394.368 166.915C393.832 166.915 393.832 167.451 393.832 167.757C393.832 168.063 393.526 171.048 393.526 171.89C394.368 172.12 397.965 173.421 402.328 173.421ZM387.25 166.839C387.556 166.839 387.785 167.145 387.785 167.374C387.785 168.446 388.092 171.201 388.092 172.043C387.25 172.349 383.958 173.421 379.29 173.421C370.258 173.421 364.747 168.752 364.747 158.572C364.747 149.77 369.416 143.724 377.606 143.724C385.795 143.724 389.699 149.235 389.699 156.047C389.699 156.889 389.699 158.266 389.393 159.874H371.253C371.253 164.849 374.238 168.14 380.055 168.14C383.04 168.14 385.795 167.068 386.637 166.456C386.714 166.839 386.943 166.839 387.25 166.839ZM371.33 155.894H383.423C383.729 151.225 381.203 148.775 377.682 148.775C373.549 148.775 371.33 151.531 371.33 155.894ZM353.19 172.885V154.516C353.19 150.919 351.506 148.775 348.521 148.775C344.694 148.775 341.939 152.909 341.939 158.649V172.656H335.356C335.356 172.656 335.356 152.373 335.356 151.837C335.356 149.617 335.05 146.097 335.05 144.413C335.05 144.413 338.035 144.413 340.255 144.413C340.791 144.413 341.097 144.719 341.097 145.255C341.097 145.79 341.097 148.852 341.097 148.852H341.403C342.245 147.474 344.158 143.877 350.205 143.877C356.252 143.877 359.772 148.01 359.772 152.679V172.732H353.19V172.885ZM294.485 159.185V173.191H287.903C287.903 173.191 287.903 153.98 287.903 152.067C287.903 150.153 287.596 146.326 287.596 144.642C287.596 144.642 290.352 144.642 292.801 144.642C293.337 144.642 293.643 144.949 293.643 145.484C293.643 146.326 293.643 149.082 293.643 149.082H293.949C294.485 148.01 296.398 144.107 301.603 144.107C303.516 144.107 304.588 144.642 304.894 144.642C304.894 145.714 304.894 148.469 304.588 149.311C304.588 149.847 304.282 149.847 304.052 149.847C303.746 149.847 303.746 149.847 303.516 149.847C303.21 149.541 302.139 149.311 300.761 149.311C297.776 149.311 294.485 151.76 294.485 159.185ZM315.074 172.885V134.233H308.491V172.885H315.074ZM274.738 172.885V144.642H281.32V173.191H274.738V172.885ZM274.508 140.509V134.233H281.091V140.509H274.508ZM322.192 172.885V144.642H328.774V173.191H322.192V172.885ZM322.192 140.509V134.233H328.774V140.509H322.192ZM264.864 172.885L261.879 164.389H245.959L242.974 172.885H236.086L250.322 135.611H257.746L271.753 172.885H264.864ZM253.919 142.423L247.873 159.491H260.196L253.919 142.423Z" fill="white"></path>
  </g>
  <defs>
    <clipPath id="clip0_261_1111">
      <rect width="495" height="77.567" fill="white" transform="translate(3 111.217)"></rect>
    </clipPath>
  </defs>
</svg>
