<?xml version="1.0" encoding="UTF-8"?>
<svg xmlns="http://www.w3.org/2000/svg" width="500" height="300" viewBox="0 0 500 300" fill="none">
  <g clip-path="url(#clip0_274_5456)">
    <path d="M92.3098 167.116L96.3816 149.718L99.7131 167.116H92.3098ZM60.9694 151.692C60.9694 156.628 58.9952 159.959 52.9492 161.81V146.88C54.183 146.51 55.2935 146.263 56.5274 146.263C59.7355 146.263 60.9694 148.731 60.9694 151.692ZM183.123 163.907L187.812 142.561L192.254 163.907H183.123ZM143.269 133.307C148.328 133.307 150.179 136.022 150.179 140.587C150.179 145.523 147.587 149.718 142.035 151.322V133.307H143.269ZM441.99 149.841C441.99 148.361 443.101 147.497 444.951 147.497C448.53 147.497 454.946 151.199 458.894 154.283V139.23C454.205 136.022 448.406 133.678 442.113 133.678C431.872 133.678 425.58 139.723 425.58 150.088C425.58 167.732 445.075 167.732 445.075 173.655C445.075 175.506 443.964 176.37 441.126 176.37C435.327 176.37 428.047 172.421 425.58 170.077V185.994C430.268 188.708 437.055 190.436 442.977 190.436C454.699 190.436 461.485 183.896 461.485 173.408C461.485 156.257 441.99 155.394 441.99 149.841ZM77.3799 149.471C77.3799 137.132 69.7299 132.197 59.6121 132.197C52.8258 132.197 44.929 134.418 37.4023 137.996V188.955H52.9492V176.74C66.0283 174.149 77.3799 164.401 77.3799 149.471ZM288.373 129.236C295.529 129.236 298.861 136.639 298.861 149.718C298.861 162.797 295.529 170.2 288.373 170.2C281.216 170.2 277.885 162.797 277.885 149.718C277.885 136.639 281.216 129.236 288.373 129.236ZM69.4831 188.955H86.1404L88.4848 180.688H102.798L104.772 188.955H122.17L104.525 121.956C99.4663 122.449 93.7904 123.313 89.5953 124.547L69.4831 188.955ZM388.44 121.462C384.245 120.598 379.433 119.735 376.101 119.488V188.955H392.018V160.329L408.922 188.955H421.138V128.248C416.079 126.891 411.143 125.904 405.838 124.917V154.777L388.44 121.462ZM168.07 139.107C168.07 124.547 159.926 116.403 143.022 116.403C137.593 116.403 130.313 117.267 124.514 118.994V188.955H142.158V170.077C157.088 165.511 168.07 154.653 168.07 139.107ZM339.825 145.399V115.046C335.383 114.182 326.499 113.319 322.057 113.195V188.955H339.825V161.81H351.547V188.955H369.315V118.624C363.762 117.637 356.976 116.773 351.547 116.28V145.399H339.825ZM158.199 188.955H176.46L179.175 178.467H195.585L198.67 188.955H217.301L196.325 112.085C191.884 112.085 184.604 112.578 180.532 113.072L158.199 188.955ZM236.55 167.116C236.55 171.311 234.205 173.162 230.627 173.162C228.776 173.162 226.679 172.668 224.581 171.804V189.079C228.159 190.312 230.874 190.436 234.576 190.436C244.94 190.436 254.935 185.13 254.935 168.226V110.357C249.876 109.987 241.732 109.987 236.673 110.357V167.116H236.55ZM288.373 190.436C306.511 190.436 317.739 174.519 317.739 149.718C317.739 127.138 308.115 109 287.879 109C270.111 109 259.13 125.287 259.13 149.718C259.006 176.246 270.235 190.436 288.373 190.436Z" fill="white"></path>
  </g>
  <defs>
    <clipPath id="clip0_274_5456">
      <rect width="440" height="81.3124" fill="white" transform="translate(30 109)"></rect>
    </clipPath>
  </defs>
</svg>
