<?xml version="1.0" encoding="UTF-8"?>
<svg xmlns="http://www.w3.org/2000/svg" width="500" height="300" viewBox="0 0 500 300" fill="none">
  <g clip-path="url(#clip0_274_5563)">
    <path fill-rule="evenodd" clip-rule="evenodd" d="M198.1 133.226C189.577 130.086 181.502 128.516 172.53 128.516C152.792 128.516 139.11 141.525 139.11 162.161C139.11 183.021 150.998 195.806 172.306 195.806C180.829 195.806 189.128 194.46 198.1 190.647C200.119 189.75 201.241 188.404 201.241 185.488V138.385C201.241 135.469 200.119 133.899 198.1 133.226ZM184.418 175.395C184.418 177.413 183.297 178.31 181.278 178.759C178.362 179.656 175.895 179.881 172.306 179.881C164.007 179.881 156.156 174.946 156.156 161.712C156.156 148.479 164.007 143.544 172.306 143.544C175.895 143.544 178.362 143.993 181.278 144.666C183.521 145.338 184.418 146.236 184.418 148.03V175.395ZM130.586 184.367C130.586 186.609 130.362 189.525 129.465 191.768C128.792 193.787 128.119 194.46 126.1 194.46H114.437C113.091 194.46 112.418 193.563 112.418 192.666C112.418 192.441 112.418 191.993 112.642 191.768C113.091 189.974 113.54 188.852 113.54 186.834C113.54 167.768 71.5957 178.535 71.5957 150.946C71.5957 137.039 82.8107 127.619 100.082 127.619C109.278 127.619 118.923 129.862 126.998 134.572C128.119 135.021 128.568 136.142 128.568 137.264C128.568 137.937 128.343 138.609 127.895 139.507L124.082 148.03C123.409 149.152 122.287 149.824 121.166 149.824C120.493 149.824 119.82 149.6 119.147 149.376C112.418 145.787 106.138 143.544 99.4088 143.544C92.4555 143.544 88.4181 146.011 88.4181 150.049C88.6424 162.161 130.586 154.983 130.586 184.367ZM276.156 152.74V191.768C276.156 193.338 275.035 194.46 273.465 194.46H261.801C260.231 194.46 259.11 193.338 259.11 191.768V154.983C259.11 147.357 253.502 143.993 246.549 143.993C242.512 143.993 240.269 144.217 236.904 145.114C235.11 145.563 233.988 146.46 233.988 148.254V191.768C233.988 193.338 232.867 194.46 231.297 194.46H219.633C218.063 194.46 216.941 193.338 216.941 191.768V138.161C216.941 135.245 218.287 133.675 220.082 133.002C229.502 129.638 238.474 128.292 246.1 128.292C266.512 128.516 276.156 137.039 276.156 152.74ZM321.016 128.516C301.502 128.516 288.717 142.647 288.717 162.161C288.717 181.675 301.502 195.806 321.913 195.806C341.427 195.806 354.213 181.675 354.213 162.161C354.213 142.423 341.427 128.516 321.016 128.516ZM321.913 180.105C312.269 180.105 305.988 173.824 305.988 161.937C305.988 150.049 312.269 143.768 321.016 143.768C330.661 143.768 336.941 150.049 336.941 161.937C336.941 174.049 330.661 180.105 321.913 180.105ZM429.128 132.329V191.768C429.128 193.338 428.007 194.46 426.437 194.46H414.773C413.203 194.46 412.082 193.338 412.082 191.768V132.329C412.082 130.759 413.203 129.638 414.773 129.638H426.437C428.007 129.638 429.128 130.759 429.128 132.329ZM404.231 107.432C404.231 108.105 404.007 108.553 404.007 109.002L402.661 115.731C402.437 117.301 401.764 118.198 400.194 118.198C399.297 118.198 396.381 117.525 393.913 117.525C386.736 117.525 383.596 121.114 383.596 128.292V129.638H400.194C401.764 129.638 402.885 130.759 402.885 132.329V141.301C402.885 142.871 401.988 143.993 400.194 143.993H383.596V191.768C383.596 193.338 382.474 194.46 380.904 194.46H369.465C367.895 194.46 366.773 193.338 366.773 191.768V130.983C366.773 112.367 377.315 103.843 393.465 103.843C396.156 103.843 399.072 104.067 401.54 104.74C403.334 105.189 404.231 105.862 404.231 107.432Z" fill="white"></path>
    <path fill-rule="evenodd" clip-rule="evenodd" d="M421.28 121.563C426.663 121.563 430.252 117.974 430.252 112.366C430.252 106.535 426.663 103.17 420.831 103.17C415.448 103.17 411.859 106.535 411.859 112.366C412.084 118.198 415.448 121.563 421.28 121.563Z" fill="white"></path>
    <path fill-rule="evenodd" clip-rule="evenodd" d="M78.9977 177.862C73.6145 177.862 70.25 181.226 70.25 186.834C70.25 192.217 73.6145 195.806 79.4463 195.806C84.8294 195.806 88.1939 192.217 88.1939 186.834C88.1939 181.226 84.8294 177.862 78.9977 177.862Z" fill="white"></path>
  </g>
  <defs>
    <clipPath id="clip0_274_5563">
      <rect width="360" height="92.4112" fill="white" transform="translate(70.25 103.394)"></rect>
    </clipPath>
  </defs>
</svg>
