<?xml version="1.0" encoding="UTF-8"?>
<svg xmlns="http://www.w3.org/2000/svg" width="500" height="300" viewBox="0 0 500 300" fill="none">
  <path fill-rule="evenodd" clip-rule="evenodd" d="M490 154.649V166.156L430.175 198.062C403.941 212.945 378.015 212.178 376.481 212.022H208.965V202.206H376.635C401.178 202.816 418.511 193.462 418.668 193.305L490 154.649Z" fill="white"></path>
  <path fill-rule="evenodd" clip-rule="evenodd" d="M490 185.942L421.274 209.72C408.392 214.169 387.526 214.782 387.221 214.782H208.965V224.45H387.68C405.781 225.06 422.347 219.844 422.657 219.844L490 196.833V185.942Z" fill="white"></path>
  <path fill-rule="evenodd" clip-rule="evenodd" d="M490 215.398L423.268 224.752C412.069 227.051 387.523 227.208 387.218 227.208H208.965V236.87H386.607C405.319 237.175 419.74 235.187 423.424 234.571L490 225.676V215.398ZM118.457 144.525V122.74H113.09V144.525H118.457ZM110.481 128.723C110.481 124.12 106.645 122.894 104.038 122.894H90.0787V144.676H95.446V137.008H102.504C104.344 137.008 105.111 138.85 105.111 140.689V144.679H110.327V140.23C110.327 136.702 109.252 135.017 106.645 134.709C109.56 133.326 110.481 131.332 110.481 128.723ZM102.042 132.559H95.446V127.651H102.196C104.344 127.651 105.111 129.031 105.111 130.106C105.111 131.484 104.344 132.559 102.042 132.559ZM65.5332 144.525H65.995V122.74H57.4027L50.8065 137.467L44.3642 122.74H35.9258V143.755L26.5689 122.74H19.5134L10 144.525H15.6752L17.6738 139.768H28.411L30.5585 144.525H41.2982V128.415L48.3537 144.525H53.2618L60.6252 128.723V144.525H65.5332ZM23.0411 135.014H19.8213L23.0411 127.497V127.651L26.415 135.014H23.0411ZM80.1086 127.497H87.0102V122.74H69.5228V144.525H87.0102V140.076H74.8901V135.779H86.7023V131.64H74.8901V127.497H80.1086Z" fill="white"></path>
  <path fill-rule="evenodd" clip-rule="evenodd" d="M183.193 185.326H171.994V183.181C170.768 184.41 169.08 185.326 166.473 185.326H123.827V179.348C123.673 178.576 123.979 177.044 121.985 176.893H120.145V185.326H108.793V175.664C107.564 177.658 105.111 177.658 103.423 177.809H97.4396V185.326H82.2536L80.1061 182.72L77.9587 179.959L73.202 185.326H47.4302V156.796H73.6613L78.2615 162.012L80.1036 159.713L82.8642 156.799H103.571C104.952 156.953 107.712 157.566 108.787 159.1V156.799H126.426C127.96 156.799 131.029 157.566 132.258 159.56V156.799H154.499V159.406C155.574 157.717 157.416 156.799 160.328 156.799H174.442V159.254C175.515 157.717 178.278 156.799 179.963 156.799H191.927V60H10.4619V134.86L17.2121 119.52H28.8704L32.706 128.572V119.52H46.6631L50.9579 128.572L55.1014 119.52H104.8C106.794 119.52 109.403 120.136 110.476 122.283V119.52H120.907V122.743L121.98 121.668C123.36 120.441 125.2 119.52 128.268 119.52H149.437L153.427 128.418V119.52H165.852L170.453 127.191V119.52H181.805V147.901H169.531L164.316 139.465V147.901H148.668L146.212 142.377H141.304L138.849 147.901H129.033C127.345 147.747 123.817 147.134 121.977 145.292C121.53 144.736 121.168 144.116 120.905 143.452V147.899H102.035V141.61C102.035 140.843 101.268 139.768 100.193 139.768H98.2016V147.899H58.016V141.456L55.1014 147.899H46.9709L43.7485 141.302V147.899H27.7979L25.6505 142.837H20.432L18.2845 147.899H10.4619V239.482H191.937V183.338C191.016 184.41 189.482 185.326 187.029 185.326H183.193Z" fill="white"></path>
  <path fill-rule="evenodd" clip-rule="evenodd" d="M132.571 127.497H135.793V122.74H128.892C127.049 122.74 123.676 123.813 121.987 127.956C121.374 129.339 121.066 131.176 120.915 133.631C120.915 135.933 121.22 137.926 121.987 139.768C123.216 142.685 125.669 144.525 129.351 144.525H136.406L138.554 139.768H149.137L151.284 144.525H161.868V128.723L163.556 131.64L171.379 144.525H178.742V122.74H173.372V137.926L164.323 122.74H156.498V143.296L147.295 122.74H140.239L132.876 139.614C132.876 139.614 130.267 139.922 129.502 139.614C128.273 139.309 126.28 137.621 126.128 133.788C126.128 128.723 128.889 127.497 132.571 127.497ZM143.616 127.956L143.77 127.497L147.144 135.014H140.547L143.616 127.956Z" fill="white"></path>
  <path fill-rule="evenodd" clip-rule="evenodd" d="M185.8 168.604H183.191C182.578 168.452 182.27 168.452 182.118 168.452C180.738 168.301 179.819 168.147 179.819 166.764C179.819 164.924 181.505 164.924 183.193 164.924H191.94V160.168H180.741C177.213 160.168 174.298 162.467 174.298 166.456C174.298 170.14 175.679 173.05 181.662 173.206C182.176 173.207 182.689 173.26 183.193 173.363C183.96 173.363 184.881 173.363 185.341 173.514C186.875 173.671 187.334 174.281 187.334 175.202C187.334 177.347 185.033 177.347 183.653 177.347H174.909V181.953H186.105C189.633 181.953 192.855 179.803 192.855 175.813C192.858 172.288 192.399 168.917 185.8 168.604ZM143.616 164.927H152.206V160.17H134.872V181.955H152.206V177.35H140.088V173.055H151.9V168.917H140.088V164.927H143.616ZM163.558 177.35H154.815V181.955H166.011C169.539 181.955 172.915 179.805 172.915 175.816C172.915 172.288 172.302 168.917 165.86 168.604H163.558C162.945 168.452 162.178 168.452 162.024 168.452C160.798 168.301 159.877 168.147 159.877 166.764C159.877 164.619 161.719 164.924 163.561 164.924H171.845V160.168H160.644C157.116 160.168 154.353 162.467 154.353 166.456C154.353 170.14 155.736 173.05 161.565 173.206C161.873 173.206 162.794 173.206 163.558 173.363C164.326 173.363 164.939 173.363 165.244 173.514C166.932 173.671 167.238 174.281 167.238 175.202C167.24 177.35 165.093 177.35 163.558 177.35ZM102.809 160.17H84.0981L80.1085 164.619L77.9611 166.918L72.132 160.168H50.9629V181.95H71.3648L77.8072 174.738L80.1085 177.499L84.0981 181.947H94.3735V174.581H101.583C104.344 174.581 109.406 174.43 109.406 166.915C109.408 161.397 105.419 160.17 102.809 160.17ZM68.6016 177.35H56.3302V173.055H68.1424V168.917H56.3302V164.927H69.3688L74.5847 170.754L68.6016 177.35ZM89.0036 179.959L85.168 175.354L81.3323 170.754L85.168 166.615L89.0036 162.318V179.959ZM100.97 170.143H94.3735V164.927H100.97C103.271 164.927 103.884 166.305 103.884 167.382C103.884 168.917 103.117 170.143 100.97 170.143ZM132.109 165.999C132.109 161.399 128.427 160.173 125.821 160.173H111.861V181.955H117.228V174.284H124.132C125.972 174.284 126.893 176.129 126.893 177.968V181.958H132.106V177.509C132.106 173.981 131.034 172.293 128.425 172.142C131.342 170.6 132.109 168.604 132.109 165.999ZM123.827 169.838H117.228V164.927H123.827C126.128 164.927 126.896 166.305 126.896 167.382C126.896 168.917 125.974 169.838 123.827 169.838ZM240.72 123.199H237.959V150.352H248.697V140.841C248.697 132.097 250.841 130.717 255.293 130.717H260.05L265.417 130.871C265.573 128.877 267.716 128.264 269.25 128.264C269.56 128.11 269.866 128.11 270.171 128.11C271.243 128.11 273.699 128.415 273.699 130.411C273.699 132.251 271.859 133.018 269.25 133.477C266.489 133.939 262.962 134.247 260.05 135.32C256.827 136.392 254.372 138.391 254.372 142.837C254.372 146.826 256.827 149.279 260.05 150.352C261.278 150.813 262.656 150.965 264.039 150.965C266.033 150.965 267.718 150.813 269.25 150.352C271.095 149.738 272.626 148.817 274.161 147.286L274.776 150.2H285.821V149.738C284.438 148.512 284.438 147.745 284.438 146.211V132.864C284.438 131.484 284.438 130.104 284.133 128.875L292.261 150.352H304.843L310.977 133.631C310.826 134.398 310.826 135.166 310.826 135.933C310.826 145.597 317.882 150.813 326.931 150.813H327.392C333.837 150.659 340.736 148.204 342.732 141.3H331.844C331.077 142.988 329.388 143.909 327.7 143.909H327.395C324.478 143.755 322.022 141.608 322.022 138.234H342.889V150.046H353.629V110.777H342.889V132.713C341.201 125.657 335.677 120.901 327.395 120.747H326.933C320.95 120.747 315.888 123.199 313.127 127.648L314.967 122.586H304.078L298.706 139.766L293.033 122.586H281.678L282.907 125.498C281.219 123.197 277.845 121.663 270.789 121.663H269.25C265.112 121.819 262.043 122.586 260.05 123.81C258.972 124.423 258.056 125.193 257.594 126.111V122.584C256.984 122.43 256.06 122.584 255.601 122.584C251.457 122.584 249.312 124.421 247.778 128.718H247.624V123.194H240.72V123.199ZM269.25 144.83H268.334C266.184 144.83 264.806 143.912 264.806 142.685C264.806 140.384 266.951 139.922 269.25 139.463C270.789 139.155 272.321 138.85 273.699 138.234C273.855 141.608 272.321 144.371 269.25 144.83ZM327.392 127.651C329.999 127.651 332.303 129.952 332.303 132.559H322.02C322.02 129.49 324.016 127.651 327.392 127.651ZM380.468 189.165H380.006C377.245 189.008 374.944 186.709 374.944 183.643H396.421C396.572 173.365 390.438 166.156 380.006 165.999H379.701C372.335 165.999 366.357 169.989 364.361 176.431C363.132 170.91 358.988 167.836 353.929 166.764C352.311 166.452 350.666 166.297 349.018 166.302C340.585 166.302 334.14 170.751 332.914 178.574V167.529H312.971L307.604 184.867L301.926 167.529H290.881C288.425 168.301 287.048 170.446 285.97 173.668H285.819V168.147H275.998V178.73C275.082 174.281 272.78 170.754 269.247 168.604C266.797 166.92 263.575 165.997 260.047 165.997H259.737C250.995 165.997 244.245 171.369 243.632 179.956C243.019 178.268 241.944 176.891 240.717 175.813C234.275 170.597 221.083 171.213 221.083 165.23C221.083 163.847 223.23 162.161 226.145 162.161C227.525 162.161 228.6 162.315 229.518 162.774C230.593 163.236 231.666 164.463 231.974 165.845H243.019C242.711 163.542 241.946 161.394 240.717 159.552C238.262 156.024 233.662 153.723 226.299 153.723C216.328 153.723 209.73 158.02 209.73 166.151C209.73 180.878 232.279 177.345 232.279 185.018C232.279 186.863 230.286 188.241 226.909 188.241C225.68 188.241 223.535 187.936 222.46 187.168C221.388 186.553 220.159 185.175 220.005 183.792H208.96C209.265 190.696 215.248 196.679 225.834 196.679C232.43 196.679 237.492 195.145 240.715 192.23C242.557 190.391 243.783 188.087 244.089 185.326C245.777 192.23 252.065 196.066 259.734 196.066H260.044C263.267 196.066 266.484 195.455 269.245 194.073C272.162 192.695 274.461 190.24 275.538 186.712H264.801C263.88 188.4 262.346 189.167 260.501 189.167H260.044C257.284 189.011 254.828 186.712 254.828 183.646H275.995V195.302H286.735V185.947C286.735 177.204 289.039 175.821 293.334 175.821H293.639L301.156 195.304H313.733L321.866 172.909V195.304H332.908V184.564C334.137 192.236 340.885 196.379 349.013 196.379C350.701 196.379 352.389 196.223 353.924 195.917C358.986 194.84 362.973 191.928 364.356 186.401C366.5 192.695 372.483 196.069 379.849 196.069H380.001C386.6 196.069 393.655 193.618 395.495 186.714H384.755C383.847 188.397 382.307 189.165 380.468 189.165ZM380.008 172.904H380.165C382.772 172.904 385.227 175.202 385.227 177.809H374.949C374.946 174.9 376.786 172.904 380.008 172.904ZM260.05 177.809H254.834C254.834 174.897 256.827 172.904 260.05 172.904H260.201C262.813 172.904 265.112 175.202 265.112 177.809H260.05ZM363.901 184.559H353.467C353.005 186.709 351.933 188.703 349.018 188.703C345.647 188.703 344.113 187.63 344.113 181.647C343.956 176.431 344.723 173.825 349.018 173.825C350.247 173.825 351.168 174.281 351.935 175.048C352.702 175.664 353.008 176.737 353.164 177.966H353.931L363.904 177.809C363.747 179.038 363.594 180.575 363.594 181.337C363.591 182.409 363.747 183.487 363.901 184.559Z" fill="white"></path>
  <path fill-rule="evenodd" clip-rule="evenodd" d="M220.318 150.2H232.589V120.901H243.481V110.315H209.424V120.901H220.318V150.2ZM321.871 153.882V162.625L327.392 162.472H332.914V153.882H321.871Z" fill="white"></path>
</svg>
