<?xml version="1.0" encoding="UTF-8"?>
<svg xmlns="http://www.w3.org/2000/svg" width="500" height="300" viewBox="0 0 500 300" fill="none">
  <g clip-path="url(#clip0_263_4781)">
    <path d="M130.392 193.101L123.129 197.549C120.74 193.889 116.895 191.709 112.177 191.709C104.491 191.709 98.8003 197.336 98.8003 205.568C98.8322 214.07 104.7 219.424 112.177 219.424C116.866 219.424 120.679 217.308 123.221 213.616L130.118 218.579C126.366 224.085 119.983 227.535 112.237 227.535C99.1945 227.535 89.9971 218.306 89.9971 205.568C89.9971 192.828 99.1952 183.602 112.237 183.602C120.043 183.602 126.941 187.169 130.391 193.101" fill="white"></path>
    <path d="M143.144 205.555C143.144 213.784 148.802 219.414 156.576 219.414C164.386 219.414 170.012 213.784 170.012 205.555C170.012 197.327 164.386 191.696 156.576 191.696C148.802 191.696 143.144 197.326 143.144 205.555ZM178.849 205.555C178.849 218.204 169.62 227.522 156.578 227.522C143.539 227.522 134.342 218.204 134.342 205.555C134.342 192.907 143.54 183.589 156.578 183.589C169.621 183.589 178.849 192.907 178.849 205.555Z" fill="white"></path>
    <path d="M224.329 226.746H216.402L194.918 198.453L194.89 226.746H186.444V184.385H194.343L215.859 212.673V184.385H224.328L224.329 226.746Z" fill="white"></path>
    <path d="M245.859 209.107H258.113L252 192.738L245.859 209.107ZM273.726 226.746H264.709L261.017 216.884H242.955L239.263 226.746H230.456L246.949 184.385H257.237L273.726 226.746Z" fill="white"></path>
    <path d="M379.344 209.107H391.598L385.485 192.738L379.344 209.107ZM407.21 226.746H398.193L394.502 216.884H376.439L372.747 226.746H363.94L380.434 184.385H390.721L407.21 226.746Z" fill="white"></path>
    <path d="M298.57 204.474V211.499H309.06C307.64 216.746 303.714 219.625 297.299 219.625C289.976 219.625 284.075 214.211 284.075 205.556C284.075 197.296 289.705 191.608 297.452 191.608C301.779 191.608 305.287 193.302 307.679 196.056L313.76 190.092C310.008 186.01 304.409 183.589 297.693 183.589C284.683 183.589 275.333 192.758 275.333 205.555C275.333 219.233 285.741 227.494 297.48 227.494C309.493 227.494 318.176 218.445 318.176 205.616V204.473L298.57 204.474Z" fill="white"></path>
    <path d="M351.792 198.182C351.792 201.583 349.027 204.349 345.626 204.349H334.22V192.016H345.626C349.027 192.016 351.792 194.782 351.792 198.182ZM359.425 198.182C359.425 190.571 353.234 184.38 345.626 184.38L325.779 184.377V226.738H334.221V211.98H341.935L349.461 226.738H359.212L350.856 210.951C355.879 208.885 359.425 203.94 359.425 198.182Z" fill="white"></path>
    <path d="M180.067 261.958C181.963 261.958 183.113 261.213 183.113 259.793V259.747C183.113 258.415 182.052 257.627 179.865 257.627H175.463V261.958L180.067 261.958ZM179.254 255.281C181.036 255.281 182.233 254.582 182.233 253.137V253.091C182.233 251.852 181.239 251.085 179.457 251.085H175.463V255.281L179.254 255.281ZM172.733 250.024C172.733 249.236 173.344 248.625 174.132 248.625H179.819C181.622 248.625 183.046 249.122 183.948 250.024C184.647 250.723 185.009 251.579 185.009 252.64V252.686C185.009 254.582 183.926 255.597 182.751 256.204C184.601 256.836 185.89 257.898 185.89 260.042V260.084C185.89 262.907 183.564 264.419 180.046 264.419H174.132C173.344 264.419 172.734 263.808 172.734 263.02L172.733 250.024Z" fill="white"></path>
    <path d="M207.153 256.461C209.137 256.461 210.401 255.424 210.401 253.82V253.777C210.401 252.084 209.183 251.157 207.128 251.157H203.092V256.461L207.153 256.461ZM200.315 250.032C200.315 249.24 200.926 248.633 201.714 248.633H207.355C209.343 248.633 210.898 249.219 211.913 250.213C212.747 251.069 213.219 252.244 213.219 253.617V253.664C213.219 256.191 211.753 257.725 209.634 258.378L212.655 262.19C212.928 262.531 213.109 262.822 213.109 263.252C213.109 264.019 212.456 264.537 211.778 264.537C211.146 264.537 210.738 264.246 210.422 263.816L206.588 258.921H203.092V263.163C203.092 263.93 202.481 264.537 201.714 264.537C200.926 264.537 200.315 263.93 200.315 263.163L200.315 250.032Z" fill="white"></path>
    <path d="M236.848 258.144L234.072 251.758L231.3 258.144H236.848ZM226.514 262.61L232.382 249.525C232.698 248.826 233.262 248.396 234.05 248.396H234.185C234.977 248.396 235.516 248.826 235.832 249.525L241.7 262.61C241.81 262.816 241.857 263.018 241.857 263.199C241.857 263.941 241.292 264.53 240.547 264.53C239.893 264.53 239.443 264.147 239.194 263.558L237.909 260.604H230.238L228.907 263.65C228.68 264.214 228.207 264.53 227.622 264.53C226.897 264.53 226.333 263.966 226.333 263.242C226.333 263.039 226.404 262.837 226.514 262.61Z" fill="white"></path>
    <path d="M255.645 249.939C255.645 249.172 256.255 248.54 257.043 248.54H257.338C258.012 248.54 258.399 248.878 258.779 249.353L266.678 259.574V249.872C266.678 249.126 267.285 248.519 268.031 248.519C268.797 248.519 269.408 249.126 269.408 249.872V263.137C269.408 263.904 268.822 264.514 268.055 264.514H267.942C267.285 264.514 266.88 264.174 266.497 263.68L258.375 253.166V263.184C258.375 263.926 257.768 264.536 257.022 264.536C256.256 264.536 255.645 263.926 255.645 263.184L255.645 249.939Z" fill="white"></path>
    <path d="M290.646 261.901C293.962 261.901 296.127 259.668 296.127 256.576V256.53C296.127 253.441 293.962 251.162 290.646 251.162H287.533V261.901H290.646ZM284.757 250.033C284.757 249.245 285.367 248.635 286.156 248.635H290.646C295.609 248.635 299.038 252.042 299.038 256.487V256.529C299.038 260.974 295.609 264.428 290.646 264.428H286.156C285.367 264.428 284.757 263.818 284.757 263.029V250.033Z" fill="white"></path>
    <path d="M313.052 262.669C312.736 262.442 312.513 262.058 312.513 261.607C312.513 260.887 313.098 260.322 313.819 260.322C314.202 260.322 314.451 260.436 314.632 260.571C315.938 261.607 317.34 262.197 319.055 262.197C320.77 262.197 321.852 261.384 321.852 260.209V260.166C321.852 259.037 321.22 258.427 318.288 257.752C314.927 256.939 313.031 255.945 313.031 253.034V252.992C313.031 250.283 315.285 248.409 318.423 248.409C320.407 248.409 322.009 248.931 323.432 249.875C323.748 250.056 324.039 250.439 324.039 250.983C324.039 251.703 323.453 252.268 322.733 252.268C322.459 252.268 322.236 252.2 322.009 252.065C320.791 251.277 319.616 250.869 318.377 250.869C316.751 250.869 315.807 251.703 315.807 252.743V252.786C315.807 254.007 316.528 254.547 319.573 255.271C322.91 256.08 324.628 257.277 324.628 259.893V259.939C324.628 262.896 322.303 264.653 318.987 264.653C316.843 264.653 314.813 263.979 313.052 262.669Z" fill="white"></path>
    <path d="M151.421 259.328C149.873 259.328 148.62 258.075 148.62 256.527C148.62 254.98 149.873 253.726 151.421 253.726C152.411 253.726 153.92 254.877 154.875 255.7C155.383 256.137 155.383 256.918 154.875 257.354C153.92 258.182 152.411 259.328 151.421 259.328Z" fill="white"></path>
    <path d="M345.834 253.734C347.382 253.734 348.635 254.988 348.635 256.535C348.635 258.08 347.381 259.336 345.834 259.336C344.843 259.336 343.335 258.186 342.38 257.362C341.872 256.926 341.872 256.145 342.38 255.708C343.335 254.881 344.843 253.734 345.834 253.734Z" fill="white"></path>
    <path d="M305.923 130.208L306.633 130.087L307.335 129.96L308.035 129.786L308.745 129.69L309.437 129.505L310.122 129.296L310.779 129.008L311.421 128.824L312.064 128.628L312.682 128.362L313.349 128.266L313.988 128.068L314.652 127.972L315.294 127.766L315.962 127.702L316.629 127.635L317.3 127.613L317.967 127.571L318.642 127.563L319.313 127.571L319.984 127.557L320.655 127.546L321.326 127.574L322 127.599L322.65 127.808H323.328L323.988 127.918L324.634 128.103L325.277 128.295L325.6 128.376L325.923 128.458L326.601 128.525L327.233 128.746L327.836 129.037L328.521 129.243L329.185 129.512L329.877 129.7L330.577 129.853L331.276 129.981L331.975 130.151L332.689 130.219H332.693L333.413 130.155L334.123 130.293L334.844 130.315L335.561 130.3L336.271 130.166L336.992 130.198L337.698 130.052L338.053 130.006L338.404 129.96L339.129 129.913L339.792 129.622L340.474 129.42L340.825 129.345L341.173 129.271L341.866 129.09L342.508 128.809L343.154 128.543L343.829 128.344L344.528 128.241V128.046L343.903 127.755L343.349 127.318L342.679 127.12L342.096 126.736L341.468 126.449L340.826 126.197L340.151 126.03L339.551 125.664L338.869 125.515L338.227 125.274L337.584 125.014L336.935 124.777L336.271 124.588L335.596 124.443L334.936 124.223L334.255 124.106L333.584 123.949L332.913 123.783L332.22 123.715L331.546 123.573L330.854 123.534L330.165 123.499L329.491 123.311L328.795 123.343L328.11 123.243L327.424 123.147L326.732 123.126L326.044 123.151L325.351 123.14L324.659 123.214L323.956 123.126L323.271 123.239L322.572 123.261L321.894 123.445L321.198 123.506L320.516 123.64L319.842 123.814L319.182 124.035L318.514 124.219L317.833 124.368L317.162 124.556L316.487 124.727L315.877 125.092L315.202 125.27L314.528 125.451L313.928 125.831L313.25 126.001L312.593 126.235L312 126.615L311.365 126.899L310.722 127.166L310.08 127.428L309.49 127.808L308.827 128.035L308.18 128.305L307.577 128.653L306.998 129.04L306.374 129.349L305.731 129.626L305.113 129.959L305.195 130.126L305.923 130.208Z" fill="white"></path>
    <path d="M287.089 142.899L287.777 142.935L288.448 142.92L289.119 142.881L289.786 142.988L290.45 143.084L291.121 143.137L291.781 143.265L292.456 143.279L293.109 143.432L293.777 143.534L294.387 143.836L295.058 143.929L295.654 144.248L296.329 144.333L296.975 144.656L297.646 144.908L298.331 145.121L299.037 145.249L299.73 145.434L300.44 145.547L301.157 145.551L301.877 145.505L302.587 145.615L303.304 145.693L304.022 145.622L304.735 145.558L305.452 145.523L306.166 145.477L306.879 145.395L307.561 145.157L308.257 145.008L308.977 144.93L309.645 144.678L310.316 144.429L310.916 144.128L311.569 143.964L312.201 143.741L312.879 143.68L313.521 143.503L314.153 143.247L314.831 143.251L315.481 143.081L316.155 143.073L316.816 142.928L317.49 142.985L318.161 142.956L318.835 142.995L319.506 142.984L320.177 142.906L320.848 142.952L321.516 143.016L322.179 143.155L322.513 143.187L322.847 143.218L323.514 143.282L324.153 143.502L324.806 143.648L325.435 143.875L326.091 144.01L326.706 144.276L327.345 144.461L328.03 144.67L328.733 144.823L329.4 145.089L330.106 145.206L330.802 145.352L331.509 145.455L332.211 145.608L332.929 145.661L333.649 145.586L334.363 145.597L335.076 145.551L335.797 145.618L336.514 145.587L337.231 145.537L337.937 145.398L338.647 145.299L339.308 144.983L340.018 144.877L340.667 144.571L341.388 144.475L341.977 144.135L342.62 143.939L343.273 143.794L343.908 143.577L344.583 143.513L344.902 143.411L345.222 143.311L345.879 143.176L346.546 143.137L346.876 143.059L347.206 142.977L347.884 143.066L348.552 143.009L349.223 142.96L349.894 142.935L350.564 142.913L351.228 143.038L351.896 143.091L352.567 143.119L353.238 143.144L353.905 143.208L354.579 143.24L355.208 143.51L355.868 143.623L356.503 143.84L356.692 143.897L357.142 144.028L357.764 144.27L358.403 144.458L359.077 144.61L359.698 144.916L360.376 145.036L361.037 145.217L361.221 145.012L360.781 144.461L360.476 143.84L360.131 143.24L359.876 142.591L359.39 142.076L359.031 141.483L358.722 140.862L358.353 140.272L357.845 139.783L357.551 139.14L357.011 138.682L356.645 138.093L356.241 137.528L355.815 136.982L355.325 136.485L354.853 135.981L354.413 135.445L353.884 134.994L353.376 134.522L352.836 134.088L352.322 133.623L351.814 133.155L351.282 132.715L350.777 132.26L350.359 132.161L349.645 132.296L348.932 132.3L348.207 132.204L347.501 132.353L346.805 132.541L346.109 132.694L345.374 132.698L344.7 132.935L344.054 133.255L343.379 133.479L342.726 133.642L342.098 133.876L341.427 133.965L340.788 134.153L340.156 134.38L339.826 134.448L339.499 134.515L338.828 134.55L338.175 134.675L337.519 134.838L336.844 134.845L336.177 134.867L335.502 134.831L334.831 134.952L334.16 134.81L333.489 134.87L332.826 134.796L332.147 134.835L331.487 134.693L330.831 134.554L330.16 134.519L329.503 134.377L328.871 134.153L328.193 134.089L327.589 133.784L326.908 133.713L326.315 133.397L325.648 133.127L324.934 133.014L324.245 132.836L323.55 132.676L322.879 132.392L322.162 132.346L321.455 132.222L320.738 132.179L320.021 132.187L319.3 132.247L318.587 132.261L317.866 132.19L317.149 132.222L316.436 132.311L315.726 132.41L315.016 132.528L314.327 132.737L313.67 133.039L312.978 133.213L312.289 133.39L311.647 133.578L311.025 133.827L310.411 134.111L309.751 134.246L309.108 134.43L308.448 134.565L307.788 134.665L307.11 134.629L306.446 134.704L306.198 134.782L305.789 134.906L305.118 134.927L304.447 134.966L303.773 134.863L303.063 134.845L302.357 134.853L301.643 134.895L300.937 134.831L300.241 134.682L299.541 134.579L298.846 134.469L298.157 134.317L298.04 134.278L297.486 134.686L296.893 135.037L296.4 135.538L295.747 135.804L295.203 136.226L294.614 136.585L294.046 136.979L293.478 137.369L292.931 137.788L292.406 138.239L291.856 138.655L291.238 138.978L290.738 139.46L290.191 139.879L289.644 140.302L289.037 140.642L288.487 141.058L287.958 141.502L287.369 141.864L286.872 142.346L286.275 142.698L286.407 143.053L287.089 142.899Z" fill="white"></path>
    <path d="M365.552 161.05L365.466 160.368L365.388 159.764L365.381 159.686L365.42 158.994L365.239 158.323L365.21 157.634L365.019 156.971L365.051 156.271L364.738 155.632L364.767 154.926L364.465 154.29L364.334 153.616L364.121 152.966L364.149 152.246L363.865 151.614L363.631 150.968L363.333 150.347L363.283 150.304L362.63 150.187L361.976 150.084L361.657 150.009L361.334 149.938L360.695 149.786L360.013 149.842L359.364 149.704L358.792 149.317L358.146 149.189L357.532 148.962L356.865 148.887L356.233 148.522L355.501 148.469L354.877 148.053L354.131 148.099L353.442 147.918L352.75 147.741L352.037 147.67L351.316 147.737L350.606 147.51L349.889 147.503L349.172 147.542L348.458 147.634L347.745 147.719L347.039 147.826L346.325 147.872L345.643 148.11L345.274 148.103L344.905 148.092L344.227 148.326L343.574 148.624L342.889 148.823L342.292 149.146L341.614 149.228L341 149.508L340.34 149.643L339.658 149.661L339.009 149.814L338.359 149.945L337.702 150.051L337.042 150.176L336.378 150.314L335.707 150.321L335.033 150.311L334.358 150.215L333.691 150.186L333.354 150.279L333.016 150.371L332.356 150.122L331.692 150.058L331.004 150.2L330.333 150.119L329.694 149.867L329.037 149.757L328.377 149.636L327.752 149.384L327.067 149.327L326.46 149.043L325.867 148.713L325.153 148.599L324.451 148.45L323.762 148.266L323.098 147.996L322.388 147.921L321.692 147.726L320.986 147.598L320.262 147.666L319.548 147.563L318.831 147.637L318.117 147.652L317.404 147.722L316.68 147.659L315.98 147.833L315.256 147.818L314.546 147.939L313.85 148.106L313.197 148.422L312.533 148.674L311.802 148.738L311.22 149.1L310.545 149.192L310.105 149.299L309.896 149.348L309.264 149.576L308.6 149.664L307.986 150.012L307.319 150.083L306.641 150.027L305.987 150.229L305.32 150.314L304.649 150.328L303.975 150.367L303.3 150.19L302.633 150.207L301.965 150.172L301.294 150.193L300.623 150.151L299.97 149.987L299.274 150.126L298.611 150.009L297.957 149.853L297.304 149.686L296.694 149.377L296.069 149.136L295.412 149.004L294.802 148.738L294.07 148.667L293.382 148.479L292.746 148.106L292.047 147.953L291.323 147.942L290.982 147.793L290.645 147.644L289.928 147.57H289.892L289.207 147.552L288.49 147.605L287.773 147.612L287.414 147.598L287.056 147.587L286.346 147.733L285.622 147.648L284.901 147.669L284.216 147.932L283.485 147.935L282.782 148.074L282.122 148.372L281.415 148.503L281.089 148.649L280.762 148.795L280.78 148.855L280.801 148.912L280.144 149.146L279.495 149.402L278.849 149.671L278.234 150.005L277.588 150.282L276.932 150.552L276.357 150.964L275.764 151.343L275.274 151.858L274.748 152.327L274.177 152.721L273.652 153.175L273.13 153.63L272.622 154.098L272.09 154.542L271.664 155.099L271.135 155.543L270.602 155.983L270.098 156.452L269.534 156.863L269.122 157.435L268.572 157.854L267.986 158.237L267.535 158.77L267.077 159.285L266.459 159.636L265.959 160.112L265.6 160.733L265.121 161.18L265.249 161.169L265.934 161.375L266.598 161.641L267.311 161.737L267.982 161.993L268.657 162.266L269.384 162.231H270.102L270.808 162.383L271.522 162.391L272.239 162.419L272.959 162.533L273.666 162.316L274.39 162.38L275.107 162.341L275.806 162.156L276.502 161.982L277.237 161.968L277.894 161.67L278.533 161.336L279.264 161.265L279.913 161.098L280.503 160.754L281.145 160.57L281.784 160.364L282.473 160.36L283.087 160.04L283.758 159.976L284.422 159.895L285.093 159.866L285.767 159.902L286.431 159.838L287.098 159.799L287.773 159.788L288.44 159.831L289.118 159.646L289.779 159.809L290.453 159.824L291.128 159.845L291.77 160.093L292.43 160.182L293.091 160.296L293.74 160.455L294.429 160.47L295.025 160.814L295.64 161.073L296.335 161.105L296.974 161.439L297.67 161.609L298.355 161.805L299.026 162.067L299.754 162.056L300.439 162.294L301.149 162.404L301.87 162.344L302.587 162.291L303.3 162.511L304.021 162.489L304.731 162.34L305.444 162.273L306.172 162.376L306.878 162.22L307.564 161.989L308.238 161.755L308.976 161.744L309.626 161.431L310.265 161.098L310.911 160.92L311.557 160.739L312.239 160.682L312.867 160.444L313.517 160.292L314.173 160.178L314.827 160.05L315.494 160.004L316.144 159.791L316.815 159.731L317.482 159.646L318.156 159.724L318.831 159.628L319.502 159.635L320.166 159.859L320.833 159.884L321.508 159.873L322.171 159.961L322.825 160.111L323.524 160.004L324.17 160.206L324.802 160.437L325.427 160.686L326.098 160.767L326.701 161.069L327.361 161.197L328.039 161.428L328.682 161.761L329.374 161.96L330.116 161.935L330.805 162.106L331.504 162.258L332.221 162.262L332.928 162.386L333.641 162.443L334.358 162.369L335.075 162.397L335.785 162.266L336.499 162.255L337.216 162.247L337.933 162.198L338.65 162.116L339.31 161.8L340.006 161.647L340.453 161.502L340.684 161.431L341.398 161.303L342.019 161.058L342.612 160.728L343.237 160.472L343.893 160.32L344.589 160.366L345.21 160.054L345.867 159.915L346.538 159.89L347.198 159.755L347.873 159.741L348.547 159.819L349.218 159.798L349.889 159.727L350.56 159.702L351.224 159.88L351.891 159.872L352.566 159.88L353.23 159.961L353.893 160.043L354.568 160.078L355.221 160.224L355.881 160.355L356.535 160.501L357.181 160.692L357.82 160.891L358.43 161.161L359.076 161.488L359.804 161.548L360.475 161.789L361.146 162.049L361.835 162.262L362.559 162.254L363.279 162.233L363.979 162.499L364.699 162.4L365.416 162.343L365.498 162.361H365.502L365.562 161.732L365.552 161.05Z" fill="white"></path>
    <path d="M220.675 67.5143L220.711 67.9119L221.396 68.4976L221.91 69.094L222.191 69.2999L222.326 69.4419L222.762 69.8359L223.078 70.301L223.724 70.8406L224.165 71.1991L224.669 71.8061L225.407 72.6368L226.241 73.3645L227.069 74.11L227.761 74.9797L228.627 75.6755L229.429 76.4388L229.482 76.492L229.688 76.7228L230.231 77.3618L230.807 77.9688L230.831 77.9866L230.913 78.0824L231.62 78.661L231.964 79.1829L232.553 79.6018L233.331 80.3543L234.001 81.2489L234.339 81.5294L234.343 81.533L234.35 81.5403L234.854 81.9628L235.205 82.261L235.504 82.7367L236.128 83.294L236.249 83.3863L236.384 83.5567L237.179 84.3021L237.307 84.4725L237.495 84.6607L237.921 85.147L238.734 85.8996L239.483 86.7125L239.905 87.0214L240.239 87.4474L240.836 88.0295L241.027 88.1573L241.088 88.2283L241.723 88.7324L242.046 89.1726L242.419 89.5631L242.607 89.8258L243.416 90.4647L243.793 90.9617L244.41 91.3913L245.046 92.0764L245.127 92.0409L245.66 92.1474L246.178 91.6611L246.174 90.8375L246.121 90.4293L246.178 89.4033L246.061 88.3277L246.072 87.9621L246.121 87.1491L246.107 86.8935L246.114 86.7373L246.086 86.4818L246.061 86.0238L246.022 85.3955L246.018 85.1008L246.061 84.366L246.143 83.7767L246.128 83.514L246.132 83.4678L246.189 82.6513L246.043 81.8313L246.093 81.0148V80.9296L246.189 80.4042L246.097 79.5416V79.3783L246.2 78.5582L246.161 77.7417L246.097 77.3122L246.125 77.0282L246.086 76.6661L246.193 76.1088L246.054 75.484L246.143 74.7811L246.086 74.0357L246.157 73.6594L245.987 73.0488L245.919 72.4489L245.156 71.501L244.883 71.2028L244.641 70.823L243.974 70.2941L243.392 69.6835L243.207 69.5237L242.891 69.1119L242.163 68.5085L241.588 67.9121L241.07 67.2412L240.435 66.6838L240.289 66.5525L239.803 66.0093L239.047 65.3704L238.706 64.8485L238.01 64.4119L237.474 63.7055L236.895 63.173L236.86 63.1304L236.292 62.5092L235.703 62.0513L235.199 61.3484L234.375 60.6314L234.29 60.5532L233.953 60.0953L233.275 59.5876L232.717 58.9558L232.149 58.3345L231.556 57.7417L231.095 57.4293L230.467 56.8116L230.172 56.4566L229.799 55.9383L229.029 55.8282L228.354 56.0909L227.786 56.6909L227.541 57.266L226.988 57.7984L226.388 58.7143L226.093 59.0693L225.855 59.3426L225.795 59.4243L225.685 59.5557L225.568 59.7367L225.372 60.0065L224.946 60.7129L224.489 61.3909L224.386 61.5365L223.707 62.1755L223.065 63.0594L222.518 64.0107L221.865 64.8876L221.698 65.1503L221.521 65.3136L221.208 65.8958L220.598 66.6697L220.626 66.9465L220.569 67.2944L220.675 67.5143Z" fill="white"></path>
    <path d="M232.829 51.7401V51.7438L232.9 51.8147L233.429 52.3721L233.702 52.6348L234.419 53.4193L234.6 53.6429L234.863 53.8311L235.264 54.2003L235.743 54.6547L235.874 54.8109L236.481 55.4214L237.124 55.9965L237.724 56.6178L238.079 56.9372L238.53 57.4342L239.077 57.988L239.485 58.5063L240.074 58.9926L240.145 59.0671L240.191 59.1061L240.706 59.7167L241.281 60.1711L241.725 60.7284L241.884 60.8917L241.92 60.9379L242.019 61.0302L242.523 61.5485L242.875 61.868L243.141 62.152L243.762 62.7448L244.398 63.327L244.806 63.714L245.005 63.9376L245.033 63.9235L245.725 64.1436L246.158 63.4868L246.07 62.9437L246.137 62.3118L246.126 61.8432L246.14 61.7438L246.119 61.6089L246.108 61.1368L246.083 59.9653L246.079 59.7062L246.15 59.1311L246.069 58.2969V58.2295L246.147 57.3952L246.079 56.8734L246.09 56.451V55.283L246.14 54.1116L246.108 53.1247L246.119 53.0537L246.098 52.7697L246.062 51.8929L246.073 51.4208L246.112 50.6008L246.101 49.8659L246.116 49.5784L246.108 48.7122L246.03 48.0661L246.094 47.0934L246.14 45.922L246.059 45.2227L246.055 44.3742L246.119 43.508V42.6063L246.133 42.4146L246.076 41.2716L246.072 41.2219L246.083 40.6858L246.126 40.0433L246.087 39.6918L246.076 38.9108L246.164 37.7429L246.047 36.8022V36.5749L245.745 35.9999L245.142 36.2093L245.103 36.1915L244.716 36.6175L244.514 36.8128L244.357 37.008L244.308 37.0613L243.726 37.7606L243.402 38.1227L242.76 38.6978L242.362 39.3119L242.22 39.4823L241.628 39.9899L241.077 40.6537L240.793 40.9981L240.335 41.4347L239.622 42.379L238.795 43.2238L238.433 43.7279L238.273 43.9125L237.673 44.5337L237.439 44.839L237.254 45.0201L236.509 45.9431L235.731 46.8377L234.986 47.7606L234.396 48.5203L234.385 48.5276L233.803 49.163L233.558 49.5819L233.523 49.6317L232.76 50.5334L232.763 50.6186L232.508 51.1582L232.829 51.7401Z" fill="white"></path>
    <path d="M251.344 59.4811L251.34 59.6656L251.312 60.8194L251.323 61.0004L251.312 61.3554L251.372 62.1222L251.312 63.1233L251.688 63.709L252.37 63.5635L253.012 62.9351L253.687 62.3352L253.903 62.0974L254.017 61.9908L254.358 61.5932L254.901 61.0146L254.908 61.0036L255.639 60.3966L256.403 59.5588L257.01 58.9198L257.304 58.6288L258.039 57.9827L258.849 57.1911L259.285 56.7154L259.388 56.6372L260.027 56.016L260.272 55.7462L260.443 55.5829L261.096 54.7877L261.174 54.699L262.012 53.957L262.839 53.1796L263.087 52.9027L263.169 52.8318L263.765 52.1644L264.401 51.536L264.713 50.9467L264.436 50.3504L263.95 49.5907L263.343 48.9339L262.754 48.2665L262.242 47.5353L261.682 46.843L261.593 46.7508L261.543 46.6726L261.341 46.4809L261.071 46.1934L260.531 45.4869L260.244 45.2242L260.02 44.9012L259.264 44.0173L258.895 43.5878L258.796 43.46L258.728 43.3961L258.501 43.1299L257.716 42.2672L256.992 41.3443L256.162 40.5277L255.402 39.6438L254.724 38.7954L254.71 38.7741L254.699 38.7668L254.674 38.7313L253.925 38.071L253.506 37.464L253.229 37.1587L253.112 36.9954L252.927 36.8286L252.91 36.8073L252.31 36.1505L251.653 36.0227L251.227 36.5587L251.301 37.3503L251.262 37.7195L251.298 38.2946V38.3408L251.23 39.2283L251.298 39.6614L251.284 40.0377V40.6554L251.23 41.0033L251.337 41.8162L251.348 41.9688L251.369 42.4836L251.28 43.506V43.5308L251.263 43.6622L251.277 43.8539L251.273 44.6597L251.284 45.4017V45.4301L251.288 46.3175V46.3249L251.28 46.9674L251.249 48.1247L251.241 49.2784L251.277 50.4321L251.273 50.9043L251.248 51.632L251.244 52.2533L251.223 52.7431L251.262 53.8969L251.244 54.7737L251.223 55.1713L251.262 56.0552L251.24 56.9391V56.9781L251.223 57.358L251.279 57.823L251.223 58.7069L251.344 59.4811Z" fill="white"></path>
    <path d="M246.019 133.869L246.151 133.258L246.08 132.786L246.129 132.463L246.044 132.222L246.073 131.639L245.576 130.972L245.451 130.748L245.213 130.244L244.418 129.534L244.127 129.236L244.046 129.144L243.524 128.53L243.03 128.139L242.917 128.026L242.203 127.241L241.99 127.021L241.866 126.794L241.632 126.652L241.465 126.481L240.961 126.084L240.694 125.704L240.24 125.303L239.984 124.962L239.15 124.376L239.037 124.259L238.44 123.507L238.092 123.244L237.83 122.935L237.269 122.502L236.889 122.065L236.271 121.192L235.867 120.869L235.671 120.578L235.075 120.045L234.638 119.786L234.006 118.973L233.197 118.288L233.076 118.164L232.831 117.777L232.448 117.507L231.788 116.733L231.72 116.634L231.564 116.552L230.932 116.063L230.293 115.207L230.052 115.058L230.002 114.976L229.392 114.461L228.877 113.851L228.493 113.578L228.032 113.105L227.762 112.708L227.148 112.378L227.144 112.374L226.502 111.525L225.919 111.106L225.461 110.517L224.879 109.974L224.361 109.371L223.821 108.788L223.2 108.281L222.966 108.117L222.735 107.826L222.057 107.29L222 107.23L221.5 106.605L221.354 106.477L221.241 106.335L220.8 105.945L220.442 105.416L219.892 104.841L219.302 104.34L219.068 104.042L218.333 103.286L217.765 102.775L217.616 102.612L217.034 102.065L216.42 101.557L215.845 101.003L215.784 100.954L215.373 100.286L214.9 99.8746L214.84 99.761L214.261 99.2143L213.814 98.8912L213.796 98.877L213.544 98.6462L213.154 98.0711L212.565 97.5315L211.95 97.0204L211.404 96.4417L210.85 95.8702L210.275 95.3235L209.654 94.8194L209.65 94.8121L209.32 94.3967L209.163 94.2761L209.121 94.2263L208.634 93.5909L208.088 93.5447L207.811 93.4027L207.25 94.0275L207.175 94.9895L207.183 95.4901L207.165 95.5682L207.009 96.3173L206.931 97.0841L206.977 97.3112L206.842 97.8508L206.867 98.8945L206.916 99.9381L207.172 100.787L207.186 101.032L207.076 101.844L207.246 102.299L207.303 102.97L207.222 103.435L207.396 104.219L207.523 104.589L207.566 105.11L207.669 105.785V105.796L207.676 105.824L207.726 106.144L207.754 106.232L207.822 106.577L208.088 107.336L208.102 107.379L208.258 108.16L208.443 109.189L208.546 109.402L208.578 109.686L208.823 110.446L209.171 110.968L209.224 111.128L209.416 112.164L209.568 112.455L209.65 112.697L209.916 113.151L210.186 113.957L210.236 114.184L210.3 114.269L210.608 115.057L211.049 116.002L211.514 116.779L211.585 117.081L211.961 117.503L212.138 117.784L212.557 118.742L213.09 119.637L213.704 120.478L214.215 121.39L214.421 121.596L214.542 121.824L215.046 122.441L215.415 123.165L215.891 123.808L216.015 123.893L216.036 123.936L216.849 124.617L217.385 125.53L218.06 126.325L218.546 126.708L218.592 126.754L218.699 126.829L218.887 126.978L219.355 127.379L219.664 127.944L220.278 128.458L220.878 128.987L221.51 129.474L221.95 129.811L222.66 130.571L223.133 130.794L223.367 130.989L224.013 131.458L224.194 131.611L224.361 131.781L224.457 131.827L224.627 131.969L225.28 132.434L225.919 132.914L226.622 133.18L226.988 133.478L227.886 134.007L228.301 134.209L228.685 134.525L229.146 134.681L229.693 135.047L230.293 135.253L230.839 135.569L231.333 135.761L231.592 135.91L232.522 136.385L233.527 136.684L234.134 136.921L234.506 137.152L234.947 137.212L235.483 137.39L236.455 137.777L236.757 137.841L236.796 137.855L237.541 138.164L237.967 138.178L238.457 138.366L239.462 138.647L240.126 138.639L240.676 138.785L241.088 138.884L241.507 139.076L241.851 139.044L242.241 139.115L242.93 139.062L243.594 139.211L244.315 139.342L244.613 139.47L245.38 139.317L245.546 139.08L245.657 139.044L246.129 138.05L246.107 137.823L246.118 137.251L246.126 136.453L246.143 136.225L246.207 135.814L246.193 134.695L246.019 133.869Z" fill="white"></path>
    <path d="M251.286 88.0794L251.283 88.3279L251.322 88.6474L251.29 89.5029L251.297 89.6165L251.226 89.9964L251.35 90.7205L251.23 91.6613L251.286 91.6826L251.727 92.1441L252.277 92.066L252.369 92.1014L252.898 91.4731L252.916 91.4553L253.569 90.9192L253.952 90.4507L254.772 89.7869L255.539 88.9881L256.363 88.2391L257.062 87.3729L257.811 86.5955L258.337 86.2015L258.358 86.1766L258.723 85.8997L259.118 85.3885L259.561 85.0584L260.119 84.4265L260.502 83.9756L261.034 83.5177L261.851 82.7758L262.22 82.364L262.525 82.1013L262.809 81.7001L263.14 81.3096L263.69 80.8943L264.102 80.4328L264.158 80.3831L264.329 80.1701L264.787 79.6305L265.454 79.1158L266.043 78.5158L266.366 78.2141L266.548 78.0827L267.318 77.2875L267.488 77.0639L267.847 76.7764L268.223 76.2297L268.894 75.7398L269.373 75.1718L269.615 75.0014L269.98 74.5222L270.392 74.1104L270.651 73.7944L270.712 73.7341L271.23 73.1306L271.294 73.0738L271.936 72.5981L272.334 72.0976L272.707 71.7426L273.509 70.9864L273.64 70.8622L273.693 70.8232L273.743 70.7628L274.308 70.2232L275.074 69.428L275.312 69.176L275.465 69.0553L276.054 68.4625L276.7 67.9264L276.803 67.2875L276.672 66.7479L276.289 65.9988L276.26 65.9669L276.157 65.7503L275.547 64.8203L274.858 63.9399L274.467 63.3719L274.404 63.237L273.892 62.5767L273.442 61.8703L272.955 61.1887L272.437 60.6846L272.206 60.3545L271.578 59.4315L271.429 59.2647L271.4 59.2221L270.85 58.5902L270.417 57.8696L270.342 57.7809L270.257 57.6389L269.831 57.1383L269.434 56.5171L268.862 55.903L268.216 55.4557L267.655 55.7681L267.439 55.7361L266.668 56.5029L265.937 57.3123L265.93 57.3233L265.671 57.5186L265.543 57.728L265.191 58.1007L264.364 58.8072L264.052 59.187L263.91 59.2971L263.406 59.968L262.823 60.5679L262.145 61.0649L262.106 61.1147L262.085 61.1288L261.943 61.3099L261.617 61.711L261.212 62.1867L260.914 62.4671L260.399 62.847L260.246 63.0564L259.799 63.4327L259.391 63.9297L259.242 64.0468L258.865 64.4728L258.262 64.9556L257.527 65.7437L257.509 65.7615L257.467 65.8041L257.413 65.8679L256.803 66.5495L256.785 66.5673L256.246 66.9365L255.731 67.5968L255.543 67.8169L255.269 68.0725L255.031 68.3352L254.481 68.6973L254.144 69.2049L253.704 69.567L253.409 69.8972L253.363 69.9326L253.26 70.064L252.983 70.3728L252.642 70.7349L252.167 71.0863L251.957 71.4875L251.435 72.0839L251.407 72.4282L251.364 72.4956L251.347 73.1488L251.336 73.305L251.289 74.3878L251.233 75.474L251.311 76.2195L251.268 76.6526L251.276 77.1212L251.205 77.6359L251.315 78.5128L251.318 79.1589L251.237 79.9931L251.276 80.8238L251.251 81.658L251.262 81.839L251.258 81.9562L251.262 83.0318L251.297 84.111L251.23 84.8636L251.209 84.9949L251.212 85.0766L251.202 85.1902L251.216 85.286L251.23 85.8292L251.34 86.4539L251.194 87.3485L251.286 88.0794Z" fill="white"></path>
    <path d="M290.442 99.9283L290.353 99.0054L290.413 98.6397L290.392 98.4942L290.481 97.841L290.296 97.0068L290.427 96.2471L290.356 96.0447L290.378 95.8495L290.215 94.8626L290.016 93.9538L290.012 93.8864L289.518 93.3433L288.83 93.535L288.755 93.6131L288.003 94.213L287.218 94.9337L286.913 95.3632L286.451 95.6898L285.873 96.24L285.72 96.5134L284.985 97.2021L284.268 97.9866L283.828 98.4446L283.675 98.5652L283.114 99.1297L283.111 99.1333L282.748 99.4599L282.418 99.9391L281.932 100.198L281.403 100.795L280.849 101.37L280.32 101.97L279.784 102.559L279.206 103.109L279.014 103.29L278.258 103.933L277.85 104.419L277.466 104.753L276.898 105.31L276.302 105.839L276.256 105.907L275.986 106.148L275.24 106.897L274.779 107.611L274.74 107.657L274.076 108.118L273.977 108.257L273.76 108.402L273.025 109.158L272.542 109.737L272.422 109.84L271.896 110.44L271.339 111.008L271.304 111.054L270.817 111.434L270.004 112.116L269.763 112.495L269.578 112.616L269.199 113.195L268.574 113.667L267.942 114.327L267.931 114.334L267.306 114.831L266.873 115.524L266.355 116.074L265.62 116.684L265.322 116.997L265.134 117.16L264.544 117.693L263.973 118.25L263.66 118.743L263.472 119.003L262.553 119.571L262.265 119.886L262.247 119.894L261.697 120.472L261.552 120.703L261.172 121.168L261.023 121.346L260.625 121.651L260.054 122.201L259.486 122.759L258.879 123.277L258.392 123.916L258.318 124.012L258.186 124.143L257.551 124.775L257.221 124.991L256.912 125.407L256.688 125.623L256.284 125.95L256.071 126.092L256.042 126.142L255.861 126.287L255.101 127.022L254.438 127.849L254.168 128.176L253.891 128.41L253.284 128.925L252.911 129.4L252.134 130.025L251.91 130.455L251.608 130.675L251.502 131.378L251.413 131.722L251.236 132.279L251.289 133.103L251.314 133.298L251.189 134.203L251.236 135.165L251.285 136.124L251.314 136.316L251.307 136.401L251.406 137.207L251.239 138.044L251.456 138.382L251.523 138.73L251.984 139.347L252.769 139.443L253.135 139.305H253.806L254.647 139.035L255.126 138.982L255.943 139.031L256.433 138.847L256.898 138.825L257.167 138.747L257.519 138.743L257.87 138.534L257.899 138.527L258.903 138.25L259.251 138.14L259.837 138.129L260.536 137.862L260.944 137.816L261.154 137.72L261.37 137.671L261.977 137.351L262.553 137.227L262.89 137.177L262.95 137.131L263.852 136.662L264.871 136.396L265.804 135.928L265.953 135.835L266.536 135.541L267.278 135.246L268.005 134.909L268.467 134.6L268.598 134.525L269.411 133.894L270 133.581L270.728 133.237L270.984 133.049L271.268 132.907L271.552 132.683L272.116 132.445L272.783 132.005L273.394 131.483L274.044 131.018L274.661 130.51L275.3 130.035L275.9 129.502L276.447 128.917L276.461 128.902L277.057 128.484L277.853 127.805L278.229 127.415L278.293 127.38L278.836 126.794L279.29 126.126L279.944 125.637L280.441 125.012L280.533 124.877L280.678 124.735L281.044 124.185L281.42 123.748L281.921 123.123L282.382 122.474L282.702 121.92L283.142 121.37L283.412 120.983L283.799 120.535L283.962 120.017L284.122 119.669L284.601 119.151L284.91 118.409L284.992 118.263L285.322 117.82L285.868 116.929L286.096 116.187L286.468 115.622L286.791 114.894L286.972 114.401L287.175 114.085L287.441 113.272L287.757 112.701L287.988 111.934L288.172 111.462L288.35 111.185L288.396 110.755L288.485 110.415L288.559 109.886L288.854 109.158L289.198 108.221L289.241 108.139L289.404 107.354L289.4 106.63L289.478 106.3L289.656 105.775L289.73 105.409L289.819 105.104L289.83 104.163L290.128 103.425L290.064 102.793L290.228 102.005V101.955L290.263 101.831L290.235 101.614L290.246 100.961L290.442 99.9283Z" fill="white"></path>
    <path d="M251.319 122.106L251.713 122.613L252.231 122.5L252.398 122.581L252.991 122.042L252.998 122.038L253.005 122.031L253.172 121.878L253.545 121.303L254.184 120.937L254.727 120.341L255.252 119.723L255.593 119.304L256.079 118.889L256.846 118.186L256.867 118.158L257.024 118.08L257.254 117.629L257.467 117.338L257.56 117.245L258.145 116.929L258.65 116.297L259.136 115.648L259.842 115.225L260.084 114.828L260.503 114.498L260.992 113.823L261.486 113.458L261.688 113.245L261.972 113.046L262.597 112.201L263.488 111.626L263.875 111.065L264.393 110.689L264.855 110.014L265.391 109.414L266.005 108.892L266.662 108.413L266.871 108.023L267.073 107.877L267.894 107.235L268.284 106.649L268.288 106.642L268.508 106.322L269.232 105.637L270.017 104.955L270.727 104.203L270.766 104.157L271.202 103.887L271.713 103.269L271.965 102.907L272.185 102.737L272.438 102.453L272.888 102.183L273.169 101.675L273.616 101.238L273.652 101.214L273.967 101.001L274.053 100.891L274.429 100.585L274.823 100.07L275.096 99.861L275.636 99.2647L276.289 98.789L276.431 98.5866L276.673 98.4411L277.351 97.6566L278.025 96.8721L278.256 96.6733L278.515 96.4816L278.558 96.4106L278.806 96.1941L279.456 95.4131L279.601 95.2995L280.169 94.735L280.616 94.2948L280.986 93.9895L281.486 93.3506L281.916 93.0843L282.036 92.8997L282.509 92.5838L283.098 91.746L283.336 91.565L283.96 91.1177L284.34 90.4929L284.685 90.1841L285.313 89.68L285.884 89.1369L286.168 88.9345L286.602 88.3204L287.01 87.976L287.478 87.3122L287.677 86.7016L287.805 86.3786L287.489 85.4024L287.031 84.483L286.939 84.3623L286.882 84.1351L286.495 83.4216L286.186 82.6725L285.796 82.0726L285.668 81.7211L285.285 81.1567L284.99 80.5532L284.798 79.7403L284.433 79.0161L283.893 78.3842L283.591 77.6246L283.208 76.911L282.832 76.1869L282.409 75.4946L282.331 75.3846L282.324 75.3597L282.011 74.9195L281.947 74.8272L281.568 74.1102L281.138 73.4215L280.79 73.031L280.659 72.7647L280.013 72.2109L279.171 72.5127L278.763 72.9032L278.579 73.0594L278.554 73.1056L278.419 73.2334L278.039 73.8546L277.482 74.2273L277.201 74.5397L276.938 74.6959L276.239 75.4627L275.54 76.233L275.412 76.3821L275.245 76.517L274.67 77.0743L274.113 77.6459L274.042 77.7488L273.293 78.3842L272.711 79.1829L272.448 79.3604L272.157 79.8113L271.986 80.003L271.802 80.1591L271.283 80.4502L270.826 80.9756L270.389 81.3342L269.69 82.0903L269.498 82.3388L269.036 82.7186L268.678 83.3363L268.561 83.4605L267.872 83.8084L267.3 84.3658L266.889 85.0189L266.828 85.0828L266.814 85.097L266.218 85.5407L265.618 86.0661L265.437 86.3394L265.291 86.4708L264.972 86.879L264.51 87.2092L263.939 87.763L263.75 88.0718L263.051 88.6149L262.835 88.9486L262.274 89.4776L261.67 89.9994L261.638 90.0419L261.585 90.0739L260.903 90.8513L260.808 90.9506L260.57 91.1494L260.488 91.2772L260.183 91.5896L259.54 92.4061L258.72 93.0451L258.422 93.4427L258.394 93.464L258.156 93.8048L258.095 93.883L257.787 94.1989L257.201 94.5184L256.615 95.0615L256.072 95.6437L255.93 95.8815L255.827 95.9987L255.014 96.6413L254.332 97.4151L254.233 97.5642L253.786 97.8589L253.335 98.5334L253.285 98.5831L252.866 98.86L252.27 99.7191L252.149 99.8895L251.705 100.287L251.624 100.639L251.595 100.677L251.542 100.986L251.524 101.064L251.251 101.831L251.322 102.254L251.205 102.903L251.297 103.975L251.322 104.71L251.24 105.086L251.297 105.431L251.233 106.112L251.269 106.354L251.184 106.709L251.148 107.522L251.24 107.937L251.176 108.246L251.326 108.903V109.144L251.372 109.499L251.155 110.379L251.304 111.444V111.508L251.3 111.576L251.311 111.721L251.329 112.509V112.541L251.226 113.194L251.233 114.007L251.255 114.38L251.237 114.643L251.308 115.236L251.343 115.626L251.145 116.439L251.173 117.248L251.233 117.433L251.152 117.841L251.176 118.906L251.212 119.975L251.286 120.862L251.166 121.295L251.319 122.106Z" fill="white"></path>
    <path d="M246.186 119.2L246.129 118.643L246.203 118.334L246.09 117.748L246.097 117.287L246.196 116.761L246.037 116.115L246.076 115.107L246.061 114.085L246.033 113.328L246.143 112.828L246.029 112.04L246.051 111.578L246.182 111.021L246.076 110.442L246.139 109.683L246.128 109.097L246.146 108.976L246.157 107.957L246.079 106.935L246.093 105.913L246.036 105.472V104.968L246.146 104.184L246.15 103.396L246.104 102.849L246.083 101.83L246.058 101.731L246.054 101.01L245.589 100.332L245.227 99.5939L244.716 99.2247L244.442 98.9087L244.059 98.6141L243.995 98.5538L243.544 97.8722L242.877 97.4107L242.373 96.7824L241.759 96.2889L241.517 95.9552L241.031 95.5008L240.729 95.0323L240.449 94.8796L240.087 94.4536L239.721 94.1554L239.586 93.9211L238.986 93.3886L238.425 92.8917L237.847 92.3059L237.208 91.7095L236.821 91.2871L236.416 90.8079L236.082 90.5132L235.649 89.9665L235.035 89.4518L234.41 88.9477L233.917 88.3123L233.622 88.0389L233.502 87.8756L232.788 87.1302L232.231 86.6829L232.206 86.6439L231.698 86.0226L231.592 85.9623L231.347 85.6392L230.605 84.9222L230.012 84.3542L230.005 84.3432L229.983 84.3254L229.859 84.2083L229.11 83.4948L228.89 83.3315L228.83 83.2641L228.24 82.7245L227.793 82.0465L227.459 81.8796L226.98 81.2406L226.249 80.6975L226.011 80.4561L225.94 80.3993L225.443 79.8597L224.744 79.1036L223.899 78.4895L223.878 78.4646L223.657 78.1806L223.278 77.5736L222.61 77.1156L222.142 76.4554L221.701 76.182L221.165 75.5572L221.027 75.3265L220.427 74.8011L219.895 74.2083L219.305 73.6722L218.695 73.1539L218.457 72.9374L218.173 72.5504L217.669 72.4191L217.374 72.2771L216.948 72.5575L216.636 72.7137L216.043 73.5693L215.777 74.4994L215.585 74.7834L215.045 75.3904L214.502 76.2743L214.034 77.1973L214.002 77.286L213.7 77.6339L213.373 78.39L213.242 78.7131L213.004 78.9935L212.685 79.9946L212.575 80.1721L212.237 80.5626L211.79 81.2513L211.712 81.6133L211.62 81.7766L211.513 82.2097L211.116 82.7422L210.878 83.3954L210.686 83.6262L210.43 84.5243L210.122 84.9858L209.813 85.7418L209.465 86.4838L209.777 87.5097L210.256 88.1771L210.643 88.4008L211.169 89.0788L211.769 89.5332L211.975 89.8846L212.66 90.3425L213.235 90.907L213.267 90.9318L213.473 91.1945L214.172 91.9684L214.85 92.76L215.695 93.3884L216.327 94.2261L217.111 94.9077L217.488 95.1704L217.732 95.5112L218.308 96.0756L218.797 96.7217L219.149 96.8992L219.309 97.1122L220.15 97.7263L220.583 98.3511L220.895 98.5819L221.478 99.1889L221.694 99.512L222.276 99.8847L222.351 99.9486L222.454 100.066L222.82 100.662L223.42 101.198L223.938 101.812L224.502 102.387L225.202 102.82L225.461 103.087L225.862 103.779L226.728 104.379L226.994 104.62L227.399 105.167L227.995 105.707L228.492 106.342L228.503 106.349L228.791 106.718L229.245 106.988L229.604 107.496L230.186 107.879L230.349 108.089L230.445 108.192L230.726 108.635L231.031 108.841L231.045 108.859L231.425 109.122L231.861 109.768L232.309 109.984L232.547 110.293L233.26 111.042L233.32 111.085L233.58 111.458L234.258 111.908L234.304 111.951L234.709 112.519L235.042 112.782L235.28 113.154L235.837 113.573L236.157 113.996L236.87 114.741L237.698 115.38L237.999 115.693L238.173 115.941L238.787 116.459L239.32 117.063L239.863 117.656L239.898 117.681L240.591 118.348L240.736 118.501L240.935 118.848L241.553 119.285L241.613 119.328L242.22 119.803L242.259 119.86L242.635 120.556L243.14 120.833L243.448 121.064L243.853 121.61L243.892 121.635L244.176 122.09L244.804 122.533L244.957 122.771L245.749 122.995L246.217 122.278L246.196 122.207L246.129 121.252L246.178 120.716L246.182 120.698V120.691L246.225 120.226L246.186 119.2Z" fill="white"></path>
    <path d="M179.459 153.434L179.686 153.242L179.928 153.089L180.109 152.88L180.247 152.763L180.932 151.989L181.188 151.691L181.529 151.307L181.763 151.048L182.153 150.668L182.803 150.324L183.058 149.94L183.179 149.848L183.928 149.135L184.17 148.829L184.418 148.556L184.603 148.304L185.416 147.693L186.133 146.951L186.828 146.227L187.286 145.798L187.354 145.677L187.563 145.461L187.929 144.949L188.429 144.687L188.862 144.051L188.983 143.952L189.001 143.938L189.558 143.565L189.597 143.49L189.817 143.327L190.435 142.489L191.195 141.79L191.954 141.091L192.331 140.569L192.916 140.185L193.431 139.575L193.996 139.014L194.297 138.549L194.812 138.105L195.597 137.431L195.735 137.232L196.225 136.742L196.8 136.192L197.301 135.567L197.947 135.088L198.206 134.74L198.504 134.52L198.713 133.728L198.344 132.983L197.489 132.39L196.619 132.141L196.172 131.822L196.126 131.801L195.668 131.392L194.94 130.949L194.848 130.849L194.716 130.817L193.857 130.381L193.353 130.21L193.339 130.199L192.714 129.912L192.061 129.351L191.585 129.198L191.202 128.992L190.464 128.641L190.329 128.573L190.18 128.481L189.342 128.002L189.058 127.807L188.323 127.448L187.741 127.292L187.432 127.033L186.424 126.745L186.097 126.642L186.015 126.603L185.33 126.113L184.56 125.837L183.467 126.046L183.25 126.454L182.813 126.87L181.979 127.516L181.734 127.835L181.195 128.35L180.627 128.921L180.094 129.532L179.473 130.047L179.256 130.366L179.086 130.519L178.294 131.197L177.67 132.042L176.828 132.674L176.669 132.858L176.63 132.894L176.598 132.943L176.147 133.458L175.543 134.324L175.078 134.754L174.929 134.899L174.787 135.034L173.942 135.656L173.364 136.451L172.679 136.905L172.118 137.477L171.841 137.849L171.784 137.903L171.109 138.698L170.328 139.386L169.572 140.1L168.901 140.725L168.667 140.845L168.11 141.424L167.57 142.017L167.545 142.052L167.279 142.209L166.679 143.078L166.559 143.206L166.52 143.242L165.82 143.678L165.561 144.175L165.163 144.495L164.34 145.137L163.935 145.819L163.644 146.032L163.069 146.589L163.016 146.66L162.97 146.696L162.199 147.391L161.912 147.8L161.315 148.236L160.992 148.719L160.762 148.893L160.013 149.61L159.558 150.221L159.047 150.505L158.845 150.835L158.536 151.055L158.096 151.616L157.978 151.705L157.457 152.202L157.063 152.503L156.818 152.734L156.775 152.773L156.761 152.791L156.313 153.217L155.678 154.044L155.252 154.452L155.131 154.537L154.567 155.105L154.176 155.645L153.427 156.192L152.891 156.749L152.838 156.781L152.636 157.008L151.954 157.647L151.947 157.658L151.666 157.878L151.088 158.435L150.797 158.9L150.498 159.121L149.966 159.827L149.359 160.115L149 160.501L148.968 160.523L148.926 160.58L148.812 160.7L148.351 161.375L148.333 161.982L148.763 162.507L148.777 162.546L148.975 162.532L149.568 162.56L149.867 162.479L150.832 162.571L151.599 162.543L151.933 162.564L152.721 162.536L153.509 162.56L154.297 162.546L155.085 162.447L155.731 162.415L155.948 162.422L156.97 162.408L157.868 162.376L158.227 162.369L159.015 162.308L159.096 162.312L160.034 162.529L160.559 162.433H160.587L161.375 162.568L161.755 162.447L162.078 162.493L162.746 162.501L162.944 162.565L163.193 162.497L164.123 162.426L164.716 162.434L165.302 162.54L166.086 162.568L166.803 162.352L167.02 162.366L167.659 162.519L168.443 162.511L169.228 162.565L170.002 162.238L170.08 162.21L170.385 162.135L170.438 162.096L170.758 161.993L171.411 161.525L171.613 161.248L172.149 160.79L172.284 160.609L172.575 160.417L173.055 159.764L173.289 159.494L173.555 159.253L173.814 158.962L174.191 158.639L174.577 158.241L175.099 157.865L175.809 157.105L176.257 156.729L176.612 156.537L177.08 155.877L177.52 155.383L178.017 154.922L178.752 154.194L179.459 153.434Z" fill="white"></path>
    <path d="M207.996 153.261L208.532 152.608L209.193 152.079L209.59 151.632L209.718 151.539L210.137 151.06L210.343 150.851L210.456 150.694L211.184 149.913L211.944 149.132L212.732 148.376L213.492 147.592L214.091 146.978L214.489 146.687L215.1 146.115L215.423 145.362L214.979 144.713L214.975 144.699L214.251 144.255L213.726 143.637L213.296 143.36L213.268 143.332L212.352 142.728L211.51 142.026L211.18 141.813L211.074 141.695L210.403 141.223L209.675 140.829L209.533 140.73L208.894 140.052L208.472 139.747L208.454 139.725L208.397 139.69L208.006 139.409L207.059 138.859L206.178 138.209L206.068 138.135L205.763 137.847L205.237 137.599L204.4 136.942L204.343 136.946L203.761 136.801L203.338 137.038L203.157 137.056L202.898 137.358L202.547 137.635L202.273 138.054L201.624 138.671L201.322 139.005L200.754 139.41L200.268 140.109L199.856 140.521L199.259 141.014L198.432 141.749L197.939 142.317L197.818 142.402L197.261 143.027L196.76 143.567L196.114 144.081L196.022 144.152L195.919 144.312L195.39 144.969L194.843 145.548L194.385 146.005L193.835 146.538L192.987 147.255L192.554 147.787H192.55L191.932 148.352L191.336 148.938L190.714 149.499L190.487 149.846L189.82 150.347L189.209 151.071L188.982 151.316L188.386 151.902L188.141 152.236L187.509 152.729L186.788 153.496L186.589 153.648L186.54 153.719L185.922 154.262L185.169 155.075L184.357 155.824L183.849 156.52L183.689 156.652L183.391 156.978L182.841 157.429L182.436 157.94L181.872 158.366L181.474 158.785L181.243 158.952L180.902 159.378L180.718 159.57L180.413 159.974L180.075 160.34L179.529 160.745L178.95 161.348L178.744 162.076L179.408 162.495L179.82 162.41L180.537 162.459L180.888 162.481L181.052 162.516L181.872 162.537L182.688 162.481L183.128 162.417L183.916 162.466L184.928 162.413L185.145 162.438H185.965L186.781 162.484L187.001 162.445L187.292 162.484L188.418 162.427L188.641 162.409L189.238 162.445L190.054 162.505L190.871 162.541L191.691 162.448L192.507 162.477L193.324 162.406L193.491 162.41L194.037 162.47L194.272 162.445L194.96 162.502L195.777 162.435L195.99 162.449L196.288 162.484L196.437 162.473L196.593 162.481L197.41 162.513L197.868 162.346L198.617 162.26L199.327 161.692L199.6 161.536L200.196 160.933L200.214 160.908L200.381 160.762L200.857 160.18L201.393 159.744L201.545 159.548L201.954 159.232L202.504 158.572L202.557 158.526L203.207 157.979L203.842 157.429L204.123 156.978L204.243 156.879L205.056 156.144L205.766 155.306L206.224 154.781L206.615 154.383L206.821 154.227L207.399 153.854L207.996 153.261Z" fill="white"></path>
    <path d="M234.902 161.427L234.459 161.058L234.015 160.65L233.284 160.043L232.978 159.723L232.389 159.091L231.69 158.587L231.143 158.176L230.462 157.537L229.642 156.681L228.697 155.967L227.852 155.137L227.529 154.906L227.21 154.565L226.688 154.239L226.056 153.596L225.133 152.854L224.729 152.499L224.579 152.332L224.306 152.13L224.242 152.073L223.387 151.384L223.234 151.253L223.124 151.178L222.378 150.6L221.448 149.865L220.87 149.379L220.55 149.095L219.918 148.821L219.311 149.148L218.715 149.776L218.062 150.351L217.859 150.578L217.657 150.76L217.125 151.338L216.862 151.59L216.439 152.066L216.241 152.279L215.619 152.787L215.02 153.404L214.42 154.029L214.043 154.512L213.642 154.874L213.55 154.966L213.195 155.232L212.609 155.864L212.297 156.205L212.013 156.489L211.938 156.574L211.36 157.046L210.756 157.661L210.433 158.001L210.348 158.069L209.528 158.864L209.176 159.251L208.931 159.485L208.303 160.074L207.763 160.752L207.359 161.154L207.142 161.345L207.15 161.367L207.054 162.016L207.583 162.339L207.59 162.357L208.765 162.478L209.94 162.453L211.115 162.424L211.456 162.421L211.946 162.47L212.816 162.424L213.277 162.41H213.454L213.962 162.417L214.551 162.463L215.418 162.471L216.287 162.482L216.461 162.464L216.969 162.485L218.137 162.446L218.9 162.414L219.528 162.41L220.008 162.432L220.632 162.496L221.129 162.446L221.644 162.439L221.793 162.428L222.365 162.467L223.235 162.392L224.104 162.499L224.449 162.456L225.155 162.481L226.011 162.385L226.703 162.474L227.573 162.442L228.439 162.492L228.62 162.474L228.662 162.478L229.83 162.417L230.998 162.439L231.552 162.428L231.9 162.474L232.766 162.495L232.919 162.478L233.334 162.51L234.144 162.407L234.502 162.418L235.042 162.073L234.902 161.427Z" fill="white"></path>
    <path d="M148.654 153.542L149.307 153.092L149.602 152.811L149.875 152.619L150.212 152.201L150.432 151.963L150.638 151.682L151.082 151.192L151.582 150.855L151.746 150.624L152.097 150.355L152.686 149.655L153.293 149.183L153.45 148.903L153.545 148.814L154.351 148.122L154.82 147.522L154.93 147.44L155.143 147.181L155.86 146.641L156.233 146.038L156.595 145.729L156.932 145.324L157.269 145.062L157.681 144.657L157.734 144.614L157.805 144.536L158.025 144.32L158.267 144.022L158.892 143.521L159.154 143.145L159.545 142.854L159.964 142.264L160.524 141.785L161.075 141.214L161.394 140.83L161.717 140.55L162.005 140.22L162.175 140.063L162.63 139.577L163.24 139.084L163.46 138.807L163.925 138.438L164.55 137.937L165.104 137.365L165.58 136.719L166.18 136.194L166.435 135.885L167.024 135.417L167.273 135.175L167.358 135.118L167.394 135.058L167.78 134.685L168.487 133.901L169.208 133.13L169.264 133.052L169.548 132.804L169.985 132.214L170.784 131.721L171.476 130.922L172.143 130.198L172.395 130.024L172.981 129.488L173.386 128.931L173.688 128.661L174.284 128.019L174.685 127.813L175.218 127.22L175.782 126.662L176.275 126.031L176.41 125.874L176.669 125.668L177.06 125.164L177.365 124.87L177.66 124.174L177.667 124.16L177.607 124.106L177.042 123.581L176.286 123.432L175.74 123.528L175.317 123.535L174.746 123.414L173.986 123.251L173.716 123.315L173.219 123.191L172.172 123.216L171.132 123.265L170.972 123.312L170.819 123.283L170.031 123.464L169.229 123.453L168.771 123.595L168.026 123.659L167.845 123.688H167.646L167.305 123.78L167 123.833L165.956 123.915L164.927 124.074L164.809 124.113L164.483 124.142L163.922 124.408L162.91 124.607L161.881 124.791L161.302 125.072L160.61 125.139L160.049 125.537L159.942 125.572L159.332 125.686L159.115 125.707L159.059 125.736L158.906 125.764L158.168 126.148L157.639 126.321L157.45 126.421L156.982 126.577L156.013 126.957L155.754 127.078L155.406 127.195L155.225 127.326L155.068 127.401L154.17 127.933L154.021 128.025L153.269 128.288L152.559 128.661L151.891 129.101L151.749 129.25L151.433 129.442L150.588 130.056L149.676 130.564L149.463 130.777L149.257 130.908L148.657 131.444L147.983 131.87L147.748 132.079L147.131 132.385L146.595 133.024L146.112 133.361L145.892 133.524L145.537 133.734L144.742 134.412L144.088 135.235L143.41 136.027L143.134 136.297L142.622 136.637L142.129 137.269L141.55 137.823L141.369 138.175L141.266 138.292L140.496 139.009L140.251 139.531L140.084 139.719L139.743 140.265L139.285 140.713L138.969 141.359L138.714 141.682L138.228 142.317L137.837 143.017L137.319 143.634L136.967 144.355L136.914 144.54L136.602 145.171L136.023 146.045L135.778 146.741L135.483 147.184L135.139 147.901L135.1 148.061L134.681 148.87L134.585 149.204L134.475 149.357L134.44 149.69L134.387 149.875L134.064 150.699L133.953 150.869L133.925 151.082L133.677 151.835L133.29 152.804L133.08 153.826L132.7 154.806L132.423 155.81V155.96L132.313 156.219L132.164 157.003L132.214 157.365L131.994 157.855L132.061 158.626L131.926 159.392V159.641L131.855 159.943L131.671 160.972L131.731 161.142L131.887 161.664L131.923 161.71L132.026 162.009L132.249 162.115L132.331 162.215L132.888 162.417L133.016 162.477L134.092 162.385L134.33 162.41L135.256 162.555L136.374 162.541L136.698 162.474L137.01 162.481L137.809 162.46L138.103 162.403L138.604 162.481L139.19 162.272L139.388 162.261L140.127 161.98L140.854 161.593L141.082 161.274L141.536 160.766L141.657 160.649L141.937 160.404L142.498 159.833L143.144 159.346L143.602 158.757L143.755 158.619L144.269 158.21L144.479 157.919L144.589 157.813L145.249 156.975L146.108 156.332L146.588 155.651L146.985 155.278L147.088 155.164L147.56 154.792L147.823 154.444L148.146 154.188L148.632 153.563L148.654 153.542Z" fill="white"></path>
  </g>
  <defs>
    <clipPath id="clip0_263_4781">
      <rect width="320" height="228.653" fill="white" transform="translate(90 36)"></rect>
    </clipPath>
  </defs>
</svg>
