<?xml version="1.0" encoding="UTF-8"?>
<svg xmlns="http://www.w3.org/2000/svg" width="500" height="300" viewBox="0 0 500 300" fill="none">
  <path d="M215.032 126.491H278.235C288.162 126.491 298.079 122.456 305.454 115.417C313.246 107.963 317.551 98.0182 317.551 87.3866C317.551 76.7687 313.433 66.8242 305.972 59.4992C298.597 52.2731 288.755 48.2821 278.238 48.2821H246.096C215.95 48.2821 190.613 69.1743 183.954 97.1744H165.676C164.83 97.1744 164.141 97.8615 164.141 98.7053V107.864C164.141 108.708 164.83 109.395 165.676 109.395H278.235C291.464 109.395 300.344 98.0182 300.344 87.3866C300.344 75.0536 290.632 65.3785 278.235 65.3785H246.096C225.508 65.3785 207.987 78.7147 201.803 97.1579H196.652C203.021 75.9798 222.779 60.5134 246.11 60.5134H278.249C293.415 60.5134 305.294 72.3599 305.267 87.458C305.239 102.567 292.641 114.301 277.805 114.301H165.706C164.86 114.301 164.171 114.988 164.171 115.832V124.99C164.171 125.834 164.86 126.521 165.706 126.521H183.971C190.629 154.524 215.98 175.414 246.126 175.414H308.252C309.098 175.414 309.787 174.726 309.787 173.883V164.724C309.787 163.88 309.098 163.193 308.252 163.193H246.124C222.793 163.193 203.037 147.71 196.665 126.535H201.817C208.001 144.978 225.533 158.314 246.11 158.314H308.235C309.081 158.314 309.77 157.627 309.77 156.783V147.625C309.77 146.781 309.081 146.094 308.235 146.094H246.11C232.406 146.094 220.555 138.082 215.032 126.519V126.491ZM246.11 77.5988H277.89C282.581 77.5988 286.801 80.7322 287.834 85.2976C289.342 91.908 283.444 97.1744 278.235 97.1744H215.032C220.572 85.6247 232.423 77.5988 246.11 77.5988Z" fill="white"></path>
  <path d="M53.1761 239.989V209.533H72.3635V213.797H57.8751V222.542H71.1453V226.806H57.8751V235.725H72.5811V239.989H53.1761ZM77.6104 239.989V218.539H82.0048V221.759H82.7009C83.107 220.889 83.8322 220.076 84.8764 219.322C85.9206 218.568 87.4724 218.191 89.5318 218.191C91.1561 218.191 92.5919 218.554 93.8392 219.279C95.1154 220.004 96.1161 221.034 96.8413 222.368C97.5664 223.673 97.929 225.254 97.929 227.11V239.989H93.4476V227.458C93.4476 225.602 92.9835 224.239 92.0553 223.369C91.1271 222.469 89.8509 222.02 88.2265 222.02C86.3702 222.02 84.8764 222.629 83.7451 223.847C82.6429 225.065 82.0918 226.835 82.0918 229.155V239.989H77.6104ZM111.833 239.989C110.528 239.989 109.483 239.597 108.7 238.814C107.946 238.031 107.569 236.987 107.569 235.682V222.324H101.652V218.539H107.569V211.447H112.05V218.539H118.446V222.324H112.05V234.898C112.05 235.769 112.456 236.204 113.269 236.204H117.75V239.989H111.833ZM132.779 240.598C130.604 240.598 128.704 240.148 127.08 239.249C125.455 238.321 124.179 237.03 123.251 235.377C122.352 233.695 121.902 231.751 121.902 229.547V229.025C121.902 226.791 122.352 224.848 123.251 223.195C124.15 221.512 125.397 220.221 126.993 219.322C128.617 218.394 130.488 217.93 132.605 217.93C134.665 217.93 136.463 218.394 138 219.322C139.567 220.221 140.785 221.483 141.655 223.107C142.525 224.732 142.96 226.632 142.96 228.807V230.504H126.47C126.528 232.389 127.152 233.898 128.341 235.029C129.56 236.131 131.068 236.682 132.866 236.682C134.549 236.682 135.81 236.305 136.651 235.551C137.522 234.797 138.189 233.927 138.653 232.94L142.351 234.855C141.945 235.667 141.35 236.523 140.567 237.422C139.813 238.321 138.812 239.075 137.565 239.684C136.318 240.293 134.723 240.598 132.779 240.598ZM126.514 227.067H138.392C138.276 225.442 137.696 224.181 136.651 223.282C135.607 222.353 134.244 221.889 132.562 221.889C130.879 221.889 129.502 222.353 128.428 223.282C127.384 224.181 126.746 225.442 126.514 227.067ZM148.355 239.989V218.539H152.749V221.063H153.445C153.793 220.163 154.344 219.511 155.099 219.105C155.882 218.67 156.839 218.452 157.97 218.452H160.537V222.498H157.796C156.346 222.498 155.157 222.904 154.228 223.717C153.3 224.5 152.836 225.718 152.836 227.371V239.989H148.355ZM165.18 248.691V218.539H169.575V221.628H170.271C170.822 220.671 171.649 219.815 172.751 219.061C173.882 218.307 175.492 217.93 177.58 217.93C179.379 217.93 181.017 218.365 182.497 219.235C184.005 220.105 185.209 221.367 186.108 223.02C187.036 224.645 187.5 226.617 187.5 228.938V229.59C187.5 231.911 187.051 233.898 186.152 235.551C185.252 237.175 184.049 238.423 182.54 239.293C181.032 240.163 179.379 240.598 177.58 240.598C176.188 240.598 175.013 240.424 174.056 240.076C173.099 239.728 172.33 239.293 171.75 238.771C171.17 238.22 170.706 237.654 170.358 237.074H169.662V248.691H165.18ZM176.275 236.682C178.247 236.682 179.857 236.059 181.105 234.811C182.352 233.564 182.975 231.78 182.975 229.46V229.068C182.975 226.777 182.337 225.007 181.061 223.76C179.814 222.513 178.218 221.889 176.275 221.889C174.361 221.889 172.765 222.513 171.489 223.76C170.242 225.007 169.618 226.777 169.618 229.068V229.46C169.618 231.78 170.242 233.564 171.489 234.811C172.765 236.059 174.361 236.682 176.275 236.682ZM193.053 239.989V218.539H197.447V221.063H198.144C198.492 220.163 199.043 219.511 199.797 219.105C200.58 218.67 201.537 218.452 202.669 218.452H205.236V222.498H202.495C201.044 222.498 199.855 222.904 198.927 223.717C197.999 224.5 197.535 225.718 197.535 227.371V239.989H193.053ZM209.879 239.989V218.539H214.36V239.989H209.879ZM212.141 215.624C211.271 215.624 210.531 215.348 209.922 214.797C209.342 214.217 209.052 213.478 209.052 212.578C209.052 211.679 209.342 210.954 209.922 210.403C210.531 209.823 211.271 209.533 212.141 209.533C213.04 209.533 213.78 209.823 214.36 210.403C214.94 210.954 215.23 211.679 215.23 212.578C215.23 213.478 214.94 214.217 214.36 214.797C213.78 215.348 213.04 215.624 212.141 215.624ZM229.8 240.598C227.073 240.598 224.811 239.989 223.012 238.771C221.214 237.552 220.112 235.711 219.706 233.245L223.882 232.244C224.115 233.434 224.506 234.376 225.057 235.072C225.608 235.769 226.29 236.262 227.102 236.552C227.943 236.842 228.842 236.987 229.8 236.987C231.221 236.987 232.309 236.711 233.063 236.16C233.846 235.609 234.238 234.898 234.238 234.028C234.238 233.158 233.875 232.52 233.15 232.114C232.425 231.708 231.351 231.374 229.93 231.113L228.451 230.852C227.001 230.591 225.681 230.214 224.492 229.721C223.302 229.228 222.36 228.546 221.664 227.676C220.967 226.806 220.619 225.689 220.619 224.326C220.619 222.295 221.373 220.729 222.882 219.627C224.39 218.496 226.391 217.93 228.886 217.93C231.293 217.93 233.266 218.481 234.803 219.583C236.369 220.656 237.385 222.121 237.849 223.978L233.672 225.152C233.411 223.847 232.86 222.933 232.019 222.411C231.177 221.86 230.133 221.585 228.886 221.585C227.668 221.585 226.711 221.817 226.014 222.281C225.318 222.716 224.97 223.34 224.97 224.152C224.97 225.022 225.304 225.66 225.971 226.066C226.667 226.472 227.595 226.777 228.755 226.98L230.278 227.241C231.816 227.502 233.222 227.864 234.499 228.329C235.775 228.793 236.776 229.46 237.501 230.33C238.255 231.2 238.632 232.36 238.632 233.811C238.632 235.957 237.834 237.625 236.239 238.814C234.644 240.003 232.497 240.598 229.8 240.598ZM253.703 240.598C251.528 240.598 249.628 240.148 248.003 239.249C246.379 238.321 245.103 237.03 244.175 235.377C243.275 233.695 242.826 231.751 242.826 229.547V229.025C242.826 226.791 243.275 224.848 244.175 223.195C245.074 221.512 246.321 220.221 247.916 219.322C249.541 218.394 251.412 217.93 253.529 217.93C255.588 217.93 257.387 218.394 258.924 219.322C260.49 220.221 261.709 221.483 262.579 223.107C263.449 224.732 263.884 226.632 263.884 228.807V230.504H247.394C247.452 232.389 248.076 233.898 249.265 235.029C250.483 236.131 251.992 236.682 253.79 236.682C255.472 236.682 256.734 236.305 257.575 235.551C258.445 234.797 259.113 233.927 259.577 232.94L263.275 234.855C262.869 235.667 262.274 236.523 261.491 237.422C260.737 238.321 259.736 239.075 258.489 239.684C257.242 240.293 255.646 240.598 253.703 240.598ZM247.438 227.067H259.316C259.2 225.442 258.619 224.181 257.575 223.282C256.531 222.353 255.168 221.889 253.485 221.889C251.803 221.889 250.425 222.353 249.352 223.282C248.308 224.181 247.67 225.442 247.438 227.067ZM280.238 239.989V209.533H289.07L295.727 236.856H296.423L303.08 209.533H311.912V239.989H307.344V212.839H306.647L300.034 239.989H292.115L285.502 212.839H284.806V239.989H280.238ZM328.446 240.598C326.3 240.598 324.385 240.163 322.703 239.293C321.05 238.394 319.745 237.117 318.787 235.464C317.83 233.811 317.352 231.853 317.352 229.59V228.938C317.352 226.675 317.83 224.732 318.787 223.107C319.745 221.454 321.05 220.178 322.703 219.279C324.385 218.38 326.3 217.93 328.446 217.93C330.593 217.93 332.507 218.38 334.189 219.279C335.872 220.178 337.192 221.454 338.149 223.107C339.106 224.732 339.585 226.675 339.585 228.938V229.59C339.585 231.853 339.106 233.811 338.149 235.464C337.192 237.117 335.872 238.394 334.189 239.293C332.507 240.163 330.593 240.598 328.446 240.598ZM328.446 236.595C330.419 236.595 332.014 235.972 333.232 234.724C334.48 233.448 335.103 231.693 335.103 229.46V229.068C335.103 226.835 334.494 225.094 333.276 223.847C332.058 222.571 330.448 221.933 328.446 221.933C326.503 221.933 324.908 222.571 323.66 223.847C322.442 225.094 321.833 226.835 321.833 229.068V229.46C321.833 231.693 322.442 233.448 323.66 234.724C324.908 235.972 326.503 236.595 328.446 236.595ZM357.564 240.598C355.475 240.598 353.866 240.221 352.734 239.467C351.632 238.713 350.806 237.871 350.254 236.943H349.558V239.989H345.164V209.533H349.645V221.454H350.341C350.689 220.874 351.154 220.323 351.734 219.801C352.314 219.25 353.082 218.8 354.04 218.452C354.997 218.104 356.172 217.93 357.564 217.93C359.362 217.93 361.016 218.365 362.524 219.235C364.032 220.105 365.236 221.367 366.135 223.02C367.034 224.674 367.484 226.646 367.484 228.938V229.59C367.484 231.911 367.02 233.898 366.092 235.551C365.192 237.175 363.989 238.423 362.48 239.293C361.001 240.163 359.362 240.598 357.564 240.598ZM356.259 236.682C358.202 236.682 359.797 236.059 361.045 234.811C362.321 233.564 362.959 231.78 362.959 229.46V229.068C362.959 226.777 362.335 225.007 361.088 223.76C359.841 222.513 358.231 221.889 356.259 221.889C354.344 221.889 352.749 222.513 351.473 223.76C350.225 225.007 349.602 226.777 349.602 229.068V229.46C349.602 231.78 350.225 233.564 351.473 234.811C352.749 236.059 354.344 236.682 356.259 236.682ZM373.037 239.989V218.539H377.518V239.989H373.037ZM375.299 215.624C374.429 215.624 373.689 215.348 373.08 214.797C372.5 214.217 372.21 213.478 372.21 212.578C372.21 211.679 372.5 210.954 373.08 210.403C373.689 209.823 374.429 209.533 375.299 209.533C376.198 209.533 376.938 209.823 377.518 210.403C378.098 210.954 378.388 211.679 378.388 212.578C378.388 213.478 378.098 214.217 377.518 214.797C376.938 215.348 376.198 215.624 375.299 215.624ZM384.169 239.989V209.533H388.65V239.989H384.169ZM395.301 239.989V218.539H399.782V239.989H395.301ZM397.563 215.624C396.693 215.624 395.954 215.348 395.344 214.797C394.764 214.217 394.474 213.478 394.474 212.578C394.474 211.679 394.764 210.954 395.344 210.403C395.954 209.823 396.693 209.533 397.563 209.533C398.463 209.533 399.202 209.823 399.782 210.403C400.362 210.954 400.653 211.679 400.653 212.578C400.653 213.478 400.362 214.217 399.782 214.797C399.202 215.348 398.463 215.624 397.563 215.624ZM414.482 239.989C413.177 239.989 412.133 239.597 411.35 238.814C410.595 238.031 410.218 236.987 410.218 235.682V222.324H404.301V218.539H410.218V211.447H414.7V218.539H421.095V222.324H414.7V234.898C414.7 235.769 415.106 236.204 415.918 236.204H420.399V239.989H414.482ZM428.84 248.691V244.775H440.805C441.617 244.775 442.024 244.34 442.024 243.47V236.856H441.327C441.066 237.436 440.66 238.002 440.109 238.553C439.587 239.075 438.876 239.51 437.977 239.858C437.078 240.206 435.947 240.38 434.584 240.38C432.959 240.38 431.509 240.018 430.233 239.293C428.956 238.568 427.956 237.538 427.231 236.204C426.505 234.869 426.143 233.289 426.143 231.461V218.539H430.624V231.113C430.624 232.969 431.088 234.347 432.017 235.246C432.945 236.117 434.235 236.552 435.889 236.552C437.716 236.552 439.181 235.943 440.283 234.724C441.414 233.506 441.98 231.737 441.98 229.416V218.539H446.461V244.383C446.461 245.689 446.07 246.733 445.287 247.516C444.533 248.299 443.488 248.691 442.154 248.691H428.84Z" fill="white"></path>
</svg>
