<?xml version="1.0" encoding="UTF-8"?>
<svg xmlns="http://www.w3.org/2000/svg" width="500" height="300" viewBox="0 0 500 300" fill="none">
  <path d="M225.634 147.862C225.634 143.793 225.634 139.619 225.634 135.55C222.086 135.55 218.539 135.55 214.991 135.55C214.991 131.064 214.991 126.577 214.991 122.091C210.296 122.091 205.601 122.091 200.905 122.091V135.55H195.062C195.062 139.619 195.062 143.793 195.062 147.966H200.905C200.905 151.723 200.905 155.479 200.905 159.235C200.905 159.548 200.905 159.861 200.905 160.174V160.904C200.905 163.095 200.905 165.287 200.905 167.478C201.01 173.425 203.201 179.789 208.209 183.233C212.591 186.363 218.121 186.989 223.338 186.884C219.06 182.398 216.452 175.825 215.408 170.503V170.399V170.295C215.304 169.147 215.095 167.269 215.095 165.287C215.095 164.869 214.991 164.452 214.991 164.034C214.991 162.991 214.991 161.948 214.991 160.8C214.991 156.522 214.991 152.244 214.991 147.966C218.539 147.862 222.086 147.862 225.634 147.862Z" fill="white"></path>
  <path d="M192.559 125.951C192.559 121.778 192.559 117.708 192.559 113.535C185.672 112.387 177.638 112.805 172.109 117.604C167.1 122.091 166.161 129.186 166.37 135.446H166.266H160.318C160.318 139.619 160.318 143.689 160.318 147.862H165.431C165.744 147.862 166.057 147.862 166.37 147.862V154.644C166.37 164.765 166.37 174.886 166.37 185.006H172.839C175.447 185.006 177.951 185.006 180.56 185.006C180.56 174.781 180.56 164.452 180.56 154.227V147.862H190.055C190.055 143.689 190.055 139.619 190.055 135.446H180.456C180.56 132.629 180.247 129.29 182.542 127.308C185.359 125.012 189.22 125.742 192.559 125.951Z" fill="white"></path>
  <path d="M140.912 185.006H147.277H150.824H154.789C154.685 174.364 154.893 163.826 154.685 153.183C154.58 146.923 152.181 140.037 146.233 137.115C137.782 132.942 127.766 133.881 118.793 135.341C118.793 139.828 118.793 144.315 118.793 148.801C124.635 147.549 131 146.193 136.739 148.384C139.451 149.323 140.39 152.14 140.808 154.644C136.739 154.122 132.669 153.183 128.6 154.018C123.801 154.644 119.001 156.939 116.288 161.113C111.906 167.686 113.158 177.598 119.627 182.398C125.783 187.093 134.652 186.571 140.808 182.294C140.912 183.024 140.912 184.38 140.912 185.006ZM140.286 174.26C136.634 175.407 132.252 176.555 128.913 174.051C125.888 171.964 126.305 166.747 129.539 165.078C132.878 163.304 136.739 163.93 140.39 164.66C140.703 167.895 140.703 171.129 140.286 174.26Z" fill="white"></path>
  <path d="M68.0834 117.917C73.7176 117.917 79.4562 117.917 85.0905 117.917C76.7434 129.081 68.6051 140.454 60.258 151.618C67.666 162.782 75.074 173.946 82.5863 185.006C76.7434 185.006 70.7962 185.006 64.9532 185.006C58.2756 175.094 51.7023 165.182 45.2333 155.166C45.2333 165.078 45.2333 175.094 45.2333 185.006C40.1208 185.006 35.1126 185.006 30 185.006C30 162.678 30 140.245 30 117.917C35.1126 117.917 40.1208 117.917 45.2333 117.917C45.2333 128.455 45.2333 138.993 45.2333 149.636C52.85 138.993 60.4667 128.455 68.0834 117.917Z" fill="white"></path>
  <path d="M86.0293 135.655C90.8288 135.655 95.6284 135.655 100.428 135.655C100.428 138.785 100.428 142.019 100.324 145.149C102.619 139.932 107.627 136.489 113.262 135.655C113.262 140.35 113.366 145.045 113.157 149.74C107.106 150.471 100.741 155.061 100.532 161.635C100.324 169.46 100.532 177.285 100.532 185.111C95.7327 185.111 90.8288 185.111 86.0293 185.111C86.1336 168.521 86.1336 152.14 86.0293 135.655Z" fill="white"></path>
  <path fill-rule="evenodd" clip-rule="evenodd" d="M340.926 174.99C338.943 175.825 338.526 176.138 336.126 176.972C333.727 177.807 330.909 177.807 328.51 176.972C320.893 173.738 325.693 162.156 325.693 162.156C356.89 154.54 352.507 137.741 344.056 136.907C338.839 136.907 320.058 137.741 311.19 159.339C310.042 162.574 301.59 185.319 320.371 186.989C324.336 186.989 328.823 186.571 332.788 184.589C336.439 182.607 339.152 180.207 341.552 176.972C343.639 173.425 340.926 174.99 340.926 174.99ZM336.439 142.958C338.839 143.793 332.788 155.792 332.788 155.792C330.388 156.626 327.988 157.357 326.423 157.357C327.258 155.792 331.64 140.558 336.439 142.958Z" fill="white"></path>
  <path fill-rule="evenodd" clip-rule="evenodd" d="M413.754 179.372C413.337 178.955 412.606 178.955 412.189 178.538C409.789 176.972 411.772 172.486 412.189 170.086L419.388 144.419C419.806 142.854 422.623 134.403 411.354 135.968C401.755 137.533 394.973 143.584 394.973 143.584C395.808 141.185 396.538 137.533 394.973 136.802C392.991 135.968 381.409 139.619 378.592 142.019C377.758 142.019 376.61 143.167 377.758 144.419C379.01 145.984 379.323 147.236 378.592 150.053C377.027 154.853 372.228 171.651 370.976 174.886C369.828 178.12 368.158 184.067 370.976 186.05C372.958 187.615 381.409 184.067 382.557 183.233C383.809 182.815 384.957 182.085 385.374 181.668C386.939 180.103 384.539 179.268 386.939 170.817C386.939 170.399 389.756 162.052 391.739 154.853C393.304 148.801 398.938 146.088 400.921 145.671C404.155 145.254 403.32 148.071 402.903 150.053C400.086 158.818 396.851 172.069 395.704 175.303C394.556 178.538 392.469 184.902 395.704 186.154C398.521 188.137 411.354 182.502 412.502 181.772C414.902 180.207 414.902 179.372 413.754 179.372Z" fill="white"></path>
  <path fill-rule="evenodd" clip-rule="evenodd" d="M364.925 179.372C364.09 178.955 363.777 178.955 363.359 178.537C360.96 176.972 362.525 172.486 363.359 170.086L370.976 144.419C371.393 141.602 372.959 138.054 370.976 136.802C368.576 135.968 356.995 139.619 354.178 142.019C353.76 142.019 352.613 143.167 353.76 144.419C354.908 145.984 354.908 147.236 354.178 150.053C352.926 154.853 347.396 172.068 346.144 175.303C344.996 178.537 343.327 184.902 346.978 186.154C349.796 188.137 361.794 182.92 363.359 181.772C366.072 180.624 366.072 179.372 364.925 179.372Z" fill="white"></path>
  <path fill-rule="evenodd" clip-rule="evenodd" d="M362.524 130.959C363.359 132.524 370.558 129.394 374.105 127.308C374.523 126.89 376.088 125.743 376.505 124.49C377.34 121.673 377.653 120.526 378.07 118.439C378.488 117.604 378.488 116.456 377.236 116.039C375.671 115.622 366.071 116.874 363.672 120.839C362.941 122.508 360.124 130.125 362.524 130.959Z" fill="white"></path>
  <path fill-rule="evenodd" clip-rule="evenodd" d="M469.786 159.026C468.638 154.644 461.334 153.392 458.622 155.792C457.056 157.357 456.222 160.591 456.639 161.426C463.421 159.444 464.673 165.391 463.421 167.791C461.021 171.443 460.187 172.59 457.056 172.59H435.876C435.459 172.173 435.041 171.756 435.876 171.025C437.128 169.46 457.891 140.976 458.726 139.828C459.143 138.993 460.291 137.011 457.578 137.011H434.311C431.911 137.011 430.659 137.846 428.677 139.828C427.112 141.811 425.025 147.862 423.877 151.827C423.877 151.827 423.877 153.392 426.277 151.41C426.694 150.992 427.425 149.427 428.677 149.427H442.658C447.04 149.427 423.877 171.443 416.678 183.024C415.53 185.006 417.512 185.006 418.66 185.006H449.127C456.744 185.006 455.491 186.259 459.561 180.624C459.352 180.624 471.768 164.556 469.786 159.026Z" fill="white"></path>
  <path fill-rule="evenodd" clip-rule="evenodd" d="M302.426 172.59L310.877 140.141C316.511 120.526 319.641 119.691 321.728 117.708H308.477C303.678 117.708 300.026 124.49 299.296 128.873L293.661 149.323H281.662C281.662 149.323 288.862 123.343 289.696 120.526C290.114 119.274 290.114 117.708 287.714 117.708C287.297 117.708 262.047 116.874 254.117 119.691C250.465 120.839 245.353 124.073 243.683 128.873C242.536 131.69 240.866 136.907 244.518 146.506C244.935 147.653 245.666 148.488 246.083 148.906C247.231 149.74 257.665 148.071 257.247 148.071C258.082 148.071 258.499 147.653 257.665 146.088C256.83 144.106 254.43 140.454 254.013 136.907C252.448 122.925 262.464 120.943 264.029 120.526C266.429 120.108 268.412 120.108 270.811 120.526C271.646 120.526 273.628 120.943 274.046 121.673C274.88 123.238 273.628 126.056 272.794 129.29C271.959 131.69 265.177 156.522 263.195 163.304C261.943 168.521 256.83 179.685 251.613 181.355C250.465 181.772 248.796 181.772 247.231 181.355C245.666 180.937 243.996 180.103 242.849 179.372C239.614 176.138 237.632 169.773 237.214 164.974C236.797 158.922 238.049 154.54 236.797 154.54C234.71 154.54 227.72 157.253 224.903 159.339C223.755 160.174 223.651 160.278 223.651 160.278C223.546 160.383 223.546 160.383 223.546 160.487C222.816 161.739 222.816 166.226 223.233 168.938C224.381 174.99 227.615 181.772 232.415 185.006C245.248 193.771 267.681 177.807 270.081 176.242C273.733 173.008 276.133 168.625 276.863 165.391C278.011 161.426 280.097 154.54 280.097 154.54H292.096C292.096 154.54 287.297 172.59 286.045 176.972C284.793 180.624 284.062 186.572 287.192 186.154C299.191 186.154 303.991 181.772 304.408 181.355C304.825 180.937 304.825 180.103 304.408 179.79C303.678 179.372 300.861 176.555 302.426 172.59Z" fill="white"></path>
</svg>
