<?xml version="1.0" encoding="UTF-8"?>
<svg xmlns="http://www.w3.org/2000/svg" width="500" height="300" viewBox="0 0 500 300" fill="none">
  <path d="M303.893 208.126L298.646 201.399H300.933L304.836 206.512L309.006 201.399H311.294L305.777 208.261V214.988H303.893V208.126ZM328.516 201.399V214.988H326.767L317.887 204.359V214.988H316.003V201.399H317.618L326.498 211.894V201.399H328.516ZM347.624 214.988H346.008L337.128 204.359V214.988H335.111V201.399H336.86L345.74 211.894V201.399H347.624V214.988ZM371.575 214.988H363.098V201.399H365.115V213.239H371.575V214.988ZM379.512 209.203H383.683L381.532 204.359L379.512 209.203ZM388.259 214.988H386.24L384.492 210.952H378.705L376.956 214.988H374.939L380.859 201.399H382.339L388.259 214.988ZM295.685 201.399L290.707 214.988H290.169L286.132 204.628L282.095 214.988H281.692L276.579 201.399H278.598L281.962 210.683L285.595 201.399H286.805L290.439 210.683L293.803 201.399H295.685ZM269.045 168.029C267.025 167.356 265.142 166.011 263.528 164.262C260.164 160.629 259.49 156.054 261.509 150.538C259.356 151.21 256.934 152.286 254.244 154.036C249.534 157.13 246.843 161.571 246.035 167.357C245.228 173.546 247.112 177.313 251.821 178.928C254.108 179.735 257.204 178.928 260.837 176.775C264.469 174.622 267.294 171.662 269.045 168.029ZM274.426 151.075C272.946 149.73 270.793 149.057 267.968 149.057C266.622 152.825 266.622 155.919 268.102 158.476C269.045 160.225 270.658 161.436 272.678 162.378C275.906 156.996 276.445 153.228 274.426 151.075ZM371.035 150.537C372.382 148.654 371.708 147.846 369.152 148.116C366.326 148.25 363.098 149.73 359.329 152.69C355.965 155.516 354.351 159.014 354.754 163.32C363.905 156.861 369.422 152.556 371.035 150.537ZM396.466 202.879C394.986 202.879 394.313 203.417 394.313 204.493C394.313 205.166 395.256 205.974 397.005 207.184L399.426 209.068C399.965 209.741 400.234 210.548 400.234 211.625C400.234 212.567 399.83 213.508 399.157 214.181C398.35 214.854 397.409 215.123 396.197 215.123C394.717 215.123 393.506 214.719 392.565 213.912V211.356C393.64 212.701 394.852 213.375 396.062 213.375C397.542 213.375 398.216 212.836 398.216 211.625C398.216 210.818 397.409 210.01 395.929 208.934L393.372 207.05C392.833 206.377 392.565 205.704 392.565 204.762C392.565 203.822 392.969 202.879 393.64 202.206C394.313 201.533 395.256 201.13 396.466 201.13C397.409 201.13 398.485 201.399 399.561 202.071V204.224C398.485 203.282 397.409 202.879 396.466 202.879ZM425.8 201.399L419.61 214.988H419.207L413.151 201.399H415.17L419.475 211.086L423.78 201.399H425.8ZM438.717 203.148H432.527V207.184H438.581V208.934H432.527V213.239H438.851V214.988H430.508V201.399H438.717V203.148ZM456.342 204.359C454.594 203.551 452.979 203.013 451.769 203.013C450.154 203.013 448.808 203.551 447.866 204.493C446.789 205.435 446.251 206.646 446.251 208.126C446.251 209.606 446.789 210.952 447.731 211.894C448.808 212.836 450.154 213.375 451.634 213.375C452.441 213.375 453.382 213.105 454.459 212.701V210.145H452.038V208.261H456.478V214.047C454.998 214.719 453.382 215.123 451.634 215.123C449.885 215.123 448.538 214.719 447.462 214.047C445.309 212.566 444.234 210.683 444.234 208.126C444.234 206.108 444.905 204.493 446.386 203.282C447.866 201.802 449.615 201.129 451.769 201.129C453.382 201.129 454.862 201.533 456.342 202.341V204.359ZM468.183 201.399L474.104 214.988H472.086L470.336 210.952H464.551L462.936 214.988H460.918L466.703 201.399H468.183ZM467.376 204.359L465.359 209.203H469.529L467.376 204.359ZM485.676 204.224C484.33 203.282 483.253 202.879 482.446 202.879C481.1 202.879 480.429 203.417 480.429 204.493C480.429 205.166 481.369 205.974 483.12 207.184C485.137 208.53 486.213 210.01 486.213 211.625C486.213 212.567 485.81 213.508 485.137 214.181C484.33 214.854 483.253 215.123 482.177 215.123C480.697 215.123 479.352 214.719 478.545 213.912V211.356C479.756 212.701 481.1 213.375 482.177 213.375C483.657 213.375 484.33 212.836 484.33 211.625C484.33 210.818 483.523 210.01 482.043 208.934L479.486 207.05C478.813 206.377 478.545 205.704 478.545 204.762C478.545 203.822 478.948 202.879 479.62 202.206C480.429 201.533 481.369 201.13 482.581 201.13C483.389 201.13 484.33 201.399 485.676 202.071V204.224ZM400.369 171.124L418.534 170.048L441.677 172.873L466.031 171.528L475.853 170.586C481.236 170.451 485.273 170.72 488.097 171.662C488.77 171.797 489.309 172.335 489.713 173.277C490.116 174.084 490.116 174.891 489.577 175.564C487.425 178.659 484.465 180.408 480.429 181.081L469.26 181.216L439.658 180.005L419.61 178.794C411.537 178.121 404.002 178.39 397.005 179.735L386.779 182.292L370.498 185.252C365.385 185.79 361.078 185.387 357.849 184.176C355.293 183.234 352.333 181.216 348.969 178.255C347.758 177.179 346.548 176.91 345.201 177.583C343.856 178.255 342.511 179.197 341.3 180.14L336.724 183.368C333.9 185.252 330.939 186.463 327.978 187.136C324.076 188.212 320.982 188.078 318.694 186.732C315.197 184.714 313.313 182.024 313.177 178.525C313.043 175.699 313.85 172.739 315.734 169.779L320.982 160.225L322.462 158.072C322.597 157.534 322.327 157.13 321.52 156.861C316.407 154.708 313.043 152.959 311.563 151.614C311.026 151.21 310.621 151.21 310.217 151.614L309.276 153.094C305.912 158.611 302.144 162.647 298.108 165.338C292.592 168.971 285.728 170.72 277.655 170.451C274.291 176.506 269.582 181.081 263.392 184.445C256.934 187.809 251.014 188.751 245.497 187.001C241.864 185.79 239.308 183.234 237.558 179.332C235.944 175.699 235.674 172.066 236.751 168.567C237.29 167.087 237.29 165.876 236.886 165.204L234.867 165.069L226.929 170.855C221.412 174.757 216.03 178.255 210.782 181.216C205.803 184.041 201.633 185.79 198.269 186.732C194.77 187.674 191.542 187.674 188.446 186.867C185.755 186.194 183.602 184.176 182.122 180.946C180.508 177.448 180.373 174.219 181.853 170.989C182.661 169.24 182.929 168.029 182.391 167.357C181.853 166.684 181.181 166.684 180.104 167.357L169.744 175.699C163.285 180.946 159.383 183.907 158.037 184.714C156.018 186.06 154.27 186.867 152.79 187.136C151.04 187.541 149.426 187.405 147.946 186.463C145.12 184.58 143.91 181.485 144.313 176.91C144.447 175.026 144.851 172.335 145.658 168.837C146.196 166.415 146.196 164.396 145.524 162.782C144.851 161.033 143.774 160.629 142.294 161.436C140.949 162.243 137.181 165.473 130.857 170.989L120.227 180.274L114.307 185.118C111.078 187.27 108.79 187.809 107.445 186.598C104.35 184.041 103.408 180.543 104.35 176.103C104.754 173.95 105.696 170.048 107.31 164.396C109.195 156.861 108.656 153.901 105.561 155.785C103.543 156.996 96.8152 162.109 85.6474 171.124L64.9262 186.867C57.6602 191.845 51.2017 195.209 45.6848 197.093C38.6883 199.381 32.6334 200.322 27.3856 199.649C19.5812 198.708 14.1991 194.537 11.2391 187.136C8.00954 179.063 11.1045 169.644 20.3887 158.745C25.0982 153.228 30.0768 148.654 35.3242 144.751L26.9818 143.944C23.7525 143.272 21.4651 141.657 19.9853 139.101C18.2356 136.14 18.5048 132.507 20.7921 128.202C22.8108 124.3 26.3092 120.128 31.2877 115.822C39.4952 108.691 49.5866 101.829 61.5624 95.101C70.039 90.3922 76.6323 87.1625 81.2072 85.5481C84.8398 84.3369 88.3382 83.7984 91.7024 84.0681C95.8734 84.4712 98.2954 85.9512 99.2372 88.6425C100.179 91.1994 100.448 93.7554 100.179 96.0426C99.9098 98.062 99.1026 100.349 97.7574 102.905C93.5856 104.924 91.4332 105.192 90.8948 103.712C90.6256 102.905 90.491 101.829 90.7602 100.618L91.2986 96.4467C91.2986 94.9667 90.6256 93.7554 89.1457 92.8138C87.6656 91.7369 86.1858 91.4682 84.436 92.141L71.6537 97.9267C62.6388 102.636 52.9508 109.095 42.5902 117.033C39.4952 119.456 37.3427 122.147 35.9967 124.972C34.5166 128.067 34.3823 130.624 35.4587 132.776C37.3427 136.409 42.8593 136.544 52.1432 133.046C57.1218 131.296 61.4277 129.143 64.9262 126.587C65.5987 126.318 66.2717 126.587 67.2132 127.394C68.1554 128.202 68.8284 129.278 69.5006 130.758C70.1736 132.238 70.3082 133.584 69.9048 134.795C69.3663 136.14 68.4242 137.082 66.9444 137.62C61.1586 139.639 56.9872 141.253 54.4306 142.599C46.492 146.366 39.7643 151.21 33.9785 157.13C29.2692 162.109 26.5784 166.953 26.0403 171.662C25.6361 174.757 26.1746 178.121 27.6547 181.619C29.2692 185.252 32.9021 187.001 38.5533 187.136C44.0704 187.136 49.8562 185.387 55.6416 182.024C61.4277 178.659 70.039 172.739 81.3418 164.396C87.3964 159.956 96.2772 153.632 108.118 145.559C109.463 144.617 111.078 143.675 112.827 142.868C115.249 141.926 116.999 141.657 118.075 142.195C121.977 144.079 123.188 146.77 121.977 150.268L116.595 163.454C115.922 164.935 116.056 166.146 116.999 167.222C117.94 168.433 119.42 168.298 121.439 166.549C123.188 165.069 127.359 162.109 133.953 157.4L144.447 149.73C145.793 148.519 147.542 147.308 149.56 146.232C151.983 144.886 153.867 144.213 155.211 144.348C156.691 144.483 157.903 145.559 158.845 147.443C159.921 149.461 160.19 151.883 159.383 154.574L156.961 165.876C155.75 173.142 157.364 175.43 161.94 172.739C165.841 170.586 172.434 165.876 181.719 158.611C192.752 151.076 200.018 146.232 203.651 144.213C206.746 142.464 209.84 141.388 212.936 140.984C216.03 140.446 218.317 140.85 220.066 141.926C223.296 143.944 223.834 146.905 221.547 150.806L217.24 157.803C215.626 160.763 213.473 161.571 210.648 160.225C209.706 159.822 209.168 159.014 209.168 157.803C209.168 156.592 209.706 155.247 210.917 153.632C212.397 151.883 211.59 150.941 208.629 151.076C205.535 151.076 202.171 152.69 198.538 155.919C195.175 158.88 193.156 162.647 192.483 167.491C192.079 170.451 192.483 173.008 193.425 175.295C194.502 177.448 195.982 178.659 197.731 178.794C199.615 179.063 203.92 177.314 210.648 173.411C216.703 169.913 222.354 166.28 227.601 162.378C240.654 152.825 249.937 146.905 255.454 144.617C263.931 140.85 270.658 139.908 275.638 141.926C279.002 143.406 281.288 145.559 282.499 148.384C284.115 152.152 283.576 156.996 280.885 162.782C285.056 163.32 289.362 162.109 293.667 159.418C299.453 155.785 303.624 149.999 306.45 142.061C307.257 139.908 308.737 138.697 310.89 138.562C312.774 138.293 314.254 138.831 315.33 140.177C318.694 144.348 323 147.981 328.247 150.806C329.727 151.614 330.267 152.959 330.131 154.574C329.863 156.189 328.651 159.283 326.364 163.724C322.597 171.259 321.79 176.237 323.807 178.525C325.556 180.274 328.247 180.274 332.015 178.39L338.34 174.488L343.856 170.048C343.317 167.491 343.452 164.396 344.394 160.898C346.278 154.036 350.718 148.384 357.985 144.213C361.482 142.195 365.25 140.85 369.018 140.177C373.592 139.369 376.687 140.042 378.572 142.061C383.415 147.308 380.589 153.632 370.363 160.898L357.042 170.72C357.042 172.066 358.388 173.411 361.079 174.622C364.308 176.103 367.942 176.506 371.978 175.833L386.913 173.546L400.369 171.124Z" fill="white"></path>
</svg>
