<?xml version="1.0" encoding="UTF-8"?>
<svg xmlns="http://www.w3.org/2000/svg" width="500" height="300" viewBox="0 0 500 300" fill="none">
  <path d="M250.212 61.0312L80.425 103.106C80.2125 103.106 80.2125 103.319 80 103.319C80 103.531 80 103.531 80 103.744L103.162 203.406C103.162 203.406 103.162 203.619 103.375 203.619L103.588 203.831L250.638 238.469H250.85L396.625 202.769C396.625 202.769 396.838 202.769 396.838 202.556L397.05 202.344L420 103.319C420 103.106 420 103.106 420 102.894C420 102.681 419.788 102.681 419.575 102.681L250.425 61.0312H250.212ZM387.275 192.781L250.425 225.081H250.212L113.362 192.994C113.15 192.994 113.15 192.994 113.15 192.781L112.938 192.569L95.3 110.969C95.3 110.756 95.3 110.756 95.3 110.544C95.3 110.331 95.5125 110.331 95.725 110.331L250.212 73.3563H250.425L404.7 110.119C404.913 110.119 404.912 110.331 405.125 110.331C405.125 110.544 405.125 110.544 405.125 110.756L387.487 192.356C387.487 192.356 387.488 192.569 387.275 192.569C387.488 192.781 387.275 192.781 387.275 192.781Z" fill="white"></path>
  <path d="M170.099 147.519C170.099 147.519 169.249 128.819 159.899 119.044C149.487 107.144 122.287 116.069 115.912 116.494C115.912 116.494 115.912 116.494 115.699 116.494C115.699 116.494 115.699 116.494 115.699 116.706C115.699 116.706 115.699 116.706 115.699 116.919L120.799 122.869L129.512 172.594V174.294L126.749 180.881C126.749 180.881 126.749 180.881 126.749 181.094C126.749 181.094 126.749 181.094 126.749 181.306C126.749 181.306 126.749 181.306 126.962 181.306C126.962 181.306 126.962 181.306 127.174 181.306C130.574 180.881 153.524 177.906 160.537 173.231C166.699 168.556 171.162 161.119 170.099 147.519ZM153.312 154.744C153.312 155.806 153.099 157.081 152.674 158.144C152.249 159.206 151.612 160.269 150.762 160.906C149.912 161.756 148.849 162.394 147.787 162.606C146.724 163.031 145.449 163.244 144.387 163.031H144.174C144.174 163.031 144.174 163.031 144.174 162.819L137.799 126.906C138.862 126.481 140.137 126.269 141.412 126.269C142.687 126.269 143.749 126.694 144.812 127.119C145.874 127.544 146.937 128.394 147.574 129.244C148.424 130.094 148.849 131.156 149.274 132.431C149.487 132.431 154.162 145.394 153.312 154.744Z" fill="white"></path>
  <path d="M210.262 149.856L199.212 150.919C199 150.919 199 150.919 199 151.131L198.787 151.344C198.787 152.619 198.362 156.869 196.025 158.356C195.387 158.781 194.962 158.781 194.325 158.781C193.687 158.781 193.05 158.356 192.625 157.931C191.35 156.656 189.862 153.681 189.437 146.244L210.05 144.544H210.262V144.331C210.262 141.781 210.262 119.894 197.512 116.069C183.912 112.031 178.812 122.231 178.812 122.231C178.812 122.231 172.225 134.981 177.537 156.656C178.387 160.694 180.512 164.306 183.275 167.494C185.612 170.044 189.012 171.744 192.412 172.169C196.025 172.594 199.637 171.744 202.4 169.619C204.95 167.919 206.65 165.581 207.925 162.606C209.837 158.569 210.687 154.319 210.262 149.856ZM193.05 126.694C197.087 126.906 197.512 134.769 197.512 136.044L188.8 136.681C188.375 135.406 188.162 126.694 193.05 126.694Z" fill="white"></path>
  <path d="M212.601 116.069L216.001 121.169V121.381L217.488 163.881V164.094L214.726 169.194V169.406V169.619C214.726 169.619 214.726 169.619 214.938 169.831H215.151L231.513 169.406C231.513 169.406 231.726 169.406 231.726 169.194L231.938 168.981L230.663 134.344C230.663 134.344 230.451 130.944 233.638 130.519C236.613 130.519 236.613 134.131 236.613 134.131L237.888 168.556C237.888 168.556 237.888 168.556 237.888 168.769C237.888 168.981 237.888 168.769 237.888 168.981C237.888 168.981 237.888 168.981 238.101 168.981C238.101 168.981 238.101 168.981 238.313 168.981L253.613 168.769H253.826C253.826 168.769 253.826 168.769 254.038 168.556V168.344V168.131L252.126 163.881C252.126 163.881 252.126 163.881 252.126 163.669L250.638 125.631C250.638 125.631 250.426 113.731 241.076 113.306C238.738 113.306 236.613 114.156 234.913 115.431C233.001 116.706 231.726 118.619 230.876 120.531C230.876 120.531 230.876 120.744 230.663 120.744H230.451C230.451 120.744 230.238 120.744 230.238 120.531V120.319V115.006C230.238 115.006 230.238 114.794 230.026 114.794C229.813 114.794 229.813 114.581 229.813 114.581L213.238 115.219H213.026C213.026 115.219 212.813 115.219 212.813 115.431C212.601 115.644 212.601 115.856 212.601 116.069Z" fill="white"></path>
  <path d="M257.224 115.006L260.199 120.319V120.531L258.924 163.031V163.244L255.949 168.131V168.344V168.556C255.949 168.556 255.949 168.769 256.162 168.769H256.374L272.737 169.194H272.949L273.162 168.981L274.012 134.344C274.012 134.344 274.012 130.944 277.199 130.519C280.174 130.731 279.962 134.344 279.962 134.344L279.324 168.981C279.324 168.981 279.324 169.194 279.537 169.194L279.749 169.406L295.899 170.044H296.112C296.112 170.044 296.324 170.044 296.324 169.831V169.619V169.406L293.774 164.731C293.774 164.731 293.774 164.731 293.774 164.519L294.624 126.481C294.624 126.481 295.049 114.794 285.912 113.731C283.574 113.731 281.449 114.369 279.537 115.431C277.624 116.706 276.137 118.406 275.287 120.319C275.287 120.319 275.287 120.531 275.074 120.531H274.862C274.862 120.531 274.649 120.531 274.649 120.319V120.106L274.862 114.794C274.862 114.794 274.862 114.581 274.649 114.581L274.437 114.369L257.862 114.156H257.649C257.649 114.156 257.649 114.156 257.437 114.369C257.224 114.581 257.224 114.794 257.224 115.006C257.224 114.794 257.224 114.794 257.224 115.006Z" fill="white"></path>
  <path d="M295.262 116.494L315.874 118.194H316.087C316.087 118.194 316.087 118.194 316.299 118.406V118.619V118.831L313.324 123.719C313.112 123.931 313.112 124.356 313.112 124.569L316.087 152.831C316.087 152.831 316.087 153.044 316.299 153.044L316.512 153.256C316.512 153.256 316.724 153.256 316.724 153.044L316.937 152.831L323.949 125.206C323.949 124.994 323.949 124.569 323.949 124.356L322.037 119.469V119.256V119.044C322.037 119.044 322.037 119.044 322.249 118.831C322.462 118.619 322.462 118.831 322.462 118.831L342.862 120.319H343.074C343.074 120.319 343.287 120.319 343.287 120.531V120.744C343.287 120.744 343.287 120.956 343.074 120.956L339.887 124.356C339.462 124.781 339.249 125.206 338.824 125.844C338.612 126.269 338.612 126.481 338.399 126.906L317.574 184.706C317.574 184.706 317.574 184.919 317.362 184.919H317.149L300.362 183.431H300.149C300.149 183.431 300.149 183.431 299.937 183.219V183.006V182.794L303.124 178.756C303.762 177.906 304.399 176.844 304.824 175.781L307.162 168.344L298.237 123.294C298.237 123.081 298.237 123.081 298.024 122.869L294.837 117.131V116.919V116.706C294.837 116.706 294.837 116.494 295.262 116.494C295.049 116.494 295.049 116.494 295.262 116.494Z" fill="white"></path>
  <path d="M357.525 116.919C357.1 120.956 354.975 124.781 352 127.544L345.837 132.006C345.625 132.219 345.412 132.219 345.2 132.006V131.794C345.837 130.519 346.262 129.244 346.9 127.969L348.812 123.506L349.45 122.231C348.175 122.019 347.112 121.594 346.262 120.744C344.775 119.681 343.925 118.194 343.287 116.706C342.862 115.006 342.862 113.306 343.5 111.606C344.137 109.906 345.412 108.631 346.9 107.781C348.387 106.931 350.087 106.719 351.787 106.931C352.637 107.144 353.7 107.356 354.337 107.994C355.187 108.419 355.825 109.269 356.25 109.906C357.525 111.819 357.95 114.369 357.525 116.919Z" fill="white"></path>
  <path d="M380.476 141.144L382.813 129.456C382.813 129.244 382.813 129.244 382.813 129.031C382.813 128.819 382.601 128.819 382.601 128.606C380.901 127.331 373.251 122.444 366.876 123.294C363.901 123.506 361.138 124.356 358.588 125.844C355.826 127.756 353.701 130.731 352.638 133.919C351.576 137.106 351.576 140.719 352.426 143.906C352.851 145.394 353.701 146.881 354.551 148.156C355.826 149.856 357.101 151.769 358.163 153.469C359.013 154.956 360.076 156.231 360.926 157.719C361.563 158.569 362.201 159.631 362.413 160.694C362.413 160.906 362.413 161.331 362.413 161.544C362.413 162.394 361.988 163.244 361.138 163.881C360.501 164.519 359.651 164.944 358.588 164.944C355.613 164.731 351.363 161.544 347.326 157.081C347.326 157.081 347.326 157.081 347.113 156.869H346.901H346.688C346.688 156.869 346.688 156.869 346.688 157.081L343.926 170.894C343.926 171.106 343.926 171.319 343.926 171.319C343.926 171.531 344.138 171.531 344.138 171.744C346.051 173.656 355.188 181.306 364.963 177.694C376.013 173.656 376.863 165.369 376.863 165.369C377.501 162.394 377.501 159.206 376.651 156.231C375.801 153.256 374.313 150.494 372.401 148.156C365.388 140.081 365.813 138.806 365.813 138.806C365.813 138.169 365.813 137.744 366.026 137.319C366.238 136.894 366.451 136.256 366.876 136.044C367.301 135.619 367.726 135.406 368.151 135.194C368.576 134.981 369.213 134.981 369.638 134.981C373.251 134.981 377.713 139.656 378.988 141.356L379.201 141.569H379.413L379.626 141.356C380.688 141.356 380.688 141.356 380.476 141.144Z" fill="white"></path>
</svg>
