<?xml version="1.0" encoding="UTF-8"?>
<svg xmlns="http://www.w3.org/2000/svg" width="500" height="300" viewBox="0 0 500 300" fill="none">
  <g clip-path="url(#clip0_135_336)">
    <mask id="mask0_135_336" style="mask-type:alpha" maskUnits="userSpaceOnUse" x="30" y="67" width="441" height="166">
      <path d="M250 67.276C127.898 67.276 30 103.877 30 149.766C30 195.38 128.705 232.276 250 232.276C371.315 232.276 470 195.262 470 149.766C470 104.271 371.315 67.276 250 67.276Z" fill="white"></path>
    </mask>
    <g mask="url(#mask0_135_336)">
      <path d="M336.662 167.24C336.721 167.634 337.213 167.988 337.685 168.165C337.882 168.224 337.961 168.342 337.764 168.756C336.386 171.668 335.147 173.36 333.435 175.918C331.86 178.28 330.07 180.11 327.925 181.881C324.658 184.577 320.152 187.489 316.413 185.541C314.76 184.675 314.052 182.353 314.072 180.484C314.15 175.19 316.512 169.779 320.841 164.446C326.134 157.952 331.979 154.568 335.796 156.398C339.771 158.306 338.512 162.891 336.741 166.493C336.618 166.722 336.59 166.99 336.662 167.24ZM379.245 126.113C379.521 125.602 379.245 125.228 378.596 125.228H367.478C366.651 125.228 366.218 125.346 365.844 126.113C364.565 128.553 349.02 151.832 346.127 156.358C345.655 157.047 345.045 156.949 344.986 156.162C344.691 153.485 342.368 150.396 338.708 148.92C336.071 147.855 333.197 147.516 330.385 147.936C325.268 148.645 320.723 151.34 316.708 154.371C310.687 158.956 305.492 164.899 298.762 169.306C295.082 171.688 290.064 173.773 286.699 170.664C283.669 167.85 284.004 161.573 288.667 156.732C289.159 156.221 289.75 156.654 289.651 157.106C289.4 158.159 289.431 159.259 289.742 160.296C290.053 161.333 290.633 162.269 291.422 163.01C293.449 164.82 296.342 165.036 298.841 163.797C300.239 163.068 301.439 162.01 302.337 160.714C303.235 159.418 303.805 157.923 303.996 156.358C304.162 155.207 304.087 154.033 303.779 152.912C303.47 151.79 302.933 150.744 302.202 149.839C301.47 148.934 300.56 148.19 299.528 147.652C298.496 147.115 297.365 146.796 296.204 146.716C292.347 146.441 288.628 147.779 285.007 150.77C283.299 152.148 281.812 153.781 280.599 155.611C280.206 156.162 279.635 156.201 279.655 155.414C279.832 149.078 277.215 145.516 271.98 145.398C267.927 145.299 263.578 147.503 260.193 150.199C256.494 153.171 253.247 157.126 249.764 160.825C249.351 161.298 248.977 161.278 248.839 160.392C248.858 156.459 247.789 152.598 245.75 149.235C245.389 148.712 244.849 148.341 244.231 148.192C243.614 148.043 242.963 148.127 242.404 148.428C241.834 148.723 239.885 149.609 238.469 150.77C237.76 151.36 237.485 152.187 237.8 153.269C239.669 159.527 239.256 166.65 236.717 172.671C234.376 178.181 229.85 183.16 224.517 184.832C221.014 185.954 217.354 185.403 215.091 182.274C212.002 177.984 213.241 170.527 217.866 164.308C221.959 158.838 227.862 155.374 233.746 153.131C234.435 152.875 234.592 152.423 234.395 151.832L233.352 148.959C232.801 147.503 231.286 147.287 229.456 147.484C225.166 147.976 221.309 149.451 217.492 151.478C207.515 156.831 202.497 167.181 200.313 172.73C199.571 174.807 198.516 176.758 197.184 178.516C195.61 180.484 193.642 182.294 190.021 185.462C189.824 185.642 189.689 185.88 189.636 186.142C189.583 186.404 189.615 186.676 189.726 186.918C190.467 188.268 191.402 189.501 192.501 190.578C193.091 190.874 193.78 190.46 194.055 190.264C196.574 188.552 199.605 185.836 201.08 183.986C201.592 183.357 202.143 183.632 202.419 184.577C203.086 187.034 204.346 189.29 206.089 191.146C207.832 193.003 210.004 194.402 212.415 195.222C221.565 198.312 231.07 193.845 238.233 186.052C242.778 181.133 244.431 177.925 246.182 175.781C249.134 172.101 254.979 163.895 261.925 158.641C264.483 156.693 267.494 155.217 269.009 156.201C270.229 156.988 270.623 158.818 268.674 162.38C261.59 175.328 251.161 190.519 249.233 194.219C248.878 194.849 249.193 195.36 249.862 195.36H260.606C261.177 195.321 261.433 195.065 261.708 194.671C267.14 186.151 272.256 178.044 277.746 169.68C278.061 169.169 278.336 169.562 278.336 169.779C278.474 171.707 278.927 174.364 280.107 176.115C280.958 177.545 282.169 178.726 283.619 179.541C285.07 180.356 286.709 180.776 288.372 180.759C290.68 180.791 292.966 180.307 295.063 179.342C297.345 178.496 299.195 177.394 300.572 176.391C301.399 175.82 301.556 176.784 301.517 176.922C300.258 183.671 301.812 191.68 308.542 195.026C316.571 198.961 325.406 193.412 330.503 188.374C330.995 187.883 331.526 187.942 331.585 188.984C331.703 190.913 332.569 193.176 334.143 194.79C338.394 199.06 346.993 197.348 355.612 190.677C361.161 186.407 366.946 180.366 372.181 173.97C372.377 173.734 372.535 173.34 372.141 172.927C371.354 172.101 370.193 171.156 369.406 170.408C369.052 170.094 368.521 170.192 368.225 170.408C362.853 175.525 358.013 181.33 351.047 186.151C348.685 187.784 344.946 189.103 343.254 186.84C342.585 185.954 342.664 184.734 343.313 183.101C345.34 178.044 377.553 129.006 379.245 126.113Z" fill="white"></path>
      <path d="M227.646 132.036C227.784 132.764 228.079 132.902 228.413 132.823C230.249 132.324 231.842 131.178 232.9 129.596C233.884 128.179 234.336 126.133 233.372 125.306C232.506 124.578 231.109 124.775 230.066 125.7C229.18 126.481 228.497 127.466 228.075 128.57C227.654 129.674 227.506 130.863 227.646 132.036ZM145.53 195.183C133.526 195.262 122.939 187.843 121.719 174.974C121.017 168.281 122.943 161.578 127.091 156.28C130.673 151.616 136.733 147.759 141.85 146.814C143.503 146.5 145.746 146.696 146.671 147.798C148.127 149.491 147.714 151.34 146.258 152.088C142.342 154.076 137.639 157.5 135.317 162.163C134.244 164.145 133.734 166.383 133.842 168.634C133.949 170.885 134.67 173.063 135.927 174.934C140.748 182.215 154.208 182.412 166.703 170.802C169.812 167.949 172.567 165.213 175.381 161.986C180.891 155.689 182.721 153.387 190.041 143.233C190.12 143.115 190.159 142.958 190.12 142.898C190.061 142.761 189.962 142.741 189.746 142.702C184.866 142.859 180.596 144.315 176.463 147.405C175.283 148.271 173.551 148.153 172.803 147.011C171.977 145.712 172.567 144.02 173.945 143.076C180.596 138.432 187.877 137.605 195.315 136.346C195.315 136.346 195.826 136.346 196.259 135.814C199.309 131.879 201.612 128.356 204.859 124.401C208.145 120.387 212.376 116.687 215.603 113.913C220.129 110.036 223.021 108.737 225.953 107.124C226.741 106.73 225.855 106.238 225.619 106.238C209.188 103.149 192.127 99.1543 175.814 105.195C164.519 109.407 159.56 118.38 161.941 124.362C163.633 128.612 169.222 129.281 174.456 126.723C178.785 124.618 182.819 121.174 185.673 116.766C187.247 114.306 190.612 116.077 188.801 120.347C184.02 131.564 174.909 140.458 163.81 140.832C154.345 141.147 148.245 134.181 148.265 125.602C148.304 108.678 167.156 97.5407 186.932 95.8681C210.782 93.9003 233.372 100.256 257.045 103.129C275.188 105.314 292.583 105.373 310.825 101.161C312.989 100.709 314.485 102.086 314.367 104.251C314.17 107.399 311.73 110.43 305.728 113.696C298.9 117.455 291.757 118.596 284.279 118.655C266.254 118.813 249.449 111.768 232.034 107.99C232.054 108.757 232.27 109.662 231.64 110.154C221.998 117.238 213.281 124.46 207.436 134.594C207.24 134.831 207.358 135.067 207.692 135.027C212.769 134.771 217.315 134.634 222.057 134.24C222.864 134.181 222.903 133.984 222.844 133.374C222.589 131.503 222.788 129.598 223.425 127.82C224.062 126.042 225.118 124.444 226.504 123.161C229.653 120.347 233.589 120.013 236.206 122.059C239.157 124.362 238.902 128.534 237.288 131.643C236.561 133.011 235.566 134.22 234.363 135.197C233.159 136.174 231.772 136.899 230.283 137.33C230.283 137.33 229.732 137.448 229.81 137.94C229.909 138.727 233.49 140.714 233.785 141.246C234.08 141.757 233.923 142.525 233.392 143.115C233.181 143.371 232.917 143.578 232.618 143.721C232.319 143.864 231.992 143.939 231.66 143.941C231.05 143.941 230.676 143.725 229.889 143.292C228.013 142.29 226.344 140.941 224.97 139.317C224.497 138.746 224.261 138.727 223.14 138.805C218.023 139.101 210.034 139.868 204.642 140.537C203.324 140.695 203.127 140.95 202.871 141.403C194.252 155.61 185.043 170.94 174.928 181.212C164.106 192.212 155.093 195.104 145.53 195.183Z" fill="white"></path>
      <path d="M250 80.7751C137.658 80.7751 46.6082 111.807 46.6082 149.805C46.6082 187.784 137.658 218.836 250 218.836C362.342 218.836 453.392 187.784 453.392 149.805C453.392 111.827 362.322 80.7751 250 80.7751ZM250 225.093C133.565 225.093 39.1896 191.385 39.1896 149.805C39.1896 108.206 133.565 74.5175 250 74.5175C366.415 74.5175 460.791 108.206 460.791 149.805C460.791 191.385 366.415 225.093 250 225.093Z" fill="white"></path>
    </g>
  </g>
  <defs>
    <clipPath id="clip0_135_336">
      <rect width="440" height="168.256" fill="white" transform="translate(30 65.6479)"></rect>
    </clipPath>
  </defs>
</svg>
