<?xml version="1.0" encoding="UTF-8"?>
<svg xmlns="http://www.w3.org/2000/svg" width="500" height="300" viewBox="0 0 500 300" fill="none">
  <path fill-rule="evenodd" clip-rule="evenodd" d="M290.273 123.423C298.591 122.054 307.856 122.475 316.49 121.528C316.384 125.108 314.805 128.582 313.963 132.162L314.805 132.688L335.863 132.583L333.546 141.427L311.752 141.743C308.804 150.587 306.487 159.853 303.96 168.908C303.96 171.224 305.855 172.593 307.751 173.54C314.384 173.54 322.175 174.593 328.071 172.277L325.334 182.385L289.009 182.7C284.061 181.963 279.007 177.331 278.059 172.803L278.27 166.275C282.376 152.167 286.272 137.742 290.273 123.423ZM206.147 133.636C212.781 142.901 218.782 152.272 224.257 161.959C214.044 169.223 203.62 176.173 193.302 183.016V183.543L210.359 183.227L229.627 170.276C232.47 174.383 235.312 178.489 236.892 183.122L269.531 182.806C268.794 182.595 268.268 181.753 267.636 181.332L251.737 155.325L284.061 133.32V132.794L264.582 133.425C259.739 139.427 252.369 142.375 246.262 146.797C243.63 142.375 239.945 138.479 239.208 133.32L206.147 133.636ZM417.251 132.373L417.672 134.899L405.985 178.068L403.142 182.279H433.991L433.36 178.805L440.94 149.64C441.256 147.955 442.625 146.271 444.31 145.534C450.732 145.639 460.313 143.428 466.21 147.008L470 132.583C460.313 134.057 447.258 128.161 441.677 138.374C440.73 136.689 441.256 134.478 441.151 132.478C441.151 132.373 417.251 132.373 417.251 132.373ZM112.441 115L50.2154 115.316L50.3207 120.159L34.4221 176.488L30 184.49H96.4369C102.438 184.596 107.598 182.7 110.335 177.962C112.335 171.013 115.915 164.38 115.073 156.589C114.125 153.536 111.809 150.798 108.966 148.903C111.809 148.166 114.547 147.113 116.758 145.007C121.496 139.006 122.864 131.53 123.075 124.16C122.127 119.633 117.389 115.737 112.441 115ZM78.7485 126.476L95.0682 126.582C97.3845 127.845 96.5422 131.004 96.0158 132.688C94.5418 136.058 94.647 140.585 91.3831 142.901L72.6418 143.007L78.7485 126.476ZM69.3778 154.378L86.7504 154.273C89.1721 155.325 88.5403 158.589 87.9086 160.379C85.6975 164.275 88.2245 170.382 83.5918 172.593H64.7452C65.4822 166.591 67.7985 160.485 69.3778 154.378ZM186.037 133.952L131.498 134.162L127.602 143.323C140.763 141.427 154.977 142.691 168.138 142.375C169.296 142.901 169.823 144.06 170.034 145.218C169.507 146.797 169.612 148.903 167.717 149.745L131.814 150.587L125.602 153.536C120.548 158.8 119.39 165.538 118.969 172.593C119.285 176.699 122.127 180.489 125.918 182.595C134.235 185.122 146.028 183.859 155.925 183.543C158.241 183.016 159.715 180.7 160.768 178.91C161.61 180.384 162.242 182.069 162.663 183.648L188.354 183.753L187.511 180.279L195.092 152.377C196.25 148.798 197.408 143.744 194.882 140.48C193.092 137.216 189.512 135.215 186.037 133.952ZM165.822 159.537L162.032 173.014L160.347 174.277L147.397 174.488C141.816 171.435 147.186 165.223 147.712 160.8L149.818 159.537H165.822ZM399.457 132.794L350.182 132.583C346.497 133.32 343.128 135.426 340.811 138.585C337.442 149.113 334.178 159.853 332.283 171.013C333.125 176.173 337.337 181.226 343.022 182.385L397.14 182.279L401.352 171.856L398.615 173.014L361.553 173.33L359.658 172.382C356.71 168.908 360.184 165.433 360.605 161.959L405.248 161.222C406.511 154.167 411.354 147.113 407.775 139.532C406.195 136.479 402.826 133.741 399.457 132.794ZM367.976 141.954L379.978 141.743C381.137 142.059 382.4 143.007 382.716 144.27C382.611 146.797 382.084 149.219 381.137 151.535L363.553 151.851C365.028 148.587 364.501 144.06 367.976 141.954Z" fill="white"></path>
</svg>
