<?xml version="1.0" encoding="UTF-8"?>
<svg xmlns="http://www.w3.org/2000/svg" width="500" height="300" viewBox="0 0 500 300" fill="none">
  <path d="M390.756 181.264C382.972 181.376 378.828 176.42 378.828 167.628C378.828 167.04 378.856 166.48 378.884 165.92H409.46C410.076 163.596 410.468 161.076 410.468 158.752C410.468 148.028 403.888 139.852 390.448 139.852C376.7 139.852 364.492 153.404 364.492 167.628C364.492 181.264 373.396 189.552 388.236 189.552C394.816 189.552 401.284 187.34 405.82 183.896L402.992 176.812C399.436 179.528 395.096 181.152 390.756 181.264ZM390.644 147.496C395.18 147.496 397.504 150.436 397.504 156.904C397.504 157.52 397.476 158.164 397.392 158.836H379.948C381.88 152.032 385.912 147.496 390.644 147.496Z" fill="white"></path>
  <path d="M269.713 136.8C269.713 125.684 261.033 117.592 247.873 117.592H222.421L203.213 188.32H219.285L226.369 162.252H240.313C256.273 162.252 269.713 151.948 269.713 136.8ZM234.125 153.964H228.609L236.225 125.88H242.021C249.329 125.88 253.445 130.836 253.445 137.388C253.445 147.916 245.185 153.964 234.125 153.964Z" fill="white"></path>
  <path d="M290.628 141.14L292.42 134.56C293.316 131.116 294.856 125.264 296.956 118.488C299.168 111.516 303.228 107.176 308.688 107.176C311.32 107.176 312.944 108.38 312.944 110.396C312.832 112.608 311.012 113.924 311.012 117.48C311.012 121.624 314.54 124.844 319.104 124.844C324.76 124.844 329.295 120.308 329.295 114.736C329.295 106.14 321.932 100.484 310.704 100.484C294.24 100.484 283.432 110.984 276.656 135.54L249.188 235.528H264.756L288.5 148.924H304.684L294.044 188.32H309.612L322.352 141.14H290.628Z" fill="white"></path>
  <path d="M369.448 141.14H328.204L326.188 148.924H346.152L315.184 188.32H358.836L360.852 180.536H338.396L369.448 141.14Z" fill="white"></path>
  <path d="M451.096 140.328C445.524 140.328 439.588 143.94 434.94 151.416L437.656 141.14H422.088L409.348 188.32H424.916L430.684 167.096C433.008 158.416 438.664 149.904 442.416 149.904C446.448 149.904 444.936 157.492 451.908 157.492C456.948 157.492 460 152.844 460 148.588C459.972 143.66 456.024 140.328 451.096 140.328Z" fill="white"></path>
  <path d="M58.06 143.576C69.96 139.18 90.232 138.06 117.112 141.14L125.036 111.18C94.404 106.98 62.232 110.088 54.728 120.868C51.424 125.712 50.556 135.848 58.06 143.576ZM176.164 138.732C164.264 143.128 143.992 144.248 117.112 141.168L109.188 171.128C139.82 175.328 171.992 172.22 179.496 161.44C182.8 156.568 183.668 146.432 176.164 138.732ZM186.748 149.288L191.592 131.228C193.356 124.844 194.224 121.54 194.224 118.88C194.224 95.752 133.604 67.528 75.868 64L67.72 93.96C127.22 98.16 188.064 127.028 186.496 149.288H186.748ZM47.476 132.992L42.632 151.052C40.868 157.436 40 160.74 40 163.4C40 186.528 100.62 214.752 158.356 218.28L166.504 188.32C106.976 184.12 46.16 155.252 47.7 132.992H47.476Z" fill="white"></path>
</svg>
