<?xml version="1.0" encoding="UTF-8"?>
<svg xmlns="http://www.w3.org/2000/svg" width="500" height="300" viewBox="0 0 500 300" fill="none">
  <path d="M217.697 169.933C216.733 170.021 215.532 170.163 213.656 170.163C204.703 170.163 205.698 167.463 209.471 152.847C213.403 137.656 215.688 134.88 221.282 134.88C226.659 134.88 226.704 138.509 225.337 143.091H238.994C241.208 134.53 239.728 126.943 223.76 126.943C205.977 126.943 201.148 130.693 195.419 152.847C190.083 173.479 191.838 178.95 211.06 178.95C220.174 178.95 223.99 178.282 229.541 177.275L235.969 153.157H222.265L217.697 169.933Z" fill="white"></path>
  <path d="M259.989 139.536C260.534 137.421 262.036 135.623 264.972 135.623H279.609L281.668 127.656H260.406C251.591 127.656 248.94 129.233 245.52 142.499L239.204 166.764C237.269 174.902 239.682 178.445 246.337 178.445H264.679C268.291 178.445 270.619 176.531 271.739 173.583L273.243 169.696H254.828C253.043 169.696 252.424 169.154 252.763 167.723L255.861 155.582H274.129L276.194 147.622H257.917L259.989 139.536Z" fill="white"></path>
  <path d="M473.956 135.623H488.581L490.647 127.656H469.385C460.563 127.656 457.91 129.233 454.485 142.499L448.18 166.757C446.24 174.9 448.659 178.445 455.307 178.445H473.655C477.262 178.445 479.588 176.529 480.711 173.583L482.217 169.696H463.8C462.014 169.696 461.396 169.154 461.733 167.716L464.833 155.582H483.101L485.161 147.622H466.891L468.968 139.531C469.513 137.424 471.019 135.623 473.956 135.623Z" fill="white"></path>
  <path d="M174.628 127.656H156.336L143.603 176.922C143.383 177.765 143.873 178.445 144.702 178.445H160.986C181.447 178.445 184.897 174.537 190.508 152.837C195.385 133.98 192.377 127.656 174.628 127.656ZM176.494 152.835C172.672 167.638 170.448 169.772 162.906 169.772H159.155L167.987 135.635C169.121 135.631 169.548 135.586 172.364 135.586C180.291 135.583 180.279 138.207 176.494 152.835Z" fill="white"></path>
  <path d="M430.458 127.557C419.921 127.557 415.028 127.784 412.148 127.656L399.403 176.922C399.183 177.766 399.673 178.445 400.498 178.445H412.716L423.791 135.635C424.919 135.631 426.629 135.538 428.367 135.538C434.305 135.538 435.089 137.649 433.526 143.702L424.926 176.925C424.708 177.766 425.201 178.452 426.025 178.452H438.244L447.23 143.702C450.344 131.664 445.055 127.557 430.458 127.557Z" fill="white"></path>
  <path d="M362.383 131.036L363.664 127.656H324.622L322.51 135.908H336.081C336.221 135.908 336.221 136.081 336.1 136.173C333.93 137.802 332.604 140.128 331.974 142.563L323.071 176.922C322.856 177.761 323.353 178.445 324.172 178.445H337.291L348.312 135.908H355.036C358.811 135.908 361.104 134.328 362.383 131.036Z" fill="white"></path>
  <path d="M146.016 127.656H133.101L120.356 176.922C120.141 177.761 120.633 178.445 121.458 178.445H134.375L147.115 129.179C147.335 128.338 146.838 127.656 146.016 127.656Z" fill="white"></path>
  <path d="M384.659 126.955C369.283 126.955 362.609 129.691 356.567 153.053C351.332 173.294 355.527 179.151 371.166 179.151C387.077 179.151 393.363 175.878 399.261 153.053C403.536 136.533 402.664 126.955 384.659 126.955ZM385.341 152.648C381.594 167.124 377.897 170.62 373.369 170.62C367.511 170.62 366.635 168.479 370.728 152.648C374.134 139.472 377.385 134.882 382.617 134.882C388.472 134.885 389.124 138.035 385.341 152.648Z" fill="white"></path>
  <path d="M19.3343 153.794C30.3926 142.293 45.6502 129.447 58.3048 120.79C58.6151 120.574 58.4872 120.044 58.0798 120.044H33.7487C30.5442 120.044 27.3704 122.661 26.6031 125.529L18.6427 153.43C18.5266 153.854 19.043 154.097 19.3343 153.794Z" fill="white"></path>
  <path d="M60.7363 146.943C66.8683 145.896 73.0547 143.425 75.2597 134.482C77.6447 124.8 70.2433 119.497 61.7311 120.042L48.7046 165.641C48.0011 168.109 45.3627 170.182 42.8569 170.182H37.8594L45.7369 142.639C45.8529 142.225 45.4053 141.919 45.0666 142.208C33.4801 152.172 19.5063 166.729 10.7595 177.737C10.5369 178.019 10.6506 178.443 11.0343 178.443H45.114C59.4834 178.443 67.3514 173.988 70.2007 163.351C72.5241 154.687 67.9838 148.778 60.734 147.25C60.6084 147.229 60.4924 146.988 60.7363 146.943Z" fill="white"></path>
  <path d="M121.578 142.497C123.715 134.236 118.507 127.656 105.35 127.656H85.7982L73.0535 176.922C72.8332 177.761 73.3259 178.445 74.1525 178.445H86.3713L97.4415 135.635C98.6233 135.631 99.7555 135.586 102.567 135.586C107.278 135.586 109.018 138.492 108.002 142.414C106.664 147.584 102.659 150.486 97.8962 150.486H96.1009L101.184 175.063C101.79 177.462 102.993 178.452 105.748 178.452H116.662L111.917 158.084C111.46 156.565 110.972 155.462 110.248 154.562C110.153 154.446 110.132 154.292 110.302 154.235C116.14 152.435 119.958 148.745 121.578 142.497Z" fill="white"></path>
  <path d="M304.022 126.524C291.966 126.524 285.455 131.259 283.123 140.32C282.476 142.81 282.715 146.862 284.2 149.403C287.507 155.071 296.279 155.779 301.135 159.15C303.24 160.616 303.309 162.596 302.743 164.77C301.656 169 299.526 171.018 295.296 171.018C291.227 171.018 288.788 168.652 291.116 161.239H278.206C273.035 173.611 279.778 179.218 293.518 179.218C306.061 179.218 313.024 176.233 316.009 164.701C317.027 160.758 316.366 156.502 313.95 153.875C309.258 148.778 300.242 147.821 297.07 144.868C295.455 143.366 295.474 141.263 295.938 139.449C296.796 136.131 299.029 134.314 302.648 134.314C308.323 134.314 308.46 137.807 307.065 141.94H319.227C322.091 133.3 318.346 126.524 304.022 126.524Z" fill="white"></path>
</svg>
