<?xml version="1.0" encoding="UTF-8"?>
<svg xmlns="http://www.w3.org/2000/svg" width="500" height="300" viewBox="0 0 500 300" fill="none">
  <path d="M427.813 118.76C432.065 118.76 436.135 116.721 438.704 113.307C440.484 110.932 441.426 108.114 441.426 105.146C441.426 102.181 440.484 99.3563 438.704 96.9813C436.135 93.5697 432.065 91.5305 427.813 91.5305C420.304 91.5305 414.195 97.6369 414.195 105.146C414.195 112.652 420.304 118.76 427.813 118.76Z" fill="white"></path>
  <path d="M479.646 119.576C479.497 119.396 479.195 119.377 478.843 119.486C478.776 119.51 478.717 119.534 478.65 119.559C468.433 123.308 445.917 127.391 415.608 122.003C379.51 115.591 366.553 118.814 360.187 121.143C360.13 121.163 360.078 121.18 360.025 121.204C359.642 121.365 359.4 121.614 359.418 121.869C359.434 122.134 359.714 122.348 360.123 122.459C360.144 122.46 360.159 122.464 360.179 122.472C405.752 132.707 377.544 170.809 315.327 206.753C315.215 206.806 315.109 206.864 315.019 206.929C314.663 207.172 314.476 207.474 314.548 207.73C314.634 208.02 315.052 208.171 315.582 208.146C315.631 208.142 315.68 208.14 315.723 208.135C326.573 207.157 342.559 201.353 361.753 192.809C361.761 192.804 361.763 192.802 361.777 192.8C364.017 191.804 366.301 190.768 368.625 189.697C378.327 185.451 389.339 181.477 396.326 183.677C405.541 186.58 407.314 193.445 408.417 206.458C408.424 206.524 408.433 206.589 408.438 206.66C408.484 206.997 408.616 207.243 408.833 207.31C409.068 207.382 409.347 207.215 409.587 206.911C409.614 206.872 409.641 206.834 409.673 206.795C414.149 200.636 430.767 176.568 431.706 157.567C454.03 144.622 472.654 131.343 479.387 120.727C479.474 120.615 479.545 120.495 479.604 120.379C479.771 120.058 479.797 119.757 479.646 119.576Z" fill="white"></path>
  <path d="M262.019 126.515V130.427C259.381 128.548 256.348 127.196 253.063 126.515C251.498 126.193 249.881 126.024 248.219 126.024C246.559 126.024 244.936 126.193 243.374 126.515C232.588 128.744 224.473 138.266 224.406 149.694C224.404 149.74 224.404 149.791 224.404 149.839C224.404 149.889 224.404 149.94 224.406 149.985C224.483 163.072 235.114 173.657 248.22 173.657C253.362 173.657 258.128 172.029 262.019 169.257V173.163H271.543H272.039H272.041V126.515H271.543H262.019ZM248.218 163.639C240.598 163.639 234.421 157.459 234.421 149.839C234.421 142.22 240.598 136.04 248.218 136.04C255.84 136.04 262.017 142.22 262.017 149.839C262.017 157.458 255.84 163.639 248.218 163.639Z" fill="white"></path>
  <path d="M136.867 126.515V130.427C134.229 128.548 131.192 127.196 127.911 126.515C126.348 126.193 124.725 126.024 123.063 126.024C121.404 126.024 119.785 126.193 118.221 126.515C111.92 127.82 106.529 131.61 103.124 136.813C100.716 140.496 99.2985 144.882 99.2516 149.599C99.2516 149.679 99.2477 149.762 99.2477 149.84C99.2477 149.921 99.2516 150.003 99.2516 150.081C99.299 154.798 100.716 159.189 103.124 162.867C107.377 169.366 114.719 173.657 123.063 173.657C128.213 173.657 132.973 172.029 136.867 169.257V173.163H146.386H146.887V126.515H146.386H136.867ZM123.063 163.639C115.444 163.639 109.265 157.459 109.265 149.839C109.265 142.22 115.444 136.04 123.063 136.04C130.686 136.04 136.865 142.22 136.865 149.839C136.865 157.458 130.686 163.639 123.063 163.639Z" fill="white"></path>
  <path d="M57.3514 126.515V130.427C54.7178 128.548 51.6811 127.196 48.3974 126.515C46.833 126.193 45.2124 126.024 43.5537 126.024C41.8917 126.024 40.2722 126.193 38.7062 126.515C27.8752 128.756 19.734 138.348 19.734 149.839C19.734 162.996 30.3996 173.657 43.5537 173.657C48.6963 173.657 53.4622 172.029 57.3514 169.257V173.163H66.8755H67.3707H67.3729V126.515H66.8755H57.3514ZM43.5532 163.639C35.9298 163.639 29.7528 157.459 29.7528 149.839C29.7528 142.22 35.9298 136.04 43.5532 136.04C51.1716 136.04 57.3508 142.22 57.3508 149.839C57.3508 157.458 51.1721 163.639 43.5532 163.639Z" fill="white"></path>
  <path d="M296.178 126.515C293.463 127.204 291.029 128.572 289.061 130.432V126.515H279.037V173.163H289.061V147.139C289.059 147.139 289.059 147.139 289.057 147.139C289.057 141.01 294.024 136.042 300.156 136.042H303.41V126.515V126.024H300.156C298.78 126.024 297.45 126.194 296.178 126.515Z" fill="white"></path>
  <path d="M205.263 126.515C203.883 126.193 202.447 126.024 200.968 126.024C200.829 126.024 200.69 126.024 200.556 126.028C200.444 126.028 200.336 126.036 200.224 126.04C200.21 126.04 200.188 126.04 200.17 126.04C194.937 126.271 190.994 128.729 188.87 130.427C187.724 131.341 187.11 132.036 187.11 132.036C187.11 132.036 186.277 131.111 184.816 129.983C182.794 128.424 179.573 126.486 175.712 126.091C175.681 126.091 175.645 126.089 175.614 126.085C175.54 126.077 175.463 126.07 175.387 126.068C175.328 126.062 175.275 126.06 175.22 126.052C175.161 126.048 175.099 126.046 175.038 126.042C174.962 126.041 174.885 126.037 174.812 126.034C174.768 126.031 174.727 126.028 174.68 126.028C174.56 126.024 174.439 126.024 174.319 126.024C172.921 126.024 171.592 126.187 170.337 126.515C167.948 127.147 165.805 128.389 163.905 130.289C163.905 128.148 163.905 126.515 163.905 126.515H153.889V173.163H163.905V145.481C163.905 140.268 167.885 136.04 173.247 136.04C178.609 136.04 182.101 140.268 182.101 145.481V173.163H192.114V145.481C192.114 140.268 195.991 136.04 201.208 136.04C206.426 136.04 209.817 140.268 209.817 145.481V173.163H219.836V144.89C219.836 135.961 213.602 128.466 205.263 126.515Z" fill="white"></path>
  <path d="M346.639 126.515H334.562L318.347 146.138V115.143V110.966H308.327V173.162H310.564H318.347V153.512L334.562 173.162H346.639L327.38 149.839L346.639 126.515Z" fill="white"></path>
  <path d="M91.5102 126.515C88.8011 127.204 86.3643 128.572 84.3936 130.432V126.515H74.3715V173.163H84.3936C84.3936 173.163 84.3936 154.129 84.3936 148.054C84.3936 140.872 89.0646 136.042 96.2326 136.042H98.741V126.515V126.024H95.487C94.1168 126.024 92.7829 126.194 91.5102 126.515Z" fill="white"></path>
  <path d="M426.498 195.251H425.337V198.547H424.324V195.251H423.163V194.456H426.499L426.498 195.251ZM432.036 198.546H431.083V195.647H431.063L430.011 198.546H429.326L428.273 195.647H428.253V198.546H427.3V194.456H428.65L429.673 197.146L430.695 194.456H432.036L432.036 198.546Z" fill="white"></path>
</svg>
