<?xml version="1.0" encoding="UTF-8"?>
<svg xmlns="http://www.w3.org/2000/svg" width="500" height="300" viewBox="0 0 500 300" fill="none">
  <path fill-rule="evenodd" clip-rule="evenodd" d="M157.159 136.895L147.112 143.79C139.823 148.715 136.474 158.368 142.975 167.824C149.279 177.083 159.523 177.28 167.009 172.158L177.056 165.263L171.343 157.186L162.084 163.687C158.538 166.248 154.204 164.869 152.037 161.52C149.673 158.171 149.87 153.837 153.613 151.276L162.872 144.775L157.159 136.895ZM306.878 44.897C306.09 44.897 305.499 45.291 305.105 45.685C301.165 48.4429 298.21 52.5799 301.559 57.5049C306.681 64.7938 317.121 54.5499 319.485 57.8988C320.47 59.0808 319.682 60.4598 318.106 61.6418C317.318 62.0358 316.53 62.0358 315.545 61.8388C314.757 61.6418 314.166 61.0508 313.772 60.4598L307.075 65.3848C311.212 71.4917 316.924 69.1277 321.652 65.7788C326.38 62.4298 330.32 57.7019 326.577 52.5799C324.213 49.2309 321.652 48.8369 318.697 49.8219C312.787 51.5949 309.833 53.7619 308.848 52.3829C308.06 51.2009 308.454 50.0189 309.242 49.4279C310.03 48.8369 311.015 48.4429 311.803 48.6399C312.591 48.8369 312.788 49.0339 313.181 49.8219L320.864 44.897H346.868V121.529H256.052C243.247 121.529 224.532 127.439 224.532 149.503C224.532 170.779 243.641 176.492 256.052 176.492H346.671V254.306H246.99C192.028 254.306 136.868 217.467 136.868 149.503C136.868 81.5386 194.195 44.897 246.99 44.897H305.893H306.878ZM192.225 154.625L199.908 149.306C198.332 147.139 197.347 145.957 196.165 144.381L185.724 129.212L178.041 134.531L185.921 146.154C186.118 146.351 189.467 150.094 185.724 152.852C183.36 154.428 181.39 152.655 179.814 150.685L171.737 138.865L164.054 144.184L173.313 157.777C176.268 162.111 181.39 162.899 185.921 159.944C188.482 158.171 189.861 156.004 190.255 152.655L192.225 154.625ZM195.18 122.711L187.694 127.833C189.27 130 190.255 131.182 191.437 132.758L201.878 147.73L209.56 142.411L201.681 130.788C201.484 130.591 198.135 126.848 201.878 124.09C204.242 122.514 206.212 124.287 207.787 126.257L215.864 138.077L223.547 132.758L215.667 121.135C215.47 120.938 212.121 117.195 215.864 114.437C218.228 112.861 220.198 114.634 221.774 116.604L229.851 128.424L237.534 123.105L227.684 110.497C224.729 106.163 219.607 105.375 215.076 108.33C212.121 110.497 210.348 113.649 210.742 117.195C208.181 115.422 204.439 116.013 202.075 117.589C199.12 119.756 197.15 122.514 197.741 126.257L195.18 122.711ZM233.003 96.3135L225.517 101.435C227.093 103.602 228.078 104.784 229.26 106.36L239.701 121.332L247.384 116.013L239.504 104.39C239.307 104.193 235.958 100.45 239.701 97.6925C242.065 96.1165 244.035 97.8895 245.611 99.8595L253.688 111.679L261.371 106.36L253.491 94.7375C253.294 94.5405 249.945 90.7975 253.688 88.0396C256.052 86.4636 258.022 88.2366 259.598 90.2065L267.675 102.026L275.358 96.7075L266.099 83.1146C263.144 78.7807 258.022 77.9927 253.491 80.9476C250.536 83.1146 248.763 86.2666 249.157 89.8125C246.596 88.0396 242.853 88.6306 240.489 90.2065C237.534 92.3735 235.564 95.1315 236.155 98.8745L233.003 96.3135ZM285.208 90.0095L271.221 69.9157L263.538 75.0377L277.525 95.1315L285.208 90.0095ZM268.857 66.5668L265.114 61.2478L257.431 66.5668L261.174 71.8857L268.857 66.5668ZM281.662 62.8238L273.979 68.1428C275.555 70.3097 276.54 71.4917 277.722 73.0677L288.163 88.0396L295.846 82.7206L287.966 71.0977C287.769 70.9007 284.42 67.1578 288.163 64.3998C290.527 62.8238 292.497 64.5968 294.073 66.5668L302.15 78.3867L309.833 73.0677L300.574 59.4748C297.619 55.1409 292.497 54.3529 287.966 57.3079C285.405 59.0808 284.026 61.2478 283.632 64.5968L281.662 62.8238Z" fill="white"></path>
</svg>
