<?xml version="1.0" encoding="UTF-8"?>
<svg xmlns="http://www.w3.org/2000/svg" width="500" height="300" viewBox="0 0 500 300" fill="none">
  <path fill-rule="evenodd" clip-rule="evenodd" d="M42.5984 123.78C42.5984 123.78 42.4094 124.346 39.6693 131.622C31.9213 125.48 19.0709 125.953 19.0709 135.402C19.0709 146.457 46 145.039 45.1496 164.787C44.5827 180.661 25.0236 184.252 10 176.598C11.3228 173.764 12.6457 171.118 13.5906 168.945C25.0236 175.654 34.7559 172.63 36.3622 167.15C40.8031 152.315 10.0945 156.945 10.0945 135.874C10.0945 127.087 20.3937 113.291 42.5984 123.78ZM71.7008 122.551H106.945C106.945 122.551 106.85 125.764 106.945 130.205H80.5827V145.984H99.2913C99.1969 149.102 99.2913 151.559 99.2913 153.26H80.5827V172.913H106.945C106.945 175.465 106.945 177.921 106.945 180.472H71.7953L71.7008 122.551ZM155.701 150.898C153.528 150.898 152.016 150.898 149.843 150.898C149.843 140.126 149.843 130.016 149.843 130.016C149.843 130.016 152.394 130.016 154.85 130.016C157.213 130.016 170.724 128.976 171.197 139.748C171.669 150.331 160.992 150.898 155.701 150.898ZM156.268 122.646C153.15 122.551 146.63 122.551 141.055 122.551V180.472H149.937C149.937 180.472 149.937 169.417 149.937 158.551C152.11 158.551 156.74 158.362 160.425 158.268C165.528 158.079 178.945 155.528 178.85 139.654C178.661 121.795 159.386 122.74 156.268 122.646ZM383.795 149.386C381.717 149.386 380.205 149.386 378.126 149.291C378.126 139.087 378.126 129.732 378.126 129.732C378.126 129.732 380.583 129.732 382.945 129.732C385.213 129.732 397.213 129.071 398.252 138.52C399.386 149.575 386.252 149.386 383.795 149.386ZM403.354 180.472H414.409L396.079 154.488C400.992 152.693 406.756 148.441 406 138.898C404.677 121.701 387.858 122.929 384.268 122.74C381.244 122.551 374.724 122.457 369.055 122.551V180.472H378.22C378.22 180.472 378.22 167.528 378.22 156C381.244 156 382.378 156 386.913 155.811C386.819 155.906 403.354 180.472 403.354 180.472ZM244.142 144.378V122.551H253.118V178.016H244.142V151.559H214.189V177.827H205.213V122.551H214.189V144.378H244.142ZM314.157 120C295.543 120 283.354 133.512 283.354 150.236C283.354 166.961 295.449 180.472 314.157 180.472C332.772 180.472 344.961 166.961 344.961 150.236C344.961 133.512 332.772 120 314.157 120ZM314.157 128.22C300.457 128.22 292.709 138.047 292.709 150.236C292.709 162.425 300.362 172.252 314.157 172.252C327.858 172.252 335.606 162.425 335.606 150.236C335.606 138.047 327.858 128.22 314.157 128.22ZM454.189 159.118L473.276 159.024L463.543 130.772H463.449L454.189 159.118ZM458.346 121.701H468.929L490 179.055H480.646C480.646 179.055 478.567 173.291 475.827 165.543L452.11 165.732C452.11 165.732 451.165 168.661 448.331 179.055H439.26C439.165 179.055 458.346 121.701 458.346 121.701Z" fill="white"></path>
</svg>
