<?xml version="1.0" encoding="UTF-8"?>
<svg xmlns="http://www.w3.org/2000/svg" width="500" height="300" viewBox="0 0 500 300" fill="none">
  <path d="M128.529 150C128.529 128.691 139.811 123.677 147.192 123.677C154.574 123.677 165.855 128.691 165.855 150C165.855 171.309 154.574 176.323 147.192 176.323C139.811 176.323 128.529 171.309 128.529 150ZM99.6992 150C99.6992 179.248 118.78 200.14 147.192 200.14C175.605 200.14 194.686 179.248 194.686 150C194.686 120.752 175.605 99.8606 147.192 99.8606C118.78 99.8606 99.6992 120.752 99.6992 150Z" fill="white"></path>
  <path d="M220.172 126.741H193.988V102.089H275.186V126.741H249.002V197.911H220.172V126.741Z" fill="white"></path>
  <path d="M310.285 102.089H281.455V197.772H310.285V102.089Z" fill="white"></path>
  <path d="M344.128 165.738C344.128 168.106 344.546 170.334 345.242 172.006C347.331 177.855 353.598 178.97 359.03 178.97C363.766 178.97 371.008 177.298 371.008 170.195C371.008 165.181 366.969 163.928 350.813 159.192C336.05 154.875 319.058 150.696 319.058 131.476C318.919 109.331 337.442 99.8606 356.663 99.8606C376.997 99.8606 394.964 107.799 395.799 131.058H368.501C369.058 127.437 367.387 125.07 365.019 123.398C362.651 121.727 359.448 121.031 356.523 121.031C352.624 121.031 346.217 122.145 346.217 127.437C346.774 134.262 360.144 135.794 373.376 139.554C386.607 143.315 399.699 149.582 399.699 167.131C399.699 192.061 377.275 200.14 356.384 200.14C345.799 200.14 315.437 196.24 315.158 165.738H344.128Z" fill="white"></path>
</svg>
