<?xml version="1.0" encoding="UTF-8"?>
<svg xmlns="http://www.w3.org/2000/svg" width="500" height="300" viewBox="0 0 500 300" fill="none">
  <path d="M232.717 109.77H200.53L200.302 218.117H172.395V109.998L140.379 109.77V81.7137H232.717V109.77Z" fill="white"></path>
  <path d="M312.954 105.037L329.276 81.7137H359.295L329.276 130.584L360.379 179.169H329.847L312.84 154.591L270.495 217.661H240.248L296.975 130.698L265.701 81.7137H296.69L312.954 105.037Z" fill="white"></path>
  <path d="M262.965 165.939C260.797 185.442 247.899 203.347 230.322 211.958C222.275 215.779 213.429 218.288 203.613 218.174V191.03C218.337 190.574 230.265 181.108 234.716 168.334C235.458 167.137 235.572 165.198 235.915 163.772L236.143 81.7137H263.08L262.965 165.939Z" fill="white"></path>
</svg>
