<?xml version="1.0" encoding="UTF-8"?>
<svg xmlns="http://www.w3.org/2000/svg" width="500" height="300" viewBox="0 0 500 300" fill="none">
  <g clip-path="url(#clip0_261_4378)">
    <path d="M114.521 149.938C114.61 74.7154 175.76 13.4647 251.162 13.5207C326.351 13.4647 387.602 74.7154 387.579 149.938C387.602 225.374 326.351 286.535 251.162 286.579C175.76 286.535 114.61 225.362 114.521 149.938Z" stroke="white" stroke-width="6.8249"></path>
    <path d="M151.734 149.636C151.678 94.9232 196.281 50.2195 251.173 50.1859C305.874 50.2195 350.567 94.9232 350.634 149.636C350.556 204.572 305.874 249.186 251.173 249.097C196.281 249.186 151.678 204.572 151.734 149.636Z" fill="black" stroke="white" stroke-width="3.43882" stroke-miterlimit="3.864"></path>
    <path d="M148.745 185.484C150.514 186.749 151.689 188.618 152.529 190.611C154.925 196.265 153.525 201.773 147.591 204.281C141.893 206.699 137.079 203.273 134.829 198C133.967 195.963 133.44 194.239 133.418 191.429L133.619 191.16C134.616 191.037 136.542 190.455 137.661 190.119L138.075 191.082L135.993 192.111C135.243 193.858 135.467 195.616 136.172 197.295C137.919 201.404 141.77 202.344 145.688 200.687C150.222 198.762 152.383 194.742 150.39 190.063C149.763 188.596 148.398 186.816 147.121 185.864L147.289 185.439L148.745 185.484Z" fill="white"></path>
    <path d="M148.745 185.484C150.514 186.749 151.689 188.618 152.529 190.611C154.925 196.265 153.525 201.773 147.591 204.281C141.893 206.699 137.079 203.273 134.829 198C133.967 195.963 133.44 194.239 133.418 191.429L133.619 191.16C134.616 191.037 136.542 190.455 137.661 190.119L138.075 191.082L135.993 192.111C135.243 193.858 135.467 195.616 136.172 197.295C137.919 201.404 141.77 202.344 145.688 200.687C150.222 198.762 152.383 194.742 150.39 190.063C149.763 188.596 148.398 186.816 147.121 185.864L147.289 185.439L148.745 185.484Z" stroke="white" stroke-width="0.294218" stroke-miterlimit="3.864"></path>
    <path d="M140.987 173.381L143.707 171.512C144.468 170.974 145.118 171.131 145.241 171.545L145.644 172.911L146.618 172.687C146.192 170.952 145.834 169.653 145.599 168.635C145.364 167.616 145.118 166.317 144.737 164.548L143.763 164.772L143.83 165.421C143.909 166.261 143.595 166.687 143.013 167.134L128.705 177.591L129.131 179.461L130.295 179.606L131.47 179.774L133.441 180.043L146.025 182.136C146.864 182.271 147.704 182.584 147.939 183.245L148.196 184.017L149.17 183.793C148.857 182.539 148.577 181.61 148.409 180.849C148.23 180.088 148.073 179.125 147.805 177.86L146.831 178.084L147.055 179.416C147.133 179.897 146.786 180.524 145.711 180.39L142.52 179.964L140.987 173.381ZM133.631 178.599L139.665 174.333L140.908 179.685L133.631 178.599Z" fill="white"></path>
    <path d="M140.987 173.381L143.707 171.512C144.468 170.974 145.118 171.131 145.241 171.545L145.644 172.911L146.618 172.687C146.192 170.952 145.834 169.653 145.599 168.635C145.364 167.616 145.118 166.317 144.737 164.548L143.763 164.772L143.83 165.421C143.909 166.261 143.595 166.687 143.013 167.134L128.705 177.591L129.131 179.461L130.295 179.606L131.47 179.774L133.441 180.043L146.025 182.136C146.864 182.271 147.704 182.584 147.939 183.245L148.196 184.017L149.17 183.793C148.857 182.539 148.577 181.61 148.409 180.849C148.23 180.088 148.073 179.125 147.805 177.86L146.831 178.084L147.055 179.416C147.133 179.897 146.786 180.524 145.711 180.39L142.52 179.964L140.987 173.381ZM133.631 178.599L139.665 174.333L140.908 179.685L133.631 178.599Z" stroke="white" stroke-width="0.294218" stroke-miterlimit="3.864"></path>
    <path d="M142.766 157.641C142.755 156.51 142.721 155.345 142.665 154.192C142.598 152.95 142.251 150.979 142.038 150.934L139.262 150.464L139.206 149.412L143.684 149.468L143.908 149.591C144.132 151.326 144.3 154.45 144.334 156.196C144.367 157.305 144.367 158.402 144.423 159.51C144.479 160.641 144.591 161.738 144.669 162.735L144.054 162.768L143.527 161.928C143.259 161.514 142.8 161.425 141.96 161.469L129.914 162.096C128.783 162.152 128.055 162.22 127.753 162.399C127.54 162.522 127.451 162.824 127.428 163.518L127.406 164.515L126.331 164.571C126.298 163.473 126.275 161.984 126.197 160.372C126.118 158.783 125.984 157.316 125.895 156.208L126.969 156.152L127.104 157.137C127.193 157.831 127.316 158.122 127.54 158.223C127.876 158.368 128.604 158.357 129.723 158.301L142.766 157.641Z" fill="white"></path>
    <path d="M142.766 157.641C142.755 156.51 142.721 155.345 142.665 154.192C142.598 152.95 142.251 150.979 142.038 150.934L139.262 150.464L139.206 149.412L143.684 149.468L143.908 149.591C144.132 151.326 144.3 154.45 144.334 156.196C144.367 157.305 144.367 158.402 144.423 159.51C144.479 160.641 144.591 161.738 144.669 162.735L144.054 162.768L143.527 161.928C143.259 161.514 142.8 161.425 141.96 161.469L129.914 162.096C128.783 162.152 128.055 162.22 127.753 162.399C127.54 162.522 127.451 162.824 127.428 163.518L127.406 164.515L126.331 164.571C126.298 163.473 126.275 161.984 126.197 160.372C126.118 158.783 125.984 157.316 125.895 156.208L126.969 156.152L127.104 157.137C127.193 157.831 127.316 158.122 127.54 158.223C127.876 158.368 128.604 158.357 129.723 158.301L142.766 157.641Z" stroke="white" stroke-width="0.294218" stroke-miterlimit="3.864"></path>
    <path d="M140.662 141.418C141.793 141.497 142.52 141.519 142.856 141.385C143.08 141.295 143.203 141.004 143.304 140.31L143.45 139.325L144.524 139.403C144.424 140.5 144.256 141.978 144.155 143.557C144.043 145.169 143.987 146.647 143.942 147.755L142.867 147.677L142.856 146.68C142.845 145.975 142.767 145.673 142.554 145.549C142.252 145.37 141.524 145.281 140.393 145.202L129.433 144.441C128.302 144.363 127.574 144.34 127.238 144.475C127.015 144.564 126.891 144.855 126.791 145.549L126.645 146.535L125.57 146.456C125.671 145.359 125.828 143.881 125.94 142.269C126.052 140.679 126.097 139.201 126.141 138.093L127.216 138.172L127.227 139.168C127.227 139.873 127.317 140.175 127.53 140.299C127.843 140.478 128.56 140.567 129.69 140.646L140.662 141.418Z" fill="white"></path>
    <path d="M140.662 141.418C141.793 141.497 142.52 141.519 142.856 141.385C143.08 141.295 143.203 141.004 143.304 140.31L143.45 139.325L144.524 139.403C144.424 140.5 144.256 141.978 144.155 143.557C144.043 145.169 143.987 146.647 143.942 147.755L142.867 147.677L142.856 146.68C142.845 145.975 142.767 145.673 142.554 145.549C142.252 145.37 141.524 145.281 140.393 145.202L129.433 144.441C128.302 144.363 127.574 144.34 127.238 144.475C127.015 144.564 126.891 144.855 126.791 145.549L126.645 146.535L125.57 146.456C125.671 145.359 125.828 143.881 125.94 142.269C126.052 140.679 126.097 139.201 126.141 138.093L127.216 138.172L127.227 139.168C127.227 139.873 127.317 140.175 127.53 140.299C127.843 140.478 128.56 140.567 129.69 140.646L140.662 141.418Z" stroke="white" stroke-width="0.294218" stroke-miterlimit="3.864"></path>
    <path d="M135.433 129.551C135.59 128.958 135.702 128.375 135.803 127.782L136.038 126.427C136.206 125.498 136.24 124.961 135.747 124.815L134.37 124.412L134.549 123.349C135.389 123.528 136.307 123.741 137.27 123.908C138.221 124.076 139.184 124.188 140.147 124.334L139.956 125.397L138.602 125.319C137.852 125.274 137.516 125.733 137.359 126.663L137.124 128.017C137.023 128.599 136.945 129.193 136.889 129.809L141.849 130.682C142.968 130.883 143.685 130.984 144.032 130.872C144.256 130.805 144.423 130.525 144.591 129.853L144.894 128.622L145.957 128.812C145.689 130.156 145.386 131.611 145.106 133.167C144.827 134.757 144.625 136.224 144.457 137.321L143.393 137.13L143.483 136.134C143.55 135.44 143.494 135.126 143.304 134.981C143.013 134.768 142.308 134.611 141.188 134.41L130.373 132.495C129.254 132.305 128.537 132.204 128.19 132.305C127.899 132.395 127.72 132.63 127.552 133.313L127.306 134.276L126.32 134.108C126.656 132.361 126.947 131.018 127.126 129.988C127.496 127.916 127.765 126.103 128 124.591C128.235 123.102 128.436 121.938 128.761 120.729L128.962 120.628L132.657 121.669L132.489 122.621L130.463 122.475C130.048 122.464 129.634 124.222 129.421 125.442C129.298 126.159 129.119 127.301 128.974 128.431L135.433 129.551Z" fill="white"></path>
    <path d="M135.433 129.551C135.59 128.958 135.702 128.375 135.803 127.782L136.038 126.427C136.206 125.498 136.24 124.961 135.747 124.815L134.37 124.412L134.549 123.349C135.389 123.528 136.307 123.741 137.27 123.908C138.221 124.076 139.184 124.188 140.147 124.334L139.956 125.397L138.602 125.319C137.852 125.274 137.516 125.733 137.359 126.663L137.124 128.017C137.023 128.599 136.945 129.193 136.889 129.809L141.849 130.682C142.968 130.883 143.685 130.984 144.032 130.872C144.256 130.805 144.423 130.525 144.591 129.853L144.894 128.622L145.957 128.812C145.689 130.156 145.386 131.611 145.106 133.167C144.827 134.757 144.625 136.224 144.457 137.321L143.393 137.13L143.483 136.134C143.55 135.44 143.494 135.126 143.304 134.981C143.013 134.768 142.308 134.611 141.188 134.41L130.373 132.495C129.254 132.305 128.537 132.204 128.19 132.305C127.899 132.395 127.72 132.63 127.552 133.313L127.306 134.276L126.32 134.108C126.656 132.361 126.947 131.018 127.126 129.988C127.496 127.916 127.765 126.103 128 124.591C128.235 123.102 128.436 121.938 128.761 120.729L128.962 120.628L132.657 121.669L132.489 122.621L130.463 122.475C130.048 122.464 129.634 124.222 129.421 125.442C129.298 126.159 129.119 127.301 128.974 128.431L135.433 129.551Z" stroke="white" stroke-width="0.294218" stroke-miterlimit="3.864"></path>
    <path d="M132.333 107.283C130.329 113.116 132.21 118.064 138.222 120.136C144.021 122.14 148.32 119.744 150.29 114.045C152.294 108.212 150.413 103.264 144.413 101.193C138.602 99.1887 134.303 101.573 132.333 107.283ZM133.755 107.776C134.997 104.193 139.341 103.723 143.539 105.167C147.357 106.477 150.481 108.806 148.857 113.553C147.615 117.146 143.304 117.617 139.095 116.172C135.288 114.851 132.131 112.511 133.755 107.776Z" fill="white"></path>
    <path d="M132.333 107.283C130.329 113.116 132.21 118.064 138.222 120.136C144.021 122.14 148.32 119.744 150.29 114.045C152.294 108.212 150.413 103.264 144.413 101.193C138.602 99.1887 134.303 101.573 132.333 107.283ZM133.755 107.776C134.997 104.193 139.341 103.723 143.539 105.167C147.357 106.477 150.481 108.806 148.857 113.553C147.615 117.146 143.304 117.617 139.095 116.172C135.288 114.851 132.131 112.511 133.755 107.776Z" stroke="white" stroke-width="0.294218" stroke-miterlimit="3.864"></path>
    <path d="M142.554 94.106C141.569 93.535 140.93 93.1991 140.572 93.1767C140.27 93.1544 140.024 93.3223 139.621 93.9045L139.05 94.7217L138.188 94.2291C139.106 92.7065 139.833 91.5422 140.516 90.3443C141.434 88.7545 142.285 87.1648 143.181 85.575C144.513 83.1679 146.495 81.3991 149.271 83C151.32 84.1867 151.812 86.5154 151.398 88.8553L160.22 88.3291C160.567 88.3179 160.97 88.2059 161.34 88.0716C161.62 87.9596 161.866 87.6909 162.213 87.2991L163.142 87.8365C162.694 88.5642 162.202 89.3143 161.765 90.0532C161.362 90.7585 161.004 91.475 160.623 92.1915L149.517 92.7401L149.193 92.3371C150.615 90.2995 150.2 87.9372 148.006 86.6833C146.092 85.575 144.3 86.3139 143.248 88.1388C142.968 88.6314 142.632 89.2695 142.599 89.7509L153.951 96.3115C154.936 96.8825 155.574 97.2183 155.932 97.2407C156.179 97.2519 156.414 97.0504 156.806 96.4682L157.377 95.651L158.306 96.1883C157.735 97.1288 156.94 98.3827 156.145 99.7597C155.339 101.159 154.645 102.469 154.119 103.443L153.189 102.906L153.615 101.999C153.917 101.372 153.973 101.058 153.839 100.857C153.637 100.555 153.022 100.174 152.048 99.603L142.554 94.106Z" fill="white"></path>
    <path d="M142.554 94.106C141.569 93.535 140.93 93.1991 140.572 93.1767C140.27 93.1544 140.024 93.3223 139.621 93.9045L139.05 94.7217L138.188 94.2291C139.106 92.7065 139.833 91.5422 140.516 90.3443C141.434 88.7545 142.285 87.1648 143.181 85.575C144.513 83.1679 146.495 81.3991 149.271 83C151.32 84.1867 151.812 86.5154 151.398 88.8553L160.22 88.3291C160.567 88.3179 160.97 88.2059 161.34 88.0716C161.62 87.9596 161.866 87.6909 162.213 87.2991L163.142 87.8365C162.694 88.5642 162.202 89.3143 161.765 90.0532C161.362 90.7585 161.004 91.475 160.623 92.1915L149.517 92.7401L149.193 92.3371C150.615 90.2995 150.2 87.9372 148.006 86.6833C146.092 85.575 144.3 86.3139 143.248 88.1388C142.968 88.6314 142.632 89.2695 142.599 89.7509L153.951 96.3115C154.936 96.8825 155.574 97.2183 155.932 97.2407C156.179 97.2519 156.414 97.0504 156.806 96.4682L157.377 95.651L158.306 96.1883C157.735 97.1288 156.94 98.3827 156.145 99.7597C155.339 101.159 154.645 102.469 154.119 103.443L153.189 102.906L153.615 101.999C153.917 101.372 153.973 101.058 153.839 100.857C153.637 100.555 153.022 100.174 152.048 99.603L142.554 94.106Z" stroke="white" stroke-width="0.294218" stroke-miterlimit="3.864"></path>
    <path d="M153.951 75.7005C153.089 74.9616 152.529 74.5026 152.182 74.4131C151.891 74.3347 151.611 74.4578 151.107 74.9393L150.391 75.6334L149.641 74.984C150.368 74.1892 151.107 73.4167 151.824 72.5994C152.316 72.0284 152.775 71.4239 153.246 70.8417C154.735 70.9313 156.28 71.088 157.769 71.0992L170.677 71.1888L163.389 64.8409C162.527 64.102 161.967 63.643 161.62 63.5534C161.329 63.475 161.049 63.5982 160.545 64.0796L159.829 64.7737L159.078 64.1244C159.773 63.3743 160.5 62.613 161.172 61.8405C161.844 61.068 162.471 60.2619 163.12 59.467L163.87 60.1164L163.277 60.9225C162.851 61.4822 162.784 61.7733 162.896 62.0532C163.03 62.3891 163.568 62.8817 164.419 63.6206L173.644 71.6366C174.36 72.2523 175.122 72.8569 175.749 73.3607L175.704 73.5734L173.991 75.0064C172.334 75.0288 170.632 75.0512 169.009 75.0288L155.373 74.7601L155.328 74.8049L163.277 81.7125C164.128 82.4514 164.699 82.9105 165.046 83C165.337 83.0784 165.617 82.9552 166.109 82.4626L166.826 81.7685L167.576 82.4179C166.882 83.168 166.176 83.9069 165.505 84.6794C164.833 85.4519 164.184 86.2803 163.534 87.064L162.784 86.4147L163.378 85.6086C163.803 85.0488 163.87 84.7577 163.758 84.4778C163.624 84.142 163.086 83.6382 162.236 82.8993L153.951 75.7005Z" fill="white"></path>
    <path d="M153.951 75.7005C153.089 74.9616 152.529 74.5026 152.182 74.4131C151.891 74.3347 151.611 74.4578 151.107 74.9393L150.391 75.6334L149.641 74.984C150.368 74.1892 151.107 73.4167 151.824 72.5994C152.316 72.0284 152.775 71.4239 153.246 70.8417C154.735 70.9313 156.28 71.088 157.769 71.0992L170.677 71.1888L163.389 64.8409C162.527 64.102 161.967 63.643 161.62 63.5534C161.329 63.475 161.049 63.5982 160.545 64.0796L159.829 64.7737L159.078 64.1244C159.773 63.3743 160.5 62.613 161.172 61.8405C161.844 61.068 162.471 60.2619 163.12 59.467L163.87 60.1164L163.277 60.9225C162.851 61.4822 162.784 61.7733 162.896 62.0532C163.03 62.3891 163.568 62.8817 164.419 63.6206L173.644 71.6366C174.36 72.2523 175.122 72.8569 175.749 73.3607L175.704 73.5734L173.991 75.0064C172.334 75.0288 170.632 75.0512 169.009 75.0288L155.373 74.7601L155.328 74.8049L163.277 81.7125C164.128 82.4514 164.699 82.9105 165.046 83C165.337 83.0784 165.617 82.9552 166.109 82.4626L166.826 81.7685L167.576 82.4179C166.882 83.168 166.176 83.9069 165.505 84.6794C164.833 85.4519 164.184 86.2803 163.534 87.064L162.784 86.4147L163.378 85.6086C163.803 85.0488 163.87 84.7577 163.758 84.4778C163.624 84.142 163.086 83.6382 162.236 82.8993L153.951 75.7005Z" stroke="white" stroke-width="0.294218" stroke-miterlimit="3.864"></path>
    <path d="M180.384 64.1915C181.123 65.0423 181.627 65.5797 181.952 65.7141C182.176 65.8036 182.467 65.6917 183.026 65.2775L183.832 64.6841L184.538 65.5014C183.687 66.2067 182.534 67.1359 181.336 68.1771C180.116 69.2407 179.041 70.2483 178.224 70.9984L177.518 70.1811L178.212 69.4646C178.705 68.9608 178.862 68.6921 178.806 68.457C178.716 68.1099 178.257 67.5389 177.518 66.6881L170.308 58.3922C169.569 57.5413 169.066 57.004 168.741 56.8696C168.517 56.7801 168.226 56.892 167.655 57.3062L166.849 57.8996L166.144 57.0823C166.994 56.377 168.148 55.4478 169.368 54.3842C170.566 53.343 171.652 52.3242 172.469 51.5853L173.174 52.4026L172.48 53.1191C171.988 53.6229 171.831 53.8916 171.898 54.1267C171.988 54.4738 172.447 55.0447 173.186 55.8956L180.384 64.1915Z" fill="white"></path>
    <path d="M180.384 64.1915C181.123 65.0423 181.627 65.5797 181.952 65.7141C182.176 65.8036 182.467 65.6917 183.026 65.2775L183.832 64.6841L184.538 65.5014C183.687 66.2067 182.534 67.1359 181.336 68.1771C180.116 69.2407 179.041 70.2483 178.224 70.9984L177.518 70.1811L178.212 69.4646C178.705 68.9608 178.862 68.6921 178.806 68.457C178.716 68.1099 178.257 67.5389 177.518 66.6881L170.308 58.3922C169.569 57.5413 169.066 57.004 168.741 56.8696C168.517 56.7801 168.226 56.892 167.655 57.3062L166.849 57.8996L166.144 57.0823C166.994 56.377 168.148 55.4478 169.368 54.3842C170.566 53.343 171.652 52.3242 172.469 51.5853L173.174 52.4026L172.48 53.1191C171.988 53.6229 171.831 53.8916 171.898 54.1267C171.988 54.4738 172.447 55.0447 173.186 55.8956L180.384 64.1915Z" stroke="white" stroke-width="0.294218" stroke-miterlimit="3.864"></path>
    <path d="M191.992 53.2758L194.679 55.1902C195.441 55.7164 195.519 56.377 195.172 56.6345L194.019 57.4741L194.556 58.3138C196.034 57.3174 197.131 56.5449 198.016 55.9739C198.889 55.403 200.031 54.7312 201.565 53.7684L201.016 52.9288L200.434 53.2086C199.673 53.5781 199.158 53.4326 198.542 53.0295L183.82 43.1663L182.219 44.2074L182.487 45.3494L182.734 46.5137L183.159 48.4505L185.499 61.0007C185.656 61.8292 185.656 62.7248 185.118 63.1727L184.48 63.6765L185.029 64.5161C186.092 63.7884 186.887 63.2174 187.537 62.792C188.186 62.3666 189.026 61.8852 190.134 61.2022L189.597 60.3626L188.421 61.0343C187.996 61.2806 187.279 61.1575 187.044 60.0939L186.35 56.9479L191.992 53.2758ZM184.581 48.1371L190.649 52.3466L186.048 55.3358L184.581 48.1371Z" fill="white"></path>
    <path d="M191.992 53.2758L194.679 55.1902C195.441 55.7164 195.519 56.377 195.172 56.6345L194.019 57.4741L194.556 58.3138C196.034 57.3174 197.131 56.5449 198.016 55.9739C198.889 55.403 200.031 54.7312 201.565 53.7684L201.016 52.9288L200.434 53.2086C199.673 53.5781 199.158 53.4326 198.542 53.0295L183.82 43.1663L182.219 44.2074L182.487 45.3494L182.734 46.5137L183.159 48.4505L185.499 61.0007C185.656 61.8292 185.656 62.7248 185.118 63.1727L184.48 63.6765L185.029 64.5161C186.092 63.7884 186.887 63.2174 187.537 62.792C188.186 62.3666 189.026 61.8852 190.134 61.2022L189.597 60.3626L188.421 61.0343C187.996 61.2806 187.279 61.1575 187.044 60.0939L186.35 56.9479L191.992 53.2758ZM184.581 48.1371L190.649 52.3466L186.048 55.3358L184.581 48.1371Z" stroke="white" stroke-width="0.294218" stroke-miterlimit="3.864"></path>
    <path d="M214.653 42.6177L215.493 44.8456C216.534 45.842 218.784 46.066 220.128 45.6741C222.322 45.0472 223.856 43.3454 223.207 41.0951C222.882 39.9756 221.964 39.3262 220.363 39.3039L216.422 39.2591C214.06 39.2367 212.022 38.1619 211.384 35.9452C210.198 31.8029 212.817 29.3398 216.568 28.2651C218.18 27.8061 219.96 27.6045 221.639 27.7613L221.852 28.0412C221.83 28.9368 222.154 30.4706 222.546 31.8253L221.483 32.1275L220.721 30.0564C219.691 29.3958 218.09 29.2727 216.87 29.6197C214.463 30.3139 213.724 32.038 214.217 33.7733C214.553 34.9376 215.627 35.5534 217.687 35.4974L220.856 35.4302C223.408 35.3742 225.367 36.4378 226.039 38.7665C227.304 43.1663 224.181 46.0548 220.24 47.1743C218.381 47.7117 216.377 47.8684 214.485 47.5326C214.362 45.9204 214.015 44.4202 213.59 42.9424L214.653 42.6177Z" fill="white"></path>
    <path d="M214.653 42.6177L215.493 44.8456C216.534 45.842 218.784 46.066 220.128 45.6741C222.322 45.0472 223.856 43.3454 223.207 41.0951C222.882 39.9756 221.964 39.3262 220.363 39.3039L216.422 39.2591C214.06 39.2367 212.022 38.1619 211.384 35.9452C210.198 31.8029 212.817 29.3398 216.568 28.2651C218.18 27.8061 219.96 27.6045 221.639 27.7613L221.852 28.0412C221.83 28.9368 222.154 30.4706 222.546 31.8253L221.483 32.1275L220.721 30.0564C219.691 29.3958 218.09 29.2727 216.87 29.6197C214.463 30.3139 213.724 32.038 214.217 33.7733C214.553 34.9376 215.627 35.5534 217.687 35.4974L220.856 35.4302C223.408 35.3742 225.367 36.4378 226.039 38.7665C227.304 43.1663 224.181 46.0548 220.24 47.1743C218.381 47.7117 216.377 47.8684 214.485 47.5326C214.362 45.9204 214.015 44.4202 213.59 42.9424L214.653 42.6177Z" stroke="white" stroke-width="0.294218" stroke-miterlimit="3.864"></path>
    <path d="M238.813 39.2143C238.958 40.3339 239.07 41.0504 239.272 41.3527C239.406 41.5542 239.708 41.6213 240.414 41.599L241.41 41.5542L241.533 42.6289C240.436 42.7297 238.958 42.864 237.391 43.0544C235.79 43.2559 234.323 43.491 233.226 43.6477L233.092 42.5842L234.077 42.3826C234.771 42.2371 235.051 42.1028 235.129 41.8788C235.253 41.5318 235.185 40.8153 235.051 39.6845L233.461 26.7425L230.338 27.1231C229.621 27.2127 228.871 27.3023 228.714 27.571C228.625 27.7165 228.546 27.9516 228.546 28.2427L228.636 30.1012L227.572 30.2355C227.304 28.5002 227.08 27.2799 226.699 26.026L226.845 25.8692C229.655 25.5446 232.443 25.2647 235.141 24.9288C237.872 24.593 240.638 24.2011 243.437 23.8317L243.616 23.9436C243.56 25.2535 243.627 26.4962 243.784 28.2315L242.72 28.3659L242.362 26.541C242.306 26.2499 242.171 26.0484 242.048 25.9252C241.824 25.7125 241.085 25.8021 240.358 25.8916L237.234 26.2723L238.813 39.2143Z" fill="white"></path>
    <path d="M238.813 39.2143C238.958 40.3339 239.07 41.0504 239.272 41.3527C239.406 41.5542 239.708 41.6213 240.414 41.599L241.41 41.5542L241.533 42.6289C240.436 42.7297 238.958 42.864 237.391 43.0544C235.79 43.2559 234.323 43.491 233.226 43.6477L233.092 42.5842L234.077 42.3826C234.771 42.2371 235.051 42.1028 235.129 41.8788C235.253 41.5318 235.185 40.8153 235.051 39.6845L233.461 26.7425L230.338 27.1231C229.621 27.2127 228.871 27.3023 228.714 27.571C228.625 27.7165 228.546 27.9516 228.546 28.2427L228.636 30.1012L227.572 30.2355C227.304 28.5002 227.08 27.2799 226.699 26.026L226.845 25.8692C229.655 25.5446 232.443 25.2647 235.141 24.9288C237.872 24.593 240.638 24.2011 243.437 23.8317L243.616 23.9436C243.56 25.2535 243.627 26.4962 243.784 28.2315L242.72 28.3659L242.362 26.541C242.306 26.2499 242.171 26.0484 242.048 25.9252C241.824 25.7125 241.085 25.8021 240.358 25.8916L237.234 26.2723L238.813 39.2143Z" stroke="white" stroke-width="0.294218" stroke-miterlimit="3.864"></path>
    <path d="M255.987 36.6729L257.174 39.7517C257.521 40.6138 257.218 41.2071 256.782 41.2295L255.349 41.3079V42.3043C257.129 42.2819 258.472 42.2483 259.525 42.2483C260.577 42.2483 261.898 42.3155 263.689 42.3491L263.701 41.3527L263.051 41.2743C262.212 41.1623 261.865 40.7593 261.585 40.0764L254.722 23.7309L252.807 23.7197L252.393 24.8169L251.956 25.914L251.24 27.7725L246.292 39.539C245.967 40.3227 245.474 41.0728 244.78 41.1512L243.974 41.2295L243.963 42.2259C245.25 42.2035 246.224 42.1587 247.008 42.1699C247.781 42.1699 248.755 42.2259 250.053 42.2707L250.064 41.2743L248.721 41.1847C248.24 41.1512 247.702 40.6697 248.083 39.651L249.236 36.6394L255.987 36.6729ZM252.617 28.2987L255.371 35.1615L249.874 35.128L252.617 28.2987Z" fill="white"></path>
    <path d="M255.987 36.6729L257.174 39.7517C257.521 40.6138 257.218 41.2071 256.782 41.2295L255.349 41.3079V42.3043C257.129 42.2819 258.472 42.2483 259.525 42.2483C260.577 42.2483 261.898 42.3155 263.689 42.3491L263.701 41.3527L263.051 41.2743C262.212 41.1623 261.865 40.7593 261.585 40.0764L254.722 23.7309L252.807 23.7197L252.393 24.8169L251.956 25.914L251.24 27.7725L246.292 39.539C245.967 40.3227 245.474 41.0728 244.78 41.1512L243.974 41.2295L243.963 42.2259C245.25 42.2035 246.224 42.1587 247.008 42.1699C247.781 42.1699 248.755 42.2259 250.053 42.2707L250.064 41.2743L248.721 41.1847C248.24 41.1512 247.702 40.6697 248.083 39.651L249.236 36.6394L255.987 36.6729ZM252.617 28.2987L255.371 35.1615L249.874 35.128L252.617 28.2987Z" stroke="white" stroke-width="0.294218" stroke-miterlimit="3.864"></path>
    <path d="M272.276 40.4011C272.075 41.5206 271.974 42.2371 272.086 42.5842C272.153 42.8081 272.433 42.976 273.105 43.144L274.068 43.4015L273.889 44.465C272.803 44.2523 271.358 43.9389 269.791 43.659C268.201 43.3791 266.735 43.1776 265.637 43.0096L265.828 41.9461L266.824 42.0468C267.518 42.114 267.832 42.058 267.977 41.8677C268.19 41.5766 268.347 40.8713 268.548 39.7517L270.81 26.9105L267.709 26.3619C266.992 26.2387 266.253 26.1044 266.018 26.3171C265.895 26.4291 265.749 26.6194 265.671 26.9105L265.212 28.7241L264.148 28.5338C264.406 26.7985 264.54 25.567 264.551 24.2571L264.731 24.1564C267.507 24.6714 270.261 25.2088 272.937 25.679C275.646 26.1604 278.412 26.5858 281.199 27.056L281.334 27.2239C280.897 28.4555 280.606 29.6646 280.248 31.3775L279.184 31.1984L279.374 29.3511C279.397 29.0488 279.33 28.8249 279.251 28.6682C279.106 28.3995 278.367 28.2651 277.65 28.142L274.549 27.5934L272.276 40.4011Z" fill="white"></path>
    <path d="M272.276 40.4011C272.075 41.5206 271.974 42.2371 272.086 42.5842C272.153 42.8081 272.433 42.976 273.105 43.144L274.068 43.4015L273.889 44.465C272.803 44.2523 271.358 43.9389 269.791 43.659C268.201 43.3791 266.735 43.1776 265.637 43.0096L265.828 41.9461L266.824 42.0468C267.518 42.114 267.832 42.058 267.977 41.8677C268.19 41.5766 268.347 40.8713 268.548 39.7517L270.81 26.9105L267.709 26.3619C266.992 26.2387 266.253 26.1044 266.018 26.3171C265.895 26.4291 265.749 26.6194 265.671 26.9105L265.212 28.7241L264.148 28.5338C264.406 26.7985 264.54 25.567 264.551 24.2571L264.731 24.1564C267.507 24.6714 270.261 25.2088 272.937 25.679C275.646 26.1604 278.412 26.5858 281.199 27.056L281.334 27.2239C280.897 28.4555 280.606 29.6646 280.248 31.3775L279.184 31.1984L279.374 29.3511C279.397 29.0488 279.33 28.8249 279.251 28.6682C279.106 28.3995 278.367 28.2651 277.65 28.142L274.549 27.5934L272.276 40.4011Z" stroke="white" stroke-width="0.294218" stroke-miterlimit="3.864"></path>
    <path d="M287.906 37.5238C288.477 37.7701 289.036 37.9492 289.596 38.1395L291.287 38.6881C292.182 38.9792 292.72 39.0911 292.921 38.6209L293.548 37.2103L294.567 37.5462C294.242 38.4642 293.895 39.3374 293.604 40.2667C293.302 41.1847 293.056 42.1251 292.787 43.0543L291.768 42.7185L292.026 41.3862C292.182 40.6473 291.768 40.2555 290.873 39.9644L289.182 39.4158C288.611 39.2367 288.04 39.0687 287.436 38.9344L285.219 45.7749C286.282 46.1779 287.368 46.5585 288.466 46.9168C289.641 47.3086 291.611 47.6893 291.735 47.499L293.112 45.2823L294.108 45.6069L292.507 49.5589L292.317 49.7269C290.615 49.3126 287.637 48.3498 285.991 47.7565C284.95 47.387 283.909 46.9952 282.868 46.6593C281.793 46.3122 280.729 46.0212 279.767 45.7413L279.957 45.1479L280.92 44.9576C281.401 44.8568 281.647 44.4538 281.905 43.6589L285.633 32.1835C285.98 31.1087 286.182 30.4034 286.126 30.0452C286.081 29.7429 285.868 29.5414 285.219 29.2727L284.301 28.8808L284.603 27.9292C286.282 28.5002 287.581 28.9816 288.577 29.3062C290.985 30.0899 292.742 30.6049 294.209 31.0527C295.653 31.4894 296.784 31.8588 297.926 32.3402L298.015 32.5753L296.482 36.0907L295.563 35.7885L295.978 33.8068C296.056 33.4038 294.366 32.7433 293.19 32.3626C292.093 32.0044 290.985 31.6685 289.887 31.3774L287.906 37.5238Z" fill="white"></path>
    <path d="M287.906 37.5238C288.477 37.7701 289.036 37.9492 289.596 38.1395L291.287 38.6881C292.182 38.9792 292.72 39.0911 292.921 38.6209L293.548 37.2103L294.567 37.5462C294.242 38.4642 293.895 39.3374 293.604 40.2667C293.302 41.1847 293.056 42.1251 292.787 43.0543L291.768 42.7185L292.026 41.3862C292.182 40.6473 291.768 40.2555 290.873 39.9644L289.182 39.4158C288.611 39.2367 288.04 39.0687 287.436 38.9344L285.219 45.7749C286.282 46.1779 287.368 46.5585 288.466 46.9168C289.641 47.3086 291.611 47.6893 291.735 47.499L293.112 45.2823L294.108 45.6069L292.507 49.5589L292.317 49.7269C290.615 49.3126 287.637 48.3498 285.991 47.7565C284.95 47.387 283.909 46.9952 282.868 46.6593C281.793 46.3122 280.729 46.0212 279.767 45.7413L279.957 45.1479L280.92 44.9576C281.401 44.8568 281.647 44.4538 281.905 43.6589L285.633 32.1835C285.98 31.1087 286.182 30.4034 286.126 30.0452C286.081 29.7429 285.868 29.5414 285.219 29.2727L284.301 28.8808L284.603 27.9292C286.282 28.5002 287.581 28.9816 288.577 29.3062C290.985 30.0899 292.742 30.6049 294.209 31.0527C295.653 31.4894 296.784 31.8588 297.926 32.3402L298.015 32.5753L296.482 36.0907L295.563 35.7885L295.978 33.8068C296.056 33.4038 294.366 32.7433 293.19 32.3626C292.093 32.0044 290.985 31.6685 289.887 31.3774L287.906 37.5238Z" stroke="white" stroke-width="0.294218" stroke-miterlimit="3.864"></path>
    <path d="M315.804 45.4614C316.454 44.5322 316.845 43.9276 316.901 43.5693C316.946 43.2671 316.801 43.0096 316.263 42.5617L315.491 41.9236L316.062 41.1063C316.946 41.7669 318.133 42.6513 319.454 43.5805C320.753 44.4986 322.007 45.3046 322.925 45.9092L322.354 46.7265L321.492 46.2227C320.887 45.8644 320.585 45.8196 320.327 45.9652C320.014 46.1331 319.577 46.7153 318.917 47.6445L315.088 53.1191C312.905 56.2315 311.74 58.3362 315.457 60.9448C319.141 63.5198 320.988 61.7844 323.216 58.5825L326.944 53.2647C327.593 52.3354 327.985 51.7309 328.041 51.3726C328.086 51.0815 327.94 50.8128 327.392 50.365L326.619 49.7269L327.19 48.9096C328.019 49.5254 328.847 50.1747 329.687 50.7569C330.526 51.3502 331.4 51.8876 332.251 52.4474L331.68 53.2647L330.818 52.7609C330.213 52.4026 329.911 52.3578 329.653 52.5034C329.34 52.6713 328.892 53.2535 328.243 54.1827L323.731 60.6201C320.909 64.6617 317.45 65.0312 313.453 62.2435C309.289 59.3214 308.393 56.0411 310.139 53.5445L315.804 45.4614Z" fill="white"></path>
    <path d="M315.804 45.4614C316.454 44.5322 316.845 43.9276 316.901 43.5693C316.946 43.2671 316.801 43.0096 316.263 42.5617L315.491 41.9236L316.062 41.1063C316.946 41.7669 318.133 42.6513 319.454 43.5805C320.753 44.4986 322.007 45.3046 322.925 45.9092L322.354 46.7265L321.492 46.2227C320.887 45.8644 320.585 45.8196 320.327 45.9652C320.014 46.1331 319.577 46.7153 318.917 47.6445L315.088 53.1191C312.905 56.2315 311.74 58.3362 315.457 60.9448C319.141 63.5198 320.988 61.7844 323.216 58.5825L326.944 53.2647C327.593 52.3354 327.985 51.7309 328.041 51.3726C328.086 51.0815 327.94 50.8128 327.392 50.365L326.619 49.7269L327.19 48.9096C328.019 49.5254 328.847 50.1747 329.687 50.7569C330.526 51.3502 331.4 51.8876 332.251 52.4474L331.68 53.2647L330.818 52.7609C330.213 52.4026 329.911 52.3578 329.653 52.5034C329.34 52.6713 328.892 53.2535 328.243 54.1827L323.731 60.6201C320.909 64.6617 317.45 65.0312 313.453 62.2435C309.289 59.3214 308.393 56.0411 310.139 53.5445L315.804 45.4614Z" stroke="white" stroke-width="0.294218" stroke-miterlimit="3.864"></path>
    <path d="M334.669 59.4782C335.497 58.7057 336.012 58.1907 336.135 57.8548C336.236 57.575 336.158 57.2839 335.71 56.7353L335.094 55.9516L335.822 55.2687C336.538 56.0748 337.232 56.892 337.971 57.6869C338.486 58.2355 339.035 58.7505 339.572 59.2879C339.326 60.7657 339.012 62.2771 338.845 63.7549L337.4 76.585L344.476 69.9908C345.304 69.2183 345.819 68.7033 345.942 68.3674C346.043 68.0875 345.965 67.7965 345.528 67.2479L344.912 66.4642L345.64 65.7925C346.312 66.5538 346.995 67.3598 347.689 68.1099C348.383 68.86 349.122 69.5654 349.839 70.3043L349.111 70.9872L348.372 70.3155C347.857 69.8452 347.577 69.7333 347.286 69.8229C346.939 69.9236 346.39 70.405 345.562 71.1775L336.617 79.5182C335.922 80.1563 335.251 80.8616 334.68 81.4326L334.478 81.3654L333.224 79.5182C333.381 77.8724 333.527 76.1819 333.728 74.5586L335.463 61.012L335.43 60.9672L327.727 68.1547C326.899 68.9272 326.384 69.4422 326.261 69.7781C326.16 70.058 326.238 70.349 326.675 70.8976L327.291 71.6813L326.563 72.3642C325.891 71.5917 325.231 70.8193 324.525 70.0692C323.831 69.3191 323.07 68.5913 322.354 67.8636L323.081 67.1807L323.82 67.8524C324.335 68.3227 324.615 68.4346 324.906 68.345C325.253 68.2443 325.802 67.7629 326.63 67.0016L334.669 59.4782Z" fill="white"></path>
    <path d="M334.669 59.4782C335.497 58.7057 336.012 58.1907 336.135 57.8548C336.236 57.575 336.158 57.2839 335.71 56.7353L335.094 55.9516L335.822 55.2687C336.538 56.0748 337.232 56.892 337.971 57.6869C338.486 58.2355 339.035 58.7505 339.572 59.2879C339.326 60.7657 339.012 62.2771 338.845 63.7549L337.4 76.585L344.476 69.9908C345.304 69.2183 345.819 68.7033 345.942 68.3674C346.043 68.0875 345.965 67.7965 345.528 67.2479L344.912 66.4642L345.64 65.7925C346.312 66.5538 346.995 67.3598 347.689 68.1099C348.383 68.86 349.122 69.5654 349.839 70.3043L349.111 70.9872L348.372 70.3155C347.857 69.8452 347.577 69.7333 347.286 69.8229C346.939 69.9236 346.39 70.405 345.562 71.1775L336.617 79.5182C335.922 80.1563 335.251 80.8616 334.68 81.4326L334.478 81.3654L333.224 79.5182C333.381 77.8724 333.527 76.1819 333.728 74.5586L335.463 61.012L335.43 60.9672L327.727 68.1547C326.899 68.9272 326.384 69.4422 326.261 69.7781C326.16 70.058 326.238 70.349 326.675 70.8976L327.291 71.6813L326.563 72.3642C325.891 71.5917 325.231 70.8193 324.525 70.0692C323.831 69.3191 323.07 68.5913 322.354 67.8636L323.081 67.1807L323.82 67.8524C324.335 68.3227 324.615 68.4346 324.906 68.345C325.253 68.2443 325.802 67.7629 326.63 67.0016L334.669 59.4782Z" stroke="white" stroke-width="0.294218" stroke-miterlimit="3.864"></path>
    <path d="M343.368 86.9521C342.45 87.6014 341.857 88.038 341.689 88.3627C341.577 88.5754 341.655 88.8777 342.014 89.4822L342.517 90.3443L341.633 90.9601C341.017 90.042 340.222 88.7993 339.304 87.5006C338.375 86.1796 337.491 84.9928 336.83 84.0972L337.715 83.4814L338.353 84.2539C338.8 84.8025 339.058 84.9817 339.293 84.9481C339.651 84.8921 340.267 84.5002 341.196 83.8509L350.198 77.5478C351.127 76.8985 351.709 76.4619 351.877 76.1484C351.989 75.9357 351.91 75.6334 351.552 75.0288L351.037 74.1668L351.922 73.551C352.537 74.4691 353.343 75.7118 354.273 77.044C355.18 78.3427 356.075 79.5294 356.725 80.4139L355.851 81.0296L355.213 80.2571C354.765 79.7198 354.508 79.5406 354.273 79.5742C353.914 79.6302 353.31 80.022 352.381 80.6714L343.368 86.9521Z" fill="white"></path>
    <path d="M343.368 86.9521C342.45 87.6014 341.857 88.038 341.689 88.3627C341.577 88.5754 341.655 88.8777 342.014 89.4822L342.517 90.3443L341.633 90.9601C341.017 90.042 340.222 88.7993 339.304 87.5006C338.375 86.1796 337.491 84.9928 336.83 84.0972L337.715 83.4814L338.353 84.2539C338.8 84.8025 339.058 84.9817 339.293 84.9481C339.651 84.8921 340.267 84.5002 341.196 83.8509L350.198 77.5478C351.127 76.8985 351.709 76.4619 351.877 76.1484C351.989 75.9357 351.91 75.6334 351.552 75.0288L351.037 74.1668L351.922 73.551C352.537 74.4691 353.343 75.7118 354.273 77.044C355.18 78.3427 356.075 79.5294 356.725 80.4139L355.851 81.0296L355.213 80.2571C354.765 79.7198 354.508 79.5406 354.273 79.5742C353.914 79.6302 353.31 80.022 352.381 80.6714L343.368 86.9521Z" stroke="white" stroke-width="0.294218" stroke-miterlimit="3.864"></path>
    <path d="M351.741 99.7485L361.952 98.8417C363.172 98.7409 364.247 98.6066 364.683 98.3938C365.12 98.1699 365.098 97.6661 364.885 97.1735L364.392 96.0316L365.277 95.5838C365.848 96.7705 366.273 97.7109 366.62 98.405C366.978 99.0992 367.471 99.9612 368.098 101.126L367.214 101.573L366.755 100.846C366.43 100.342 365.893 100.219 365.053 100.297L350.566 101.394C349.603 101.461 348.674 101.596 347.722 101.697L346.793 99.8717L357.597 87.1423C358.123 86.5154 358.907 85.6309 358.571 84.7801L358.145 83.7613L359.03 83.3135C359.813 84.9032 360.384 86.1571 360.866 87.0864C361.336 88.0268 361.996 89.2023 362.937 90.9824L362.052 91.4414L361.37 90.2771C361.168 89.93 360.81 89.7733 360.597 89.8852C360.116 90.1315 359.545 90.7809 359.13 91.2735L351.741 99.7485Z" fill="white"></path>
    <path d="M351.741 99.7485L361.952 98.8417C363.172 98.7409 364.247 98.6066 364.683 98.3938C365.12 98.1699 365.098 97.6661 364.885 97.1735L364.392 96.0316L365.277 95.5838C365.848 96.7705 366.273 97.7109 366.62 98.405C366.978 99.0992 367.471 99.9612 368.098 101.126L367.214 101.573L366.755 100.846C366.43 100.342 365.893 100.219 365.053 100.297L350.566 101.394C349.603 101.461 348.674 101.596 347.722 101.697L346.793 99.8717L357.597 87.1423C358.123 86.5154 358.907 85.6309 358.571 84.7801L358.145 83.7613L359.03 83.3135C359.813 84.9032 360.384 86.1571 360.866 87.0864C361.336 88.0268 361.996 89.2023 362.937 90.9824L362.052 91.4414L361.37 90.2771C361.168 89.93 360.81 89.7733 360.597 89.8852C360.116 90.1315 359.545 90.7809 359.13 91.2735L351.741 99.7485Z" stroke="white" stroke-width="0.294218" stroke-miterlimit="3.864"></path>
    <path d="M363.453 112.926C363.598 113.53 363.777 114.09 363.968 114.661L364.516 116.351C364.807 117.247 365.031 117.74 365.524 117.639L367.035 117.314L367.371 118.344C366.442 118.613 365.524 118.859 364.606 119.161C363.688 119.464 362.781 119.811 361.863 120.136L361.527 119.117L362.759 118.546C363.453 118.232 363.531 117.672 363.229 116.777L362.68 115.086C362.501 114.527 362.288 113.967 362.042 113.396L355.202 115.613C355.504 116.71 355.828 117.818 356.187 118.915C356.567 120.091 357.418 121.916 357.642 121.893L360.24 121.703L360.564 122.699L356.422 123.729L356.176 123.673C355.504 122.05 354.541 119.083 354.048 117.404C353.735 116.34 353.444 115.277 353.108 114.224C352.761 113.15 352.369 112.108 352.033 111.168L352.627 110.978L353.354 111.649C353.724 111.985 354.194 111.952 354.989 111.694L366.464 107.966C367.539 107.619 368.222 107.373 368.479 107.115C368.692 106.902 368.737 106.611 368.569 105.928L368.345 104.954L369.286 104.652C369.812 106.354 370.181 107.675 370.506 108.671C371.289 111.078 371.905 112.802 372.409 114.258C372.902 115.68 373.271 116.81 373.551 118.02L373.417 118.232L369.666 119.061L369.364 118.143L371.222 117.314C371.592 117.135 371.133 115.389 370.752 114.213C370.394 113.116 370.013 112.019 369.61 110.955L363.453 112.926Z" fill="white"></path>
    <path d="M363.453 112.926C363.598 113.53 363.777 114.09 363.968 114.661L364.516 116.351C364.807 117.247 365.031 117.74 365.524 117.639L367.035 117.314L367.371 118.344C366.442 118.613 365.524 118.859 364.606 119.161C363.688 119.464 362.781 119.811 361.863 120.136L361.527 119.117L362.759 118.546C363.453 118.232 363.531 117.672 363.229 116.777L362.68 115.086C362.501 114.527 362.288 113.967 362.042 113.396L355.202 115.613C355.504 116.71 355.828 117.818 356.187 118.915C356.567 120.091 357.418 121.916 357.642 121.893L360.24 121.703L360.564 122.699L356.422 123.729L356.176 123.673C355.504 122.05 354.541 119.083 354.048 117.404C353.735 116.34 353.444 115.277 353.108 114.224C352.761 113.15 352.369 112.108 352.033 111.168L352.627 110.978L353.354 111.649C353.724 111.985 354.194 111.952 354.989 111.694L366.464 107.966C367.539 107.619 368.222 107.373 368.479 107.115C368.692 106.902 368.737 106.611 368.569 105.928L368.345 104.954L369.286 104.652C369.812 106.354 370.181 107.675 370.506 108.671C371.289 111.078 371.905 112.802 372.409 114.258C372.902 115.68 373.271 116.81 373.551 118.02L373.417 118.232L369.666 119.061L369.364 118.143L371.222 117.314C371.592 117.135 371.133 115.389 370.752 114.213C370.394 113.116 370.013 112.019 369.61 110.955L363.453 112.926Z" stroke="white" stroke-width="0.294218" stroke-miterlimit="3.864"></path>
    <path d="M371.647 125.812C372.767 125.677 373.494 125.565 373.796 125.364C374.043 125.196 374.144 124.916 374.121 124.211L374.076 123.214L375.062 123.091C375.252 124.86 375.364 126.226 375.532 127.592C375.756 129.405 376.024 131.197 376.282 132.999C376.674 135.72 376.148 138.328 372.968 138.72C370.617 139 368.826 137.433 367.74 135.317L361.011 141.049C360.743 141.273 360.485 141.597 360.272 141.922C360.116 142.191 360.082 142.538 360.037 143.064L358.962 143.198C358.884 142.336 358.828 141.452 358.727 140.59C358.627 139.795 358.481 138.989 358.358 138.194L366.9 131.074L367.404 131.197C367.493 133.682 369.24 135.305 371.748 135.003C373.942 134.735 374.927 133.066 374.67 130.984C374.603 130.424 374.491 129.708 374.222 129.305L361.202 130.906C360.082 131.051 359.365 131.163 359.063 131.353C358.862 131.488 358.794 131.801 358.817 132.495L358.862 133.492L357.798 133.626C357.697 132.529 357.563 131.051 357.373 129.473C357.171 127.872 356.936 126.405 356.779 125.319L357.843 125.185L358.044 126.159C358.19 126.853 358.324 127.133 358.559 127.211C358.895 127.334 359.623 127.267 360.743 127.133L371.647 125.812Z" fill="white"></path>
    <path d="M371.647 125.812C372.767 125.677 373.494 125.565 373.796 125.364C374.043 125.196 374.144 124.916 374.121 124.211L374.076 123.214L375.062 123.091C375.252 124.86 375.364 126.226 375.532 127.592C375.756 129.405 376.024 131.197 376.282 132.999C376.674 135.72 376.148 138.328 372.968 138.72C370.617 139 368.826 137.433 367.74 135.317L361.011 141.049C360.743 141.273 360.485 141.597 360.272 141.922C360.116 142.191 360.082 142.538 360.037 143.064L358.962 143.198C358.884 142.336 358.828 141.452 358.727 140.59C358.627 139.795 358.481 138.989 358.358 138.194L366.9 131.074L367.404 131.197C367.493 133.682 369.24 135.305 371.748 135.003C373.942 134.735 374.927 133.066 374.67 130.984C374.603 130.424 374.491 129.708 374.222 129.305L361.202 130.906C360.082 131.051 359.365 131.163 359.063 131.353C358.862 131.488 358.794 131.801 358.817 132.495L358.862 133.492L357.798 133.626C357.697 132.529 357.563 131.051 357.373 129.473C357.171 127.872 356.936 126.405 356.779 125.319L357.843 125.185L358.044 126.159C358.19 126.853 358.324 127.133 358.559 127.211C358.895 127.334 359.623 127.267 360.743 127.133L371.647 125.812Z" stroke="white" stroke-width="0.294218" stroke-miterlimit="3.864"></path>
    <path d="M364.438 145.919L362.064 146.109C360.821 146.837 359.993 148.941 359.993 150.341C359.993 152.625 361.202 154.573 363.542 154.573C364.706 154.573 365.591 153.879 366.05 152.334L367.181 148.561C367.852 146.299 369.442 144.631 371.759 144.631C376.07 144.631 377.715 147.833 377.715 151.74C377.715 153.408 377.413 155.189 376.797 156.745L376.473 156.879C375.611 156.61 374.043 156.51 372.644 156.51V155.401L374.849 155.233C375.767 154.427 376.327 152.916 376.327 151.651C376.327 149.143 374.872 147.967 373.069 147.967C371.86 147.967 370.965 148.83 370.461 150.822L369.655 153.89C369.005 156.364 367.449 157.954 365.02 157.954C360.441 157.954 358.526 154.159 358.526 150.061C358.526 148.124 358.929 146.154 359.769 144.43C361.359 144.754 362.893 144.833 364.426 144.833L364.438 145.919Z" fill="white"></path>
    <path d="M364.438 145.919L362.064 146.109C360.821 146.837 359.993 148.941 359.993 150.341C359.993 152.625 361.202 154.573 363.542 154.573C364.706 154.573 365.591 153.879 366.05 152.334L367.181 148.561C367.852 146.299 369.442 144.631 371.759 144.631C376.07 144.631 377.715 147.833 377.715 151.74C377.715 153.408 377.413 155.189 376.797 156.745L376.473 156.879C375.611 156.61 374.043 156.51 372.644 156.51V155.401L374.849 155.233C375.767 154.427 376.327 152.916 376.327 151.651C376.327 149.143 374.872 147.967 373.069 147.967C371.86 147.967 370.965 148.83 370.461 150.822L369.655 153.89C369.005 156.364 367.449 157.954 365.02 157.954C360.441 157.954 358.526 154.159 358.526 150.061C358.526 148.124 358.929 146.154 359.769 144.43C361.359 144.754 362.893 144.833 364.426 144.833L364.438 145.919Z" stroke="white" stroke-width="0.294218" stroke-miterlimit="3.864"></path>
    <path d="M361.505 166.082C360.386 165.936 359.658 165.88 359.322 166.004C359.098 166.082 358.953 166.362 358.807 167.056L358.606 168.03L357.542 167.896C357.699 166.798 357.934 165.343 358.135 163.764C358.337 162.163 358.46 160.686 358.561 159.589L359.624 159.723L359.58 160.719C359.546 161.413 359.624 161.727 359.826 161.861C360.128 162.063 360.845 162.175 361.964 162.309L372.869 163.641C373.988 163.787 374.716 163.843 375.052 163.72C375.276 163.641 375.421 163.361 375.567 162.667L375.768 161.693L376.832 161.828C376.664 162.925 376.44 164.38 376.239 165.992C376.048 167.571 375.914 169.049 375.813 170.146L374.738 170.012L374.783 169.015C374.817 168.31 374.738 168.008 374.537 167.873C374.235 167.672 373.518 167.56 372.398 167.425L361.505 166.082Z" fill="white"></path>
    <path d="M361.505 166.082C360.386 165.936 359.658 165.88 359.322 166.004C359.098 166.082 358.953 166.362 358.807 167.056L358.606 168.03L357.542 167.896C357.699 166.798 357.934 165.343 358.135 163.764C358.337 162.163 358.46 160.686 358.561 159.589L359.624 159.723L359.58 160.719C359.546 161.413 359.624 161.727 359.826 161.861C360.128 162.063 360.845 162.175 361.964 162.309L372.869 163.641C373.988 163.787 374.716 163.843 375.052 163.72C375.276 163.641 375.421 163.361 375.567 162.667L375.768 161.693L376.832 161.828C376.664 162.925 376.44 164.38 376.239 165.992C376.048 167.571 375.914 169.049 375.813 170.146L374.738 170.012L374.783 169.015C374.817 168.31 374.738 168.008 374.537 167.873C374.235 167.672 373.518 167.56 372.398 167.425L361.505 166.082Z" stroke="white" stroke-width="0.294218" stroke-miterlimit="3.864"></path>
    <path d="M358.56 179.763C357.463 179.472 356.758 179.315 356.399 179.382C356.164 179.427 355.985 179.684 355.75 180.356L355.414 181.297L354.373 181.017C354.687 179.953 355.123 178.542 355.537 177.009C355.952 175.453 356.287 174.008 356.545 172.934L357.586 173.213L357.407 174.199C357.284 174.893 357.306 175.206 357.485 175.363C357.754 175.609 358.448 175.811 359.545 176.113L372.14 179.483L372.958 176.438C373.148 175.732 373.349 175.016 373.159 174.77C373.058 174.624 372.868 174.467 372.599 174.367L370.842 173.762L371.122 172.721C372.823 173.124 374.044 173.37 375.353 173.493L375.443 173.684C374.682 176.415 373.909 179.102 373.204 181.722C372.487 184.375 371.816 187.096 371.122 189.828L370.954 189.951C369.756 189.402 368.58 189.01 366.912 188.507L367.192 187.465L369.028 187.812C369.319 187.868 369.554 187.812 369.711 187.745C369.991 187.622 370.192 186.894 370.383 186.2L371.2 183.155L358.56 179.763Z" fill="white"></path>
    <path d="M358.56 179.763C357.463 179.472 356.758 179.315 356.399 179.382C356.164 179.427 355.985 179.684 355.75 180.356L355.414 181.297L354.373 181.017C354.687 179.953 355.123 178.542 355.537 177.009C355.952 175.453 356.287 174.008 356.545 172.934L357.586 173.213L357.407 174.199C357.284 174.893 357.306 175.206 357.485 175.363C357.754 175.609 358.448 175.811 359.545 176.113L372.14 179.483L372.958 176.438C373.148 175.732 373.349 175.016 373.159 174.77C373.058 174.624 372.868 174.467 372.599 174.367L370.842 173.762L371.122 172.721C372.823 173.124 374.044 173.37 375.353 173.493L375.443 173.684C374.682 176.415 373.909 179.102 373.204 181.722C372.487 184.375 371.816 187.096 371.122 189.828L370.954 189.951C369.756 189.402 368.58 189.01 366.912 188.507L367.192 187.465L369.028 187.812C369.319 187.868 369.554 187.812 369.711 187.745C369.991 187.622 370.192 186.894 370.383 186.2L371.2 183.155L358.56 179.763Z" stroke="white" stroke-width="0.294218" stroke-miterlimit="3.864"></path>
    <path d="M363.99 206.699L363.173 208.614L362.703 208.412L358.09 201.303C357.541 200.452 356.858 199.668 356.164 198.941L352.123 197.228C351.082 196.78 350.399 196.522 350.04 196.556C349.805 196.567 349.593 196.802 349.268 197.418L348.809 198.303L347.812 197.877C348.272 196.869 348.898 195.526 349.514 194.071C350.152 192.582 350.679 191.205 351.082 190.175L352.067 190.6L351.753 191.552C351.529 192.223 351.507 192.537 351.675 192.716C351.91 192.996 352.571 193.298 353.612 193.746L357.06 195.213C358.325 195.19 358.974 195.112 359.635 195.011L364.74 194.227C365.434 194.115 366.296 193.858 366.946 193.645C367.808 193.343 368.222 192.906 368.58 192.055L369.498 192.447L368.726 196.758C367.382 197.799 365.759 198.023 364.158 198.157L358 198.672L363.99 206.699Z" fill="white"></path>
    <path d="M363.99 206.699L363.173 208.614L362.703 208.412L358.09 201.303C357.541 200.452 356.858 199.668 356.164 198.941L352.123 197.228C351.082 196.78 350.399 196.522 350.04 196.556C349.805 196.567 349.593 196.802 349.268 197.418L348.809 198.303L347.812 197.877C348.272 196.869 348.898 195.526 349.514 194.071C350.152 192.582 350.679 191.205 351.082 190.175L352.067 190.6L351.753 191.552C351.529 192.223 351.507 192.537 351.675 192.716C351.91 192.996 352.571 193.298 353.612 193.746L357.06 195.213C358.325 195.19 358.974 195.112 359.635 195.011L364.74 194.227C365.434 194.115 366.296 193.858 366.946 193.645C367.808 193.343 368.222 192.906 368.58 192.055L369.498 192.447L368.726 196.758C367.382 197.799 365.759 198.023 364.158 198.157L358 198.672L363.99 206.699Z" stroke="white" stroke-width="0.294218" stroke-miterlimit="3.864"></path>
    <path d="M166.939 241.17C167.745 241.965 168.584 242.76 169.446 243.533C170.364 244.361 172.01 245.514 172.2 245.391L174.496 243.768L175.268 244.473L172.055 247.597L171.809 247.664C170.42 246.589 168.092 244.507 166.827 243.286C166.032 242.525 165.237 241.753 164.42 241.014C163.58 240.252 162.729 239.558 161.968 238.909L162.382 238.45L163.345 238.663C163.826 238.775 164.207 238.506 164.767 237.89L172.839 228.923C173.589 228.083 174.059 227.523 174.16 227.176C174.227 226.941 174.081 226.661 173.589 226.157L172.906 225.43L173.622 224.635C174.417 225.396 175.492 226.426 176.69 227.501C177.865 228.564 179.007 229.516 179.847 230.232L179.131 231.038L178.336 230.434C177.787 230.009 177.485 229.885 177.261 229.975C176.925 230.109 176.421 230.624 175.66 231.475L166.939 241.17Z" fill="white"></path>
    <path d="M166.939 241.17C167.745 241.965 168.584 242.76 169.446 243.533C170.364 244.361 172.01 245.514 172.2 245.391L174.496 243.768L175.268 244.473L172.055 247.597L171.809 247.664C170.42 246.589 168.092 244.507 166.827 243.286C166.032 242.525 165.237 241.753 164.42 241.014C163.58 240.252 162.729 239.558 161.968 238.909L162.382 238.45L163.345 238.663C163.826 238.775 164.207 238.506 164.767 237.89L172.839 228.923C173.589 228.083 174.059 227.523 174.16 227.176C174.227 226.941 174.081 226.661 173.589 226.157L172.906 225.43L173.622 224.635C174.417 225.396 175.492 226.426 176.69 227.501C177.865 228.564 179.007 229.516 179.847 230.232L179.131 231.038L178.336 230.434C177.787 230.009 177.485 229.885 177.261 229.975C176.925 230.109 176.421 230.624 175.66 231.475L166.939 241.17Z" stroke="white" stroke-width="0.294218" stroke-miterlimit="3.864"></path>
    <path d="M193.539 240.062C188.423 236.614 183.161 237.151 179.601 242.424C176.164 247.518 177.361 252.288 182.366 255.657C187.482 259.106 192.744 258.568 196.304 253.295C199.73 248.201 198.532 243.432 193.539 240.062ZM192.688 241.305C195.834 243.432 195.162 247.753 192.677 251.437C190.415 254.784 187.359 257.202 183.205 254.403C180.06 252.276 180.709 247.977 183.194 244.294C185.467 240.946 188.535 238.506 192.688 241.305Z" fill="white"></path>
    <path d="M193.539 240.062C188.423 236.614 183.161 237.151 179.601 242.424C176.164 247.518 177.361 252.288 182.366 255.657C187.482 259.106 192.744 258.568 196.304 253.295C199.73 248.201 198.532 243.432 193.539 240.062ZM192.688 241.305C195.834 243.432 195.162 247.753 192.677 251.437C190.415 254.784 187.359 257.202 183.205 254.403C180.06 252.276 180.709 247.977 183.194 244.294C185.467 240.946 188.535 238.506 192.688 241.305Z" stroke="white" stroke-width="0.294218" stroke-miterlimit="3.864"></path>
    <path d="M198.241 258.109L197.446 260.348C197.614 261.77 199.182 263.394 200.469 263.965C202.563 264.894 204.824 264.58 205.776 262.442C206.246 261.378 205.977 260.281 204.757 259.24L201.768 256.676C199.977 255.142 199.092 253.015 200.044 250.899C201.801 246.959 205.395 246.768 208.955 248.358C210.478 249.041 211.978 250.026 213.165 251.235L213.154 251.582C212.56 252.265 211.821 253.642 211.25 254.919L210.243 254.471L210.993 252.388C210.624 251.224 209.482 250.093 208.317 249.578C206.033 248.559 204.354 249.41 203.615 251.056C203.123 252.164 203.548 253.329 205.16 254.605L207.634 256.598C209.638 258.199 210.456 260.27 209.459 262.487C207.601 266.674 203.358 266.875 199.618 265.207C197.838 264.424 196.215 263.259 194.983 261.793C195.924 260.471 196.618 259.106 197.245 257.706L198.241 258.109Z" fill="white"></path>
    <path d="M198.241 258.109L197.446 260.348C197.614 261.77 199.182 263.394 200.469 263.965C202.563 264.894 204.824 264.58 205.776 262.442C206.246 261.378 205.977 260.281 204.757 259.24L201.768 256.676C199.977 255.142 199.092 253.015 200.044 250.899C201.801 246.959 205.395 246.768 208.955 248.358C210.478 249.041 211.978 250.026 213.165 251.235L213.154 251.582C212.56 252.265 211.821 253.642 211.25 254.919L210.243 254.471L210.993 252.388C210.624 251.224 209.482 250.093 208.317 249.578C206.033 248.559 204.354 249.41 203.615 251.056C203.123 252.164 203.548 253.329 205.16 254.605L207.634 256.598C209.638 258.199 210.456 260.27 209.459 262.487C207.601 266.674 203.358 266.875 199.618 265.207C197.838 264.424 196.215 263.259 194.983 261.793C195.924 260.471 196.618 259.106 197.245 257.706L198.241 258.109Z" stroke="white" stroke-width="0.294218" stroke-miterlimit="3.864"></path>
    <path d="M229.667 268.353L230.272 271.6C230.451 272.518 230.048 273.044 229.622 272.988L228.212 272.798L228.021 273.772C229.768 274.085 231.1 274.287 232.13 274.488C233.16 274.69 234.447 274.992 236.216 275.362L236.407 274.388L235.791 274.186C234.996 273.917 234.727 273.458 234.571 272.742L230.831 255.422L228.95 255.053L228.335 256.06L227.697 257.057L226.655 258.747L219.625 269.394C219.154 270.1 218.539 270.749 217.833 270.693L217.027 270.615L216.837 271.589C218.113 271.813 219.076 271.936 219.837 272.092C220.599 272.238 221.539 272.484 222.804 272.753L222.994 271.779L221.685 271.443C221.214 271.32 220.778 270.749 221.338 269.82L223.028 267.077L229.667 268.353ZM227.898 259.509L229.342 266.752L223.946 265.7L227.898 259.509Z" fill="white"></path>
    <path d="M229.667 268.353L230.272 271.6C230.451 272.518 230.048 273.044 229.622 272.988L228.212 272.798L228.021 273.772C229.768 274.085 231.1 274.287 232.13 274.488C233.16 274.69 234.447 274.992 236.216 275.362L236.407 274.388L235.791 274.186C234.996 273.917 234.727 273.458 234.571 272.742L230.831 255.422L228.95 255.053L228.335 256.06L227.697 257.057L226.655 258.747L219.625 269.394C219.154 270.1 218.539 270.749 217.833 270.693L217.027 270.615L216.837 271.589C218.113 271.813 219.076 271.936 219.837 272.092C220.599 272.238 221.539 272.484 222.804 272.753L222.994 271.779L221.685 271.443C221.214 271.32 220.778 270.749 221.338 269.82L223.028 267.077L229.667 268.353ZM227.898 259.509L229.342 266.752L223.946 265.7L227.898 259.509Z" stroke="white" stroke-width="0.294218" stroke-miterlimit="3.864"></path>
    <path d="M241.265 261.132C241.288 260.001 241.265 259.274 241.12 258.949C240.986 258.68 240.728 258.535 240.023 258.479L239.026 258.378L239.049 257.381C240.124 257.426 241.198 257.493 242.273 257.516C243.023 257.527 243.784 257.482 244.535 257.471C245.43 258.669 246.292 259.956 247.244 261.098L255.473 271.04L255.641 261.378C255.663 260.248 255.652 259.52 255.495 259.195C255.372 258.926 255.103 258.792 254.398 258.725L253.401 258.624L253.424 257.628C254.443 257.673 255.495 257.751 256.525 257.762C257.544 257.785 258.563 257.74 259.593 257.74L259.57 258.736L258.574 258.792C257.88 258.837 257.6 258.96 257.465 259.229C257.297 259.553 257.264 260.27 257.241 261.401L257.029 273.626C257.018 274.567 257.051 275.541 257.062 276.347L256.872 276.447L254.667 276.056C253.581 274.791 252.472 273.514 251.442 272.249L242.9 261.602H242.844L242.665 272.126C242.643 273.257 242.665 273.984 242.81 274.309C242.945 274.578 243.202 274.723 243.908 274.791L244.904 274.891L244.882 275.888C243.863 275.843 242.844 275.776 241.814 275.753C240.795 275.731 239.743 275.776 238.713 275.776L238.735 274.779L239.732 274.712C240.426 274.667 240.706 274.544 240.84 274.276C241.008 273.951 241.042 273.223 241.064 272.104L241.265 261.132Z" fill="white"></path>
    <path d="M241.265 261.132C241.288 260.001 241.265 259.274 241.12 258.949C240.986 258.68 240.728 258.535 240.023 258.479L239.026 258.378L239.049 257.381C240.124 257.426 241.198 257.493 242.273 257.516C243.023 257.527 243.784 257.482 244.535 257.471C245.43 258.669 246.292 259.956 247.244 261.098L255.473 271.04L255.641 261.378C255.663 260.248 255.652 259.52 255.495 259.195C255.372 258.926 255.103 258.792 254.398 258.725L253.401 258.624L253.424 257.628C254.443 257.673 255.495 257.751 256.525 257.762C257.544 257.785 258.563 257.74 259.593 257.74L259.57 258.736L258.574 258.792C257.88 258.837 257.6 258.96 257.465 259.229C257.297 259.553 257.264 260.27 257.241 261.401L257.029 273.626C257.018 274.567 257.051 275.541 257.062 276.347L256.872 276.447L254.667 276.056C253.581 274.791 252.472 273.514 251.442 272.249L242.9 261.602H242.844L242.665 272.126C242.643 273.257 242.665 273.984 242.81 274.309C242.945 274.578 243.202 274.723 243.908 274.791L244.904 274.891L244.882 275.888C243.863 275.843 242.844 275.776 241.814 275.753C240.795 275.731 239.743 275.776 238.713 275.776L238.735 274.779L239.732 274.712C240.426 274.667 240.706 274.544 240.84 274.276C241.008 273.951 241.042 273.223 241.064 272.104L241.265 261.132Z" stroke="white" stroke-width="0.294218" stroke-miterlimit="3.864"></path>
    <path d="M280.529 271.689C278.234 273.033 275.748 274.074 273.017 274.511C266.949 275.473 261.944 272.775 260.937 266.416C259.974 260.303 264.452 256.452 270.128 255.557C272.546 255.176 274.953 255.008 277.64 255.646L277.842 255.915C277.73 256.911 277.831 258.915 277.875 260.08L276.834 260.248L276.342 257.986C275.11 256.922 272.647 256.687 270.464 257.034C266.053 257.74 264.206 261.244 264.866 265.453C265.594 270.055 268.605 273.693 273.386 272.943C274.561 272.764 275.614 272.35 276.655 271.745L276.095 268.23C275.961 267.401 275.278 267.379 274.427 267.48L273.005 267.648L272.837 266.562C274.147 266.383 275.457 266.226 276.756 266.024C278.066 265.812 279.331 265.554 280.629 265.33L280.775 266.237C279.902 266.562 279.734 266.707 279.835 267.368L280.529 271.689Z" fill="white"></path>
    <path d="M280.529 271.689C278.234 273.033 275.748 274.074 273.017 274.511C266.949 275.473 261.944 272.775 260.937 266.416C259.974 260.303 264.452 256.452 270.128 255.557C272.546 255.176 274.953 255.008 277.64 255.646L277.842 255.915C277.73 256.911 277.831 258.915 277.875 260.08L276.834 260.248L276.342 257.986C275.11 256.922 272.647 256.687 270.464 257.034C266.053 257.74 264.206 261.244 264.866 265.453C265.594 270.055 268.605 273.693 273.386 272.943C274.561 272.764 275.614 272.35 276.655 271.745L276.095 268.23C275.961 267.401 275.278 267.379 274.427 267.48L273.005 267.648L272.837 266.562C274.147 266.383 275.457 266.226 276.756 266.024C278.066 265.812 279.331 265.554 280.629 265.33L280.775 266.237C279.902 266.562 279.734 266.707 279.835 267.368L280.529 271.689Z" stroke="white" stroke-width="0.294218" stroke-miterlimit="3.864"></path>
    <path d="M287.715 259.9C288.32 259.755 288.88 259.576 289.451 259.397L291.141 258.848C292.037 258.557 292.529 258.344 292.429 257.829L292.104 256.318L293.123 255.982C293.403 256.911 293.638 257.829 293.94 258.747C294.242 259.665 294.589 260.583 294.914 261.49L293.895 261.826L293.324 260.595C293.011 259.9 292.451 259.822 291.555 260.113L289.865 260.662C289.305 260.841 288.745 261.054 288.174 261.289L290.391 268.129C291.488 267.827 292.597 267.502 293.694 267.144C294.869 266.763 296.694 265.912 296.672 265.7L296.481 263.102L297.478 262.778L298.519 266.92L298.463 267.166C296.84 267.838 293.873 268.801 292.182 269.282C291.119 269.596 290.055 269.887 289.014 270.234C287.939 270.581 286.909 270.973 285.969 271.309L285.779 270.715L286.45 269.988C286.786 269.618 286.741 269.159 286.484 268.364L282.756 256.889C282.409 255.814 282.151 255.131 281.905 254.874C281.692 254.661 281.39 254.616 280.707 254.773L279.733 255.008L279.431 254.056C281.132 253.53 282.453 253.161 283.45 252.836C285.857 252.052 287.581 251.437 289.036 250.933C290.458 250.44 291.589 250.082 292.798 249.791L293 249.914L293.828 253.676L292.91 253.978L292.082 252.12C291.902 251.75 290.156 252.209 288.98 252.59C287.872 252.948 286.786 253.329 285.734 253.732L287.715 259.9Z" fill="white"></path>
    <path d="M287.715 259.9C288.32 259.755 288.88 259.576 289.451 259.397L291.141 258.848C292.037 258.557 292.529 258.344 292.429 257.829L292.104 256.318L293.123 255.982C293.403 256.911 293.638 257.829 293.94 258.747C294.242 259.665 294.589 260.583 294.914 261.49L293.895 261.826L293.324 260.595C293.011 259.9 292.451 259.822 291.555 260.113L289.865 260.662C289.305 260.841 288.745 261.054 288.174 261.289L290.391 268.129C291.488 267.827 292.597 267.502 293.694 267.144C294.869 266.763 296.694 265.912 296.672 265.7L296.481 263.102L297.478 262.778L298.519 266.92L298.463 267.166C296.84 267.838 293.873 268.801 292.182 269.282C291.119 269.596 290.055 269.887 289.014 270.234C287.939 270.581 286.909 270.973 285.969 271.309L285.779 270.715L286.45 269.988C286.786 269.618 286.741 269.159 286.484 268.364L282.756 256.889C282.409 255.814 282.151 255.131 281.905 254.874C281.692 254.661 281.39 254.616 280.707 254.773L279.733 255.008L279.431 254.056C281.132 253.53 282.453 253.161 283.45 252.836C285.857 252.052 287.581 251.437 289.036 250.933C290.458 250.44 291.589 250.082 292.798 249.791L293 249.914L293.828 253.676L292.91 253.978L292.082 252.12C291.902 251.75 290.156 252.209 288.98 252.59C287.872 252.948 286.786 253.329 285.734 253.732L287.715 259.9Z" stroke="white" stroke-width="0.294218" stroke-miterlimit="3.864"></path>
    <path d="M307.542 261.277C308.572 260.807 309.625 260.303 310.643 259.788C311.752 259.229 313.42 258.098 313.364 257.885L312.67 255.154L313.61 254.683L315.379 258.803L315.357 259.05C313.857 259.968 311.069 261.389 309.49 262.128C308.494 262.61 307.486 263.058 306.501 263.561C305.494 264.076 304.531 264.625 303.657 265.095L303.378 264.547L303.926 263.718C304.206 263.315 304.094 262.856 303.713 262.106L298.239 251.358C297.724 250.351 297.377 249.713 297.086 249.5C296.895 249.354 296.582 249.399 295.933 249.668L295.003 250.048L294.511 249.097C295.507 248.615 296.851 248 298.284 247.261C299.705 246.544 300.993 245.816 301.967 245.29L302.46 246.242L301.609 246.768C301.015 247.138 300.791 247.361 300.791 247.608C300.791 247.977 301.105 248.627 301.609 249.645L307.542 261.277Z" fill="white"></path>
    <path d="M307.542 261.277C308.572 260.807 309.625 260.303 310.643 259.788C311.752 259.229 313.42 258.098 313.364 257.885L312.67 255.154L313.61 254.683L315.379 258.803L315.357 259.05C313.857 259.968 311.069 261.389 309.49 262.128C308.494 262.61 307.486 263.058 306.501 263.561C305.494 264.076 304.531 264.625 303.657 265.095L303.378 264.547L303.926 263.718C304.206 263.315 304.094 262.856 303.713 262.106L298.239 251.358C297.724 250.351 297.377 249.713 297.086 249.5C296.895 249.354 296.582 249.399 295.933 249.668L295.003 250.048L294.511 249.097C295.507 248.615 296.851 248 298.284 247.261C299.705 246.544 300.993 245.816 301.967 245.29L302.46 246.242L301.609 246.768C301.015 247.138 300.791 247.361 300.791 247.608C300.791 247.977 301.105 248.627 301.609 249.645L307.542 261.277Z" stroke="white" stroke-width="0.294218" stroke-miterlimit="3.864"></path>
    <path d="M316.073 246.197C316.611 245.884 317.092 245.548 317.585 245.201L319.04 244.182C319.813 243.645 320.227 243.286 319.97 242.839L319.219 241.484L320.104 240.868C320.63 241.685 321.134 242.48 321.694 243.275C322.242 244.07 322.847 244.831 323.429 245.615L322.544 246.231L321.638 245.223C321.134 244.652 320.574 244.742 319.813 245.279L318.357 246.298C317.876 246.645 317.406 247.003 316.924 247.395L321.044 253.284C322.007 252.679 322.97 252.041 323.91 251.37C324.929 250.653 326.418 249.31 326.34 249.108L325.399 246.679L326.261 246.074L328.456 249.735L328.467 249.993C327.112 251.112 324.548 252.903 323.082 253.855C322.164 254.471 321.223 255.053 320.328 255.691C319.399 256.34 318.525 257.023 317.73 257.617L317.383 257.113L317.809 256.217C318.021 255.769 317.854 255.333 317.372 254.65L310.453 244.764C309.804 243.835 309.367 243.253 309.043 243.085C308.774 242.939 308.483 242.984 307.878 243.342L307.016 243.846L306.445 243.029C307.912 242.033 309.076 241.294 309.938 240.689C312.009 239.234 313.476 238.148 314.719 237.241C315.939 236.356 316.913 235.673 317.988 235.047L318.223 235.102L320.104 238.45L319.309 239.01L317.977 237.476C317.697 237.174 316.163 238.125 315.144 238.831C314.204 239.502 313.263 240.185 312.368 240.879L316.073 246.197Z" fill="white"></path>
    <path d="M316.073 246.197C316.611 245.884 317.092 245.548 317.585 245.201L319.04 244.182C319.813 243.645 320.227 243.286 319.97 242.839L319.219 241.484L320.104 240.868C320.63 241.685 321.134 242.48 321.694 243.275C322.242 244.07 322.847 244.831 323.429 245.615L322.544 246.231L321.638 245.223C321.134 244.652 320.574 244.742 319.813 245.279L318.357 246.298C317.876 246.645 317.406 247.003 316.924 247.395L321.044 253.284C322.007 252.679 322.97 252.041 323.91 251.37C324.929 250.653 326.418 249.31 326.34 249.108L325.399 246.679L326.261 246.074L328.456 249.735L328.467 249.993C327.112 251.112 324.548 252.903 323.082 253.855C322.164 254.471 321.223 255.053 320.328 255.691C319.399 256.34 318.525 257.023 317.73 257.617L317.383 257.113L317.809 256.217C318.021 255.769 317.854 255.333 317.372 254.65L310.453 244.764C309.804 243.835 309.367 243.253 309.043 243.085C308.774 242.939 308.483 242.984 307.878 243.342L307.016 243.846L306.445 243.029C307.912 242.033 309.076 241.294 309.938 240.689C312.009 239.234 313.476 238.148 314.719 237.241C315.939 236.356 316.913 235.673 317.988 235.047L318.223 235.102L320.104 238.45L319.309 239.01L317.977 237.476C317.697 237.174 316.163 238.125 315.144 238.831C314.204 239.502 313.263 240.185 312.368 240.879L316.073 246.197Z" stroke="white" stroke-width="0.294218" stroke-miterlimit="3.864"></path>
    <path d="M328.77 242.626L330.494 244.26C331.86 244.697 333.987 243.913 335.028 242.973C336.73 241.439 337.357 239.245 335.79 237.498C335.017 236.636 333.898 236.446 332.453 237.129L328.893 238.808C326.766 239.827 324.46 239.76 322.904 238.036C320.026 234.834 321.303 231.464 324.202 228.855C325.445 227.736 326.956 226.773 328.535 226.191L328.848 226.336C329.229 227.154 330.192 228.396 331.132 229.426L330.315 230.165L328.714 228.631C327.505 228.486 326.005 229.079 325.064 229.93C323.206 231.609 323.295 233.479 324.505 234.823C325.322 235.729 326.553 235.808 328.378 234.856L331.199 233.401C333.472 232.225 335.7 232.326 337.323 234.128C340.391 237.532 338.846 241.495 335.812 244.227C334.368 245.525 332.632 246.544 330.796 247.07C329.979 245.671 329.005 244.484 327.975 243.342L328.77 242.626Z" fill="white"></path>
    <path d="M328.77 242.626L330.494 244.26C331.86 244.697 333.987 243.913 335.028 242.973C336.73 241.439 337.357 239.245 335.79 237.498C335.017 236.636 333.898 236.446 332.453 237.129L328.893 238.808C326.766 239.827 324.46 239.76 322.904 238.036C320.026 234.834 321.303 231.464 324.202 228.855C325.445 227.736 326.956 226.773 328.535 226.191L328.848 226.336C329.229 227.154 330.192 228.396 331.132 229.426L330.315 230.165L328.714 228.631C327.505 228.486 326.005 229.079 325.064 229.93C323.206 231.609 323.295 233.479 324.505 234.823C325.322 235.729 326.553 235.808 328.378 234.856L331.199 233.401C333.472 232.225 335.7 232.326 337.323 234.128C340.391 237.532 338.846 241.495 335.812 244.227C334.368 245.525 332.632 246.544 330.796 247.07C329.979 245.671 329.005 244.484 327.975 243.342L328.77 242.626Z" stroke="white" stroke-width="0.294218" stroke-miterlimit="3.864"></path>
    <path d="M239.228 195.817L236.541 193.377L218.247 176.628L218.505 167.605L215.504 164.179L216.109 159.88L214.206 158.167L212.235 159.443L208.205 156.454L206.57 153.185L206.313 151.125L205.798 150.173L206.223 149.311L210.78 153.017L212.493 151.035L211.205 148.46L211.384 145.706H209.918L209.672 140.993L207.343 141.844L206.492 143.993L205.372 146.143L202.797 143.736L200.648 143.131L199.786 140.993L198.498 137.119L197.032 134.119L194.893 129.988L194.636 120.55L193.169 118.4L192.498 114.784L190.594 111.784V106.802L191.624 101.909L192.744 98.4722L191.031 96.0651V92.6393L190.169 88.5977L221.584 88.5417V124.759L221.942 132.316L245.475 132.204L306.692 186.503L306.949 190.108L310.554 193.802L309.524 202.143L309.692 206.688L307.979 209.7L307.543 213.562L292.955 217.167L282.051 219.742L259.906 205.972" stroke="white" stroke-width="2.3496" stroke-linecap="round" stroke-linejoin="round"></path>
    <path d="M240.717 196.702L216.725 183.715L239.027 198.874M238.545 199.848L210.848 196.926L238.176 202.456M238.12 204.583L211.587 210.148L238.948 207.181M239.195 207.808L218.192 223.358L240.527 210.013M241.714 211.289L226.992 233.636L243.897 212.846M244.748 213.26L241.669 239.502L247.256 213.954M249.383 214.178L255.607 240.241L251.913 213.641M253.984 212.767L271.762 234.363L256.178 211.401M257.354 210.058L281.301 223.358L258.798 207.875M259.335 206.341L287.179 209.409L259.839 203.878M259.761 202.982L286.44 196.198L259.335 200.553M258.608 198.661L280.562 182.26L257.197 196.467M255.932 195.235L269.568 171.982L253.805 193.78M252.282 193.265L257.085 166.843L249.741 192.727M247.826 192.705L240.941 166.104L245.341 193.142M243.516 194.328L226.992 172.721L241.423 195.94M241.423 195.929C241.176 196.176 240.93 196.433 240.717 196.702Z" fill="white"></path>
    <path d="M239.027 198.874L216.725 183.715L240.717 196.702C240.93 196.433 241.176 196.176 241.423 195.929M238.545 199.848L210.848 196.926L238.176 202.456M238.12 204.583L211.587 210.148L238.948 207.181M239.195 207.808L218.192 223.358L240.527 210.013M241.714 211.289L226.992 233.636L243.897 212.846M244.748 213.26L241.669 239.502L247.256 213.954M249.383 214.178L255.607 240.241L251.913 213.641M253.984 212.767L271.762 234.363L256.178 211.401M257.354 210.058L281.301 223.358L258.798 207.875M259.335 206.341L287.179 209.409L259.839 203.878M259.761 202.982L286.44 196.198L259.335 200.553M258.608 198.661L280.562 182.26L257.197 196.467M255.932 195.235L269.568 171.982L253.805 193.78M252.282 193.265L257.085 166.843L249.741 192.727M247.826 192.705L240.941 166.104L245.341 193.142M243.516 194.328L226.992 172.721L241.423 195.94" stroke="white" stroke-width="0.882767"></path>
    <path d="M251.095 74.9617L251.487 58.8065H245.262L246.102 75.5998L251.229 75.4095M298.721 97.5094L308.45 78.6674L303.423 74.5922L298.721 86.0564V97.5094ZM253.703 193.444L283.92 131.264L280.976 129.607L252.785 193.142M249.83 192.593L250.916 128.633L247.154 130.693L248.262 192.526M244.557 193.354L199.539 75.8013L194.748 79.3951L243.784 193.634M240.873 195.896L166.759 118.411L165.326 124.155L240.515 196.444M238.903 199.232L163.232 163.171L164.128 169.642L238.578 199.825M238.119 203.374L177.529 200.262L181.839 206.005L238.175 204.136M238.97 207.091L197.155 220.38L203.144 224.937L239.127 208.076M240.985 210.394L215.101 231.867L220.609 234.263L241.623 211.267M243.851 212.655L230.193 237.364L236.653 238.562L244.848 213.338M247.815 214.066L246.09 240.028H250.378L249.024 214.111M252.629 213.45L262.022 239.29L267.295 238.338L254.375 212.711M256.334 211.189L279.017 235.685L285.006 233.524L257.14 210.371M258.82 207.763L299.112 226.605L304.139 223.011C304.139 223.011 275.456 212.835 259.2 206.99M259.827 204.214L322.511 206.543L326.889 200.508L259.883 203.318M259.335 199.926L340.547 168.747L341.409 161.872C341.409 161.872 283.372 187.913 259.044 198.952M256.95 195.84L337.233 120.035L335.017 113.855L256.234 195.425" fill="white"></path>
    <path d="M259.525 203.15C259.525 208.983 254.801 213.708 248.979 213.708C243.146 213.708 238.422 208.983 238.422 203.15C238.422 197.318 243.146 192.593 248.979 192.593C254.801 192.593 259.525 197.318 259.525 203.15Z" stroke="white" stroke-width="1.07164"></path>
    <path d="M257.13 203.229C257.13 207.685 253.514 211.301 249.058 211.301C244.602 211.301 240.986 207.685 240.986 203.229C240.986 198.773 244.602 195.157 249.058 195.157C253.514 195.157 257.13 198.773 257.13 203.229Z" fill="white"></path>
    <path d="M298.126 128.599C298.126 128.599 290.827 130.783 284.815 127.972C280.359 125.879 276.474 124.838 270.026 125.476C266.734 125.812 264.103 127.984 263.084 128.487C262.984 128.543 260.14 126.864 256.647 125.935C253.333 125.062 248.609 125.207 246.224 125.935C243.033 126.931 241.13 129.07 232.666 129.294C231.547 129.316 228.938 128.678 226.643 128.028C226.24 127.905 221.594 132.887 221.594 132.887H301.608L298.126 128.599Z" fill="white"></path>
    <path d="M298.126 128.599C298.126 128.599 290.827 130.783 284.815 127.972C280.359 125.879 276.474 124.838 270.026 125.476C266.734 125.812 264.103 127.984 263.084 128.487C262.984 128.543 260.14 126.864 256.647 125.935C253.333 125.062 248.609 125.207 246.224 125.935C243.033 126.931 241.13 129.07 232.666 129.294C231.547 129.316 228.938 128.678 226.643 128.028C226.24 127.905 221.594 132.887 221.594 132.887H301.608L298.126 128.599Z" stroke="white" stroke-width="0.926653" stroke-linecap="round" stroke-linejoin="round"></path>
    <path d="M283.147 76.2491C283.125 76.1931 270.015 71.2671 262.906 79.1487V128.991C262.995 128.991 272.567 121.949 284.043 128.521C284.009 128.543 292.272 131.891 298.048 128.767V76.2491C297.992 76.2827 293.693 79.2719 283.147 76.2491ZM242.653 76.2491C242.743 76.1931 255.853 71.2671 262.906 79.1487V128.991C262.895 128.991 253.322 121.949 241.757 128.521C241.881 128.543 231.76 131.185 225.972 128.096L225.994 74.9952C226.061 74.9952 232.185 79.2719 242.653 76.2491Z" fill="white"></path>
    <path d="M262.906 79.1487C270.015 71.2671 283.125 76.1931 283.147 76.2491C293.693 79.2719 297.992 76.2827 298.048 76.2491V128.767C292.272 131.891 284.009 128.543 284.043 128.521C272.567 121.949 262.995 128.991 262.906 128.991M262.906 79.1487V128.991M262.906 79.1487C255.853 71.2671 242.743 76.1931 242.653 76.2491C232.185 79.2719 226.061 74.9952 225.994 74.9952L225.972 128.096C231.76 131.185 241.881 128.543 241.757 128.521C253.322 121.949 262.895 128.991 262.906 128.991" stroke="black" stroke-width="1.85331" stroke-linecap="round" stroke-linejoin="round"></path>
    <path d="M221.527 132.361V78.9137L225.994 74.9952L225.983 128.096L221.527 132.417V132.361Z" fill="white"></path>
    <path d="M221.527 132.361V78.9137L225.994 74.9952L225.983 128.096L221.527 132.417V132.361Z" stroke="black" stroke-width="1.85331" stroke-linecap="round" stroke-linejoin="round"></path>
    <path d="M298.048 76.2491L301.619 80.0332V132.417L298.048 128.767V76.2491Z" fill="white"></path>
    <path d="M298.048 76.2491L301.619 80.0332V132.417L298.048 128.767V76.2491Z" stroke="black" stroke-width="1.85331" stroke-linecap="round" stroke-linejoin="round"></path>
    <path d="M246.359 116.654C252.92 114.135 255.685 107.776 255.685 100.353C255.685 94.397 253.647 90.4449 250.199 90.4449C246.785 90.4449 244.389 94.2514 244.389 99.0207C244.389 103.118 246.102 106.443 249.169 106.443C249.819 106.443 250.848 106.085 251.363 105.492L253.177 103.342C253.02 109.768 249.807 114.291 245.463 115.713V116.016L246.359 116.654ZM250.121 104.193C247.691 104.193 246.594 100.946 246.594 97.9236C246.594 94.856 247.4 91.7548 250.098 91.6765C252.685 91.5981 253.435 95.6621 253.435 98.696C253.435 101.573 252.192 104.193 250.121 104.193Z" fill="white"></path>
    <path d="M246.359 116.654C252.92 114.135 255.685 107.776 255.685 100.353C255.685 94.397 253.647 90.4449 250.199 90.4449C246.785 90.4449 244.389 94.2514 244.389 99.0207C244.389 103.118 246.102 106.443 249.169 106.443C249.819 106.443 250.848 106.085 251.363 105.492L253.177 103.342C253.02 109.768 249.807 114.291 245.463 115.713V116.016L246.359 116.654ZM250.121 104.193C247.691 104.193 246.594 100.946 246.594 97.9236C246.594 94.856 247.4 91.7548 250.098 91.6765C252.685 91.5981 253.435 95.6621 253.435 98.696C253.435 101.573 252.192 104.193 250.121 104.193Z" fill="black"></path>
    <path d="M274.694 101.148H269.399L274.65 92.561H274.694V101.148ZM274.694 102.715V104.574C274.694 106.242 274.258 106.387 273.217 106.443L271.683 106.522V107.261C272.937 107.227 274.224 107.182 275.523 107.182C276.833 107.182 278.109 107.227 279.408 107.261V106.522L278.232 106.443C277.202 106.365 276.754 106.242 276.754 104.574V102.715C277.717 102.715 278.646 102.715 279.408 102.816V101.07C278.534 101.148 277.639 101.17 276.754 101.148V97.7109C276.754 93.9716 276.799 90.9712 276.922 90.2099L276.631 90.0868L274.806 90.7585L267.843 102.167L268.111 102.727H274.694V102.715Z" fill="white"></path>
    <path d="M274.694 101.148H269.399L274.65 92.561H274.694V101.148ZM274.694 102.715V104.574C274.694 106.242 274.258 106.387 273.217 106.443L271.683 106.522V107.261C272.937 107.227 274.224 107.182 275.523 107.182C276.833 107.182 278.109 107.227 279.408 107.261V106.522L278.232 106.443C277.202 106.365 276.754 106.242 276.754 104.574V102.715C277.717 102.715 278.646 102.715 279.408 102.816V101.07C278.534 101.148 277.639 101.17 276.754 101.148V97.7109C276.754 93.9716 276.799 90.9712 276.922 90.2099L276.631 90.0868L274.806 90.7585L267.843 102.167L268.111 102.727H274.694V102.715Z" fill="black"></path>
    <path d="M288.308 100.42C289.215 98.3154 290.089 96.0539 290.995 93.1095H284.424C283.237 93.3558 283.091 93.7476 282.923 95.8188L282.755 97.778H282.017C282.039 96.5801 282.095 95.3598 282.095 94.1171C282.095 92.9191 282.05 91.7212 282.017 90.4897L282.263 90.3218C284.065 90.4113 285.879 90.4897 287.704 90.4897C289.551 90.4897 291.365 90.4113 293.167 90.3218V91.3742L288.656 102.95C287.133 106.891 285.778 110.933 284.793 114.661C284.424 114.616 284.032 114.56 283.651 114.56C283.282 114.56 282.901 114.616 282.52 114.661L282.296 114.202L288.308 100.42Z" fill="white"></path>
    <path d="M288.308 100.42C289.215 98.3154 290.089 96.0539 290.995 93.1095H284.424C283.237 93.3558 283.091 93.7476 282.923 95.8188L282.755 97.778H282.017C282.039 96.5801 282.095 95.3598 282.095 94.1171C282.095 92.9191 282.05 91.7212 282.017 90.4897L282.263 90.3218C284.065 90.4113 285.879 90.4897 287.704 90.4897C289.551 90.4897 291.365 90.4113 293.167 90.3218V91.3742L288.656 102.95C287.133 106.891 285.778 110.933 284.793 114.661C284.424 114.616 284.032 114.56 283.651 114.56C283.282 114.56 282.901 114.616 282.52 114.661L282.296 114.202L288.308 100.42Z" fill="black"></path>
    <path d="M233.349 92.4602C235.453 91.7661 237.592 90.9265 239.249 90.0868L239.618 90.2099V104.876C239.618 105.447 239.663 105.94 239.954 106.164C240.29 106.432 240.76 106.488 241.309 106.511L242.663 106.589V107.328C240.715 107.306 239.618 107.25 238.532 107.25C237.435 107.25 236.349 107.294 234.289 107.328V106.589L235.744 106.511C236.293 106.488 236.752 106.432 237.088 106.164C237.379 105.94 237.424 105.447 237.424 104.876V92.8857C237.424 92.4714 237.424 91.9676 237.133 92.0908L233.785 93.5238H233.517L233.349 92.4602Z" fill="white"></path>
    <path d="M233.349 92.4602C235.453 91.7661 237.592 90.9265 239.249 90.0868L239.618 90.2099V104.876C239.618 105.447 239.663 105.94 239.954 106.164C240.29 106.432 240.76 106.488 241.309 106.511L242.663 106.589V107.328C240.715 107.306 239.618 107.25 238.532 107.25C237.435 107.25 236.349 107.294 234.289 107.328V106.589L235.744 106.511C236.293 106.488 236.752 106.432 237.088 106.164C237.379 105.94 237.424 105.447 237.424 104.876V92.8857C237.424 92.4714 237.424 91.9676 237.133 92.0908L233.785 93.5238H233.517L233.349 92.4602Z" fill="black"></path>
  </g>
  <defs>
    <clipPath id="clip0_261_4378">
      <rect width="280" height="280" fill="white" transform="translate(111.05 10.05)"></rect>
    </clipPath>
  </defs>
</svg>
