<?xml version="1.0" encoding="UTF-8"?>
<svg xmlns="http://www.w3.org/2000/svg" width="500" height="300" viewBox="0 0 500 300" fill="none">
  <path d="M44.9929 148.773C43.5867 146.853 41.6126 145.393 39.3681 144.635C38.2323 144.257 37.0695 144.095 35.8796 144.095H14.354C14.5433 150.179 19.5191 155.02 25.6036 155.047H36.4205L26.7664 184.955C32.5805 186.578 38.665 183.36 40.5579 177.627L46.6425 158.941C47.7512 155.506 47.1563 151.775 45.047 148.854" fill="white"></path>
  <path d="M80.5805 174.95L64.6796 163.403C59.6498 159.752 52.6188 160.861 48.9681 165.864C48.265 166.81 47.7242 167.892 47.3726 169L40.7202 189.498C46.5343 191.148 52.6188 187.903 54.5118 182.17L57.838 171.867L58.2977 172.191L83.2847 190.31C86.665 185.28 85.4481 178.465 80.5264 174.923" fill="white"></path>
  <path d="M95.562 131.574C92.6144 131.114 89.6127 131.844 87.1789 133.575L71.2781 145.122C66.2482 148.773 65.1395 155.831 68.7902 160.834C69.4933 161.78 70.3316 162.618 71.2781 163.322L88.6933 175.977C92.0736 170.947 90.8567 164.133 85.935 160.59L77.1733 154.235L77.606 153.911L102.647 135.711C100.889 133.467 98.3474 132.007 95.535 131.574" fill="white"></path>
  <path d="M58.5142 131.412C60.4342 137.334 66.8161 140.579 72.7654 138.659C73.8742 138.307 74.9018 137.767 75.8482 137.09L93.2364 124.435C89.5046 119.675 82.6629 118.702 77.7682 122.271L69.0336 128.626L59.2984 98.6635C53.5925 100.719 50.5367 106.938 52.4026 112.698L58.5142 131.412Z" fill="white"></path>
  <path d="M22.2233 140.254H41.8019C48.0216 140.254 53.1055 135.225 53.1055 128.978C53.1055 127.815 52.9162 126.625 52.5647 125.516L45.8582 105.073C40.1793 107.155 37.1236 113.347 38.9624 119.107L42.3157 129.411H10.8926C11.136 135.468 16.1388 140.282 22.2233 140.254Z" fill="white"></path>
  <path d="M468.799 146.231L468.556 146.61L467.772 135.955H457.901V184.388H468.583V157.751C470.773 152.37 473.991 148.746 478.237 147.015C481.698 145.609 485.565 145.528 489.081 146.772V135.901C481.049 134.414 473.91 138.064 468.88 146.204" fill="white"></path>
  <path d="M314.144 113.023H303.462V184.415H314.144V113.023Z" fill="white"></path>
  <path d="M332.074 113.023H321.392V184.415H332.074V113.023Z" fill="white"></path>
  <path d="M398.922 113.023H388.24V184.415H398.922V113.023Z" fill="white"></path>
  <path d="M427.154 134.494C420.718 134.494 412.172 135.603 407.575 138.118V146.826C412.794 144.527 418.419 143.283 424.125 143.175C434.482 143.175 439.783 148.016 439.864 157.534V157.805L439.62 157.616C434.942 154.425 429.398 152.829 423.747 152.991C418.554 152.829 413.416 154.37 409.171 157.399C405.412 160.239 403.248 164.674 403.33 169.379C403.33 178.871 410.793 185.523 421.529 185.523C429.804 185.523 436.835 181.927 440.486 175.869L440.729 175.463L441.351 184.306H450.518V159.481C450.518 151.207 448.355 144.879 444.082 140.552C440.053 136.414 434.32 134.386 427.046 134.386M439.674 165.079C437.43 171.732 430.886 176.761 424.423 176.761C417.959 176.761 413.984 173.598 413.984 168.757C413.984 163.646 418.392 160.482 425.504 160.482C430.588 160.428 435.564 162.023 439.647 165.025H439.728L439.647 165.106L439.674 165.079Z" fill="white"></path>
  <path d="M358.926 176.302C352.679 176.302 348.65 171.705 348.65 164.593V135.982H337.969V165.837C337.969 177.816 344.756 185.55 355.303 185.55C361.739 185.632 367.931 183.117 372.501 178.574L372.745 178.303L373.042 184.388H382.399V135.955H371.798V168.811C368.58 173.246 363.415 176.221 358.953 176.221" fill="white"></path>
  <path d="M275.474 134.495C268.119 134.495 261.926 136.955 257.545 141.58C253.164 146.204 251.028 152.396 251.028 159.806C251.028 167.702 253.597 174.328 258.465 178.925C263.44 183.36 269.904 185.74 276.556 185.55C282.749 185.55 289.834 183.468 293.89 180.466L289.834 172.949C287.075 174.815 280.45 176.329 276.637 176.329C268.768 176.329 263.413 172.002 261.926 164.457V164.268H297.406C297.514 163.267 297.568 162.267 297.568 161.266C297.568 152.991 295.567 146.177 291.754 141.58C287.941 136.982 282.316 134.522 275.474 134.522M261.439 156.804V156.642C262.332 148.367 267.416 143.5 275.447 143.5C282.613 143.5 286.913 148.151 287.535 156.642V156.804H261.412H261.439Z" fill="white"></path>
  <path d="M234.424 176.302C225.284 176.383 217.793 169.055 217.712 159.914C217.658 155.452 219.443 151.18 222.607 148.016C225.825 145.041 230.07 143.446 234.451 143.5C238.643 143.5 242.753 144.689 246.323 146.853L250.703 139.497C245.917 136.225 240.238 134.468 234.451 134.495C221.227 134.495 207.003 142.472 207.003 160.022C207.003 172.327 215.603 185.55 234.451 185.55C240.292 185.577 245.998 183.82 250.812 180.466L246.35 172.949C242.726 175.085 238.616 176.248 234.424 176.329" fill="white"></path>
  <path d="M135.882 176.302C129.635 176.302 125.606 171.705 125.606 164.593V135.982H114.924V165.837C114.924 177.816 121.739 185.55 132.258 185.55C138.694 185.632 144.887 183.117 149.457 178.574L149.7 178.303L149.998 184.388H159.355V135.955H148.754V168.811C145.536 173.246 140.371 176.221 135.909 176.221" fill="white"></path>
  <path d="M175.824 148.8C175.824 146.041 177.5 143.094 185.613 143.094C190.183 143.094 196.294 144.067 200.648 146.798V137.685C195.862 135.549 190.697 134.467 185.478 134.494C172.822 134.494 165.25 140.606 165.25 148.8C165.25 153.694 167.684 158.535 176.554 161.807C186.505 165.458 193.104 165.944 193.104 171.272C193.104 175.409 188.966 176.788 184.45 176.707C177.933 176.518 171.578 174.625 166.007 171.272V181.521C171.416 184.144 177.311 185.523 183.314 185.55C196.376 185.55 203.65 179.439 203.65 171.272C203.65 163.105 198.945 159.049 187.83 156.561C176.716 154.073 175.796 151.504 175.796 148.8" fill="white"></path>
</svg>
