<?xml version="1.0" encoding="UTF-8"?>
<svg xmlns="http://www.w3.org/2000/svg" width="500" height="300" viewBox="0 0 500 300" fill="none">
  <path d="M268.473 224.955C266.124 224.955 264.664 226.224 263.712 227.621V219.432H260.221V240.571H263.712V231.938C263.712 229.589 265.109 228.129 267.14 228.129C269.235 228.129 270.378 229.462 270.378 231.874V240.571H273.869V230.858C273.869 227.24 271.901 224.955 268.473 224.955Z" fill="white"></path>
  <path d="M284.724 224.955C280.344 224.955 277.233 228.51 277.233 232.89V232.953C277.233 237.651 280.661 240.888 285.105 240.888C287.898 240.888 289.929 239.746 291.389 238.032L289.358 236.191C288.152 237.397 286.946 238.032 285.232 238.032C283.01 238.032 281.233 236.635 280.852 234.159H292.024C292.024 233.842 292.088 233.525 292.088 233.207C292.024 228.764 289.612 224.955 284.724 224.955ZM280.725 231.874C281.042 229.525 282.566 227.875 284.661 227.875C286.946 227.875 288.279 229.652 288.533 231.874H280.725Z" fill="white"></path>
  <path d="M290.945 205.466C290.945 202.546 289.866 202.356 289.866 202.356H288.279C285.613 202.356 282.947 199.69 282.947 197.024V170.108C282.947 159.253 289.422 152.714 297.801 152.714C304.974 152.714 310.243 156.714 310.243 165.41V197.024C310.243 199.69 307.577 202.356 304.911 202.356H303.451C303.451 202.356 302.372 202.61 302.372 205.339C302.372 208.069 303.451 209.466 303.451 209.466H334.747C334.747 209.466 335.826 208.26 335.826 205.593C335.826 202.864 334.747 202.356 334.747 202.356H333.16C330.493 202.356 327.827 199.69 327.827 197.024V164.776C327.827 149.54 318.305 142.113 304.467 142.113C294.246 142.113 286.438 146.874 281.677 153.92C281.677 153.92 281.677 146.938 281.677 146.112C281.677 143.827 279.519 143.065 276.853 144.081C275.075 144.779 266.188 147.953 258.634 147.953C258.189 148.525 257.555 149.667 257.555 151.508C257.555 153.159 257.936 153.984 258.634 155.063H260.221C262.887 155.063 265.553 157.729 265.553 160.395V197.024C265.553 199.69 262.887 202.356 260.221 202.356H258.634C258.634 202.356 257.555 202.546 257.555 205.403C257.555 208.26 258.634 209.529 258.634 209.529H289.93C289.93 209.529 290.945 208.45 290.945 205.466Z" fill="white"></path>
  <path d="M233.115 147.001C228.354 143.891 222.45 142.05 215.912 142.05C199.534 142.05 187.536 153.032 187.536 166.743C187.536 175.186 192.17 182.042 198.518 186.295L187.409 200.134C187.409 200.134 186.013 202.673 186.013 205.276C186.013 207.815 187.6 209.529 187.6 209.529H195.471C189.695 212.957 187.028 218.67 187.028 223.558C187.028 233.08 195.344 240.888 214.007 240.888C232.734 240.888 250.191 230.985 250.191 215.369C250.191 204.26 243.589 196.77 227.084 196.77H202.137L207.025 190.168C209.818 191.12 212.04 191.501 215.975 191.501C232.226 191.501 244.351 180.392 244.351 166.807C244.351 162.554 243.145 158.618 241.114 155.19H250.763C251.27 154.301 251.842 153.095 251.842 151.064C251.842 149.477 251.27 147.763 250.826 147.065L233.115 147.001ZM206.961 209.529H221.752C230.576 209.529 233.623 214.481 233.623 219.496C233.623 225.844 227.529 232.319 216.61 232.319C206.326 232.319 200.486 227.684 200.486 220.829C200.486 216.195 203.089 211.561 206.961 209.529ZM215.912 183.312C208.548 183.312 203.787 177.091 203.787 166.807C203.787 156.523 208.548 150.302 215.912 150.302C223.212 150.302 227.91 156.523 227.91 166.807C227.973 177.091 223.212 183.312 215.912 183.312Z" fill="white"></path>
  <path d="M138.592 187.375C136.434 186.613 134.72 187.311 134.72 187.311C129.832 195.817 125.388 199.753 118.469 199.753C106.027 199.753 98.0284 188.454 98.0284 175.059C98.0284 162.617 103.615 150.366 116.438 150.366C124.5 150.366 130.721 155.381 130.721 163.062L130.911 165.474C130.911 165.474 130.657 166.553 134.022 166.553C137.386 166.553 138.275 165.474 138.275 165.474L137.577 148.08C137.577 148.08 137.513 147.636 137.259 147.319C137.005 147.001 136.624 146.747 136.624 146.747C131.482 143.827 124.563 142.113 116.438 142.113C97.6475 142.177 80 154.873 80 177.853C80 198.42 95.4892 211.37 113.264 211.37C129.959 211.37 137.704 200.896 141.195 189.215C141.195 189.215 140.243 187.946 138.592 187.375Z" fill="white"></path>
  <path d="M162.334 137.416C168.364 137.416 173.316 132.401 173.316 126.18C173.316 119.959 168.428 114.944 162.334 114.944C156.303 114.944 151.352 119.959 151.352 126.18C151.415 132.401 156.303 137.416 162.334 137.416Z" fill="white"></path>
  <path d="M171.094 158.047C171.094 155.381 173.76 152.714 176.427 152.714H178.014C178.014 152.714 179.093 152.08 179.093 149.477C179.093 146.874 178.014 145.605 178.014 145.605H146.718C146.718 145.605 145.639 147.192 145.639 149.731C145.639 152.27 146.718 152.778 146.718 152.778H148.305C150.971 152.778 153.637 155.444 153.637 158.11V184.645V197.151C153.637 199.817 150.971 202.483 148.305 202.483H146.718C146.718 202.483 145.639 202.991 145.639 205.53C145.639 208.069 146.718 209.656 146.718 209.656H178.014C178.014 209.656 179.093 208.323 179.093 205.784C179.093 203.245 178.014 202.546 178.014 202.546H176.427C173.76 202.546 171.094 199.88 171.094 197.214V188.073V158.047Z" fill="white"></path>
  <path d="M373.279 225.018C370.803 225.018 369.153 225.526 367.439 226.288L368.391 229.081C369.787 228.51 371.057 228.129 372.771 228.129C375.183 228.129 376.516 229.271 376.516 231.366V231.684C375.31 231.303 374.167 231.049 372.263 231.049C368.708 231.049 366.042 232.636 366.042 236.064V236.127C366.042 239.174 368.581 240.825 371.501 240.825C373.787 240.825 375.437 239.873 376.453 238.603V240.507H379.944V231.43C380.008 227.431 377.786 225.018 373.279 225.018ZM376.58 235.048C376.58 236.953 374.866 238.286 372.517 238.286C370.866 238.286 369.533 237.46 369.533 236.064V236C369.533 234.54 370.803 233.652 373.025 233.652C374.358 233.652 375.628 233.906 376.516 234.286L376.58 235.048Z" fill="white"></path>
  <path d="M387.625 228.7V225.272H384.134V240.571H387.625V234.731C387.625 230.668 389.784 228.7 392.831 228.7H393.021V225.018C390.355 224.891 388.577 226.415 387.625 228.7Z" fill="white"></path>
  <path d="M413.842 200.007C413.842 197.976 412.763 197.341 412.763 197.341H411.176C408.51 197.341 405.907 194.675 405.907 192.009V145.351C405.907 145.351 405.78 143.954 404.32 143.954H400.258C399.496 143.954 398.861 144.589 398.861 144.589L393.211 151.953C392.576 152.841 391.815 151.953 391.815 151.953C388.069 147.509 381.721 142.05 370.295 142.05C353.155 142.05 336.904 154.492 336.904 177.345C336.904 198.674 350.933 211.307 368.2 211.307C378.039 211.307 384.261 207.18 389.149 200.832V208.704C389.149 208.704 389.212 210.481 391.243 210.926C393.084 211.307 394.481 210.735 394.481 210.735L412.763 202.927C412.763 203.054 413.842 202.102 413.842 200.007ZM371.691 202.61C359.884 202.61 354.996 190.929 354.996 176.773C354.996 162.554 359.884 150.937 371.691 150.937C383.499 150.937 388.387 162.617 388.387 176.773C388.387 190.993 383.499 202.61 371.691 202.61Z" fill="white"></path>
  <path d="M301.673 225.018C299.198 225.018 297.547 225.526 295.833 226.288L296.785 229.081C298.182 228.51 299.451 228.129 301.165 228.129C303.578 228.129 304.911 229.271 304.911 231.366V231.684C303.705 231.303 302.562 231.049 300.658 231.049C297.103 231.049 294.437 232.636 294.437 236.064V236.127C294.437 239.174 296.976 240.825 299.896 240.825C302.181 240.825 303.768 239.873 304.847 238.603V240.507H308.339V231.43C308.402 227.431 306.18 225.018 301.673 225.018ZM305.038 235.048C305.038 236.953 303.324 238.286 300.975 238.286C299.325 238.286 298.055 237.46 298.055 236.064V236C298.055 234.54 299.325 233.652 301.546 233.652C302.879 233.652 304.149 233.906 305.038 234.286V235.048Z" fill="white"></path>
  <path d="M402.225 224.955C397.845 224.955 394.734 228.51 394.734 232.89V232.953C394.734 237.651 398.162 240.888 402.542 240.888C405.336 240.888 407.367 239.746 408.827 238.032L406.796 236.191C405.589 237.397 404.383 238.032 402.669 238.032C400.448 238.032 398.67 236.635 398.289 234.159H409.462C409.462 233.842 409.525 233.525 409.525 233.207C409.525 228.764 407.05 224.955 402.225 224.955ZM398.226 231.874C398.543 229.525 400.067 227.875 402.162 227.875C404.51 227.875 405.78 229.652 406.034 231.874H398.226Z" fill="white"></path>
  <path d="M357.853 237.841C355.187 237.841 353.282 235.62 353.282 232.89V232.826C353.282 230.16 355.123 227.938 357.663 227.938C359.44 227.938 360.583 228.7 361.598 229.843L363.757 227.494C362.36 225.907 360.519 224.891 357.663 224.891C353.092 224.891 349.728 228.51 349.728 232.89V232.953C349.728 237.27 353.092 240.825 357.599 240.825C360.583 240.825 362.36 239.619 363.82 237.968L361.725 235.873C360.71 237.08 359.504 237.841 357.853 237.841Z" fill="white"></path>
  <path d="M316.274 219.432H312.782V240.571H316.274V219.432Z" fill="white"></path>
  <path d="M325.034 221.083H321.543V225.272H319.639V228.256H321.543V236.318C321.543 239.682 323.384 240.825 325.923 240.825C327.193 240.825 328.208 240.507 329.097 240.063V237.206C328.399 237.524 327.701 237.714 326.939 237.714C325.733 237.714 325.034 237.143 325.034 235.81V228.319H329.161V225.336H325.034V221.083Z" fill="white"></path>
  <path d="M340.966 224.955C338.618 224.955 337.157 226.224 336.205 227.621V219.432H332.714V240.571H336.205V231.938C336.205 229.589 337.602 228.129 339.633 228.129C341.728 228.129 342.934 229.462 342.934 231.874V240.571H346.426V230.858C346.426 227.24 344.394 224.955 340.966 224.955Z" fill="white"></path>
  <path fill-rule="evenodd" clip-rule="evenodd" d="M154.208 87.7741C154.208 80.7278 157.446 74.3798 162.397 70.1266C167.412 74.3798 170.586 80.7278 170.523 87.7741C170.523 94.8204 167.349 101.168 162.334 105.422C157.382 101.168 154.208 94.8839 154.208 87.7741ZM179.093 69.7457C177.061 74.6972 177.442 80.0295 179.664 84.4731C184.425 82.9496 188.488 79.4582 190.519 74.5067C192.55 69.5553 192.17 64.2229 189.948 59.7793C185.25 61.3028 181.188 64.7942 179.093 69.7457ZM134.276 74.3798C136.307 79.3312 140.37 82.8861 145.131 84.4096C147.416 79.966 147.797 74.6337 145.766 69.6822C143.671 64.6673 139.671 61.1759 134.91 59.6523C132.625 64.096 132.244 69.4283 134.276 74.3798ZM105.837 109.357C110.788 111.389 116.12 111.008 120.564 108.786C119.04 104.025 115.549 99.9623 110.598 97.9309C105.646 95.8995 100.314 96.2169 95.8701 98.5022C97.3936 103.263 100.885 107.326 105.837 109.357ZM214.07 98.1848C209.119 100.216 205.564 104.279 204.04 109.04C208.484 111.325 213.816 111.706 218.768 109.675C223.719 107.643 227.274 103.581 228.798 98.8196C224.418 96.5343 219.085 96.09 214.07 98.1848ZM200.676 118.118C193.63 118.118 187.282 121.292 183.028 126.243C187.282 131.258 193.566 134.432 200.676 134.432C207.786 134.432 214.07 131.258 218.323 126.307C214.07 121.355 207.722 118.118 200.676 118.118ZM183.727 93.3603C178.712 98.3753 176.49 105.041 176.998 111.579C183.536 112.15 190.265 109.929 195.28 104.914C200.295 99.8988 202.517 93.2334 202.009 86.6949C195.471 86.1871 188.742 88.3454 183.727 93.3603ZM124.055 118.118C117.009 118.118 110.661 121.355 106.408 126.307C110.661 131.322 117.009 134.496 124.055 134.432C131.102 134.369 137.45 131.258 141.703 126.243C137.45 121.292 131.165 118.118 124.055 118.118ZM141.005 93.3603C135.99 88.3454 129.261 86.1871 122.722 86.6949C122.214 93.2334 124.436 99.9623 129.451 104.914C134.466 109.865 141.195 112.087 147.733 111.579C148.241 105.041 146.019 98.3118 141.005 93.3603Z" fill="white"></path>
</svg>
