<?xml version="1.0" encoding="UTF-8"?>
<svg xmlns="http://www.w3.org/2000/svg" width="500" height="300" viewBox="0 0 500 300" fill="none">
  <g clip-path="url(#clip0_134_259)">
    <path d="M30 177.559V85.0366H46.252V177.559H30V177.56V177.559ZM87.856 110.437C67.0173 110.437 52.5975 126.459 52.5975 144.798C52.5975 165.264 68.2853 179.364 88.0178 179.364C106.745 179.364 122.997 165.525 122.997 144.754C122.997 127.288 109.53 110.437 87.856 110.437ZM87.6642 126.117C98.5698 126.117 106.596 134.605 106.596 144.857C106.596 155.727 97.746 163.656 87.9581 163.656C76.3933 163.656 69.1147 154.49 69.1147 144.886C69.115 134.36 77.3326 126.117 87.6642 126.117ZM163.831 110.437C142.993 110.437 128.573 126.459 128.573 144.798C128.573 165.264 144.26 179.364 163.993 179.364C182.72 179.364 198.971 165.525 198.971 144.754C198.971 132.522 193.675 127.096 193.675 127.096L198.18 125.551V112.36H175.096C175.096 112.36 170.092 110.437 163.831 110.437ZM163.64 126.117C174.545 126.117 182.572 134.605 182.572 144.857C182.572 155.727 173.721 163.656 163.934 163.656C152.369 163.656 145.09 154.49 145.09 144.886C145.091 134.36 153.308 126.117 163.64 126.117ZM182.457 182.082C182.457 192.952 173.607 200.94 163.819 200.94C152.254 200.94 144.946 191.685 144.946 182.082H128.458C128.458 202.549 144.145 216.648 163.878 216.648C182.605 216.648 198.857 202.852 198.857 182.082H182.457ZM205.481 177.559V112.36H221.734V177.559H205.481ZM237.516 177.559V126.964H228.8V112.36H237.516V92.3387H253.768V112.36H262.719V126.964H253.768V177.559H237.516ZM224.336 93.8425C224.336 99.7863 219.518 104.605 213.574 104.605C207.629 104.605 202.811 99.786 202.811 93.8425C202.811 87.8984 207.63 83.0797 213.574 83.0797C219.518 83.0797 224.336 87.8984 224.336 93.8425ZM299.258 110.393C278.321 110.393 264.824 126.423 264.824 145.387C264.824 164.984 278.367 179.409 299.597 179.409C319.401 179.409 329.143 167.042 329.143 167.042L318.279 156.162C318.279 156.162 310.075 165.011 299.803 165.011C291.24 165.011 284.393 160.231 282.004 151.467H332.647V146.991C332.647 129.134 322.311 110.393 299.258 110.393ZM298.743 124.703C306.23 124.703 313.887 128.708 315.599 138.276H281.563C282.91 131.55 288.795 124.703 298.743 124.703ZM373.299 179.417C352.304 179.417 337.997 163.425 337.997 144.571C337.997 125.113 354.166 110.381 373.232 110.381C391.663 110.381 401.099 123.393 401.099 123.393L389.76 134.679C389.76 134.679 383.193 126.193 373.154 126.193C362.03 126.193 354.423 134.704 354.423 144.82C354.423 155.502 362.514 163.698 373.029 163.698C383.229 163.698 389.744 155.226 389.744 155.226L401.196 166.506C401.196 166.506 391.853 179.418 373.3 179.418L373.299 179.417ZM407.109 177.606V84.8014H423.361V118.899C423.361 118.899 429.584 110.381 443.122 110.381C460.14 110.381 470 123.032 470 139.212V177.606H453.747V141.669C453.747 130.799 446.98 126.288 439.482 126.288C430.94 126.288 423.362 131.15 423.362 142.51V177.606H407.109Z" fill="white"></path>
  </g>
  <defs>
    <clipPath id="clip0_134_259">
      <rect width="440" height="133.584" fill="white" transform="translate(30 83.072)"></rect>
    </clipPath>
  </defs>
</svg>
