<?xml version="1.0" encoding="UTF-8"?>
<svg xmlns="http://www.w3.org/2000/svg" width="500" height="300" viewBox="0 0 500 300" fill="none">
  <mask id="mask0_269_5161" style="mask-type:luminance" maskUnits="userSpaceOnUse" x="30" y="91" width="440" height="118">
    <path d="M30 91.3334H470V208.667H30V91.3334Z" fill="white"></path>
  </mask>
  <g mask="url(#mask0_269_5161)">
    <path fill-rule="evenodd" clip-rule="evenodd" d="M87.3998 158.689H38.8788V102.085H30V165.625H87.3998V158.689ZM77.6498 124.561L89.6028 102.085H79.9836L71.067 124.561H77.6498ZM137.046 163.1C119.225 163.1 104.543 148.772 104.543 131.512C104.543 114.271 118.535 99.2586 137.733 99.2586C156.463 99.2586 170.226 114.268 170.226 131.512C170.228 148.772 154.859 163.1 137.046 163.1ZM137.35 91.3334C111.599 91.3334 94.0455 109.497 94.0455 131.493C94.0455 154.645 113.438 170.981 137.35 170.981C161.261 170.981 180.641 154.878 180.641 131.493C180.641 109.497 162.869 91.3334 137.35 91.3334ZM230.96 131.461H201.313V109.609H231.999C239.059 109.609 243.034 112.908 244.466 117.097C245.412 119.974 244.804 123.745 243.243 126.31C240.677 130.562 235.806 131.461 230.96 131.461ZM238.565 139.063C253.109 135.177 254.528 124.337 254.458 120.472C253.587 109.12 245.947 102.085 232.204 102.085H192.184V165.625H201.31V138.976H227.36L246.527 165.625H258.026C258.03 165.625 244.243 147.689 238.565 139.063ZM353.924 141.227L369.137 110.872L384.538 141.227H353.924ZM362.95 102.085L330.664 165.625H341.575L349.84 149.18H388.562L396.896 165.625H407.696L375.382 102.085H362.95ZM470 158.689H421.479V102.085H412.6V165.625H470V158.689ZM315.325 91.8251H298.883L291.191 100.463L315.325 91.8251ZM314.445 136.481V129.455H279.116V109.006H326.156V102.085H269.373V165.625H326.156V158.689H279.116V136.481H314.445ZM284.969 207.745H289.524V189.604H284.969V207.745ZM284.942 186.918H289.494V182.363H284.942V186.918ZM319.743 194.212L309.962 192.546C307.96 192.196 305.908 191.486 305.908 189.329C305.908 185.48 310.819 184.879 313.73 184.879C317.596 184.879 321.985 186.117 322.22 190.04H326.563C326.372 187.246 325.178 181.944 313.206 181.944C304.907 181.944 301.421 185.83 301.421 189.787C301.421 194.209 306.479 195.374 308.722 195.761L315.735 196.968C321.361 197.955 323.033 198.806 323.033 201.454C323.033 205.095 317.404 205.732 314.063 205.732C309.674 205.732 304.619 204.389 304.619 199.793H300.276C300.276 202.165 300.848 204.285 303.759 206.228C305.284 207.25 307.767 208.667 314.11 208.667C319.978 208.667 327.516 207.006 327.516 200.995C327.518 196.97 324.176 194.99 319.743 194.212ZM213.663 197.457L219.962 186.286H220.072L225.877 197.457H213.663ZM217.224 182.506L202.435 207.887H207.914L212.021 200.497H227.796L231.684 207.887H237.492L223.25 182.506H217.224ZM250.86 194.24H260.41C264.713 194.24 267.633 193.107 267.633 189.68C267.633 186.463 264.566 185.436 260.608 185.436H250.86V194.24ZM273.697 207.703H268.281L261.037 197.405C260.945 197.273 260.769 197.205 260.587 197.172H260.824C260.748 197.159 260.668 197.154 260.587 197.172H250.86V207.884H246.061V182.503H262.04C268.618 182.503 272.577 185.543 272.577 189.641C272.577 192.562 270.64 195.793 265.609 196.826L273.697 207.703ZM188.992 194.24H179.445V185.436H189.19C193.148 185.436 196.215 186.463 196.215 189.68C196.215 193.107 193.295 194.24 188.992 194.24ZM190.624 182.506H174.646V207.887H179.445V197.175H190.624C198.341 197.175 201.161 193.18 201.161 189.646C201.161 185.546 197.205 182.506 190.624 182.506Z" fill="white"></path>
  </g>
</svg>
