<?xml version="1.0" encoding="UTF-8"?>
<svg xmlns="http://www.w3.org/2000/svg" width="500" height="300" viewBox="0 0 500 300" fill="none">
  <g clip-path="url(#clip0_261_1189)">
    <path d="M131.538 132.846H97.6923V99H63.8462V132.846H30V166.692H63.8462V200.538H97.6923V166.692H131.538V132.846Z" fill="white"></path>
    <path d="M199.23 142.636H213.216C212.657 141.517 196.993 99.5594 196.713 99H181.888C181.608 99.5594 165.664 141.517 165.104 142.636H179.091C179.37 142.077 181.049 136.203 181.049 136.203H196.993C197.272 136.203 198.951 142.077 199.23 142.636ZM184.125 126.692L189.44 109.909L194.475 126.692H184.125Z" fill="white"></path>
    <path d="M237.832 123.336C237.832 123.895 238.111 124.734 238.111 125.294V142.637H249.86V125.574C249.86 125.014 249.86 123.616 250.419 122.217C251.258 120.818 252.377 119.979 254.615 119.979C259.37 119.979 259.37 123.895 259.37 125.853V142.637H271.118C271.118 141.797 271.118 121.937 271.118 121.937C271.118 118.86 271.118 115.504 268.321 112.986C266.363 111.028 263.286 109.909 259.65 109.909C252.097 109.909 249.86 113.825 249.3 115.224L249.02 116.063L248.741 115.224C247.901 113.546 246.783 111.867 242.867 110.469C240.908 109.909 239.23 109.63 238.111 109.63C231.398 109.63 229.72 112.706 228.88 114.385L228.041 115.783V110.748H216.853V142.637H228.601V125.294V125.014C228.601 123.895 228.601 122.497 229.999 121.378C230.839 120.539 231.957 119.979 233.636 119.979C235.034 119.979 237.272 120.818 237.832 123.336Z" fill="white"></path>
    <path d="M300.21 130.888C298.812 133.965 296.574 135.363 294.056 135.363C292.938 135.363 291.259 135.084 289.861 133.685C288.462 132.287 288.182 130.608 288.182 129.21V128.65H310.56C310.56 123.895 310.28 118.86 305.805 114.384C301.889 110.468 296.854 109.349 293.217 109.349C282.868 109.349 276.154 116.622 276.154 126.412C276.154 130.888 277.553 135.084 280.35 138.161C283.427 141.517 287.903 143.755 293.217 143.755C300.49 143.755 306.084 140.398 309.721 134.804C308.882 134.524 300.77 131.168 300.21 130.888ZM288.462 121.937C288.742 120.538 289.581 117.182 293.777 117.182C295.735 117.182 297.972 118.301 298.532 120.818C298.532 121.098 298.532 121.377 298.812 121.657V122.496H288.462V121.937Z" fill="white"></path>
    <path d="M326.504 110.469H315.035V142.636H326.783V127.532C326.783 125.574 327.063 120.259 334.895 120.259C335.734 120.259 336.853 120.259 337.413 120.259V109.909C332.937 109.909 330.42 110.748 327.063 113.825L326.504 114.385V110.469Z" fill="white"></path>
    <path d="M341.888 99H354.476V107.392H341.888V99ZM341.888 110.748H354.476V142.636H341.888V110.748Z" fill="white"></path>
    <path d="M388.88 138.44C390.279 137.042 391.118 135.364 391.957 133.965C391.398 133.685 383.566 129.489 382.726 128.93C382.167 131.168 380.489 134.524 376.573 134.524C373.775 134.524 370.698 133.126 370.698 126.692C370.698 121.098 373.216 117.741 376.852 117.741C379.65 117.741 381.608 119.419 382.447 122.776C383.286 122.217 390.838 118.021 391.677 117.461C391.118 116.343 390.279 115.224 389.16 114.385C384.405 109.629 378.251 109.07 376.293 109.07C370.698 109.07 366.503 111.028 363.426 114.105C360.629 116.902 358.95 121.657 358.95 126.412C358.95 136.762 365.384 143.755 375.454 143.755C382.726 143.755 386.922 140.398 388.88 138.44Z" fill="white"></path>
    <path d="M406.502 143.475C412.376 143.475 415.173 141.517 416.852 140.398L417.691 139.839V142.636H428.88C428.32 141.517 428.041 140.958 428.041 139V121.098C428.041 119.14 428.041 116.342 426.362 114.105C424.125 111.308 419.929 109.349 413.495 109.349C408.74 109.349 404.824 110.189 402.306 111.587C398.111 113.825 397.271 117.182 396.712 119.979C397.551 119.979 407.062 119.699 407.901 119.699C408.46 117.182 409.579 116.342 412.376 116.342C416.292 116.342 417.131 118.021 417.131 120.538V120.818H416.852C414.894 121.377 413.495 121.657 409.859 122.217C404.544 123.056 400.908 123.336 398.111 126.412C396.432 128.091 395.593 130.329 395.593 132.846C395.313 137.881 398.39 143.475 406.502 143.475ZM409.299 129.769C410.418 129.489 411.257 129.21 412.376 128.93H412.656C413.775 128.65 415.173 128.091 416.292 127.811L417.131 127.531V128.091C417.131 129.21 417.132 130.329 416.572 131.727C415.453 134.524 412.097 135.363 410.418 135.363C407.901 135.363 406.782 133.965 406.782 132.846C406.222 132.566 406.502 130.888 409.299 129.769Z" fill="white"></path>
    <path d="M455.733 125.014V142.636H467.482V122.497C467.482 120.818 467.482 115.783 464.405 112.706C462.447 110.748 459.649 109.909 456.293 109.909C449.579 109.909 447.621 113.266 446.503 114.664L445.663 115.783V110.748H434.475V142.916H446.223V125.574C446.223 124.175 446.223 119.979 450.978 119.979C456.013 119.979 455.733 123.615 455.733 125.014Z" fill="white"></path>
    <path d="M195.314 182.916L196.154 182.636C198.112 181.797 199.79 181.238 201.468 179.559C203.706 177.322 204.545 174.245 204.545 170.888C204.545 166.412 202.587 160.818 197.272 158.301C194.475 157.182 190 156.902 186.643 156.902H165.384V200.538H178.251V184.874H183.007C183.007 184.874 191.398 200.259 191.678 200.538H206.223C205.384 199.419 195.874 183.196 195.874 183.196L195.314 182.916ZM184.405 176.203H178.251V165.573H184.405C186.643 165.573 191.678 165.573 191.678 170.888C191.678 176.203 186.363 176.203 184.405 176.203Z" fill="white"></path>
    <path d="M244.265 183.755C244.265 194.105 249.859 201.377 258.251 201.377C259.929 201.377 261.607 201.098 263.006 200.538C264.684 199.979 265.244 199.14 266.083 198.301L266.922 197.461V200.538H278.391V156.902H266.642V170.329V171.168L265.803 170.329C264.405 169.21 262.446 167.531 257.971 167.531C251.258 167.531 244.265 172.846 244.265 183.755ZM261.328 176.203C263.006 176.203 265.244 177.322 266.083 180.119C266.642 181.517 266.642 182.636 266.642 184.315C266.642 185.993 266.642 189.07 264.964 191.028C263.845 192.147 262.726 192.706 261.328 192.706C259.929 192.706 258.81 192.147 257.691 191.308C256.293 189.909 255.733 187.671 255.733 184.594C255.733 183.196 255.733 181.797 256.013 180.678C257.412 176.762 260.488 176.203 261.328 176.203Z" fill="white"></path>
    <path d="M230.558 188.79C229.16 191.867 227.202 193.266 224.405 193.266C223.286 193.266 221.607 192.986 220.209 191.587C218.81 190.189 218.53 188.51 218.53 187.112V186.552H240.908C240.908 181.797 240.628 176.762 236.153 172.287C232.237 168.371 227.202 167.252 223.565 167.252C213.216 167.252 206.502 174.524 206.502 184.315C206.502 188.79 207.901 192.986 210.698 196.063C213.775 199.42 218.251 201.657 223.565 201.657C230.838 201.657 236.433 198.301 240.069 192.706C239.509 192.706 231.398 189.07 230.558 188.79ZM218.81 179.839C219.09 178.441 219.929 175.084 224.125 175.084C226.083 175.084 228.321 176.203 228.88 178.72C228.88 179 228.88 179.28 229.16 179.559V180.399H218.81V179.839Z" fill="white"></path>
    <path d="M310.279 187.112C308.881 184.874 308.041 181.797 308.041 178.161C308.041 176.482 308.041 171.447 311.398 168.091C312.237 167.252 314.475 165.573 317.552 165.573C323.426 165.573 325.944 170.608 327.062 173.126C327.902 172.846 337.132 168.091 337.972 167.811C337.132 166.133 336.013 164.175 334.335 162.496C330.139 158.021 323.985 155.503 317.272 155.503C310.559 155.503 304.965 158.021 300.769 162.776C297.132 166.972 295.174 173.126 295.174 179C295.174 184.874 297.132 190.748 300.489 194.664C304.405 199.419 310.279 201.937 317.272 201.937C323.985 201.937 329.86 199.699 333.776 195.503C335.734 193.545 337.132 191.028 337.972 189.07C337.132 188.79 327.622 184.035 326.783 183.755C324.545 189.629 320.629 191.028 317.552 191.028C314.755 191.307 311.958 189.909 310.279 187.112Z" fill="white"></path>
    <path d="M397.831 171.727C396.432 170.329 392.237 167.252 384.684 167.252C378.81 167.252 374.055 168.93 370.978 172.287C367.901 175.364 366.223 179.839 366.223 184.874C366.223 189.35 367.621 193.825 370.418 196.622C373.495 199.979 378.251 201.937 384.125 201.937C389.719 201.937 394.754 200.259 397.831 197.182C400.908 194.105 402.586 189.629 402.586 184.874C402.586 179.839 400.908 174.804 397.831 171.727ZM384.404 193.266C378.81 193.266 377.971 187.671 377.971 184.315C377.971 181.238 378.81 175.643 384.125 175.643C385.803 175.643 387.202 176.203 388.321 177.042C389.719 178.441 390.558 180.958 390.558 184.035C390.558 191.867 387.202 193.266 384.404 193.266Z" fill="white"></path>
    <path d="M431.678 181.797C430.279 180.958 428.88 180.678 423.286 179.559H423.006C418.81 178.441 417.692 178.441 417.692 177.042C417.692 176.203 417.971 174.804 420.768 174.804C424.125 174.804 427.202 176.762 429.44 177.881C429.999 177.601 435.034 172.566 435.873 172.007C434.195 170.888 431.957 168.93 428.041 168.091C425.524 167.531 423.286 167.252 421.048 167.252C416.293 167.252 412.657 168.65 410.139 170.888C408.181 172.846 407.062 175.643 407.062 178.161C407.062 184.594 412.657 186.552 415.454 187.392C418.251 188.231 421.048 188.79 422.167 188.79C423.286 189.07 425.803 189.35 425.803 191.028C425.803 192.706 423.845 193.545 422.167 193.545C420.489 193.545 418.81 193.266 416.852 192.427C414.615 191.308 412.936 190.189 411.817 189.07C411.258 189.629 405.943 194.385 405.384 195.224C407.901 197.462 413.216 201.657 422.167 201.657C432.237 201.657 436.992 195.783 436.992 189.909C436.433 186.552 434.754 183.475 431.678 181.797Z" fill="white"></path>
    <path d="M465.245 181.797C463.846 180.958 462.448 180.678 456.853 179.559H456.573C452.378 178.441 451.259 178.441 451.259 177.042C451.259 176.203 451.538 174.804 454.336 174.804C457.692 174.804 460.769 176.762 462.727 177.881C463.287 177.601 468.322 172.566 469.161 172.007C467.483 170.888 465.245 168.93 461.329 168.091C458.811 167.531 456.573 167.252 454.056 167.252C449.301 167.252 445.664 168.65 443.147 170.888C441.189 172.846 440.07 175.643 440.07 178.161C440.07 184.594 445.664 186.552 448.462 187.392C451.259 188.231 454.056 188.79 455.175 188.79C456.294 189.07 458.811 189.35 458.811 191.028C458.811 192.706 456.853 193.545 455.175 193.545C453.496 193.545 451.818 193.266 449.86 192.427C447.622 191.308 445.944 190.189 444.825 189.07C444.266 189.629 438.951 194.385 438.392 195.224C440.909 197.462 446.224 201.657 455.175 201.657C465.245 201.657 470 195.783 470 189.909C470 186.552 468.322 183.475 465.245 181.797Z" fill="white"></path>
    <path d="M352.797 168.37H341.328V200.538H353.076V185.433C353.076 183.475 353.356 178.161 361.188 178.161C362.027 178.161 363.146 178.161 363.706 178.161V167.811C359.23 167.811 356.713 168.65 353.356 171.727L352.517 172.287V168.37H352.797Z" fill="white"></path>
  </g>
  <defs>
    <clipPath id="clip0_261_1189">
      <rect width="440" height="102.937" fill="white" transform="translate(30 99)"></rect>
    </clipPath>
  </defs>
</svg>
