<?xml version="1.0" encoding="UTF-8"?>
<svg xmlns="http://www.w3.org/2000/svg" width="500" height="300" viewBox="0 0 500 300" fill="none">
  <path d="M117.47 210.1H100.488L180.677 88.7791L189.734 101.798L117.47 210.1Z" fill="white"></path>
  <path d="M147.659 210.1H130.678L195.584 110.477L204.64 123.496L147.659 210.1Z" fill="white"></path>
  <path d="M169.734 72.9298C169.168 72.1751 168.225 70.0996 165.96 70.0996C163.696 70.0996 162.753 72.1751 162.187 72.9298L70.4883 210.1H87.4695L175.017 80.477L169.734 72.9298Z" fill="white"></path>
  <path d="M126.148 93.1185C125.582 92.3638 124.639 90.2883 122.375 90.2883C120.111 90.2883 119.167 92.3638 118.601 93.1185L40.2988 210.1H57.2801L131.243 100.854L126.148 93.1185Z" fill="white"></path>
  <path d="M126.151 93.1185C125.585 92.3638 124.642 90.2883 122.378 90.2883C120.114 90.2883 119.17 92.3638 118.604 93.1185L113.51 100.854L187.284 210.1H204.265L126.151 93.1185Z" fill="white"></path>
  <path d="M169.735 72.9298C169.169 72.1751 168.226 70.0996 165.962 70.0996C163.698 70.0996 162.754 72.1751 162.188 72.9298L157.094 80.6657L247.472 209.912H264.453L169.735 72.9298Z" fill="white"></path>
  <path d="M189.736 101.987L180.679 88.7791L172 101.987L181.057 115.006L189.736 101.987Z" fill="white"></path>
  <path d="M204.641 123.496L195.584 110.477L187.094 123.685L196.15 136.515L204.641 123.496Z" fill="white"></path>
  <path d="M217.283 210.1H234.264L151.811 88.5903L142.754 101.798L217.283 210.1Z" fill="white"></path>
  <path d="M169.737 72.9298C169.17 72.1751 168.227 70.0996 165.963 70.0996C165.586 70.0996 165.397 70.0996 165.208 70.0996C163.51 70.477 162.755 72.1751 162.189 72.9298L157.472 79.911L156.906 80.6657L165.963 93.6846L174.831 80.477L169.737 72.9298Z" fill="white"></path>
  <path d="M151.811 88.5903L142.754 101.798L151.811 114.817L160.679 101.798L151.811 88.5903Z" fill="white"></path>
  <path d="M166.713 136.515L175.392 123.308L166.524 110.289L157.656 123.496L166.713 136.515Z" fill="white"></path>
  <path d="M181.62 158.402L190.299 145.383L181.431 132.175L172.752 145.383L181.62 158.402Z" fill="white"></path>
  <path d="M126.151 93.1185C125.585 92.3638 124.642 90.2883 122.378 90.2883C122.189 90.2883 121.812 90.2883 121.623 90.2883C119.925 90.6657 119.17 92.3638 118.604 93.1185L113.51 100.854L122.378 114.062L131.246 100.854V100.666L126.151 93.1185Z" fill="white"></path>
  <path d="M146.151 123.119L137.471 109.911L128.604 123.307L137.283 136.138L146.151 123.119Z" fill="white"></path>
  <path d="M160.866 145.194L152.186 131.987L143.318 145.194L152.186 158.213L160.866 145.194Z" fill="white"></path>
  <path d="M175.771 167.459L166.903 154.251L158.412 167.459L167.091 180.478L175.771 167.459Z" fill="white"></path>
  <path d="M273.885 147.459C277.47 147.459 280.112 146.704 280.112 139.911V110.289L274.829 110.1V107.836L290.866 108.024L301.055 136.138L311.433 108.024L327.282 107.836V110.1L321.999 110.289V147.27L327.282 147.459V149.723C324.64 149.723 319.734 149.534 317.093 149.534C314.451 149.534 309.734 149.723 307.093 149.723V147.459L312.376 147.27V113.119H312.187L299.168 149.534H295.961L282.753 113.119H282.564V139.911C282.564 146.893 285.206 147.459 289.357 147.459V149.723C285.961 149.723 284.074 149.534 281.432 149.534C278.791 149.534 276.904 149.723 273.508 149.723V147.459H273.885Z" fill="white"></path>
  <path d="M351.243 134.44C351.243 125.383 349.545 120.477 344.828 120.477C340.3 120.477 338.413 125.383 338.413 134.44C338.413 143.496 340.3 148.402 344.828 148.402C349.545 148.402 351.243 143.496 351.243 134.44ZM328.602 134.817C328.602 123.496 336.149 118.213 344.639 118.213C353.319 118.213 360.866 122.741 360.866 134.062C360.866 145.383 353.507 150.666 344.639 150.666C336.149 150.666 328.602 146.138 328.602 134.817Z" fill="white"></path>
  <path d="M366.528 125.194C366.528 121.609 365.396 121.609 362 121.609V119.345L375.208 118.59V136.892C375.208 143.307 375.396 146.515 379.547 146.515C382.755 146.515 386.906 142.741 386.906 136.138V125.194C386.906 121.609 385.396 121.609 382.377 121.609V119.345L395.585 118.59V146.892L400.113 147.081V149.345L387.283 150.1L387.094 144.251C385.019 147.836 381.245 150.477 375.962 150.477C368.981 150.477 366.34 146.892 366.34 139.345V125.194H366.528Z" fill="white"></path>
  <path d="M419.168 147.459V149.723C415.961 149.723 414.263 149.534 410.489 149.534C406.715 149.534 404.829 149.723 401.621 149.723V147.459L406.149 147.081V125.194C406.149 121.609 405.017 121.609 401.621 121.609V119.345L414.451 118.59L414.64 124.44C416.904 120.855 420.489 118.213 425.772 118.213C431.433 118.213 435.395 121.609 435.395 129.911V147.081L439.923 147.459V149.723C436.716 149.723 434.829 149.534 431.055 149.534C427.282 149.534 425.583 149.723 422.376 149.723V147.459L426.716 147.081V131.798C426.716 124.628 425.961 121.987 422.376 121.987C419.168 121.987 415.017 125.76 415.017 132.364V147.081L419.168 147.459Z" fill="white"></path>
  <path d="M451.809 140.855C451.62 145.006 451.809 147.27 454.45 147.27C456.903 147.27 458.224 143.685 458.224 143.685L460.299 144.44C460.299 144.44 458.979 150.477 451.997 150.477C443.884 150.477 442.941 145.949 442.941 140.855V121.987H438.035V119.345H442.941V108.213C447.847 108.213 451.62 106.892 451.62 106.892V119.156H458.979V121.798H451.62L451.809 140.855Z" fill="white"></path>
  <path d="M279.166 193.308C279.732 196.327 284.071 207.647 292.751 207.647C298.222 207.647 300.298 204.629 300.298 201.232C300.298 188.968 277.468 195.761 277.468 178.968C277.468 169.157 285.581 165.76 291.619 165.76C297.09 165.76 299.921 167.458 301.053 167.458C302.185 167.458 302.562 165.949 302.562 165.949H304.826C304.826 168.213 304.638 169.723 304.638 171.798C304.638 175.006 304.826 176.704 304.826 178.779H302.562C301.996 175.949 298.222 167.836 291.241 167.836C287.279 167.836 284.449 170.289 284.449 173.685C284.449 185.006 308.034 178.402 308.034 196.327C308.034 206.138 300.675 209.912 292.562 209.912C285.581 209.912 281.807 207.459 280.675 207.459C279.354 207.459 278.977 208.968 278.977 208.968H276.713C276.713 205.761 276.902 203.874 276.902 200.666C276.902 197.647 276.713 195.761 276.713 192.93H279.166V193.308Z" fill="white"></path>
  <path d="M319.356 161.798C321.998 161.798 324.639 163.496 324.639 166.893C324.639 170.1 321.998 171.987 319.356 171.987C316.526 171.987 314.073 170.289 314.073 166.893C314.073 163.685 316.526 161.798 319.356 161.798ZM328.224 206.515V208.78C325.017 208.78 323.13 208.591 319.356 208.591C315.583 208.591 313.696 208.78 310.488 208.78V206.515L315.017 206.138V184.251C315.017 180.666 313.885 180.666 310.488 180.666V178.402L323.696 177.647V206.138L328.224 206.515Z" fill="white"></path>
  <path d="M347.284 206.515V208.779C344.076 208.779 342.378 208.591 338.604 208.591C334.831 208.591 332.944 208.779 329.736 208.779V206.515L334.265 206.138V184.062C334.265 180.477 333.133 180.477 329.736 180.477V178.213L342.567 177.459L342.755 183.308C345.019 179.723 348.604 177.081 353.887 177.081C359.548 177.081 363.51 180.477 363.51 188.779V205.949L368.038 206.327V208.591C364.831 208.591 362.944 208.402 359.17 208.402C355.397 208.402 353.699 208.591 350.491 208.591V206.327L354.831 205.949V190.855C354.831 183.685 354.076 181.043 350.491 181.043C347.284 181.043 343.133 184.817 343.133 191.421V206.138L347.284 206.515Z" fill="white"></path>
  <path d="M387.848 193.685C379.546 193.496 377.848 195.761 377.848 199.912C377.848 203.874 379.357 205.761 382.187 205.761C384.829 205.761 387.659 203.496 387.848 198.779V193.685ZM403.131 203.685C403.131 203.685 402.187 209.723 395.395 209.723C392.187 209.723 389.357 208.402 388.225 205.006H388.036C386.527 207.836 383.697 209.912 378.98 209.912C374.263 209.912 368.791 207.836 368.791 200.855C368.791 192.176 378.98 191.421 388.036 191.421V188.213C388.225 182.93 387.848 179.345 383.508 179.345C380.112 179.345 378.791 181.044 378.414 181.61C378.414 181.61 379.923 182.364 379.923 184.628C379.923 186.893 378.225 188.591 375.395 188.591C372.753 188.591 370.866 187.081 370.866 184.251C370.866 179.534 376.904 176.893 384.074 176.893C395.772 176.893 396.716 183.496 396.527 189.723L396.15 202.176C396.15 204.251 396.716 205.572 398.225 205.572C400.112 205.572 400.867 202.742 400.867 202.742L403.131 203.685Z" fill="white"></path>
  <path d="M412.186 161.798C414.827 161.798 417.469 163.496 417.469 166.893C417.469 170.1 414.827 171.987 412.186 171.987C409.355 171.987 406.903 170.289 406.903 166.893C406.714 163.685 409.355 161.798 412.186 161.798ZM420.865 206.515V208.78C417.657 208.78 415.77 208.591 411.997 208.591C408.223 208.591 406.336 208.78 403.129 208.78V206.515L407.657 206.138V184.251C407.657 180.666 406.525 180.666 403.129 180.666V178.402L416.337 177.647V206.138L420.865 206.515Z" fill="white"></path>
</svg>
