<?xml version="1.0" encoding="UTF-8"?>
<svg xmlns="http://www.w3.org/2000/svg" width="500" height="300" viewBox="0 0 500 300" fill="none">
  <path d="M453.924 160.363C453.779 151.525 457.546 142.542 467.108 142.542C476.67 142.542 481.307 151.67 481.307 160.652C481.307 168.766 477.105 178.618 467.253 178.618C457.691 178.618 453.779 167.897 453.924 160.363ZM481.596 184.558H490V114H481.162V143.122H481.017C478.264 138.775 473.483 135.443 465.08 135.443C451.171 135.443 444.361 146.744 444.361 159.783C444.361 172.968 450.446 185.862 464.935 185.862C473.483 185.862 478.988 181.516 481.307 178.038H481.452V184.558H481.596Z" fill="white"></path>
  <path d="M47.3799 184.558H58.1013V157.755C58.1013 156.306 57.5218 154.857 56.5076 153.988L40.5704 138.196C39.5562 137.181 38.2523 136.602 36.8034 136.602H10V147.323H39.4113C43.9027 147.323 47.3799 150.945 47.3799 155.292V184.558Z" fill="white"></path>
  <path d="M73.8932 184.558H63.1719V157.755C63.1719 156.306 63.7514 154.857 64.7656 153.988L80.5579 138.196C81.5721 137.181 82.876 136.602 84.3249 136.602H111.128V147.323H81.8618C77.5153 147.323 73.8932 150.945 73.8932 155.292V184.558Z" fill="white"></path>
  <path d="M159.375 136.602H167.634V143.991H167.779C170.097 139.065 175.168 135.443 180.239 135.443C182.846 135.443 184.15 135.733 186.034 136.167V144.136C184.44 143.411 182.702 143.267 181.108 143.267C173.139 143.267 168.068 150.801 168.068 162.826V184.703H159.23V136.602" fill="white"></path>
  <path d="M429.727 165.868C429.727 173.113 425.091 178.618 416.398 178.618C412.341 178.618 407.415 175.865 407.415 170.794C407.415 162.246 419.296 161.522 424.077 161.522C425.96 161.522 427.844 161.667 429.727 161.667V165.868ZM404.083 147.468C407.705 144.426 413.066 142.542 417.992 142.542C426.83 142.542 429.872 146.889 429.872 155.147C426.395 155.002 423.932 155.002 420.455 155.002C411.327 155.002 398.143 158.769 398.143 170.794C398.143 181.371 405.387 185.862 415.673 185.862C423.787 185.862 428.423 181.516 430.452 178.618H430.596V184.703H438.42V155.292C438.42 142.108 432.915 135.443 419.151 135.443C413.066 135.443 407.85 137.326 403.358 139.934L404.083 147.468Z" fill="white"></path>
  <path d="M216.169 165.868C216.169 173.113 211.533 178.618 202.84 178.618C198.783 178.618 193.857 175.865 193.857 170.794C193.857 162.246 205.737 161.522 210.518 161.522C212.402 161.522 214.285 161.667 216.169 161.667V165.868ZM190.38 147.468C194.002 144.426 199.362 142.542 204.288 142.542C213.126 142.542 216.169 146.889 216.169 155.147C212.692 155.002 210.229 155.002 206.752 155.002C197.624 155.002 184.439 158.769 184.439 170.794C184.439 181.371 191.684 185.862 201.97 185.862C210.084 185.862 214.72 181.516 216.748 178.618H216.893V184.703H224.717V155.292C224.717 142.108 219.211 135.443 205.448 135.443C199.362 135.443 194.147 137.326 189.655 139.934L190.38 147.468Z" fill="white"></path>
  <path d="M232.252 136.602H240.8V144.136H240.945C243.553 138.63 250.073 135.443 256.737 135.443C269.197 135.443 274.703 143.122 274.703 156.016V184.558H265.865V159.638C265.865 148.482 263.402 142.977 255.723 142.542C245.581 142.542 241.09 150.656 241.09 162.391V184.558H232.252V136.602Z" fill="white"></path>
  <path d="M332.078 175.286C335.555 177.604 340.481 178.763 343.089 178.763C347.146 178.763 352.072 177.024 352.072 171.809C352.072 162.971 331.354 163.695 331.354 150.221C331.354 140.224 338.743 135.443 348.305 135.443C352.362 135.443 355.839 136.312 359.316 137.326L358.592 145.005C356.563 143.701 351.347 142.542 349.319 142.542C344.828 142.542 340.916 144.426 340.916 148.337C340.916 158.19 361.634 155.292 361.634 170.794C361.634 181.081 353.376 185.717 344.828 185.717C340.336 185.717 335.7 185.283 331.643 183.11L332.078 175.286Z" fill="white"></path>
  <path d="M395.245 143.701H382.495V170.07C382.495 175.72 385.828 178.618 389.884 178.618C392.637 178.618 394.52 177.749 395.969 176.879V184.413C393.941 184.993 391.333 185.717 388.435 185.717C379.308 185.717 373.657 181.371 373.657 171.808V143.701H362.791V136.602H373.657V125.446L382.495 122.548V136.457H395.245V143.701Z" fill="white"></path>
  <path d="M290.058 160.363C289.914 151.525 293.68 142.542 303.243 142.542C312.805 142.542 317.441 151.67 317.441 160.652C317.441 168.766 313.24 178.618 303.388 178.618C293.825 178.618 289.769 167.897 290.058 160.363ZM317.731 184.558H326.134V114H317.297V143.122H317.152C314.399 138.775 309.618 135.443 301.214 135.443C287.306 135.443 280.496 146.744 280.496 159.783C280.496 172.968 286.581 185.862 301.07 185.862C309.618 185.862 315.123 181.516 317.441 178.038H317.586V184.558H317.731Z" fill="white"></path>
</svg>
