<?xml version="1.0" encoding="UTF-8"?>
<svg xmlns="http://www.w3.org/2000/svg" width="500" height="300" viewBox="0 0 500 300" fill="none">
  <g clip-path="url(#clip0_135_417)">
    <path d="M321.101 177.695C314.916 177.695 308.984 175.238 304.611 170.865C300.237 166.491 297.78 160.56 297.78 154.375C297.78 148.19 300.237 142.258 304.611 137.885C308.984 133.512 314.916 131.055 321.101 131.055C333.977 131.055 344.415 141.496 344.415 154.375C344.415 167.254 333.977 177.695 321.101 177.695ZM294.865 92.2637C246.07 112.904 239.461 177.646 280.907 208.49H228.877V122.942H193.325V92.0223L294.865 92.2637ZM30 208.48V92.0223H132.531L123.257 122.942H69.6708V134.795H120.162L109.858 165.714H69.6708V177.564H106.769L97.4951 208.483L30 208.48ZM160.352 150.253L170.658 116.244L180.962 150.253H160.352ZM152.108 177.564H188.689L198.48 208.483H142.837L152.108 177.564ZM356.65 208.48V92.0223H410.749L434.965 163.649V92.0223H470V208.48H414.871L391.685 137.37V208.48H356.65Z" fill="white"></path>
  </g>
  <defs>
    <clipPath id="clip0_135_417">
      <rect width="440" height="116.512" fill="white" transform="translate(30 92)"></rect>
    </clipPath>
  </defs>
</svg>
