<?xml version="1.0" encoding="UTF-8"?>
<svg xmlns="http://www.w3.org/2000/svg" width="500" height="300" viewBox="0 0 500 300" fill="none">
  <path d="M245.069 161.494C246.206 162.706 246.607 165.379 246.687 169.591C246.579 177.722 246.069 185.076 245.673 191.445C245.182 199.333 244.72 207.072 243.671 214.878C243.198 218.361 242.553 220.88 241.152 223.648H276.188C284.61 223.648 285.517 222.824 287.706 207.821C283.306 214.858 271.268 216.909 259.588 216.909C256.349 216.909 255.855 216.414 255.855 212.283C256.53 204.886 257.101 197.296 257.696 189.987C259.046 173.405 259.721 163.347 262.154 161.485L245.069 161.494Z" fill="white"></path>
  <path d="M274.182 76.0175C275.319 77.2294 275.721 79.9021 275.8 84.1139C275.884 89.2148 275.399 96.501 274.753 105.973L274.505 109.937C273.292 126.531 272.482 135.687 269.973 138.523H314.185C313.858 137.386 313.768 136.496 313.768 135.687C313.768 132.28 316.279 127.433 318.142 123.301L319.434 120.548H326.886C334.257 120.548 338.869 119.982 341.457 118.766L342.998 124.194C347.29 138.925 347.691 139.084 353.035 139.084C354.729 139.084 359.35 138.926 362.588 138.524C358.704 135.361 355.787 127.269 351.168 110.67L348.5 100.791C347.288 96.4243 341.78 76.0186 341.78 76.0186H328.186C328.668 77.1511 328.991 78.2863 328.991 79.503C328.991 81.1975 324.946 90.1043 320.814 98.8506L316.444 108.162C313.201 115.126 309.886 121.841 306.971 127.185C302.277 130.348 299.687 130.582 289.322 130.582C286.411 130.582 285.274 129.936 285.274 127.104C285.274 120.95 286.083 114.639 286.485 108.485L286.811 104.521C287.944 87.9221 288.836 77.8816 291.269 76.0186L274.182 76.0175ZM333.361 90.6729L339.675 112.451H323.325L333.361 90.6729Z" fill="white"></path>
  <path d="M167.809 76.0175C169.026 76.9861 169.507 79.7436 169.592 84.1942C169.671 89.2906 169.188 96.5803 168.537 105.973L168.296 109.937C166.92 129.045 166.028 136.333 163.604 138.523H180.517C179.385 137.466 178.899 134.876 178.819 130.665C178.819 126.865 179.063 121.758 179.471 115.365L179.789 110.669H180.195C182.381 110.669 183.435 112.203 184.811 114.07L202.299 138.355C203.835 140.461 204.965 141.195 209.583 141.195C212.658 141.195 217.439 141.027 220.996 140.625C218.169 139.169 217.516 138.675 209.583 128.235L196.871 111.398C195.977 110.261 194.526 108.397 193.716 107.672C202.051 105.079 208.774 99.578 208.774 89.5351C208.774 77.3156 198.413 76.0184 190.879 76.0184L167.809 76.0175ZM186.996 83.627C192.907 83.627 196.308 86.4595 196.308 91.3171C196.308 98.4399 190.963 103.143 183.189 103.143C182.216 103.143 181.17 103.057 180.356 102.898L180.678 98.5241C181.245 91.0741 181.652 86.46 182.139 83.7914C183.599 83.6284 185.457 83.627 186.996 83.627Z" fill="white"></path>
  <path d="M125.552 76.0175C126.039 77.1499 126.365 78.2852 126.365 79.5018C126.365 80.8778 122.156 90.4262 118.188 98.8495L113.81 108.157C106.285 124.266 100.862 134.227 96.5703 138.523H111.552C111.224 137.306 111.146 136.496 111.146 135.686C111.062 132.204 114.22 126.211 115.516 123.3L116.812 120.547H124.256C131.623 120.547 136.238 119.982 138.835 118.765L140.368 124.193C144.66 138.925 145.064 139.083 150.408 139.083C152.107 139.083 156.48 138.926 159.957 138.523C156.073 135.36 153.163 127.268 148.548 110.669L145.873 100.79C142.718 89.5358 139.156 76.018 139.156 76.018L125.552 76.0175ZM130.739 90.6729L137.052 112.451H120.614L130.739 90.6729Z" fill="white"></path>
  <path d="M54.6323 76.0175C55.8446 76.986 56.3315 79.8188 56.4112 84.1942C56.4954 89.2906 56.0074 96.5813 55.3571 106.053L55.1192 109.937C53.9025 126.611 53.1785 136.089 50.4268 138.523H72.2815C88.9605 138.523 99.1625 129.935 99.1625 119.087C99.1625 109.049 91.876 104.354 82.1605 103.381C89.04 101.603 96.5671 96.5803 96.5671 88.4841C96.5671 76.3398 84.9094 76.0177 79.0785 76.0177L54.6323 76.0175ZM73.3328 83.5464C80.6989 83.5464 84.185 86.4613 84.185 90.673C84.185 97.9594 76.8945 100.709 68.9617 100.709H67.3439C67.3439 100.873 67.5854 96.8992 67.5854 96.8992C67.9084 92.2895 68.3113 88.0832 68.9617 83.7075C70.4968 83.5482 72.1162 83.5464 73.3328 83.5464ZM66.8579 108.323H71.3124C79.5677 108.323 86.1294 111.233 86.1294 119.245C86.1294 126.456 80.3777 130.829 71.6314 130.829C67.4242 130.829 65.6433 129.613 65.6433 129.047C65.723 124.999 65.8877 121.599 66.2107 117.547L66.8579 108.323Z" fill="white"></path>
  <path d="M448.808 90.8354C446.215 86.137 440.632 82.5756 434.554 82.5756C429.218 82.5756 424.515 84.7611 424.515 90.4284C424.515 95.2064 430.43 98.4404 436.584 102.413C443.304 106.62 450.268 111.801 450.268 120.787C450.268 132.528 438.854 139.735 425.652 139.735C420.228 139.735 414.565 138.678 408.172 136.253L409.216 120.623C412.3 126.865 418.051 131.798 426.546 131.798C433.102 131.798 437.955 128.643 437.955 123.135C437.955 118.442 433.987 115.526 429.134 112.615C418.932 106.457 412.455 101.519 412.455 92.6146C412.455 79.2544 423.63 74.803 435.204 74.803C441.924 74.803 446.135 76.0196 450.427 76.0196L448.808 90.8354Z" fill="white"></path>
  <path d="M392.226 104.841C390.766 107.274 388.908 110.587 387.775 113.025C386.802 117.635 386.32 123.789 386.32 130.584C386.32 133.424 386.802 137.225 388.098 138.525H371.18C374.167 135.69 375.388 118.285 375.228 112.777C372.959 104.924 369.88 97.3942 365.181 88.2456C362.199 82.4987 358.708 77.0744 356.519 76.022C360.323 75.6989 365.181 75.4512 367.53 75.4512C371.742 75.4512 372.874 76.022 375.467 81.6891C379.511 90.8381 382.51 97.7129 384.293 102.818C388.589 96.0984 391.579 91.4838 395.464 85.1713C396.433 83.6318 397.247 81.6896 397.247 79.8226C397.247 78.3671 396.995 76.7479 396.349 76.0224H413.111C409.877 76.7479 395.3 99.664 392.226 104.841Z" fill="white"></path>
  <path d="M242.862 139.734C226.745 139.734 217.441 126.457 217.441 111.561C217.441 90.8344 228.692 74.8025 250.148 74.8025C256.864 74.8025 260.023 76.0191 265.451 76.0191L263.827 91.9678C260.752 86.3804 255.731 82.5755 249.011 82.5755C235.655 82.5755 230.226 96.9891 230.226 109.372C230.226 122.813 237.761 130.179 247.798 130.179C253.222 130.179 257.995 128.723 266.012 123.135C262.774 133.501 255.245 139.734 242.862 139.734Z" fill="white"></path>
  <path d="M204.106 161.454C204.593 162.587 204.919 163.722 204.919 164.938C204.919 166.314 200.71 175.863 196.742 184.286L192.364 193.594C184.839 209.702 179.416 219.663 175.125 223.959H190.106C189.779 222.743 189.7 221.932 189.7 221.123C189.616 217.641 192.774 211.648 194.07 208.737L195.366 205.984H202.811C210.177 205.984 214.792 205.418 217.389 204.202L218.923 209.63C223.214 224.361 223.618 224.52 228.962 224.52C230.661 224.52 235.034 224.363 238.511 223.96C234.627 220.797 231.717 212.705 227.103 196.106L224.427 186.227C221.273 174.972 217.71 161.455 217.71 161.455L204.106 161.454ZM209.293 176.11L215.607 197.888H199.168L209.293 176.11Z" fill="white"></path>
  <path d="M331.228 172.139C326.803 169.261 321.493 168.288 316.738 168.288C314.083 168.288 313.684 168.774 313.354 171.518C313.111 173.838 313.042 174.638 312.469 181.959L310.942 202.402C310.629 206.254 310.456 213.181 310.456 215.572C310.456 218.245 310.629 221.614 312.069 223.47H295.255C297.355 222.584 298.725 214.687 299.524 201.917L300.808 182.291C301.137 177.294 301.294 173.753 301.294 171.027C301.294 168.532 300.738 168.288 298.083 168.288C295.914 168.288 288.505 168.288 282.621 172.072C283.194 167.647 283.35 165.059 283.35 161.364H332.668C332.026 164.993 331.627 167.647 331.228 172.139Z" fill="white"></path>
  <path d="M175.233 172.349C169.836 169.121 166.07 168.654 157.775 168.654H152.465C151.823 172.593 151.181 180.872 150.782 186.113H158.174C165.098 186.113 169.211 185.782 172.821 184.654L171.38 194.458C165.012 193.418 160.829 193.661 154.964 193.661H150.209C149.741 200.255 149.012 210.632 149.012 212.332C149.012 216.428 149.498 216.915 152.708 216.915C164.283 216.915 169.61 214.103 176.118 207.909C173.949 222.779 173.046 223.596 164.699 223.596H134.435C135.823 220.853 136.465 218.355 136.934 214.902C137.992 207.023 138.461 199.215 138.947 191.249C139.52 181.758 140.075 174.609 140.005 169.524C139.918 166.401 139.676 164.073 138.635 161.489H177.003" fill="white"></path>
  <path d="M340.518 161.344C341.958 163.199 342.132 166.566 342.132 169.239C341.984 173.624 342.005 178.216 341.729 182.416L340.452 201.914C339.615 214.682 338.284 222.583 336.184 223.468H352.699C351.258 221.613 351.084 218.242 351.084 215.57C351.084 213.178 351.258 206.253 351.571 202.4C351.8 199.582 352.001 196.758 352.219 193.92H377.331L376.808 201.913C375.972 214.682 374.64 222.582 372.54 223.468H389.055C387.614 221.613 387.44 218.242 387.44 215.57C387.44 213.177 387.614 206.253 387.927 202.4C388.455 195.917 388.954 189.322 389.421 182.895C390.348 170.133 391.589 162.229 393.688 161.343H376.873C378.313 163.198 378.487 166.566 378.487 169.238C378.339 173.623 378.358 178.215 378.084 182.415L377.784 187.023H352.748C352.85 185.65 352.964 184.255 353.063 182.894C353.99 170.133 355.231 162.228 357.331 161.342L340.518 161.344Z" fill="white"></path>
  <path d="M60.7022 161.374C57.4052 161.505 54.1673 161.606 51.2588 161.945C55.0853 165.047 57.5583 180.1 59.9079 189.404C60.717 192.608 61.1716 195.891 61.7746 199.14C63.2873 207.29 66.5695 223.656 66.5695 223.656H74.2634L89.6983 182.31L98.1425 223.656L106.279 223.613C111.588 210.265 117.272 196.044 122.724 183.288C127.452 172.23 132.19 165.351 135.583 161.986H120.832C121.159 163.191 121.213 163.968 121.213 164.778C121.316 168.209 118.697 174.028 117.651 176.982C113.973 187.361 105.87 208.119 105.87 208.119L96.3311 161.419L90.8591 161.386L73.8902 206.915L68.3486 176.081C65.6691 161.172 65.9592 161.374 60.7022 161.374Z" fill="white"></path>
</svg>
