<?xml version="1.0" encoding="UTF-8"?>
<svg xmlns="http://www.w3.org/2000/svg" width="500" height="300" viewBox="0 0 500 300" fill="none">
  <path fill-rule="evenodd" clip-rule="evenodd" d="M119.839 127.29V129.516H103.677V179.839H97.9677V129.516H81.7097V127.29H119.839ZM156.226 118V120.032H127.677V118H156.226ZM156.226 127.29V129.516H133.387V150.323H154.387V152.452H133.387V177.613H156.516V180.032H127.677V127.387L156.226 127.29ZM195.516 127.29V129.516H172.677V150.323H193.677V152.452H172.677V177.613H195.806V180.032H166.968V127.387L195.516 127.29ZM38.4516 127.29V129.516H15.6129V150.323H36.6129V152.452H15.6129V177.613H38.7419V180.032H10V127.387L38.4516 127.29ZM441.419 127.29V129.516H418.581V150.323H439.677V152.452H418.677V177.613H441.806V180.032H412.968V127.387L441.419 127.29ZM232.097 127.29V177.516C232.097 177.516 254.064 177.419 255.032 177.419V179.935H226.484V127.29H232.097ZM74.7419 166.968C74.8387 159.903 68.5484 157.677 61.871 155.355C54.3226 152.742 46.5806 149.935 46.5806 140.065C46.6774 130.968 55.1935 126.129 63.129 126.226C67.7742 126.323 72.3226 127.484 76.4839 129.71V133.194C72.9032 130 68.2581 128.258 63.4194 128.161C56.6452 128.065 51.4194 132.419 51.4194 138.226C51.3226 145.194 57.8065 147.516 64.5806 149.935C72.129 152.645 79.871 155.355 79.7742 164.742C79.6774 175.774 69.9032 181.387 60.3226 181.29C55.3871 181.29 50.5484 180.032 46.2903 177.613V174.032C50.3548 177.129 55.1935 178.871 60.2258 179.065C69.5161 179.161 74.6452 172.968 74.7419 166.968ZM284.065 126.806L292.29 147.323C292.29 147.323 303.419 175.194 305.258 179.839H298.774C298.484 179.161 290.935 159.419 290.935 159.419H269.839C269.839 159.419 262.387 179.161 262.097 179.839H258.71L279.516 126.71H284.065V126.806ZM280 132.806C276.516 142.387 271.968 154.194 271.097 156.613L270.806 157.387H290.258L287.548 150.129L280.581 131.548L280 132.806ZM349.29 127.29V163C349.29 174.226 341.935 181 329.742 181C316.871 181 310.097 174.613 310.097 162.613V127.194H315.71V163.968C315.71 173.452 321.226 179.065 330.516 179.065C340.29 179.065 346.387 172.871 346.387 162.903V127.194L349.29 127.29ZM469.968 127.29C475.968 127.194 480.806 128.742 483.71 131.839C485.839 134.161 487 137.355 486.903 140.548C486.903 150.806 475 153.419 474.419 153.516L473.742 153.71C473.742 153.71 489.129 178.484 490 180.032H483.806L468.419 154.387H457.968V180.032H452.258V127.387L469.968 127.29ZM469.387 129.323H457.871V152.355H466.194C471.71 152.452 475.968 151 478.581 148.29C480.516 146.161 481.484 143.355 481.387 140.548C481.581 137.645 480.516 134.742 478.581 132.516C477.323 131.355 475.871 130.484 474.323 129.903C472.774 129.419 471.032 129.226 469.387 129.323ZM379.097 127.29C386.839 127.194 393.129 129.419 397.387 133.871C401.548 138.226 403.774 144.903 403.774 152.935C403.774 161.258 401.548 167.742 397.194 172.387C392.452 177.419 385.29 180.032 376.484 179.839H360.226V127.194L379.097 127.29ZM378.129 129.323H365.935V177.806H375.323C382.968 177.903 388.581 175.968 392.355 172C396.129 168.032 397.968 161.935 397.968 153.806C397.968 145.194 395.935 138.71 391.968 134.548C390.129 132.71 388 131.355 385.581 130.387C383.258 129.613 380.742 129.226 378.129 129.323Z" fill="white"></path>
</svg>
