<?xml version="1.0" encoding="UTF-8"?>
<svg xmlns="http://www.w3.org/2000/svg" width="500" height="300" viewBox="0 0 500 300" fill="none">
  <g clip-path="url(#clip0_269_5268)">
    <path d="M64.083 106.417C88.4629 106.417 108.243 126.196 108.243 150.5C108.243 174.803 88.463 194.584 64.083 194.584C39.7798 194.583 20 174.88 20 150.5C20.0002 126.197 39.7033 106.417 64.083 106.417ZM63.1641 117.994C57.5675 118.07 52.8904 118.683 49.2871 119.91C45.7604 121.06 43.154 122.747 41.3906 124.97C37.7108 129.724 38.6303 135.933 39.627 140.226C40.547 144.213 42.6937 148.047 44.7637 151.803C49.6703 160.62 52.0469 166.293 44.917 171.047C43.6138 171.89 42.3105 172.35 40.9307 172.35C38.1707 172.35 34.9503 170.97 33.2637 170.127L33.6475 170.893C37.1741 176.183 41.697 179.02 46.7568 179.02C48.9802 179.02 51.2806 178.483 53.6572 177.41C56.1871 176.26 58.4101 174.266 59.9434 171.66C61.4767 169.053 62.0132 166.217 61.6299 163.763C61.0932 161.54 59.9435 158.55 58.5635 155.023C55.0368 145.9 50.2073 133.48 54.4238 127.423C56.1872 124.893 59.3307 123.589 64.084 123.589C68.8371 123.59 71.9808 124.894 73.7441 127.423C77.8837 133.48 73.0534 145.9 69.6035 155.023C68.2235 158.55 67.0738 161.54 66.5371 163.763C66.0771 166.293 66.6903 169.13 68.2236 171.737C69.757 174.344 71.9808 176.414 74.5107 177.487C76.8872 178.56 79.2637 179.096 81.4102 179.096C86.4701 179.096 90.9939 176.26 94.5205 170.97L94.9033 170.127C93.2166 170.97 89.9971 172.35 87.2373 172.35C85.8573 172.35 84.5533 171.967 83.25 171.047C76.1204 166.293 78.5735 160.62 83.4033 151.803C85.4733 148.047 87.62 144.213 88.54 140.226C89.5366 135.933 90.4569 129.723 86.7773 124.97C85.014 122.747 82.4065 121.06 78.8799 119.91C75.2767 118.683 70.6002 118.07 65.0039 117.994H63.1641Z" fill="white"></path>
    <path d="M146.73 118.377H137.453V178.483H146.73V118.377Z" fill="white"></path>
    <path d="M192.271 178.483H182.994V174.573C180.771 177.18 176.784 179.403 171.954 179.403C162.601 179.403 157.541 173.193 157.541 164.147V137.39H166.818V162.537C166.818 167.597 169.194 170.97 174.484 170.97C178.471 170.97 181.998 168.44 182.994 164.377V137.39H192.271V178.483Z" fill="white"></path>
    <path d="M213.046 118.377H203.77V178.483H213.046V118.377Z" fill="white"></path>
    <path d="M258.664 178.483H249.387V174.573C247.164 177.18 243.177 179.403 238.347 179.403C228.994 179.403 223.934 173.193 223.934 164.147V137.39H233.21V162.537C233.21 167.597 235.587 170.97 240.877 170.97C244.864 170.97 248.39 168.44 249.387 164.377V137.39H258.664V178.483Z" fill="white"></path>
    <path d="M279.363 118.377H270.086V178.483H279.363V118.377Z" fill="white"></path>
    <path d="M324.673 165.757C323.293 173.883 317.236 179.48 307.346 179.48C295.846 179.48 287.949 170.817 287.949 158.09C287.949 145.823 295.999 136.547 307.193 136.547C318.769 136.547 325.056 144.75 325.056 156.787V160.083H296.996C297.303 167.29 301.443 171.66 307.346 171.66C311.793 171.66 315.089 169.743 316.163 165.757H324.673ZM297.303 153.337H315.933C315.856 148.353 312.943 144.29 307.346 144.29C302.209 144.29 298.453 147.433 297.303 153.337Z" fill="white"></path>
    <path d="M376.116 136.547C384.55 136.547 389.456 142.45 389.456 151.803V178.56H380.18V153.337C380.18 148.277 377.956 144.903 373.433 144.903C370.136 144.903 366.993 146.973 366.15 151.037V178.637H356.873V153.413C356.873 148.353 354.65 144.98 350.126 144.98C346.83 144.98 343.686 147.05 342.843 151.113V178.713H333.566V137.62H342.843V141.07C344.76 138.463 348.516 136.7 353.116 136.7C357.716 136.7 361.78 139 363.926 142.143C366.763 138.617 370.596 136.547 376.116 136.547Z" fill="white"></path>
    <path d="M416.98 179.403C405.403 179.403 397.43 170.51 397.43 157.937C397.43 145.363 405.403 136.47 416.98 136.47C428.556 136.47 436.53 145.363 436.53 157.937C436.53 170.587 428.556 179.403 416.98 179.403ZM416.98 144.443C410.31 144.443 406.706 150.193 406.706 157.937C406.706 165.68 410.31 171.43 416.98 171.43C423.65 171.43 427.253 165.68 427.253 157.937C427.253 150.193 423.65 144.443 416.98 144.443Z" fill="white"></path>
    <path d="M445.117 137.467H454.394V141.377C456.617 138.77 460.681 136.547 465.511 136.547C474.864 136.547 480.001 142.757 480.001 151.803V178.56H470.724V153.337C470.724 148.277 468.194 144.903 462.981 144.903C458.994 144.903 455.391 147.433 454.394 151.497V178.483H445.117V137.467Z" fill="white"></path>
  </g>
  <defs>
    <clipPath id="clip0_269_5268">
      <rect width="460" height="88.1667" fill="white" transform="translate(20 106.417)"></rect>
    </clipPath>
  </defs>
</svg>
