<?xml version="1.0" encoding="UTF-8"?>
<svg xmlns="http://www.w3.org/2000/svg" width="500" height="300" viewBox="0 0 500 300" fill="none">
  <path d="M10 168.084H16.8941V121.549L30.6822 168.084H36.0251L49.8133 121.722V168.084H57.0521V115.862H44.9874L33.4399 154.986L22.0646 115.862H10V168.084ZM81.8707 128.443C71.5296 128.443 64.6355 135.682 64.6355 148.781C64.6355 161.88 71.3573 168.946 81.8707 168.946C92.2119 168.946 99.1059 161.707 99.1059 148.781C99.1059 135.682 92.3842 128.443 81.8707 128.443ZM71.8743 148.781C71.8743 138.612 76.0108 133.959 81.8707 133.959C87.7307 133.959 91.8671 138.612 91.8671 148.781C91.8671 158.95 87.7307 163.603 81.8707 163.603C76.1831 163.431 71.8743 158.95 71.8743 148.781ZM106.517 168.084H113.756V141.887C117.375 136.199 120.822 134.648 124.269 134.648C125.131 134.648 125.993 134.648 126.51 134.993V128.271C125.993 128.099 125.131 127.926 124.269 127.926C120.65 127.926 116.513 130.512 113.756 135.338V129.133H106.517V168.084ZM143.745 168.774C148.054 168.774 150.984 167.05 153.914 164.637V167.395C153.914 174.117 151.673 178.081 144.09 178.081C139.781 178.081 136.162 176.53 132.887 174.461L129.957 179.977C133.059 182.045 138.919 183.941 144.434 183.941C154.776 183.941 161.325 178.081 161.325 168.429V129.133H154.259V132.408C151.329 129.995 148.226 128.443 143.917 128.443C135.472 128.443 127.889 134.131 127.889 148.609C127.889 163.259 135.472 168.774 143.745 168.774ZM134.955 148.781C134.955 138.095 139.436 133.959 144.607 133.959C148.226 133.959 150.639 135.338 153.741 138.095V159.467C150.639 162.224 148.054 163.431 144.607 163.431C139.436 163.431 134.955 159.467 134.955 148.781ZM180.111 168.946C184.075 168.946 188.039 167.05 191.314 164.293C192.348 167.05 194.761 168.429 198.725 168.429C199.759 168.429 200.621 168.257 201.483 167.912V162.741C200.966 162.741 200.621 162.741 200.104 162.741C198.381 162.741 197.691 162.052 197.691 160.329V140.68C197.691 133.269 192.865 128.271 184.248 128.271C177.698 128.271 171.666 131.373 167.702 136.372L172.183 140.336C175.63 136.372 179.594 134.131 183.386 134.131C189.074 134.131 190.625 137.406 190.625 141.37V143.093L182.869 144.817C171.494 147.402 167.702 152.228 167.702 158.26C168.047 163.776 171.838 168.946 180.111 168.946ZM175.113 157.916C175.113 154.296 177.181 151.711 183.903 149.987L190.969 148.264V159.467C188.039 161.88 184.765 163.603 181.49 163.603C177.181 163.776 175.113 161.018 175.113 157.916ZM208.205 168.084H215.443V138.785C218.546 135.51 221.82 133.786 225.268 133.786C228.715 133.786 231.3 136.027 231.3 140.163V167.912H238.539V140.336C238.539 132.235 234.057 127.926 227.163 127.926C223.027 127.926 219.063 129.305 215.443 132.752V129.133H208.205V168.084ZM276.456 168.774C286.108 168.774 294.381 163.431 294.381 154.124C294.381 144.645 288.004 141.715 277.145 138.095C270.596 135.855 265.425 134.131 265.425 128.961C265.425 123.445 269.734 121.205 274.905 121.205C280.42 121.205 284.901 124.307 287.314 129.478L293.174 126.375C289.727 118.619 282.661 115 274.905 115C265.77 115 258.014 120.171 258.014 129.478C258.014 138.095 264.219 141.542 274.215 144.645C281.454 146.885 286.797 148.781 286.797 154.469C286.797 160.156 281.971 162.397 276.456 162.397C270.079 162.397 264.908 159.294 262.323 153.952L256.463 157.399C260.083 164.81 267.666 168.774 276.456 168.774ZM314.718 162.741C311.788 162.741 310.409 161.535 310.409 158.777V134.648H317.648V129.133H310.409V118.447H303.171V129.133H296.794V134.648H303.171V159.984C303.171 165.499 306.273 168.429 313.167 168.429C314.546 168.429 315.925 168.257 317.648 167.912V162.741C316.442 162.741 315.925 162.741 314.718 162.741ZM334.194 168.946C338.158 168.946 342.122 167.05 345.397 164.293C346.431 167.05 348.844 168.429 352.808 168.429C353.842 168.429 354.704 168.257 355.566 167.912V162.741C355.048 162.741 354.704 162.741 354.187 162.741C352.463 162.741 351.774 162.052 351.774 160.329V140.68C351.774 133.269 346.948 128.271 338.33 128.271C331.781 128.271 325.749 131.373 321.785 136.372L326.266 140.336C329.713 136.372 333.677 134.131 337.469 134.131C343.156 134.131 344.707 137.406 344.707 141.37V143.093L336.952 144.817C325.576 147.402 321.785 152.228 321.785 158.26C322.129 163.776 325.921 168.946 334.194 168.946ZM329.196 157.916C329.196 154.296 331.264 151.711 337.986 149.987L345.052 148.264V159.467C342.122 161.88 338.847 163.603 335.573 163.603C331.264 163.776 329.196 161.018 329.196 157.916ZM362.287 168.084H369.526V138.785C372.628 135.51 375.903 133.786 379.35 133.786C382.797 133.786 385.382 136.027 385.382 140.163V167.912H392.621V140.336C392.621 132.235 388.14 127.926 381.246 127.926C377.11 127.926 373.145 129.305 369.526 132.752V129.133H362.287V168.084ZM412.614 162.569C410.029 162.569 408.995 161.535 408.995 158.95V115.862H401.756V159.811C401.756 165.154 404.686 168.257 411.063 168.257C412.442 168.257 413.82 168.084 415.199 167.74V162.224C414.338 162.569 413.476 162.569 412.614 162.569ZM451.221 160.156L445.878 157.054C443.465 161.535 440.19 163.603 435.882 163.603C430.194 163.603 426.057 159.639 425.54 150.504H451.566V147.919C451.566 135.165 445.016 128.271 435.364 128.271C425.196 128.271 418.302 135.338 418.302 148.609C418.302 162.052 425.368 168.774 435.709 168.774C443.293 168.946 447.774 165.844 451.221 160.156ZM435.537 133.786C440.535 133.786 444.154 137.233 444.844 145.162H425.885C426.575 137.233 430.366 133.786 435.537 133.786ZM461.39 178.253C460.011 178.253 458.632 177.908 456.908 177.219L455.013 182.734C457.253 183.768 459.494 184.285 461.734 184.285C467.939 184.285 471.214 181.183 473.799 174.289L490 129.305H482.761L472.42 159.984L461.562 129.133H453.978L468.801 169.118L467.767 171.876C465.871 176.357 464.664 178.253 461.39 178.253Z" fill="white"></path>
</svg>
