<?xml version="1.0" encoding="UTF-8"?>
<svg xmlns="http://www.w3.org/2000/svg" width="500" height="300" viewBox="0 0 500 300" fill="none">
  <g clip-path="url(#clip0_135_300)">
    <path d="M164.552 161.723C134.464 170.089 105.463 182.938 76.8348 200.9C76.7616 200.948 76.6986 201.01 76.6494 201.082C76.6002 201.154 76.5657 201.236 76.548 201.321C76.5303 201.407 76.5296 201.495 76.5461 201.581C76.5625 201.667 76.5957 201.748 76.6439 201.821C76.8348 202.129 77.2747 202.195 77.5818 201.996C102.79 189.28 132.746 178.846 164.552 171.7V161.723Z" fill="white"></path>
    <path d="M296.212 201.465H308.571L262.164 97.744H259.06L214.47 201.523H222.381L257.723 110.95L296.212 201.465ZM177.434 142.781V177.402H167.109V144.3L138.44 99.8772H149.72L173.517 140.374L198.16 99.8772H205.83L177.434 142.781ZM85.5086 177.402V138.341H41.1518V177.402H31.0254V99.8191H41.1518V133.095H85.5086V99.8191H95.6432V177.402H85.5086ZM381.306 105.032V99.8108H319.478V105.032H345.358V177.377H355.559V105.032H381.306ZM470.975 105.032V99.8108H414.184V105.032H437.541V177.377H447.742V105.032H470.975Z" fill="white"></path>
    <path d="M358.14 173.833C384.793 180.797 409.552 190.209 431.283 201.182C431.425 201.278 431.599 201.313 431.767 201.28C431.935 201.247 432.083 201.15 432.179 201.008C432.225 200.939 432.256 200.861 432.271 200.779C432.287 200.697 432.285 200.613 432.268 200.532C432.25 200.451 432.216 200.374 432.168 200.306C432.12 200.238 432.059 200.18 431.988 200.137C407.469 184.756 383.299 172.978 358.14 164.653V173.833ZM293.962 162.569C310.385 164.09 326.699 166.623 342.81 170.156V160.046C325.07 155.284 306.934 152.151 288.625 150.683L293.962 162.569ZM233.686 150.26C215.309 151.422 197.446 153.912 179.991 157.838V168.496C196.068 165.467 212.301 163.328 228.614 162.088L233.686 150.26ZM240.799 161.349C246.833 161.075 252.843 160.934 258.827 160.934C264.679 160.934 270.514 161.075 276.308 161.349L271.46 149.696C267.226 149.548 262.989 149.476 258.752 149.48C254.262 149.48 249.813 149.554 245.389 149.696L240.799 161.349Z" fill="white"></path>
  </g>
  <defs>
    <clipPath id="clip0_135_300">
      <rect width="440" height="104.368" fill="white" transform="translate(31 97.744)"></rect>
    </clipPath>
  </defs>
</svg>
