<?xml version="1.0" encoding="UTF-8"?>
<svg xmlns="http://www.w3.org/2000/svg" width="500" height="300" viewBox="0 0 500 300" fill="none">
  <path d="M399.44 177.072C400.08 178.991 403.118 178.831 404.876 179.471C405.516 180.75 405.516 180.43 406.156 182.668H381.212C382.172 181.07 382.172 180.75 382.811 179.471C384.57 178.671 386.968 178.671 387.448 176.433V137.259C391.285 136.459 395.443 136.139 399.44 135.5V177.072ZM52.7911 182.509L51.6719 179.311C48.1542 178.671 45.5959 178.511 45.5959 176.273V119.351H57.1083C62.065 119.351 62.3848 123.348 63.9837 131.023H67.3414L66.7019 113.115H10.8991L10.0996 131.023H13.4574C15.0563 123.508 15.3761 119.351 20.3328 119.351H31.8451V176.433C31.8451 178.671 29.2868 178.671 25.7692 179.471L24.6499 182.668H52.7911V182.509ZM206.289 182.509H213.804L222.118 155.327L230.752 182.509H238.427L248.661 144.134C249.78 140.617 252.018 140.457 254.896 139.977L256.016 136.779H237.148L238.267 139.977C240.826 140.457 242.105 140.776 242.105 142.056C242.105 142.695 241.945 143.495 241.785 144.454C240.026 151.489 237.148 163.481 237.148 163.481L229.154 136.939H221.319L213.164 163.161C210.766 153.408 210.606 152.449 209.327 147.492C209.007 145.733 208.527 144.134 208.527 143.015C208.527 141.416 209.327 140.617 212.685 139.977L213.804 136.779H188.541L189.66 139.977C192.218 140.457 194.776 140.617 195.256 142.375L206.289 182.509ZM393.684 131.662C397.361 131.662 400.239 128.784 400.239 125.107C400.239 121.429 397.361 118.551 393.684 118.551C390.006 118.551 387.128 121.429 387.128 125.107C387.128 128.784 390.166 131.662 393.684 131.662ZM68.6206 183.148C72.1382 183.148 75.1762 180.27 75.1762 176.593C75.1762 173.075 72.2981 170.197 68.6206 170.197C64.943 170.197 62.065 173.075 62.065 176.593C62.065 180.11 64.943 183.148 68.6206 183.148ZM145.529 159.644C145.369 146.373 152.884 135.18 168.394 135.18C183.264 135.18 191.259 145.413 191.259 159.644C191.259 173.235 183.744 184.108 168.394 184.108C153.044 184.267 145.529 173.395 145.529 159.644ZM177.828 159.644C177.828 146.053 175.429 139.657 168.394 139.657C160.08 139.657 158.96 149.091 158.96 159.644C158.96 174.034 161.679 179.79 168.394 179.79C175.269 179.79 177.828 173.714 177.828 159.644ZM151.445 184.267C147.288 184.267 145.369 182.029 143.93 179.471C143.93 179.471 127.781 151.649 123.304 147.012C128.261 145.733 138.494 142.056 138.494 128.305C138.494 118.871 132.578 112.955 119.786 112.955H83.4907L84.6099 116.153C88.2875 116.792 90.6859 116.952 90.6859 119.191V176.273C90.6859 178.511 88.1276 178.511 84.6099 179.311L83.4907 182.509H111.472L110.353 179.311C106.835 178.671 104.437 178.671 104.437 176.433V119.511C104.437 118.391 104.757 117.912 105.876 117.912H112.112C122.025 117.912 124.104 122.868 124.104 130.863C124.104 140.776 118.347 145.253 109.873 145.253H107.315C113.391 154.687 117.228 163.002 123.144 172.755C131.299 186.026 136.096 187.945 144.41 187.945C148.407 187.945 150.166 187.305 151.445 186.986V184.267ZM365.543 143.654V134.86L355.469 137.579C356.429 135.98 357.548 132.622 357.548 128.784C357.548 119.031 351.792 112.955 338.84 112.955H302.705L303.824 116.153C307.341 116.792 309.9 116.952 309.9 119.191V176.273C309.9 178.511 307.341 178.511 303.824 179.311L302.705 182.509H330.686L329.567 179.311C325.889 178.671 323.491 178.511 323.491 176.273V119.511C323.491 118.391 323.81 117.752 324.93 117.752H330.846C341.079 117.752 343.317 122.549 343.317 130.543C343.317 139.817 338.201 145.094 329.407 145.094H326.689L329.247 149.091C329.886 149.251 331.805 149.411 334.044 149.411C341.878 149.411 349.713 144.294 351.632 142.535C352.911 142.855 353.711 143.654 353.711 145.733V176.273C353.711 178.511 351.152 178.511 347.635 179.311L346.515 182.509H372.898L371.778 179.311C368.261 178.671 365.703 178.511 365.703 176.273V148.451C366.662 147.172 368.261 144.614 371.459 144.614C374.337 144.614 375.776 147.172 376.415 151.809H379.613L382.331 135.02C374.657 134.86 368.9 139.497 365.543 143.654ZM281.279 178.191C285.916 178.191 289.593 175.953 290.713 175.153L291.032 178.351C289.273 179.79 284.477 184.108 275.043 184.108C259.533 184.108 253.297 172.435 253.297 159.644C253.297 151.489 255.696 135.18 275.043 135.18C292.152 135.18 295.19 150.69 295.509 155.966L292.951 158.365H266.089C266.089 169.717 271.365 178.191 281.279 178.191ZM266.249 154.048H283.357C283.357 148.611 282.078 139.657 274.723 139.657C267.368 139.657 266.249 149.091 266.249 154.048ZM475.869 178.191C480.506 178.191 484.184 175.953 485.303 175.153L485.623 178.351C483.864 179.79 479.067 184.108 469.633 184.108C454.124 184.108 447.888 172.435 447.888 159.644C447.888 151.489 450.286 135.18 469.633 135.18C486.742 135.18 489.62 150.69 490.1 155.966L487.541 158.365H460.839C460.679 169.717 465.956 178.191 475.869 178.191ZM460.999 154.048H478.108C478.108 148.611 476.828 139.657 469.473 139.657C461.958 139.657 460.999 149.091 460.999 154.048ZM430.14 184.108C438.774 184.108 444.05 179.63 445.649 178.351L445.329 175.153C443.89 175.953 439.733 178.191 435.736 178.191C425.503 178.191 419.267 169.237 419.267 157.885C419.267 148.771 421.825 139.657 429.5 139.657C435.416 139.657 437.814 143.814 438.934 152.129H442.132L444.53 137.419C443.89 137.259 438.614 135.34 430.299 135.34C416.229 135.34 406.475 143.015 406.475 159.164C406.475 171.956 413.671 184.108 430.14 184.108Z" fill="white"></path>
</svg>
