<?xml version="1.0" encoding="UTF-8"?>
<svg xmlns="http://www.w3.org/2000/svg" width="500" height="300" viewBox="0 0 500 300" fill="none">
  <path d="M133.361 162.608C133.361 162.608 137.679 164.178 142.488 164.178C147.591 164.178 150.83 163.491 152.596 161.627C154.068 160.154 154.657 157.603 154.559 153.874V129.339H162.116V155.051C162.018 166.435 156.522 171.244 143.764 171.244C137.581 171.244 133.263 170.263 133.263 170.263V162.608H133.361ZM166.826 154.266C166.826 162.117 171.93 171.244 186.356 171.244C200.783 171.244 205.886 162.117 205.886 154.266C205.886 143.274 198.624 136.699 186.356 136.699C174.089 136.699 166.826 143.274 166.826 154.266ZM186.258 164.473C181.842 164.473 174.383 163.099 174.383 153.874C174.383 147.2 178.701 143.471 186.258 143.471C193.815 143.471 198.133 147.298 198.133 153.874C198.231 163.099 190.772 164.473 186.258 164.473ZM237.683 137.484V150.635H217.957V137.484H210.4V170.459H217.957V157.407H237.683V170.557H245.24V137.484H237.683ZM358.395 163.687V157.308H375.864V150.537H358.395V144.256H381.065V137.484H350.838V170.459H381.065V163.687H358.395ZM393.725 163.687V157.308H411.292V150.537H393.725V144.256H416.395V137.484H386.168V170.459H416.395V163.687H393.725ZM467.33 163.687V157.308H484.897V150.537H467.33V144.256H490V137.484H459.773V170.459H490V163.687H467.33ZM312.858 136.11V163.687H323.555C329.345 163.687 339.159 161.921 339.159 149.752C339.159 141.115 333.467 136.11 323.555 136.11H312.858ZM323.653 129.339C338.178 129.339 346.912 137.19 346.912 150.242C346.912 159.566 340.828 170.557 323.653 170.557H314.036H305.301V129.339H314.036H323.653ZM456.24 170.459H447.015L437.888 158.388H428.957V170.459H421.4V137.484H442.893C450.253 137.484 454.67 141.41 454.67 148.083C454.67 152.009 452.511 156.523 446.72 157.897L456.24 170.459ZM443.285 151.714C444.856 151.714 447.505 151.224 447.505 147.985C447.505 145.63 445.935 144.354 443.285 144.354H429.448V151.813L443.285 151.714ZM286.36 170.459V137.484H278.804V159.762L258.979 137.484H251.423V170.459H258.979V147.985L278.705 170.459H286.36Z" fill="white"></path>
  <path d="M101.76 114.716C89.1005 108.533 74.5758 105 59.3642 105C44.1526 105 29.6279 108.533 16.9679 114.716C12.4535 125.609 10 137.484 10 149.85C10 162.215 12.4535 174.09 16.9679 184.984C29.6279 191.265 44.1526 194.7 59.3642 194.7C74.4777 194.7 89.1005 191.166 101.76 184.984C106.275 174.09 108.728 162.215 108.728 149.85C108.728 137.484 106.275 125.609 101.76 114.716Z" fill="white"></path>
  <path d="M98.7188 117.366C86.9421 111.772 73.3988 108.729 59.3649 108.729C45.3309 108.729 31.7877 111.87 20.0109 117.464C15.9872 127.474 13.8281 138.466 13.8281 149.948C13.8281 161.332 15.9872 172.324 20.0109 182.432C31.8858 188.026 45.3309 191.167 59.463 191.167C73.497 191.167 87.0402 188.026 98.8169 182.432C102.841 172.324 105 161.43 105 149.948C104.902 138.466 102.743 127.474 98.7188 117.366ZM45.9197 139.741C43.8588 143.765 42.4849 148.378 41.896 153.579L40.7184 153.677C36.4984 154.07 32.0821 154.364 27.7639 156.033L28.0584 157.799C35.0263 166.435 45.5272 171.637 45.6253 171.735L45.9197 171.441L43.6625 167.809C43.0737 167.417 41.6997 167.122 41.6016 167.024C36.8909 165.454 33.5542 159.271 32.9653 158.192C36.8909 158.192 40.3258 159.271 43.6625 160.449C45.8216 161.136 47.8825 161.823 50.0416 162.215C53.7709 162.804 57.6965 162.117 61.3276 161.627C64.1737 161.332 67.0197 161.332 69.7677 161.43C70.0621 161.823 73.0063 165.356 75.8523 166.828C79.3853 168.693 89.4937 171.735 90.0825 171.833C90.2788 172.029 94.2044 175.955 96.6579 180.567C85.2737 185.867 72.4174 188.615 59.5611 188.615C46.6067 188.615 33.7504 185.769 22.2681 180.469C18.3425 170.754 16.3798 160.449 16.3798 149.85C16.3798 139.349 18.3425 129.044 22.0718 119.23C33.5542 113.931 46.4104 111.085 59.3649 111.085C72.3193 111.085 85.1756 113.833 96.5597 119.132C100.387 128.946 102.252 139.251 102.252 149.85C102.252 159.468 100.682 168.987 97.443 177.918C93.91 171.637 92.4379 169.772 92.4379 169.772C92.4379 169.772 87.3346 167.122 86.0588 166.043C85.0774 165.16 84.5867 163.393 83.9979 161.332C83.2128 158.486 82.2314 154.953 79.4835 152.107L82.5258 150.831C81.6425 144.943 74.6746 141.115 74.5765 141.017L74.1839 141.214C76.8337 144.55 77.6188 147.396 77.6188 149.163C77.6188 150.046 77.5207 150.635 77.4225 150.831C76.6374 150.537 71.436 148.868 59.6593 149.359C57.8928 149.457 55.4393 149.359 53.9672 147.887C53.0839 147.102 52.6914 145.924 52.6914 144.452C52.6914 140.33 54.4579 134.834 54.6542 134.148L57.6965 134.54C61.3276 132.479 62.7997 130.811 62.996 130.516V130.222C59.8556 130.614 55.8318 131.4 55.8318 131.4C56.1263 130.713 56.9114 128.357 56.9114 125.708C56.9114 122.861 55.93 119.623 52.2988 117.758L51.9063 117.954C51.9063 117.954 54.0653 120.31 54.0653 123.352C54.0653 124.235 53.869 125.119 53.4765 126.1C52.2988 125.609 51.8081 125.511 50.336 125.511C49.649 123.058 47.49 120.997 44.6439 119.917L44.2514 120.114C44.2514 120.114 47.3918 122.273 47.49 125.511C45.9197 125.609 45.2328 125.806 43.3681 126.394C42.583 125.021 40.7184 124.137 38.4611 123.843L38.1667 124.039C38.1667 124.039 40.9146 125.021 41.5035 127.081C39.8351 127.867 38.0686 129.044 36.8909 130.026L36.9891 130.516C43.957 127.768 50.5323 126.983 52.2007 128.946C52.4951 129.241 52.5932 129.633 52.5932 130.124C52.5932 130.713 52.397 131.4 51.9063 132.185C48.4714 132.97 43.27 134.442 38.9518 136.012L39.5407 137.779C39.5407 137.779 43.8588 138.662 45.429 138.956C45.6253 138.956 46.2142 139.054 45.9197 139.741Z" fill="black"></path>
</svg>
