<?xml version="1.0" encoding="UTF-8"?>
<svg xmlns="http://www.w3.org/2000/svg" width="500" height="300" viewBox="0 0 500 300" fill="none">
  <path d="M117.152 120H119.583C124.933 120.162 130.444 121.297 135.145 124.215C139.036 126.646 141.954 130.213 143.575 134.427C144.709 137.183 145.358 140.263 145.52 143.181H128.013C127.85 140.749 127.04 138.156 125.095 136.535C123.149 134.752 120.394 134.265 117.8 134.427C115.53 134.427 113.261 135.238 111.64 136.859C109.695 138.804 108.722 141.398 108.236 143.992C107.587 147.072 107.587 150.314 107.912 153.394C108.236 156.474 108.884 159.716 110.829 162.147C112.288 164.093 114.396 165.227 116.827 165.552C119.259 165.876 121.853 165.714 124.122 164.579C125.905 163.606 127.202 161.985 127.85 160.202C128.337 159.067 128.499 157.77 128.661 156.474H146.006C145.682 161.499 144.223 166.524 141.305 170.577C138.549 174.305 134.659 176.899 130.282 178.52C127.04 179.655 123.474 180.141 120.069 180.303H117.314C112.613 180.141 107.912 179.168 103.697 177.061C99.4821 174.954 96.0779 171.712 93.6463 167.659C90.7284 162.796 89.4316 156.96 89.2695 151.448C88.9453 145.288 89.9179 139.291 92.6737 134.103C94.781 129.888 98.0231 126.322 102.076 124.053C106.615 121.297 111.802 120 117.152 120Z" fill="white"></path>
  <path d="M219.116 120H221.709C226.897 120.162 232.246 121.135 236.623 124.053C238.892 125.512 240.838 127.457 242.135 129.726C243.593 132.32 244.404 135.076 244.728 137.994H227.383C227.221 136.697 226.572 135.562 225.762 134.752C224.627 133.617 222.844 133.293 221.223 133.131C219.764 132.968 218.143 133.131 216.684 133.455C215.711 133.779 214.739 134.427 214.415 135.562C214.09 136.535 214.09 137.832 214.739 138.642C215.225 139.453 216.198 139.939 217.17 140.263C218.791 140.912 220.412 141.236 222.033 141.722C225.438 142.695 228.842 143.343 232.246 144.316C234.516 144.964 236.623 145.775 238.568 146.909C240.676 148.206 242.621 149.989 244.08 152.097C245.539 154.204 246.187 156.798 246.349 159.392C246.511 162.472 246.025 165.714 244.728 168.632C243.756 170.901 242.135 173.008 240.189 174.629C236.461 177.547 231.922 179.006 227.221 179.655C225.438 179.817 223.817 179.979 222.033 179.979H219.44C215.225 179.817 211.01 179.168 207.12 177.385C203.391 175.764 199.987 172.846 198.042 169.28C196.583 166.686 195.772 163.606 195.448 160.688H213.28C213.604 161.985 214.09 163.444 215.063 164.417C215.873 165.227 216.846 165.876 217.981 166.038C219.44 166.362 221.061 166.524 222.52 166.362C223.979 166.2 225.6 166.038 226.897 165.227C227.707 164.741 228.356 163.768 228.518 162.796C228.68 161.823 228.518 160.688 227.707 159.878C227.059 159.067 225.924 158.743 224.951 158.419C223.168 157.933 221.547 157.446 219.764 156.96C216.522 156.149 213.442 155.339 210.2 154.204C207.93 153.394 205.661 152.745 203.553 151.448C201.284 149.989 199.339 148.044 198.042 145.613C196.745 143.019 196.259 139.939 196.259 137.021C196.421 134.265 197.069 131.672 198.366 129.24C199.663 126.971 201.608 125.025 203.878 123.566C208.417 120.973 213.766 120.162 219.116 120Z" fill="white"></path>
  <path d="M24.4274 122.432C25.8863 120.973 27.9937 120 30.2631 120C32.5326 120 34.8021 120.811 36.4231 122.432L46.3115 132.32L56.2 122.432C57.6589 120.973 59.9284 120 62.0357 120C64.3052 120 66.4126 120.811 68.0336 122.432L80.1915 134.589C81.8126 136.211 82.7852 138.642 82.6231 140.912C82.461 143.019 81.6505 144.964 80.1915 146.423C68.8442 157.608 57.6589 168.956 46.3115 180.141C34.9642 168.956 23.7789 157.608 12.4316 146.423C10.9726 144.964 10.1621 143.019 10 141.074V139.777C10.1621 137.832 10.9726 135.886 12.4316 134.427C16.4842 130.537 20.3747 126.484 24.4274 122.432Z" fill="white"></path>
  <path d="M141.791 121.459H160.433C163.676 133.779 166.756 145.937 169.998 158.257C173.402 145.937 176.806 133.779 180.21 121.459H198.204C191.882 140.425 185.398 159.392 178.913 178.358H160.596C154.598 159.554 148.276 140.587 141.791 121.459Z" fill="white"></path>
  <path d="M251.537 126.808V121.459H269.692V126.808H264.019V145.288H292.711V126.808H287.038V121.459H305.193V126.808H299.52V173.171H305.193V178.52H287.038V173.171H292.711V150.476H264.019V173.171H269.692V178.52H251.537V173.171H257.21V126.808H251.537Z" fill="white"></path>
  <path d="M400.511 121.459H412.345V168.956C412.507 170.091 412.669 171.549 413.318 172.522C413.966 173.333 414.939 173.657 415.911 173.657C417.046 173.657 418.019 173.657 419.153 173.333V178.52C417.208 179.168 415.101 179.168 413.155 178.844C411.534 178.52 409.751 177.872 408.616 176.737C407.32 175.602 406.671 173.819 406.347 172.198C405.861 170.091 406.023 167.821 406.023 165.714V126.646H400.673C400.511 125.025 400.511 123.242 400.511 121.459Z" fill="white"></path>
  <path d="M442.983 121.459H454.654V143.505C456.437 141.074 459.193 139.453 462.111 138.642C465.029 137.832 468.109 137.832 471.189 138.48C474.269 139.128 477.025 140.749 479.132 143.019C481.726 145.775 483.023 149.341 483.509 153.069C483.671 154.853 483.671 156.636 483.671 158.257V173.333H489.021V178.52H471.837V173.333H477.187V155.177C477.187 152.097 476.376 149.017 474.431 146.585C472.648 144.64 470.054 143.505 467.461 143.343C464.705 143.181 461.787 143.505 459.355 144.964C457.572 146.099 456.275 147.882 455.465 149.827C454.816 151.611 454.654 153.394 454.654 155.339V173.171H460.004V178.358H442.983V173.171H448.332V126.484H442.983V121.459Z" fill="white"></path>
  <path d="M424.989 129.078H431.473V139.129H439.416V144.316H431.473V168.47C431.473 169.766 431.635 171.063 432.284 172.198C432.932 173.008 433.905 173.495 434.878 173.495C436.336 173.657 437.957 173.495 439.416 173.333V178.52C437.309 179.168 435.202 179.168 433.094 178.844C430.987 178.52 428.88 177.872 427.421 176.251C425.313 174.143 424.989 170.901 424.989 167.983V144.154H418.829V138.966H424.989V129.078Z" fill="white"></path>
  <path d="M322.214 138.804C325.781 137.832 329.671 137.832 333.238 138.48C337.452 139.291 341.343 141.56 343.937 144.802C345.882 147.234 347.017 149.989 347.665 152.907C348.313 155.501 348.151 158.257 348.151 160.85H314.271C314.433 164.093 315.568 167.335 317.676 169.766C319.459 171.874 322.052 173.333 324.808 173.819C327.726 174.467 330.806 174.305 333.562 173.495C336.642 172.684 339.398 170.577 340.857 167.821H347.341C345.558 171.874 342.478 175.278 338.425 177.223C335.507 178.682 332.265 179.33 329.023 179.493C323.998 179.655 318.972 178.196 315.082 175.116C311.353 172.198 308.922 167.659 308.111 162.958C307.139 157.284 308.111 151.124 311.353 146.423C313.623 142.695 317.676 139.939 322.214 138.804ZM324.97 143.667C322.214 144.154 319.459 145.451 317.513 147.558C315.406 149.827 314.271 152.907 313.947 155.825H341.505C341.181 152.907 340.208 149.989 338.263 147.72C336.966 146.099 335.021 144.802 333.075 143.992C330.644 143.181 327.726 143.181 324.97 143.667Z" fill="white"></path>
  <path d="M363.227 140.263C367.442 137.994 372.467 137.507 377.168 138.642C380.896 139.615 384.301 141.884 386.732 144.964V139.128H398.404V144.316H393.054V173.333H398.404V178.52H386.732V172.684C384.301 175.926 380.734 178.196 376.682 179.168C371.332 180.465 365.334 179.33 360.958 176.088C357.067 173.17 354.311 168.794 353.339 164.093C352.204 159.067 352.69 153.718 354.96 149.179C356.581 145.288 359.499 142.208 363.227 140.263ZM371.494 143.505C367.766 143.829 364.2 145.937 362.092 149.179C359.336 153.232 358.688 158.419 359.661 163.12C360.471 167.01 362.903 170.739 366.631 172.684C371.008 174.954 376.682 174.792 380.572 171.874C382.68 170.415 384.139 168.469 385.273 166.038C386.894 162.147 387.219 157.608 386.084 153.556C385.111 149.827 382.518 146.261 378.951 144.478C376.682 143.667 374.088 143.181 371.494 143.505Z" fill="white"></path>
</svg>
