<?xml version="1.0" encoding="UTF-8"?>
<svg xmlns="http://www.w3.org/2000/svg" width="500" height="300" viewBox="0 0 500 300" fill="none">
  <path d="M428.155 131.725C425.543 130.746 424.237 127.889 425.135 125.277C426.115 122.665 428.972 121.359 431.584 122.257C426.115 120.298 420.075 123.073 418.116 128.542C416.157 134.011 418.932 140.051 424.401 142.01L475.987 160.783L431.584 176.944C426.115 178.903 420.075 176.128 418.116 170.659C416.157 165.191 418.932 159.151 424.401 157.192C416.075 160.212 411.831 169.353 414.851 177.679C417.871 186.005 427.013 190.249 435.338 187.229L483.822 169.598C488.72 167.803 491.168 162.415 489.454 157.6C488.475 154.906 486.353 152.947 483.822 151.968L428.155 131.725Z" fill="white"></path>
  <path d="M475.987 138.418L431.584 122.257C426.115 120.298 420.075 123.073 418.116 128.542C416.157 134.011 418.932 140.051 424.401 142.01C416.075 138.99 411.831 129.848 414.851 121.522C417.871 113.197 427.013 108.952 435.338 111.972L483.822 129.603C488.72 131.399 491.168 136.786 489.454 141.602C488.475 144.295 486.353 146.254 483.822 147.234L428.155 167.476C425.543 168.456 424.237 171.312 425.135 173.924C426.033 176.536 428.972 177.842 431.584 176.944C426.115 178.903 420.075 176.128 418.116 170.659C416.157 165.191 418.932 159.151 424.401 157.192L475.987 138.418Z" fill="white"></path>
  <path d="M79.7062 168.537H71.2174V164.619H70.9725C68.932 167.313 65.9119 169.598 60.7696 169.598C54.7295 169.598 46.5672 164.701 46.5672 152.947C46.5672 142.908 53.5052 136.541 61.4226 136.541C66.32 136.541 69.2584 138.99 70.9725 141.438H71.2174V137.439H79.7062V168.537ZM63.5448 161.926C67.7076 161.926 71.3806 158.253 71.3806 153.029C71.3806 147.56 68.0341 143.969 63.6264 143.969C58.1577 143.969 55.5457 148.458 55.5457 152.947C55.5457 157.518 58.0761 161.926 63.5448 161.926ZM96.9287 155.641L94.8881 157.6V168.456H86.0728V121.604H94.8881V147.887L104.765 137.357H115.457L102.969 150.172L117.335 168.537H106.723L96.9287 155.641ZM172.512 144.867C171.369 144.703 170.063 144.458 168.349 144.458C163.125 144.458 160.513 147.723 160.513 153.355V168.537H151.698V137.276H160.268V142.091H160.432C162.146 138.99 165.411 136.378 169.573 136.378C170.798 136.378 171.614 136.459 172.43 136.623V144.867H172.512ZM214.058 149.601H196.917V168.456H187.612V124.053H196.917V141.52H214.058V124.053H223.363V168.456H214.058V149.601ZM258.379 168.537H249.646V164.619H249.482C246.952 168.292 243.769 169.598 240.341 169.598C235.28 169.598 228.995 166.497 228.995 155.886V137.276H237.81V154.743C237.81 159.314 239.933 161.763 243.361 161.763C247.197 161.763 249.646 159.069 249.646 153.845V137.276H258.461V168.537H258.379ZM296.008 167.558C296.008 179.148 290.784 185.27 279.275 185.27C271.684 185.27 266.378 181.679 264.256 175.72L272.337 172.782C272.99 175.802 275.194 178.087 279.765 178.087C285.07 178.087 287.764 174.741 287.764 168.701V164.701H287.6C285.478 167.15 282.458 169.19 277.642 169.19C269.562 169.19 262.95 162.905 262.95 152.784C262.95 143.397 269.399 136.296 278.051 136.296C283.03 136.296 285.968 138.826 287.519 141.03H287.845V137.276H296.089V167.558H296.008ZM279.765 161.518C284.091 161.518 287.682 157.926 287.682 152.784C287.682 147.479 284.254 143.887 279.765 143.887C274.459 143.887 271.766 148.295 271.766 152.702C271.847 157.028 274.296 161.518 279.765 161.518ZM302.211 121.604H311.026V141.194H311.271C313.393 137.765 316.903 136.296 320.495 136.296C327.433 136.296 332.33 140.949 332.33 150.58V168.456H323.515V151.07C323.515 146.417 321.311 144.05 317.638 144.05C313.802 144.05 311.026 146.744 311.026 151.968V168.456H302.211V121.604ZM368.244 152.702C368.244 153.437 368.244 154.172 368.081 155.07H344.9C344.9 159.396 348.573 163.069 352.981 163.069C355.837 163.069 357.878 161.844 359.266 159.804L366.53 162.416C364.081 166.497 359.755 169.598 352.981 169.598C343.676 169.598 336.33 162.824 336.33 152.621C336.33 143.724 342.206 136.215 352.328 136.215C362.612 136.296 368.244 143.969 368.244 152.702ZM344.982 149.029H359.592C359.184 145.356 356.409 142.418 352.328 142.418C348.002 142.418 345.308 145.601 344.982 149.029ZM386.365 145.683C386.201 143.479 384.732 142.173 382.773 142.173C380.651 142.173 379.59 143.561 379.59 144.948C379.59 146.744 380.569 147.805 385.875 149.601C392.486 151.723 394.853 155.07 394.853 159.559C394.853 165.272 390.527 169.598 382.773 169.598C374.856 169.598 371.019 165.436 370.693 159.396H378.61C378.774 161.844 380.08 163.64 382.936 163.64C385.14 163.64 386.528 162.171 386.528 160.293C386.528 158.171 385.059 156.865 380.324 155.314C374.448 153.437 371.428 150.499 371.428 145.601C371.428 139.969 375.998 136.296 382.692 136.296C389.629 136.296 393.466 140.296 394.119 145.764H386.365V145.683ZM147.045 152.702C147.045 153.437 147.045 154.172 146.882 155.07H123.701C123.701 159.396 127.374 163.069 131.782 163.069C134.639 163.069 136.679 161.844 138.067 159.804L145.331 162.416C142.883 166.497 138.557 169.598 131.782 169.598C122.477 169.598 115.131 162.824 115.131 152.621C115.131 143.724 121.008 136.215 131.129 136.215C141.495 136.296 147.045 143.969 147.045 152.702ZM123.783 149.029H138.393C137.985 145.356 135.21 142.418 131.129 142.418C126.803 142.418 124.109 145.601 123.783 149.029ZM10 124.053H25.3452C34.5686 124.053 40.6903 127.726 40.6903 135.235C40.6903 140.214 37.0989 143.479 32.7729 144.54V144.703C39.5476 145.601 43.0574 150.417 43.0574 155.722C43.0574 163.966 36.4459 168.456 27.549 168.456H10V124.053ZM24.937 131.072H18.8153V141.847H25.2635C29.5896 141.847 31.5485 139.724 31.5485 136.215C31.5485 132.868 29.0998 131.072 24.937 131.072ZM26.243 148.621H18.8153V161.436H26.6511C31.222 161.436 33.6707 158.987 33.6707 154.906C33.6707 151.233 31.0588 148.621 26.243 148.621Z" fill="white"></path>
</svg>
