<?xml version="1.0" encoding="UTF-8"?>
<svg xmlns="http://www.w3.org/2000/svg" width="500" height="300" viewBox="0 0 500 300" fill="none">
  <path d="M253.125 103.469C253.125 103.469 238.99 138.253 237.969 140.406C237.43 141.484 236.941 142.111 235.438 143.188H242.875C241.425 142.507 241.141 141.702 241.625 140.344C241.733 139.72 243.013 136.384 244.625 132.531H257.812C259.317 136.384 260.713 139.84 260.875 140.406C261.25 141.596 260.99 142.394 259.594 143.188H271.094C269.319 142.224 268.944 141.596 268.406 140.406C267.439 138.253 253.125 103.469 253.125 103.469ZM395.688 103.469C395.688 103.469 381.521 138.253 380.5 140.406C379.961 141.484 379.505 142.111 378 143.188H385.406C383.954 142.507 383.671 141.702 384.156 140.344C384.264 139.72 385.575 136.384 387.188 132.531H400.344C401.849 136.384 403.243 139.84 403.406 140.406C403.78 141.596 403.521 142.394 402.125 143.188H413.625C411.85 142.224 411.476 141.596 410.938 140.406C409.97 138.253 395.688 103.469 395.688 103.469ZM115.531 104.031C101.877 104.031 94.9062 114.116 94.9062 124.031C94.9062 136.1 104.316 143.75 114.906 143.75C119.314 143.75 124.099 142.787 128.562 140.125C128.562 140.125 129.138 131.744 129.031 131.969C125.484 139.731 119.401 140.625 116.875 140.625C105.8 140.625 102.094 131.075 102.094 123.312C102.094 114.191 107.307 107.094 116.5 107.094C119.08 107.094 125.376 107.875 128.656 115.75C128.764 115.976 128.156 106.969 128.156 106.969C123.963 104.929 119.939 104.031 115.531 104.031ZM216.531 104.031C202.771 104.031 195.719 114.116 195.719 124.031C195.719 136.1 205.177 143.75 215.875 143.75C220.175 143.75 227.827 142.287 232.344 139.625C232.075 139.455 231.469 138.413 231.469 137.281V128.906C231.469 127.602 232.069 126.821 232.875 126.312H223.25C224.11 126.821 224.656 127.602 224.656 128.906V138.781C222.13 140.538 218.94 140.625 217.812 140.625C206.685 140.625 203.031 131.075 203.031 123.312C203.031 114.191 208.3 107.094 217.438 107.094C219.964 107.094 226.79 108.295 229.531 116L229.156 106.969C224.91 105.043 220.94 104.031 216.531 104.031ZM338.844 104.031C333.955 104.031 327.156 107.108 327.156 114.812C327.156 119.119 329.305 122.174 334.25 125.062C339.144 127.839 343.812 128.56 343.812 134C343.812 136.775 342.195 140.812 336.875 140.812C331.284 140.812 328.053 135.49 327.031 131.469L327.312 141.031C329.195 141.995 332.735 143.75 337.625 143.75C344.241 143.75 350.156 138.925 350.156 131.844C350.156 123.968 344.935 122.118 339.938 119.625C334.883 117.189 332.562 115.864 332.562 112.406C332.562 109.97 334.196 106.969 338.281 106.969C343.44 106.969 346.501 111.53 347.25 114.531L346.969 106.125C344.23 104.425 340.671 104.031 338.844 104.031ZM29.3125 104.656C30.1737 105.109 31.0312 106.144 31.0312 107.219V140.625C31.0312 141.871 30.4638 142.678 29.6562 143.188H35.625C34.7113 142.678 34.125 141.871 34.125 140.625V113.031V111.5L34.5 113.031L47.5 143.969L60.4062 112.125L60.875 110.844C60.875 110.844 60.7813 111.445 60.7813 112.125V140.625C60.7813 141.871 60.2363 142.678 59.3751 143.188H69.0001C68.1401 142.678 67.5938 141.871 67.5938 140.625V107.219C67.5938 105.916 68.1401 105.109 69.0001 104.656H59.9063L49.5313 130.656L38.7813 104.656H29.3125ZM77.6875 104.656C78.5475 105.109 79.0938 105.916 79.0938 107.219V140.625C79.0938 141.871 78.5475 142.678 77.6875 143.188H87.4375C86.5238 142.678 86.0312 141.871 86.0312 140.625V107.219C86.0312 105.916 86.5238 105.109 87.4375 104.656H77.6875ZM136.5 104.656C137.36 105.109 137.906 105.916 137.906 107.219V140.625C137.906 141.871 137.36 142.678 136.5 143.188H146.219C145.305 142.678 144.844 141.871 144.844 140.625V123.312H161.562V140.625C161.562 141.871 161.017 142.678 160.156 143.188H169.875C168.962 142.678 168.375 141.871 168.375 140.625V107.219C168.375 105.916 168.962 105.109 169.875 104.656H160.156C161.017 105.109 161.562 105.916 161.562 107.219V120.531H144.844V107.219C144.844 105.916 145.305 105.109 146.219 104.656H136.5ZM178.531 104.656C179.392 105.109 179.938 105.916 179.938 107.219V140.625C179.938 141.871 179.392 142.678 178.531 143.188H188.25C187.336 142.678 186.875 141.871 186.875 140.625V107.219C186.875 105.916 187.336 105.109 188.25 104.656H178.531ZM272.438 104.656C273.567 105.336 274.306 106.132 274.844 106.812C275.866 108.116 275.812 108.165 275.812 110.375V140.625C275.812 141.871 275.214 142.678 274.406 143.188H280.375C279.46 142.678 278.875 141.871 278.875 140.625V112.25C278.875 112.704 304.688 144.781 304.688 144.781V107.219C304.688 105.916 305.257 105.109 306.062 104.656H300.125C300.984 105.109 301.5 105.916 301.5 107.219V129.594L281.688 104.656H272.438ZM353.469 104.656V110.156C353.95 109.194 354.866 107.875 356.156 107.875C356.156 107.875 360.804 107.5 364.781 107.5V140.625C364.781 141.871 364.234 142.678 363.375 143.188H373C372.192 142.678 371.594 141.871 371.594 140.625V107.5C375.517 107.5 380.406 107.875 380.406 107.875C381.696 107.987 382.452 109.194 382.938 110.156V104.656H353.469ZM409.531 104.656V110.156C410.015 109.194 410.929 107.875 412.219 107.875C412.219 107.875 416.866 107.5 420.844 107.5V140.625C420.844 141.871 420.298 142.678 419.438 143.188H429.062C428.256 142.678 427.656 141.871 427.656 140.625V107.5C431.579 107.5 436.469 107.875 436.469 107.875C437.759 107.987 438.519 109.194 439 110.156V104.656H409.531ZM444.812 104.656C445.671 105.109 446.406 105.916 446.406 107.219V140.625C446.406 141.984 445.726 142.621 444.812 143.188H467.906L469.031 136.656C467.043 140.225 464.896 140.136 460.219 140.25C457.585 140.364 454.325 140.139 453.25 139.969V123.312H461.375C462.126 123.312 463.011 124.144 463.281 124.938V118.938C463.011 119.616 462.126 120.531 461.375 120.531H453.25V107.5C453.25 107.5 460.763 107.483 462.375 107.594C464.421 107.709 465.543 108.182 466.562 109.656L466.406 104.656L444.812 104.656ZM251.094 115.719C251.094 115.719 254.035 123.305 256.562 129.594H245.719C247.439 125.344 251.094 115.719 251.094 115.719ZM393.625 115.719C393.625 115.719 396.6 123.305 399.125 129.594H388.25C389.971 125.344 393.625 115.719 393.625 115.719ZM29.2188 153.188V156.156H469.969V153.188H29.2188ZM326.312 168.188C322.791 168.188 317.875 170.39 317.875 175.938C317.875 179.041 319.44 181.234 323 183.312C326.525 185.312 329.875 185.864 329.875 189.781C329.875 191.78 328.707 194.656 324.875 194.656C320.851 194.656 318.545 190.836 317.812 187.938L318 194.812C319.355 195.506 321.912 196.781 325.438 196.781C330.196 196.781 334.438 193.319 334.438 188.219C334.438 182.551 330.691 181.201 327.094 179.406C323.453 177.65 321.781 176.705 321.781 174.219C321.781 172.464 322.966 170.312 325.906 170.312C329.622 170.312 331.804 173.586 332.344 175.75L332.156 169.688C330.184 168.464 327.629 168.188 326.312 168.188ZM29.8438 168.625C30.4638 168.954 31.0938 169.53 31.0938 170.469V187.438C31.0938 194.659 36.8475 196.781 41.375 196.781C46.6375 196.781 50.5625 194.09 50.5625 187.156L50.6562 170.469C50.6562 169.53 51.1074 168.954 51.6874 168.625H47.1874C47.7687 168.954 48.2187 169.53 48.2187 170.469L48.3124 187.25C48.3124 191.286 46.6349 194.469 42.0312 194.469C36.9999 194.469 36.0937 190.416 36.0937 187.562V170.469C36.0937 169.53 36.6612 168.954 37.2812 168.625H29.8438ZM80.5312 168.625C81.3438 169.116 81.8938 169.699 82.2812 170.188C83.015 171.126 82.9688 171.158 82.9688 172.75V194.531C82.9688 195.429 82.5487 196.009 81.9688 196.375H86.2812C85.6237 196.009 85.1875 195.429 85.1875 194.531V174.094C85.1875 174.423 103.75 197.531 103.75 197.531V170.469C103.75 169.53 104.2 168.954 104.781 168.625H100.469C101.089 168.954 101.469 169.53 101.469 170.469V186.594L87.1875 168.625H80.5312ZM135.562 168.625C136.181 168.954 136.562 169.531 136.562 170.469V194.531C136.562 195.429 136.181 196.009 135.562 196.375H142.562C141.904 196.009 141.562 195.429 141.562 194.531V170.469C141.562 169.531 141.904 168.954 142.562 168.625H135.562ZM169.281 168.625C170.444 169.116 170.912 169.776 171.375 170.594C172.111 172.101 182.219 197.25 182.219 197.25C182.219 197.25 191.529 172.184 192.188 170.594C192.575 169.615 192.65 169.322 193.656 168.625H188.938C189.944 169.035 190.099 169.628 189.75 170.688C189.711 170.974 183.562 188.031 183.562 188.031C183.562 188.031 177.11 171.24 177.031 170.875C176.76 169.895 176.836 169.035 177.844 168.625H169.281ZM221.062 168.625C221.681 168.954 222.219 169.53 222.219 170.469V194.531C222.219 195.512 221.72 195.966 221.062 196.375H237.688L238.5 191.688C237.067 194.257 235.523 194.167 232.156 194.25C230.26 194.334 227.899 194.184 227.125 194.062V182.062H232.969C233.511 182.062 234.181 182.68 234.375 183.25V178.906C234.181 179.395 233.511 180.062 232.969 180.062H227.125V170.688C227.125 170.688 232.558 170.669 233.719 170.75C235.189 170.831 235.984 171.156 236.719 172.219L236.625 168.625H221.062ZM267.5 168.625C268.119 168.954 268.5 169.53 268.5 170.469V194.531C268.5 195.429 268.119 196.009 267.5 196.375H274.5C273.841 196.009 273.406 195.429 273.406 194.531V183.406C273.406 183.406 274.661 183.313 275.125 183.313C276.79 183.313 277.681 185.085 278.688 186.719C280.082 189.003 281.793 191.961 283.531 194.531C284.229 195.511 285.5 196.469 286.969 196.469L292 196.375C292 196.375 290.264 195.728 289.531 194.75C288.175 193.118 283.531 185.375 283.531 185.375C282.951 184.474 281.789 182.598 279.156 182.313C281.902 182.108 285.688 179.904 285.688 175.5C285.688 172.766 283.854 168.625 275.844 168.625L267.5 168.625ZM364.656 168.625C365.274 168.954 365.688 169.531 365.688 170.469V194.531C365.688 195.429 365.274 196.009 364.656 196.375H371.688C371.03 196.009 370.656 195.429 370.656 194.531V170.469C370.656 169.531 371.03 168.954 371.688 168.625H364.656ZM400.656 168.625V172.594C401.004 171.904 401.665 170.969 402.594 170.969C402.594 170.969 405.918 170.688 408.781 170.688V194.531C408.781 195.429 408.401 196.009 407.781 196.375H414.719C414.139 196.009 413.688 195.429 413.688 194.531V170.688C416.511 170.688 420.062 170.969 420.062 170.969C420.99 171.05 421.525 171.904 421.875 172.594V168.625H400.656ZM447.375 168.625C448.42 169.199 448.83 169.615 449.375 170.594L456.969 183.688V194.531C456.969 195.511 456.238 196.009 455.656 196.375H463.375C462.754 196.009 462.031 195.429 462.031 194.531V183.531L468.219 171.125C468.683 170.188 469.579 169.035 470.781 168.625H465.25C466.332 168.914 466.604 169.789 466.062 170.688L460.938 181.188L455.5 171.156C454.494 169.239 455.158 169.035 456.125 168.625H447.375ZM275.656 170.594C279.486 170.594 280.562 173.874 280.562 175.75C280.562 179.871 277.789 181.406 275.156 181.406C274.499 181.406 273.406 181.313 273.406 181.313V170.688C273.406 170.688 274.494 170.594 275.656 170.594Z" fill="white"></path>
</svg>
