<?xml version="1.0" encoding="UTF-8"?>
<svg xmlns="http://www.w3.org/2000/svg" width="500" height="300" viewBox="0 0 500 300" fill="none">
  <path d="M113.986 130.424C112.08 130.424 110.734 128.966 110.734 127.172C110.734 125.378 112.192 123.92 113.986 123.92H124.862C126.769 123.92 128.114 125.378 128.114 127.172V132.33C135.627 125.266 142.243 121.902 149.307 121.902C156.371 121.005 162.538 125.715 164.444 132.779C170.163 126.163 178.124 122.351 187.095 121.902C200.775 121.902 202.681 131.77 202.681 137.937V171.912H208.4C210.306 171.912 211.651 173.37 211.651 175.164C211.651 177.07 210.194 178.416 208.4 178.416H187.207C185.301 178.416 183.955 176.958 183.955 175.164C183.955 173.258 185.413 171.912 187.207 171.912H193.374V138.497C193.823 134.236 191.019 129.976 186.31 129.527H184.404C177.339 130.424 170.275 133.788 165.566 138.946V172.024H171.284C173.191 172.024 174.536 173.482 174.536 175.276C174.536 177.182 173.078 178.528 171.284 178.528H149.531C147.625 178.528 146.279 177.07 146.279 175.276C146.279 173.37 147.737 172.024 149.531 172.024H155.698V138.497C156.147 134.236 152.895 129.976 148.634 129.527H146.616C139.551 129.976 132.487 133.788 127.778 138.946V172.024H134.393C136.3 172.024 137.645 173.482 137.645 175.276C137.645 177.182 136.188 178.528 134.393 178.528H83.3741C81.4679 178.528 80.1223 177.07 80.1223 175.276C80.1223 173.37 81.58 172.024 83.3741 172.024H90.8868L83.8226 147.468H57.3598L50.2956 172.024H57.8084C59.7146 172.024 61.0601 173.482 61.0601 175.276C61.0601 178.08 59.6024 179.537 57.8084 179.537H33.2518C31.3456 179.537 30 178.08 30 176.285C30 174.491 31.4577 173.034 33.2518 173.034H40.316L60.7237 106.877H51.3048C49.3986 106.877 48.053 105.419 48.053 103.625C48.053 101.831 49.5107 100.373 51.3048 100.373H75.8614C77.7676 100.373 79.6738 101.831 80.1223 103.625L101.315 172.585H119.256V129.976L113.986 130.424ZM72.4975 106.877H69.2457L59.8267 140.404H82.0285C81.9164 140.404 72.4975 106.877 72.4975 106.877ZM233.965 132.33C238.226 125.715 245.291 121.902 252.803 121.902C267.492 121.902 277.808 133.227 277.808 150.72C277.808 168.212 268.389 179.986 252.803 179.986C245.291 180.434 238.114 176.734 234.414 170.567V197.03H242.487C244.393 197.03 245.739 198.487 245.739 200.281C245.739 202.188 244.281 203.533 242.487 203.533H218.828C216.921 203.533 215.576 202.075 215.576 200.281C215.576 198.487 217.034 197.03 218.828 197.03H224.995V130.424H219.837C217.931 130.424 216.585 128.966 216.585 127.172C216.585 125.378 218.043 123.92 219.837 123.92H230.714C232.62 123.92 233.965 125.378 233.965 127.172V132.33ZM268.95 151.28C268.95 136.591 260.877 129.527 251.458 129.527C242.039 129.527 233.965 137.04 233.965 151.28C233.965 165.521 241.478 173.034 251.009 173.034C260.54 173.034 268.95 166.306 268.95 151.28ZM304.832 172.473H312.345C314.251 172.473 315.596 173.931 315.596 175.725C315.596 177.519 314.139 178.977 312.345 178.977H288.236C286.33 178.977 284.985 177.519 284.985 175.725C284.985 173.819 286.442 172.473 288.236 172.473H295.749V104.97H288.236C286.33 104.97 284.985 103.513 284.985 102.167V101.719C284.985 99.8124 286.442 98.4669 288.236 98.4669H301.468C303.374 98.4669 304.72 99.9246 304.72 101.719V172.473H304.832ZM341.162 172.473H348.675C350.581 172.473 351.927 173.931 351.927 175.725C351.927 177.519 350.469 178.977 348.675 178.977H324.567C322.661 178.977 321.315 177.519 321.315 175.725C321.315 173.819 322.773 172.473 324.567 172.473H332.079V129.976H324.567C322.661 129.976 321.315 128.518 321.315 126.724C321.315 124.818 322.773 122.911 324.567 122.911H337.798C339.704 122.911 341.05 124.369 341.05 126.163V172.473H341.162ZM335.892 99.2518C340.153 99.2518 343.405 102.504 343.405 106.765C343.405 111.025 340.153 114.277 335.892 114.277C331.631 114.277 328.379 111.025 328.379 106.765C328.379 102.504 331.743 99.2518 335.892 99.2518ZM451.162 123.36C453.068 123.36 454.414 124.818 454.414 126.612C454.414 128.518 452.956 129.863 451.162 129.863H446.901L426.606 179.425C420.438 193.554 415.729 204.879 400.143 204.879C397.339 204.879 394.985 204.43 392.069 203.982C389.715 203.533 388.257 201.627 388.818 199.272C389.378 196.917 391.172 195.46 393.527 196.02C395.433 196.469 397.788 196.917 399.694 196.917C403.955 196.917 407.768 195.46 410.571 192.208C412.926 189.405 414.832 186.041 416.289 182.34L417.187 179.537L397.339 130.424H377.941V172.922H386.463C388.369 172.922 389.715 174.379 389.715 176.173C389.715 178.08 388.257 179.425 386.463 179.425H361.009C359.103 179.425 357.757 177.967 357.757 176.173C357.757 174.379 359.215 172.922 361.009 172.922H368.522V130.424H361.009C359.103 130.424 357.757 128.966 357.757 127.172C357.757 125.266 359.215 123.92 361.009 123.92H368.522V115.399C367.625 105.531 375.138 96.5607 385.566 96H388.369C392.63 96 396.442 96.4485 400.591 97.9062C402.946 98.3547 403.843 100.709 403.394 102.616C402.946 104.522 400.591 105.867 398.685 105.419C398.236 105.419 398.236 105.419 397.788 104.97C394.985 104.522 392.069 104.073 388.818 104.073C380.744 104.073 377.941 109.231 377.941 116.296V123.36H412.926C414.832 123.36 416.177 124.818 416.177 126.612C416.177 128.518 414.72 129.863 412.926 129.863H406.758L422.345 169.558L438.379 129.863H431.763C429.857 129.863 428.512 128.406 428.512 126.612C428.512 124.705 429.969 123.36 431.763 123.36H451.162ZM461.478 163.054C466.188 163.054 470 166.866 470 171.576C470 176.285 466.188 180.546 461.478 180.546C456.769 180.546 452.956 176.734 452.956 172.024C452.956 167.315 456.769 163.503 461.478 163.054Z" fill="white"></path>
</svg>
