<?xml version="1.0" encoding="UTF-8"?>
<svg xmlns="http://www.w3.org/2000/svg" width="500" height="300" viewBox="0 0 500 300" fill="none">
  <g clip-path="url(#clip0_135_387)">
    <path d="M290.16 96.8466L280.551 124.572C279.79 126.773 277.715 128.255 275.387 128.255H238.222C235.894 128.255 233.82 126.773 233.058 124.572L223.45 96.8466C223.28 96.3386 222.815 96 222.264 96H217.777C216.931 96 216.338 96.8466 216.592 97.6508L228.868 133.08C229.249 134.181 230.265 134.9 231.45 134.9H282.118C283.26 134.9 284.318 134.181 284.699 133.08L296.975 97.6508C297.271 96.8466 296.636 96 295.79 96H291.345C290.837 96 290.372 96.3386 290.16 96.8466Z" fill="white"></path>
    <path d="M239.704 124.953H273.906C275.726 124.953 277.335 123.81 277.97 122.075L286.435 97.6508C286.732 96.8466 286.097 96 285.25 96H280.806C280.255 96 279.79 96.3386 279.621 96.8466L273.44 114.625C272.678 116.826 270.604 118.307 268.276 118.307H245.334C243.006 118.307 240.932 116.826 240.17 114.625L234.032 96.8466C233.863 96.3386 233.397 96 232.847 96H228.36C227.513 96 226.921 96.8466 227.175 97.6508L235.641 122.075C236.275 123.81 237.884 124.953 239.704 124.953Z" fill="white"></path>
    <path d="M246.9 114.921H266.752C268.573 114.921 270.181 113.778 270.816 112.043L275.811 97.6508C276.107 96.8466 275.472 96 274.625 96H270.181C269.631 96 269.165 96.3386 268.996 96.8466L266.244 104.847C265.525 106.879 263.62 108.233 261.461 108.233H252.233C250.075 108.233 248.17 106.879 247.45 104.847L244.657 96.8466C244.487 96.3386 244.022 96 243.471 96H239.027C238.18 96 237.588 96.8466 237.842 97.6508L242.836 112.043C243.429 113.778 245.037 114.921 246.9 114.921Z" fill="white"></path>
    <path d="M267.345 174.062H258.075V203.142H267.345V174.062Z" fill="white"></path>
    <path d="M254.095 183.459C254.095 175.459 247.619 173.385 240.889 173.385C237.672 173.385 234.412 174.527 231.873 175.924C229.376 177.406 227.64 179.776 227.471 183.501H236.148C236.571 181.088 238.222 179.945 240.762 179.945C242.667 179.945 245.249 180.75 245.249 182.909C245.249 184.644 244.36 184.517 242.794 184.813C236.36 186.126 226.328 186.126 226.328 195.311C226.328 201.152 230.561 203.861 235.979 203.861C239.365 203.861 242.921 202.888 245.291 200.39C245.418 201.322 245.503 202.211 245.841 203.057H255.154C254.053 200.814 254.053 198.189 254.053 195.819V183.459H254.095ZM239.492 197.3C237.418 197.3 235.64 196.962 235.64 194.676C235.64 192.433 237.376 191.882 239.45 191.374C241.481 190.824 243.259 190.358 244.571 189.554C244.783 195.396 243.894 197.3 239.492 197.3Z" fill="white"></path>
    <path d="M289.356 173.512C285.969 173.512 282.159 174.527 280.466 177.406H280.339V174.316H271.366V203.1H280.636V187.692C280.636 184.602 282.16 181.639 285.631 181.639C290.71 181.639 290.244 185.575 290.244 189.427V203.1H299.515V184.94C299.515 180.877 298.753 173.512 289.356 173.512Z" fill="white"></path>
    <path d="M318.012 172.792C309.673 172.877 302.731 178.887 302.731 187.565C302.731 197.046 308.785 203.904 318.012 203.904C324.319 203.904 330.753 199.713 332.446 193.152H322.965C322.076 195.226 320.256 196.581 318.012 196.581C315.049 196.581 313.229 194.591 312.679 191.205H332.997C334.859 180.453 328.214 172.665 318.012 172.792ZM312.594 185.152C313.144 181.723 314.838 179.353 318.097 179.353C321.187 179.353 323.261 182.062 323.557 185.152H312.594Z" fill="white"></path>
    <path d="M267.345 164.241H258.075V171.31H267.345V164.241Z" fill="white"></path>
    <path d="M219.047 167.331H209.777V174.781H205.078V180.792H209.777V193.872C209.777 201.576 211.809 203.861 219.682 203.861C221.375 203.861 223.068 203.65 224.761 203.607V196.792C223.957 196.792 223.111 196.919 222.349 196.919C220.317 196.919 219.005 196.411 219.005 194.21V180.792H224.719V174.824H219.005V167.331L219.047 167.331Z" fill="white"></path>
    <path d="M193.903 173.512C190.518 173.512 186.708 174.527 185.014 177.406H184.887V174.316H175.871V203.1H185.141V187.692C185.141 184.602 186.665 181.639 190.137 181.639C195.216 181.639 194.75 185.575 194.75 189.427V203.1H204.02V184.94C204.105 180.877 203.343 173.512 193.903 173.512Z" fill="white"></path>
    <path d="M80.5891 172.792C72.2501 172.877 65.3085 178.887 65.3085 187.565C65.3085 197.046 71.3612 203.904 80.5891 203.904C86.8963 203.904 93.3726 199.713 95.0234 193.152H85.5416C84.6526 195.226 82.8327 196.581 80.5891 196.581C77.6262 196.581 75.8057 194.591 75.2556 191.205H95.5735C97.3935 180.453 90.748 172.665 80.5891 172.792ZM75.1286 185.152C75.6787 181.723 77.3722 179.353 80.6312 179.353C83.7216 179.353 85.7955 182.062 86.0917 185.152H75.1286Z" fill="white"></path>
    <path d="M51.89 172.496C48.5035 172.496 44.6939 174.019 43.2549 176.898H43.1279V164.199H36.3554H33.2229H3V172.919H14.598V203.142H24.7569V172.877H33.2229V203.099H43.17V187.692C43.17 184.602 44.1016 180.242 47.5724 180.242C52.6519 180.242 52.1861 185.575 52.1861 189.427V203.099H62.0489V184.94C62.091 180.877 61.3292 172.496 51.89 172.496Z" fill="white"></path>
    <path d="M157.839 172.834C149.077 172.834 142.94 179.311 142.94 187.819C142.94 196.327 149.035 204.031 157.839 204.031C166.601 204.031 172.781 196.708 172.781 188.2C172.781 179.734 166.601 172.834 157.839 172.834ZM157.839 195.777C153.522 195.777 152.21 191.925 152.21 188.327C152.21 184.729 153.522 180.919 157.839 180.919C162.157 180.919 163.511 184.729 163.511 188.327C163.511 191.925 162.157 195.777 157.839 195.777Z" fill="white"></path>
    <path d="M123.299 195.184C118.389 195.184 114.749 189.427 114.749 183.628C114.749 177.829 117.246 171.395 123.807 171.395C128.04 171.395 129.818 172.877 130.368 176.813H139.807C139.511 167.416 132.4 162.167 124.019 162.167C112.209 162.167 104.59 171.776 104.59 183.036C104.59 194.337 112.209 203.904 124.019 203.904C133.881 203.904 140.4 195.777 140.4 187.988H130.241C129.86 192.475 128.04 195.184 123.299 195.184Z" fill="white"></path>
    <path d="M430.86 172.834C422.097 172.834 415.961 179.311 415.961 187.819C415.961 196.327 422.057 204.031 430.86 204.031C439.622 204.031 445.803 196.708 445.803 188.2C445.803 179.734 439.622 172.834 430.86 172.834ZM430.86 195.777C426.542 195.777 425.231 191.925 425.231 188.327C425.231 184.729 426.542 180.919 430.86 180.919C435.177 180.919 436.533 184.729 436.533 188.327C436.533 191.925 435.177 195.777 430.86 195.777Z" fill="white"></path>
    <path d="M482.716 172.792C474.376 172.877 467.432 178.887 467.432 187.565C467.432 197.046 473.487 203.904 482.716 203.904C489.02 203.904 495.496 199.713 497.147 193.152H487.669C486.78 195.226 484.956 196.581 482.716 196.581C479.75 196.581 477.931 194.591 477.383 191.205H497.701C499.519 180.453 492.875 172.665 482.716 172.792ZM477.256 185.152C477.804 181.723 479.496 179.353 482.757 179.353C485.845 179.353 487.923 182.062 488.217 185.152H477.256Z" fill="white"></path>
    <path d="M345.568 178.379H345.441V174.316H336.426V203.1H345.695V188.877C345.695 185.787 347.346 184.644 350.563 182.655C354.288 182.147 354.415 182.401 354.415 182.401V173.512C351.071 173.512 347.262 175.501 345.568 178.379Z" fill="white"></path>
    <path d="M458.162 178.379H458.035V174.316H449.019V203.1H458.289V188.877C458.289 185.787 459.94 184.644 463.16 182.655C466.883 182.147 467.01 182.401 467.01 182.401V173.512C463.668 173.512 459.858 175.501 458.162 178.379Z" fill="white"></path>
    <path d="M409.443 167.331H400.173V174.781H396.109C395.432 166.739 388.193 162.464 380.786 162.464C373.463 162.464 365.125 166.697 365.125 175.205C365.125 182.358 371.262 185.533 376.807 187.141C382.437 188.708 387.474 188.665 387.474 192.136C387.474 195.015 384.807 196.115 381.76 196.115C377.442 196.115 374.606 194.634 374.395 190.062H364.236C364.278 200.052 372.193 203.946 381.125 203.946C389.675 203.946 397.675 200.771 397.675 190.909C397.675 183.882 392.384 181.258 386.797 179.691C381.125 178.125 374.522 177.575 374.522 174.57C374.522 171.988 378.246 170.633 380.405 170.633C383.495 170.633 386.839 172.369 386.67 175.924H395.432V180.792H400.13V193.872C400.13 201.576 402.162 203.861 410.034 203.861C411.73 203.861 413.422 203.65 415.113 203.607V196.792C414.311 196.792 413.462 196.919 412.7 196.919C410.669 196.919 409.358 196.411 409.358 194.21V180.792H415.073V174.824H409.358V167.331L409.443 167.331Z" fill="white"></path>
  </g>
  <defs>
    <clipPath id="clip0_135_387">
      <rect width="495" height="108.031" fill="white" transform="translate(3 96)"></rect>
    </clipPath>
  </defs>
</svg>
