<svg width="235" height="65" viewBox="0 0 235 65" fill="none" xmlns="http://www.w3.org/2000/svg">
<g clip-path="url(#clip0_178_686)">
<path d="M22.8152 20.579C22.8152 21.8156 21.8129 22.818 20.5766 22.818C19.3402 22.818 18.3377 21.8156 18.3377 20.579C18.3377 19.3424 19.3402 18.34 20.5766 18.34C21.8129 18.34 22.8152 19.3424 22.8152 20.579ZM22.1784 24.9231C21.2876 24.9231 20.5657 25.6452 20.5657 26.536C20.5657 27.4268 21.2876 28.1489 22.1784 28.1489C23.069 28.1489 23.791 27.4268 23.791 26.536C23.791 25.6452 23.069 24.9231 22.1784 24.9231ZM20.5797 34.1071C21.4672 34.1071 22.1868 33.3875 22.1868 32.4998C22.1868 31.6122 21.4672 30.8927 20.5797 30.8927C19.6922 30.8927 18.9728 31.6122 18.9728 32.4998C18.9728 33.3875 19.6922 34.1071 20.5797 34.1071ZM26.7796 25.7126C26.1884 25.7126 25.7089 26.192 25.7089 26.7834C25.7089 27.3748 26.1884 27.8543 26.7796 27.8543C27.371 27.8543 27.8505 27.3748 27.8505 26.7834C27.8505 26.192 27.371 25.7126 26.7796 25.7126ZM23.6088 30.4099C23.6088 31.0056 24.0917 31.4885 24.6872 31.4885C25.2829 31.4885 25.7658 31.0056 25.7658 30.4099C25.7658 29.8143 25.2829 29.3314 24.6872 29.3314C24.0917 29.3314 23.6088 29.8143 23.6088 30.4099ZM24.9234 22.1834C24.9234 23.0728 25.6443 23.7939 26.5337 23.7939C27.4231 23.7939 28.1442 23.0728 28.1442 22.1834C28.1442 21.2939 27.4231 20.5728 26.5337 20.5728C25.6443 20.5728 24.9234 21.2939 24.9234 22.1834ZM20.5778 46.6578C21.8139 46.6578 22.8159 45.6557 22.8159 44.4195C22.8159 43.1834 21.8139 42.1813 20.5778 42.1813C19.3419 42.1813 18.3399 43.1834 18.3399 44.4195C18.3399 45.6557 19.3419 46.6578 20.5778 46.6578ZM26.7796 37.1456C26.1882 37.1456 25.7086 37.6251 25.7086 38.2166C25.7086 38.8081 26.1882 39.2876 26.7796 39.2876C27.371 39.2876 27.8505 38.8081 27.8505 38.2166C27.8505 37.6251 27.371 37.1456 26.7796 37.1456ZM28.1319 51.0181C29.3635 51.0181 30.3619 50.0197 30.3619 48.788C30.3619 47.5563 29.3635 46.5579 28.1319 46.5579C26.9006 46.5579 25.9022 47.5563 25.9022 48.788C25.9022 50.0196 26.9006 51.0181 28.1319 51.0181ZM31.4835 40.3122C31.4835 39.7174 31.0014 39.2352 30.4066 39.2352C29.8118 39.2352 29.3299 39.7174 29.3299 40.3122C29.3299 40.9069 29.8118 41.3891 30.4066 41.3891C31.0014 41.3891 31.4835 40.9069 31.4835 40.3122ZM32.4978 46.0243C33.3857 46.0243 34.1056 45.3043 34.1056 44.416C34.1056 43.5279 33.3857 42.8079 32.4978 42.8079C31.6096 42.8079 30.8897 43.5279 30.8897 44.416C30.8897 45.3043 31.6096 46.0243 32.4978 46.0243ZM23.7939 38.4623C23.7939 37.5709 23.0714 36.8483 22.1801 36.8483C21.2887 36.8483 20.5662 37.5709 20.5662 38.4623C20.5662 39.3536 21.2887 40.0762 22.1801 40.0762C23.0714 40.0762 23.7939 39.3536 23.7939 38.4623ZM35.6633 40.3083C35.6633 39.7119 35.1799 39.2284 34.5835 39.2284C33.987 39.2284 33.5034 39.7119 33.5034 40.3083C33.5034 40.9049 33.987 41.3883 34.5835 41.3883C35.1799 41.3883 35.6633 40.9049 35.6633 40.3083ZM26.5332 44.4273C27.4229 44.4273 28.1439 43.7061 28.1439 42.8164C28.1439 41.9266 27.4229 41.2054 26.5332 41.2054C25.6436 41.2054 24.9222 41.9266 24.9222 42.8164C24.9222 43.7061 25.6436 44.4273 26.5332 44.4273ZM24.6867 35.6692C25.2827 35.6692 25.7655 35.1862 25.7655 34.5902C25.7655 33.9944 25.2827 33.5113 24.6867 33.5113C24.0909 33.5113 23.6078 33.9944 23.6078 34.5902C23.6078 35.1862 24.0909 35.6692 24.6867 35.6692ZM40.3048 29.3304C39.7088 29.3304 39.2259 29.8134 39.2259 30.4093C39.2259 31.0052 39.7088 31.4883 40.3048 31.4883C40.9005 31.4883 41.3836 31.0052 41.3836 30.4093C41.3836 29.8134 40.9005 29.3304 40.3048 29.3304ZM48.7764 30.3616C50.0061 30.3616 51.0028 29.3647 51.0028 28.135C51.0028 26.9053 50.0061 25.9084 48.7764 25.9084C47.547 25.9084 46.55 26.9053 46.55 28.135C46.55 29.3647 47.547 30.3616 48.7764 30.3616ZM38.2069 25.7139C37.6135 25.7139 37.1326 26.1949 37.1326 26.7883C37.1326 27.3817 37.6135 27.8628 38.2069 27.8628C38.8002 27.8628 39.2812 27.3817 39.2812 26.7883C39.2812 26.1949 38.8002 25.7139 38.2069 25.7139ZM28.1319 13.9815C26.9006 13.9815 25.9022 14.9799 25.9022 16.2116C25.9022 17.4433 26.9006 18.4417 28.1319 18.4417C29.3635 18.4417 30.3619 17.4432 30.3619 16.2116C30.3619 14.98 29.3635 13.9815 28.1319 13.9815ZM52.0932 24.1968C53.7558 24.1968 55.1036 22.8489 55.1036 21.1861C55.1036 19.5233 53.7558 18.1754 52.0932 18.1754C50.4306 18.1754 49.0828 19.5233 49.0828 21.1861C49.0828 22.8489 50.4306 24.1968 52.0932 24.1968ZM61.0523 28.7898C63.2271 28.7898 64.9903 27.0266 64.9903 24.8515C64.9903 22.6763 63.2271 20.913 61.0523 20.913C58.8773 20.913 57.1141 22.6763 57.1141 24.8515C57.1141 27.0266 58.8773 28.7898 61.0523 28.7898ZM52.1026 32.4996C52.1026 34.1666 53.4537 35.5179 55.1204 35.5179C56.7873 35.5179 58.1382 34.1666 58.1382 32.4996C58.1382 30.8327 56.7873 29.4815 55.1204 29.4815C53.4537 29.4815 52.1026 30.8327 52.1026 32.4996ZM42.8114 28.1473C43.7013 28.1473 44.4231 27.4256 44.4231 26.5354C44.4231 25.6452 43.7013 24.9236 42.8114 24.9236C41.921 24.9236 41.1995 25.6452 41.1995 26.5354C41.1995 27.4256 41.921 28.1473 42.8114 28.1473ZM32.4939 18.9758C31.6057 18.9758 30.8856 19.6958 30.8856 20.584C30.8856 21.4723 31.6057 22.1923 32.4939 22.1923C33.3819 22.1923 34.102 21.4723 34.102 20.584C34.102 19.6958 33.3819 18.9758 32.4939 18.9758ZM37.1326 38.2117C37.1326 38.805 37.6135 39.2861 38.2069 39.2861C38.8002 39.2861 39.2812 38.805 39.2812 38.2117C39.2812 37.6183 38.8002 37.1373 38.2069 37.1373C37.6135 37.1373 37.1326 37.6183 37.1326 38.2117ZM33.5029 24.6913C33.5029 25.2879 33.9865 25.7716 34.5832 25.7716C35.1799 25.7716 35.6635 25.2879 35.6635 24.6913C35.6635 24.0946 35.1799 23.611 34.5832 23.611C33.9865 23.611 33.5029 24.0946 33.5029 24.6913ZM29.3294 24.6878C29.3294 25.2827 29.8118 25.765 30.4066 25.765C31.0014 25.765 31.4835 25.2827 31.4835 24.6878C31.4835 24.0929 31.0014 23.6106 30.4066 23.6106C29.8118 23.6106 29.3294 24.0929 29.3294 24.6878ZM36.8607 13.9784C35.6294 13.9784 34.6315 14.9765 34.6315 16.2078C34.6315 17.4391 35.6294 18.4372 36.8607 18.4372C38.0916 18.4372 39.0898 17.439 39.0898 16.2078C39.0898 14.9766 38.0916 13.9784 36.8607 13.9784ZM38.4599 20.5727C37.5696 20.5727 36.848 21.2944 36.848 22.1847C36.848 23.0751 37.5696 23.7968 38.4599 23.7968C39.3503 23.7968 40.0719 23.0751 40.0719 22.1847C40.0719 21.2944 39.3503 20.5727 38.4599 20.5727ZM53.4064 15.5293C55.5807 15.5293 57.3432 13.7666 57.3432 11.5921C57.3432 9.41766 55.5807 7.65494 53.4064 7.65494C51.2321 7.65494 49.4697 9.41766 49.4697 11.5921C49.4697 13.7666 51.2321 15.5293 53.4064 15.5293ZM12.8987 40.8027C11.2359 40.8027 9.88813 42.1507 9.88813 43.8135C9.88813 45.4764 11.2359 46.8243 12.8987 46.8243C14.5613 46.8243 15.9091 45.4764 15.9091 43.8135C15.9091 42.1507 14.5613 40.8027 12.8987 40.8027ZM16.2141 34.6369C14.9844 34.6369 13.9877 35.6338 13.9877 36.8635C13.9877 38.0932 14.9844 39.0901 16.2141 39.0901C17.4437 39.0901 18.4405 38.0932 18.4405 36.8635C18.4405 35.6338 17.4437 34.6369 16.2141 34.6369ZM24.194 52.1013C24.194 50.4388 22.8464 49.0911 21.1838 49.0911C19.5215 49.0911 18.1739 50.4388 18.1739 52.1013C18.1739 53.7638 19.5215 55.1116 21.1838 55.1116C22.8464 55.1116 24.194 53.7638 24.194 52.1013ZM11.5894 49.4681C9.41438 49.4681 7.65118 51.2315 7.65118 53.4068C7.65118 55.5821 9.41438 57.3455 11.5894 57.3455C13.7644 57.3455 15.5276 55.582 15.5276 53.4068C15.5276 51.2316 13.7644 49.4681 11.5894 49.4681ZM3.93797 28.7885C6.11296 28.7885 7.87616 27.0252 7.87616 24.85C7.87616 22.6749 6.11296 20.9116 3.93797 20.9116C1.76297 20.9116 0 22.6748 0 24.85C0 27.0252 1.76296 28.7885 3.93797 28.7885ZM3.93868 36.2099C1.76344 36.2099 0 37.9735 0 40.1489C0 42.3243 1.76344 44.0879 3.93868 44.0879C6.11392 44.0879 7.87736 42.3244 7.87736 40.1489C7.87736 37.9734 6.11392 36.2099 3.93868 36.2099ZM24.8466 57.1223C22.6714 57.1223 20.9082 58.8858 20.9082 61.0612C20.9082 63.2365 22.6714 65 24.8466 65C27.0216 65 28.785 63.2365 28.785 61.0612C28.785 58.8858 27.0216 57.1223 24.8466 57.1223ZM53.4052 49.4711C51.2309 49.4711 49.4685 51.2339 49.4685 53.4085C49.4685 55.583 51.2309 57.3458 53.4052 57.3458C55.5795 57.3458 57.3422 55.5829 57.3422 53.4085C57.3422 51.234 55.5795 49.4711 53.4052 49.4711ZM32.4959 52.1086C30.8297 52.1086 29.479 53.4594 29.479 55.1257C29.479 56.792 30.8297 58.1429 32.4959 58.1429C34.1618 58.1429 35.5125 56.792 35.5125 55.1257C35.5125 53.4594 34.1618 52.1086 32.4959 52.1086ZM11.5894 15.5313C13.7644 15.5313 15.5276 13.768 15.5276 11.5928C15.5276 9.4176 13.7644 7.65422 11.5894 7.65422C9.41438 7.65422 7.65118 9.41753 7.65118 11.5928C7.65118 13.768 9.41438 15.5313 11.5894 15.5313ZM61.0523 36.2097C58.8773 36.2097 57.1141 37.973 57.1141 40.1481C57.1141 42.3232 58.8773 44.0865 61.0523 44.0865C63.2271 44.0865 64.9903 42.3232 64.9903 40.1481C64.9903 37.973 63.2271 36.2097 61.0523 36.2097ZM52.093 46.8237C53.7556 46.8237 55.1031 45.4758 55.1031 43.8132C55.1031 42.1505 53.7556 40.8026 52.093 40.8026C50.4304 40.8026 49.0828 42.1505 49.0828 43.8132C49.0828 45.4759 50.4304 46.8237 52.093 46.8237ZM51.0033 36.8635C51.0033 35.6335 50.0063 34.6363 48.7764 34.6363C47.5465 34.6363 46.5493 35.6335 46.5493 36.8635C46.5493 38.0935 47.5466 39.0907 48.7764 39.0907C50.0063 39.0907 51.0033 38.0935 51.0033 36.8635ZM40.1449 57.1222C37.9696 57.1222 36.2064 58.8857 36.2064 61.0609C36.2064 63.2361 37.9696 64.9996 40.1449 64.9996C42.3199 64.9996 44.0831 63.2362 44.0831 61.0609C44.0831 58.8856 42.3199 57.1222 40.1449 57.1222ZM43.8064 49.0913C42.1443 49.0913 40.797 50.4388 40.797 52.1011C40.797 53.7634 42.1443 55.1109 43.8064 55.1109C45.4686 55.1109 46.8161 53.7634 46.8161 52.1011C46.8161 50.4388 45.4686 49.0913 43.8064 49.0913ZM42.8095 40.0758C43.7003 40.0758 44.4224 39.3537 44.4224 38.4629C44.4224 37.572 43.7003 36.8499 42.8095 36.8499C41.9189 36.8499 41.1968 37.572 41.1968 38.4629C41.1968 39.3537 41.9189 40.0758 42.8095 40.0758ZM44.4115 30.8921C43.5241 30.8921 42.8044 31.6117 42.8044 32.4995C42.8044 33.3872 43.5241 34.1069 44.4115 34.1069C45.2993 34.1069 46.0189 33.3872 46.0189 32.4995C46.0189 31.6117 45.2993 30.8921 44.4115 30.8921ZM6.85493 32.4997C6.85493 34.166 8.20585 35.5168 9.8718 35.5168C11.538 35.5168 12.8887 34.166 12.8887 32.4997C12.8887 30.8334 11.538 29.4826 9.8718 29.4826C8.20585 29.4826 6.85493 30.8334 6.85493 32.4997ZM44.414 46.6566C45.6508 46.6566 46.6533 45.6539 46.6533 44.417C46.6533 43.1801 45.6508 42.1774 44.414 42.1774C43.1771 42.1774 42.1746 43.1801 42.1746 44.417C42.1746 45.6539 43.1771 46.6566 44.414 46.6566ZM40.0712 42.8146C40.0712 41.9237 39.3489 41.2016 38.4583 41.2016C37.5674 41.2016 36.8454 41.9237 36.8454 42.8146C36.8454 43.7054 37.5674 44.4275 38.4583 44.4275C39.3489 44.4275 40.0712 43.7054 40.0712 42.8146ZM36.8581 51.0198C38.0902 51.0198 39.0888 50.021 39.0888 48.7889C39.0888 47.5568 38.0902 46.558 36.8581 46.558C35.6261 46.558 34.6274 47.5569 34.6274 48.7889C34.6274 50.021 35.6261 51.0198 36.8581 51.0198ZM40.7973 12.8986C40.7973 14.5608 42.1446 15.9083 43.8067 15.9083C45.4686 15.9083 46.8161 14.5608 46.8161 12.8986C46.8161 11.2363 45.4686 9.88884 43.8067 9.88884C42.1446 9.88884 40.7973 11.2363 40.7973 12.8986ZM41.3827 34.5896C41.3827 33.994 40.8998 33.5111 40.3043 33.5111C39.7086 33.5111 39.2257 33.994 39.2257 34.5896C39.2257 35.1853 39.7086 35.6682 40.3043 35.6682C40.8998 35.6682 41.3827 35.1853 41.3827 34.5896ZM44.4132 18.3409C43.1759 18.3409 42.1731 19.3439 42.1731 20.5812C42.1731 21.8186 43.1759 22.8216 44.4132 22.8216C45.6506 22.8216 46.6533 21.8185 46.6533 20.5812C46.6533 19.344 45.6506 18.3409 44.4132 18.3409ZM21.1838 15.9086C22.8462 15.9086 24.194 14.5609 24.194 12.8984C24.194 11.2359 22.8462 9.88824 21.1838 9.88824C19.5217 9.88824 18.1742 11.2359 18.1742 12.8984C18.1742 14.5609 19.5217 15.9086 21.1838 15.9086ZM40.1449 7.87736C42.3199 7.87736 44.0831 6.11392 44.0831 3.93868C44.0831 1.76344 42.3199 0 40.1449 0C37.9696 0 36.2064 1.76338 36.2064 3.93868C36.2064 6.11398 37.9696 7.87736 40.1449 7.87736ZM12.8987 18.1752C11.2359 18.1752 9.88813 19.5232 9.88813 21.186C9.88813 22.8489 11.2359 24.1969 12.8987 24.1969C14.5613 24.1969 15.9091 22.8489 15.9091 21.186C15.9091 19.5232 14.5613 18.1752 12.8987 18.1752ZM13.9877 28.1361C13.9877 29.3658 14.9844 30.3626 16.2141 30.3626C17.4437 30.3626 18.4405 29.3658 18.4405 28.1361C18.4405 26.9064 17.4437 25.9095 16.2141 25.9095C14.9844 25.9095 13.9877 26.9064 13.9877 28.1361ZM24.8466 7.87736C27.0216 7.87736 28.785 6.11392 28.785 3.93868C28.785 1.76344 27.0216 0 24.8466 0C22.6716 0 20.9084 1.76338 20.9084 3.93868C20.9084 6.11398 22.6716 7.87736 24.8466 7.87736ZM32.4959 12.8908C34.1618 12.8908 35.5125 11.54 35.5125 9.87371C35.5125 8.20739 34.1618 6.8566 32.4959 6.8566C30.8297 6.8566 29.479 8.20739 29.479 9.87371C29.479 11.54 30.8297 12.8908 32.4959 12.8908Z" fill="url(#paint0_radial_178_686)"/>
</g>
<path d="M76.9902 30.1162L78.0617 28.2158C79.3471 29.1258 81.4337 29.7679 83.2548 29.7679C85.2075 29.7679 86.4388 29.2327 86.4388 27.7606C86.4388 23.9333 77.0184 26.6902 77.0184 20.6676C77.0184 17.4825 79.9627 16.1977 82.7449 16.1977C84.9138 16.1977 86.8148 16.8134 88.099 17.7233L87.1344 19.6772C85.8502 18.8741 84.2183 18.4459 82.6921 18.4459C81.5677 18.4459 79.6667 18.8207 79.6667 20.4802C79.6667 24.0667 89.0624 21.3097 89.0624 27.5732C89.0624 30.5175 86.6809 32.0161 83.3606 32.0161C80.5784 32.0161 78.5693 31.3205 76.9902 30.1162Z" fill="white"/>
<path d="M104.798 16.4386V31.6148H102.094V29.0183C100.944 30.3835 99.0173 31.8827 96.3937 31.8827C92.9947 31.8827 90.666 29.4201 90.666 25.5124V16.4386H93.3425V24.9502C93.3425 27.9209 94.9215 29.4201 97.3571 29.4201C100.086 29.4201 102.094 27.4927 102.094 24.9232V16.4386L104.798 16.4386Z" fill="white"/>
<path d="M122.835 24.0402C122.835 28.8579 119.783 31.9092 115.875 31.9092C113.198 31.9092 111.485 30.8652 110.442 29.3396V37.2092H107.792V16.4386H110.442V18.7138C111.485 17.1881 113.198 16.1442 115.875 16.1442C119.783 16.1442 122.835 19.2225 122.835 24.0402ZM120.078 24.0132C120.078 21.0689 118.204 18.6333 115.125 18.6333C112.075 18.6333 110.415 21.0689 110.415 24.0132C110.415 27.011 112.075 29.4201 115.125 29.4201C118.204 29.4201 120.078 27.011 120.078 24.0132Z" fill="white"/>
<path d="M139.801 24.0402C139.801 28.8579 136.748 31.9092 132.841 31.9092C130.164 31.9092 128.451 30.8652 127.408 29.3396V37.2092H124.757V16.4386H127.408V18.7138C128.451 17.1881 130.164 16.1442 132.841 16.1442C136.748 16.1442 139.801 19.2225 139.801 24.0402ZM137.043 24.0132C137.043 21.0689 135.169 18.6333 132.091 18.6333C129.041 18.6333 127.381 21.0689 127.381 24.0132C127.381 27.011 129.041 29.4201 132.091 29.4201C135.169 29.4201 137.043 27.011 137.043 24.0132Z" fill="white"/>
<path d="M141.724 10.8442H144.428V31.6148H141.724V10.8442Z" fill="white"/>
<path d="M149.11 14.3778C148.146 14.3778 147.37 13.6282 147.37 12.7182C147.37 11.8617 148.146 11.1121 149.11 11.1121C150.02 11.1121 150.796 11.8083 150.796 12.7182C150.796 13.6282 150.046 14.3778 149.11 14.3778ZM147.717 16.4386H150.422V31.6148H147.717V16.4386Z" fill="white"/>
<path d="M152.694 24.0666C152.694 18.7138 156.549 16.1442 160.216 16.1442C164.552 16.1442 167.71 18.9012 167.71 24.2006C167.71 24.6823 167.684 25.0571 167.657 25.4319H155.479C155.747 27.5197 157.486 29.5541 160.939 29.5541C163.615 29.5541 165.301 28.0549 165.301 28.0549L166.774 29.5805C166.774 29.5805 164.767 31.9092 160.886 31.9092C155.747 31.9092 152.694 28.8309 152.694 24.0666ZM155.479 23.2372H164.873C164.873 20.855 163.24 18.6603 160.216 18.6603C157.272 18.6603 155.479 20.855 155.479 23.2372Z" fill="white"/>
<path d="M178.227 16.2782V19.1955H177.851C175.255 19.1955 172.364 20.7211 172.364 25.5658V31.6148H169.662V16.4386H172.364V19.9715C173.275 18.2321 174.935 16.2782 178.227 16.2782Z" fill="white"/>
<path d="M181.094 21.8185C181.094 16.0103 185.108 11.7007 191.21 11.7007C197.341 11.7007 201.408 16.0103 201.408 21.8185C201.408 27.6536 197.341 31.9626 191.21 31.9626C185.108 31.9626 181.094 27.6536 181.094 21.8185ZM183.957 21.8185C183.957 26.128 187.063 29.3396 191.238 29.3396C195.44 29.3396 198.518 26.128 198.518 21.8185C198.518 17.5359 195.44 14.3243 191.238 14.3243C187.063 14.3243 183.957 17.5359 183.957 21.8185Z" fill="#C7ED3B"/>
<path d="M217.465 22.5146V31.6148H214.788V23.1032C214.788 20.1325 213.181 18.6333 210.772 18.6333C208.042 18.6333 206.035 20.5607 206.035 23.1302V31.6148H203.332V16.4386H206.035V18.9816C207.186 17.6428 209.086 16.1707 211.71 16.1707C215.136 16.1707 217.465 18.6333 217.465 22.5146Z" fill="#C7ED3B"/>
<path d="M219.2 24.0667C219.2 18.7138 223.055 16.1442 226.72 16.1442C231.057 16.1442 234.215 18.9012 234.215 24.2006C234.215 24.6823 234.188 25.0571 234.162 25.4319H221.983C222.251 27.5197 223.991 29.5541 227.444 29.5541C230.12 29.5541 231.806 28.0549 231.806 28.0549L233.279 29.5805C233.279 29.5805 231.272 31.9092 227.39 31.9092C222.251 31.9092 219.2 28.8309 219.2 24.0667ZM221.983 23.2372H231.378C231.378 20.855 229.745 18.6603 226.72 18.6603C223.776 18.6603 221.983 20.855 221.983 23.2372Z" fill="#C7ED3B"/>
<g opacity="0.6">
<path d="M84.6359 47.1353C84.6359 49.322 83.2511 50.7191 81.4531 50.7191C80.2385 50.7191 79.4487 50.2575 78.9749 49.5528V50.5856H77.748V41.1584H78.9749V44.73C79.4487 44.0253 80.2385 43.5637 81.4531 43.5637C83.2511 43.5637 84.6359 44.9485 84.6359 47.1353ZM83.3846 47.1475C83.3846 45.7871 82.522 44.6938 81.1128 44.6938C79.7157 44.6938 78.9627 45.7871 78.9627 47.1475C78.9627 48.4839 79.7157 49.5895 81.1128 49.5895C82.522 49.5895 83.3846 48.4839 83.3846 47.1475Z" fill="white"/>
<path d="M91.8763 43.6977L88.7785 51.0956C88.1228 52.675 87.3693 53.2461 86.094 53.2461C85.5106 53.2461 85.0613 53.1244 84.563 52.8936L84.9395 51.8975C85.2554 52.031 85.5591 52.1528 85.9722 52.1528C86.8104 52.1528 87.2358 51.7151 87.7218 50.5249L87.7336 50.4883L84.7087 43.6977H86.1057L88.3414 48.9939L90.5159 43.6977H91.8763Z" fill="white"/>
</g>
<path opacity="0.6" d="M100.698 48.622C100.698 49.8707 99.5532 50.6643 97.7187 50.6643C96.5739 50.6643 95.4423 50.3127 94.8696 49.8576L95.3898 48.8687C95.975 49.2849 96.9119 49.5841 97.8095 49.5841C98.9674 49.5841 99.4487 49.2324 99.4487 48.6472C99.4487 47.0993 95.0906 48.4393 95.0906 45.6942C95.0906 44.458 96.196 43.6256 97.9654 43.6256C98.8635 43.6256 99.8781 43.8597 100.476 44.2502L99.9432 45.2391C99.3185 44.836 98.6294 44.6927 97.9528 44.6927C96.86 44.6927 96.3267 45.0958 96.3267 45.6422C96.3267 47.2683 100.698 45.9414 100.698 48.622ZM106.886 47.2551C106.886 48.7385 106.054 49.5447 104.753 49.5447C103.569 49.5447 102.892 48.8681 102.892 47.515V43.6901H101.644V47.6577C101.644 49.6875 102.827 50.6627 104.61 50.6627C105.586 50.6627 106.444 50.2596 106.951 49.5436V50.5845H108.135V43.6907H106.886L106.886 47.2551ZM116.846 47.1381C116.846 49.2586 115.377 50.6638 113.36 50.6638C112.384 50.6638 111.526 50.2864 110.953 49.5447V53.1092H109.705V43.6907H110.901V44.7834C111.46 44.0161 112.345 43.6256 113.36 43.6256C115.377 43.6256 116.847 45.0307 116.846 47.1381ZM115.585 47.1381C115.585 45.681 114.583 44.7184 113.256 44.7184C111.942 44.7184 110.94 45.681 110.94 47.1381C110.94 48.6083 111.942 49.571 113.256 49.571C114.583 49.571 115.585 48.6083 115.585 47.1381ZM125.168 47.1381C125.168 49.2586 123.698 50.6638 121.682 50.6638C120.706 50.6638 119.848 50.2864 119.275 49.5447V53.1092H118.027V43.6907H119.223V44.7834C119.782 44.0161 120.667 43.6256 121.682 43.6256C123.698 43.6256 125.168 45.0307 125.168 47.1381ZM123.907 47.1381C123.907 45.681 122.905 44.7184 121.578 44.7184C120.264 44.7184 119.262 45.681 119.262 47.1381C119.262 48.6083 120.264 49.571 121.578 49.571C122.905 49.571 123.906 48.6083 123.907 47.1381ZM126.348 50.5856H127.597V40.9324H126.348V50.5856ZM129.166 50.5856H130.415V43.6907H129.166V50.5856ZM129.791 40.9105C129.31 40.9105 128.945 41.2748 128.945 41.7299C128.945 42.1855 129.31 42.5366 129.791 42.5366C130.285 42.5366 130.637 42.1723 130.637 41.7041C130.637 41.2616 130.272 40.9105 129.791 40.9105ZM138.737 47.1764C138.737 47.2809 138.724 47.4367 138.711 47.5538H133.116C133.273 48.7637 134.249 49.5704 135.614 49.5704C136.421 49.5704 137.097 49.2975 137.605 48.7379L138.294 49.5447C137.67 50.2732 136.72 50.6638 135.576 50.6638C133.351 50.6638 131.868 49.1936 131.868 47.1381C131.868 45.0958 133.338 43.6256 135.328 43.6256C137.319 43.6256 138.737 45.0564 138.737 47.1764ZM137.54 46.6568C137.41 45.4989 136.538 44.6795 135.328 44.6795C134.132 44.6795 133.247 45.4857 133.117 46.6568H137.54ZM141.373 44.8485V43.6907H140.177V50.5856H141.425V47.1512C141.425 45.6422 142.258 44.8223 143.598 44.8223C143.689 44.8223 143.78 44.8223 143.884 44.8355V43.6256C142.675 43.6256 141.816 44.0418 141.373 44.8485Z" fill="white"/>
<path d="M153.995 45.4568C152.863 45.7994 152.224 46.9942 152.567 48.1255C152.909 49.2568 154.104 49.8962 155.235 49.5537C156.366 49.2111 157.006 48.0163 156.663 46.885C156.321 45.7537 155.126 45.1143 153.995 45.4568Z" fill="#C7ED3B"/>
<path d="M153.102 39.1783C149.014 39.1783 145.7 42.4923 145.7 46.5802C145.7 50.6682 149.014 53.9821 153.102 53.9821C157.19 53.9821 160.504 50.6682 160.504 46.5802C160.504 42.4923 157.19 39.1783 153.102 39.1783ZM150.293 50.5856H149.169V44.3809H150.293V50.5856ZM149.731 43.3018C149.297 43.3018 148.97 42.9856 148.97 42.576C148.97 42.1663 149.297 41.8386 149.731 41.8386C150.164 41.8386 150.492 42.1548 150.492 42.553C150.492 42.9741 150.176 43.3018 149.731 43.3018ZM154.614 50.7376C152.832 50.7376 151.382 49.2876 151.382 47.5057C151.382 45.7238 152.832 44.2737 154.614 44.2737C156.396 44.2737 157.846 45.7237 157.846 47.5057C157.845 49.2882 156.396 50.7376 154.614 50.7376Z" fill="#C7ED3B"/>
<defs>
<radialGradient id="paint0_radial_178_686" cx="0" cy="0" r="1" gradientUnits="userSpaceOnUse" gradientTransform="translate(32.4951 32.5) scale(32.4976 32.4976)">
<stop offset="0.423077" stop-color="white"/>
<stop offset="1" stop-color="#C7ED3B"/>
</radialGradient>
<clipPath id="clip0_178_686">
<rect width="64.9903" height="65" fill="white"/>
</clipPath>
</defs>
</svg>
