<?xml version="1.0" encoding="UTF-8"?>
<svg xmlns="http://www.w3.org/2000/svg" width="500" height="300" viewBox="0 0 500 300" fill="none">
  <path fill-rule="evenodd" clip-rule="evenodd" d="M249.9 28.7742C201.382 28.7742 162 67.8408 162 116.044C162 139.358 171.137 161.412 187.834 177.795C204.532 194.177 226.586 203.314 249.9 203.314C298.418 203.314 337.8 164.247 337.8 115.729C337.8 67.8408 298.418 28.7742 249.9 28.7742ZM304.089 138.413C294.953 160.152 273.529 174.329 249.9 174.329C217.765 174.329 191.3 148.495 191.3 116.044C191.3 92.415 205.477 71.3064 227.531 62.1699C249.585 53.0333 274.789 58.0742 291.487 74.772C308.185 91.7849 313.226 116.674 304.089 138.413ZM279.2 116.044C279.2 132.112 265.968 145.029 249.9 145.029C233.832 145.029 220.6 132.112 220.6 116.044C220.6 99.9763 233.832 87.0591 249.9 87.0591C265.968 87.0591 279.2 99.9763 279.2 116.044ZM177.123 214.971V225.368H184.054V231.669H177.123V248.682C177.123 251.832 178.068 252.777 181.218 252.777C182.163 252.777 183.109 252.777 184.054 252.462V259.709C182.163 260.024 180.273 260.024 178.383 260.024C171.137 260.024 167.671 257.818 167.671 251.832V231.669H162V225.368H167.671V214.971H177.123ZM220.6 253.408C218.71 253.408 218.08 253.092 218.08 250.572V234.189C218.08 227.888 213.039 224.423 202.957 224.423C193.19 224.423 187.204 228.518 186.889 235.764H196.341C196.656 232.299 198.861 230.724 202.642 230.724C205.792 230.724 208.628 231.354 208.628 235.449C208.628 238.6 206.108 238.915 199.806 239.545C194.135 239.86 190.985 241.12 188.78 243.011C186.574 244.901 185.629 247.421 185.629 250.257C185.629 256.873 190.355 260.654 197.286 260.654C202.957 260.654 207.053 258.763 209.258 255.928C209.888 259.078 212.094 260.339 216.504 260.339C217.765 260.339 219.34 260.024 220.285 259.394L220.6 253.408ZM208.943 246.476C208.943 251.517 206.423 254.353 201.382 254.353C197.286 254.353 195.711 252.777 195.711 249.942C195.711 246.161 198.546 245.216 203.587 244.586C206.738 244.271 208.313 243.641 209.258 243.011V246.476H208.943ZM245.489 233.244V224.423C244.859 224.108 244.229 224.108 243.284 224.108C238.558 224.108 234.147 226.943 232.257 231.354V225.053H223.12V259.394H232.572V243.956C232.572 237.655 235.092 232.929 242.024 232.929C243.284 232.929 244.229 233.244 245.489 233.244ZM270.694 229.778C268.488 225.998 264.392 224.108 260.297 224.423C250.53 224.423 245.489 232.614 245.489 241.435C245.489 251.517 250.215 258.763 260.297 258.763C264.392 259.078 268.488 256.873 270.694 253.408V258.133C270.694 263.489 267.858 266.325 263.132 266.325C259.352 266.325 256.831 265.065 256.201 261.599H246.749C247.065 268.53 253.996 272.626 261.872 272.626C274.474 272.626 279.83 266.325 279.83 257.503V225.368H270.694V229.778ZM270.694 241.751C270.694 247.106 267.858 251.202 262.502 251.202C257.146 251.202 254.941 246.476 254.941 240.805C254.941 235.134 257.776 231.039 262.502 231.039C269.118 231.354 270.694 237.025 270.694 241.751ZM316.691 243.011V244.901H291.802C292.117 250.887 294.953 253.723 300.309 253.723C303.774 253.723 307.24 251.517 307.87 249.312H316.061C313.541 257.188 308.185 260.969 299.994 260.969C288.967 260.969 282.351 253.408 282.351 243.011C282.351 232.614 289.597 225.053 299.994 225.053C310.705 224.423 316.691 232.929 316.691 243.011ZM307.24 238.6C306.295 233.559 304.089 231.354 299.679 231.354C297.788 231.354 295.583 231.984 294.323 233.244C292.747 234.504 292.117 236.71 292.117 238.6H307.24ZM330.869 214.971V225.368H337.8V231.669H330.869V248.682C330.869 251.832 331.814 252.777 334.965 252.777C335.91 252.777 336.855 252.777 337.8 252.462V259.709C335.91 260.024 334.019 260.024 332.129 260.024C324.883 260.024 321.417 257.818 321.417 251.832V231.669H315.746V225.368H321.417V214.971H330.869Z" fill="white"></path>
</svg>
