<?xml version="1.0" encoding="UTF-8"?>
<svg xmlns="http://www.w3.org/2000/svg" width="500" height="300" viewBox="0 0 500 300" fill="none">
  <g clip-path="url(#clip0_274_5782)">
    <path fill-rule="evenodd" clip-rule="evenodd" d="M447.846 189.689V153.611H422.912V171.49H413.372V126.19H422.912V144.069H447.846V107.988H366.151V144.074H391.083V126.19H400.623V171.487H391.083V153.609H366.148V189.686H447.844L447.846 189.689ZM357.892 188.967V108.713C357.892 103.105 361.259 99.7341 366.871 99.7341H447.124C452.735 99.7341 456.103 103.102 456.103 108.713V188.969C456.103 194.58 452.735 197.951 447.124 197.951H366.871C361.262 197.951 357.892 194.578 357.892 188.967ZM305.546 176.903V129.761H287.747V120.782H333.126V129.761H315.327V176.905L305.546 176.903ZM258.892 152.773C251.355 150.206 243.177 147 243.177 136.497C243.177 126.235 250.796 119.581 262.5 119.581C267.792 119.581 272.202 120.782 276.13 122.547V132.812C271.72 130.084 267.31 128.481 262.5 128.481C256.728 128.481 253.119 131.206 253.119 135.537C253.119 140.669 257.849 142.19 265.307 144.756C272.842 147.323 281.022 150.526 281.022 161.029C281.022 171.453 273.244 178.106 261.297 178.106C254.804 178.106 249.511 176.424 245.103 174.178V163.757C250.235 166.963 255.365 169.207 261.297 169.207C267.31 169.207 271.077 166.323 271.077 161.992C271.077 156.86 266.35 155.339 258.892 152.773ZM217.047 176.905H226.83V120.782H217.047V176.905ZM153.479 155.177V120.785H163.26V155.019C163.26 163.757 168.072 169.127 176.006 169.127C183.943 169.127 188.755 163.757 188.755 155.019V120.785H198.536V155.177C198.536 168.807 189.475 178.106 176.006 178.106C162.54 178.106 153.479 168.807 153.479 155.177ZM118.764 148.201C124.296 148.201 128.304 144.352 128.304 138.899C128.304 133.529 124.296 129.679 118.764 129.679H106.658V148.198L118.764 148.201ZM120.529 165.598C117.804 159.984 116.359 156.939 110.026 156.939H106.658V176.903H96.8771V120.782H118.843C130.309 120.782 138.328 128.158 138.328 138.661C138.328 147.32 133.196 153.172 125.259 155.177C128.865 158.865 130.068 163.678 132.473 166.082C133.836 167.445 135.278 168.246 137.526 168.246C138.405 168.246 139.127 168.167 139.77 168.006V176.905C138.566 177.143 137.442 177.305 136.241 177.305C126.539 177.305 123.574 171.934 120.526 165.601L120.529 165.598ZM56.7967 176.903V129.761H39V120.782H84.3768V129.761H66.5801V176.905H56.7994L56.7967 176.903Z" fill="white"></path>
  </g>
  <defs>
    <clipPath id="clip0_274_5782">
      <rect width="418" height="100.532" fill="white" transform="translate(39 99.7341)"></rect>
    </clipPath>
  </defs>
</svg>
