<?xml version="1.0" encoding="UTF-8"?>
<svg xmlns="http://www.w3.org/2000/svg" width="500" height="300" viewBox="0 0 500 300" fill="none">
  <path d="M149.972 166.75H143.677V144.297L134.527 161.039H130.829L121.419 144.297V166.75H115.125V132.487H121.419L132.71 152.409L143.677 132.487H149.972V166.75Z" fill="white"></path>
  <path d="M187.609 165.971C183.716 167.009 180.017 167.528 176.383 167.528C170.608 167.528 165.935 165.711 162.237 162.272C158.862 158.898 156.98 154.68 156.98 149.748C156.98 144.492 158.797 140.339 162.496 136.9C166.13 133.525 170.608 131.903 176.383 131.903C179.757 131.903 182.937 132.163 186.052 132.941L185.273 138.457C181.899 137.938 179.238 137.679 177.162 137.679C173.009 137.679 169.569 138.717 167.233 140.793C164.832 143 163.794 145.855 163.794 149.748C163.794 153.123 164.832 156.043 167.168 158.379C169.245 160.455 172.425 161.753 176.058 161.753C177.875 161.753 179.692 161.494 181.574 161.234V149.748H187.609V165.971Z" fill="white"></path>
  <path d="M230.76 166.75H224.531V144.297L215.057 161.039H211.423L202.273 144.297V166.75H195.979V132.487H202.273L213.499 152.409L224.531 132.487H230.76V166.75Z" fill="white"></path>
  <path d="M275.015 143.259C275.015 141.702 274.496 140.404 273.458 139.366C272.42 138.327 271.122 137.808 269.565 137.808H259.377V148.515H269.565C271.122 148.515 272.42 147.996 273.458 146.958C274.431 146.114 275.015 144.817 275.015 143.259ZM285.203 166.75H277.092L267.683 153.707H259.312V166.815H252.758V132.552H270.538C273.653 132.552 276.573 133.59 278.649 135.667C280.726 137.743 281.764 140.144 281.764 143.259C281.764 145.336 281.245 147.412 279.947 149.034C278.649 150.851 277.092 152.149 274.951 152.928L285.203 166.75Z" fill="white"></path>
  <path d="M315.248 166.75H290.654V132.487H315.248V138.262H297.208V146.374H314.21V152.149H297.208V161.299H315.248V166.75Z" fill="white"></path>
  <path d="M349.251 157.6C349.251 160.715 347.953 163.116 345.358 164.933C342.762 166.75 339.323 167.528 335.17 167.528C329.914 167.528 325.241 166.49 321.023 164.673L322.581 159.417C327.058 160.974 331.471 161.753 335.105 161.753C340.361 161.753 342.697 160.455 342.697 157.6C342.697 156.562 342.178 155.523 340.88 154.745C339.842 154.226 337.765 153.187 333.807 151.89C329.33 150.332 326.474 148.775 324.917 147.412C323.1 145.855 322.321 143.778 322.321 140.858C322.321 134.823 326.799 131.968 335.948 131.968C340.426 131.968 344.579 132.487 348.213 133.525L347.175 138.782C343.281 138.003 339.582 137.484 335.948 137.484C333.353 137.484 331.471 137.743 330.173 138.262C329.135 138.782 328.616 139.56 328.616 140.858C328.616 142.156 329.394 142.935 330.692 143.973C331.73 144.492 334.067 145.53 338.284 147.088C342.762 148.645 345.358 150.202 346.655 151.241C348.472 152.668 349.251 154.745 349.251 157.6Z" fill="white"></path>
  <path d="M381.437 149.748C381.437 146.374 380.399 143.454 378.582 141.118C376.765 138.782 374.104 137.743 370.73 137.743C367.615 137.743 364.954 138.782 363.138 141.118C361.321 143.454 360.282 146.114 360.282 149.748C360.282 153.123 361.321 156.043 363.138 158.119C364.954 160.455 367.615 161.493 370.989 161.493C374.104 161.493 376.765 160.455 378.841 158.119C380.658 156.043 381.437 153.187 381.437 149.748ZM387.991 149.748C387.991 154.745 386.433 158.898 382.994 162.272C379.62 165.647 375.662 167.528 370.73 167.528C365.798 167.528 361.84 165.711 358.465 162.272C355.091 158.898 353.469 154.68 353.469 149.748C353.469 144.816 355.026 140.599 358.465 137.224C361.84 133.85 365.798 131.968 370.73 131.968C375.662 131.968 379.62 133.785 382.994 137.224C386.433 140.599 387.991 144.816 387.991 149.748Z" fill="white"></path>
  <path d="M417.257 143.259C417.257 141.702 416.738 140.404 415.7 139.366C414.662 138.327 413.364 137.808 411.806 137.808H401.618V148.515H411.806C413.364 148.515 414.662 147.996 415.7 146.958C416.738 146.114 417.257 144.817 417.257 143.259ZM427.51 166.75H419.399L409.989 153.707H401.618V166.815H395.064V132.552H412.845C415.959 132.552 418.879 133.59 420.956 135.667C423.033 137.743 424.071 140.144 424.071 143.259C424.071 145.336 423.552 147.412 422.254 149.034C420.956 150.851 419.399 152.149 417.257 152.928L427.51 166.75Z" fill="white"></path>
  <path d="M458.073 138.262H446.846V166.75H440.292V138.262H428.807V132.487H458.073V138.262Z" fill="white"></path>
  <path d="M490.001 157.6C490.001 160.715 488.703 163.116 486.108 164.933C483.512 166.75 480.073 167.528 475.92 167.528C470.664 167.528 465.991 166.49 461.773 164.673L463.331 159.417C467.808 160.974 472.221 161.753 475.855 161.753C481.111 161.753 483.447 160.455 483.447 157.6C483.447 156.562 482.928 155.523 481.63 154.745C480.592 154.226 478.515 153.187 474.557 151.89C470.079 150.332 467.224 148.775 465.667 147.412C463.85 145.855 463.071 143.778 463.071 140.858C463.071 134.823 467.549 131.968 476.698 131.968C481.176 131.968 485.329 132.487 488.963 133.525L487.925 138.782C484.031 138.003 480.332 137.484 476.698 137.484C474.103 137.484 472.221 137.743 470.923 138.262C469.885 138.782 469.366 139.56 469.366 140.858C469.366 142.156 470.144 142.935 471.442 143.973C472.48 144.492 474.817 145.53 479.034 147.088C483.512 148.645 486.108 150.202 487.405 151.241C489.222 152.668 490.001 154.745 490.001 157.6Z" fill="white"></path>
  <path d="M14.7383 141.961C14.7383 150.073 16.0361 157.665 20.254 163.959V158.444C20.254 151.63 25.7698 146.958 31.2206 143.778C25.4453 145.855 19.1509 144.557 14.7383 141.961Z" fill="white"></path>
  <path d="M19.4101 136.186H17.5931C17.3336 135.148 20.1888 133.331 20.9675 134.629L19.4101 136.186ZM13.6348 135.407C15.1922 136.446 17.2687 136.965 19.6696 136.705C21.4866 138.003 24.1471 134.369 26.7428 134.369C30.6362 133.85 35.6329 133.331 38.2285 136.705L36.9307 134.11C33.2968 133.85 30.1171 132.552 27.2619 130.995C21.4866 128.334 18.6314 136.705 13.6348 135.407Z" fill="white"></path>
  <path d="M10.2598 122.04C12.0767 122.559 13.8937 123.078 15.7755 123.078C19.669 121.521 20.7721 118.341 19.1499 114.188C16.8138 110.814 13.6341 108.932 10.2598 108.153V122.04Z" fill="white"></path>
  <path d="M36.4119 196.34C36.931 195.821 37.7097 195.042 38.2288 194.264C48.6763 180.636 28.3005 172.785 28.8196 159.742C29.3388 154.485 32.194 150.592 35.6332 146.374L35.3736 146.114C32.2589 149.229 30.8961 151.371 28.8196 154.485C22.5252 167.334 31.4153 185.114 22.2656 196.081L36.4119 196.34Z" fill="white"></path>
  <path d="M78.7866 150.332C78.7866 169.151 69.8965 185.633 56.0098 196.34H102.018V104.26H56.0098C69.8965 114.707 78.7866 131.449 78.7866 150.332Z" fill="white"></path>
  <path d="M10.2596 196.34H18.1114L19.9283 194.523C30.6354 179.858 17.8518 169.67 10 158.184L10.2596 196.34Z" fill="white"></path>
  <path d="M31.9983 104.26H10.2598V105.817C12.3363 106.077 14.7373 106.855 16.5542 107.634C21.0317 110.23 24.406 114.448 23.8869 119.639L33.5557 118.601C34.8535 115.486 35.3726 110.489 34.0748 107.894C33.5557 106.336 32.777 105.038 31.9983 104.26Z" fill="white"></path>
  <path d="M36.4121 104.26C38.4886 107.115 38.4886 110.814 38.7482 113.669C42.6417 110.814 47.3787 108.932 52.3753 110.294C49.001 107.699 46.6 105.557 42.447 104L36.4121 104.26Z" fill="white"></path>
  <path d="M55.7486 151.111L54.9699 153.188L53.9317 150.592C51.5956 151.111 49.1946 151.89 47.8968 154.485C47.6372 155.264 48.1563 156.562 47.3777 157.081C45.8203 156.821 46.599 154.226 46.599 152.603C48.4159 150.787 53.4125 146.828 55.2295 148.45C55.7486 148.71 56.0082 150.008 55.7486 151.111ZM45.3011 169.929C44.0033 168.891 44.5224 167.074 44.5224 165.776L45.3011 164.998C46.599 169.151 50.0382 164.219 52.6338 164.738C53.9317 164.219 53.4125 162.402 54.7103 162.662C56.8517 169.151 48.9999 167.853 45.3011 169.929ZM64.1196 170.708C65.1578 162.078 64.3791 152.928 58.0847 146.893C56.7869 146.634 54.9699 147.412 53.9317 146.114C51.0764 148.71 47.3777 149.748 44.782 152.668C41.9268 153.447 39.0067 151.63 36.1515 151.111C36.1515 150.592 36.1515 150.332 36.1515 150.073C32.258 152.668 33.2963 157.925 32.5176 161.818C33.5558 166.296 38.5525 168.112 41.6672 170.708C46.6638 171.487 51.0764 169.41 55.2944 167.853C56.0731 168.632 57.1113 169.151 56.5922 170.189C53.2179 174.926 48.2212 177.003 42.4459 176.483C45.8203 183.037 43.4842 190.63 39.8503 196.34H43.2246C53.6721 191.603 63.3409 184.335 64.1196 170.708Z" fill="white"></path>
  <path d="M71.71 135.407C68.8548 125.479 59.9647 112.111 48.1545 112.89C43.677 113.15 39.2644 116.524 37.707 119.185C40.8218 121.001 44.261 123.662 47.1162 126.258C46.8567 127.296 47.6354 128.594 46.3376 129.113C44.7802 127.815 43.4823 124.635 41.3409 125.739C42.8983 129.113 47.1162 129.372 50.231 130.216C51.5288 131.514 51.0097 133.59 53.6054 132.552C54.9032 132.812 55.4223 134.369 55.6819 135.407C53.6054 139.301 47.8301 136.705 44.7153 137.484C47.3109 138.522 50.231 138.782 52.5671 140.339C54.9032 141.896 55.6819 138.263 56.7201 136.965C60.8732 138.003 58.5371 142.48 60.354 144.817C69.2441 153.966 67.4272 170.189 62.9497 180.636C75.4088 169.929 74.3705 145.336 71.71 135.407Z" fill="white"></path>
</svg>
