<?xml version="1.0" encoding="UTF-8"?>
<svg xmlns="http://www.w3.org/2000/svg" width="500" height="300" viewBox="0 0 500 300" fill="none">
  <path d="M101.04 151.478C101.04 165.271 84.738 182.407 72.1997 190.348C60.0589 182.407 43.3597 165.271 43.3597 151.478V109.271H101.04V151.478ZM41.6797 107.597V151.478C41.6797 166.526 59.2301 184.518 72.1829 192.851C85.1412 184.496 102.692 166.94 102.692 151.478V107.597H41.6797Z" fill="white"></path>
  <path d="M53.7933 151.478H52.1133V169.869C52.5333 170.703 53.3677 171.123 53.7933 171.958V151.478Z" fill="white"></path>
  <path d="M80.5391 176.135H87.2255C87.9099 175.549 88.4796 174.841 88.9055 174.046C85.958 173.687 82.9819 174.431 80.5503 176.135" fill="white"></path>
  <path d="M92.2366 151.478H90.5566V172.378C90.9766 171.538 91.811 171.123 92.2366 170.283V151.478Z" fill="white"></path>
  <path d="M64.2361 176.135C61.7329 174.881 58.8041 173.626 55.4609 174.046C55.8809 174.881 56.7153 175.301 57.1409 176.135H64.2361Z" fill="white"></path>
  <path d="M64.6405 159.419C64.6405 158.165 65.4749 155.242 68.4037 155.242C71.3325 155.242 72.1613 157.33 72.1613 157.33C72.5726 156.704 73.13 156.186 73.7855 155.822C74.441 155.458 75.175 155.259 75.9245 155.242C78.4333 155.242 79.6877 158.165 79.6877 159.419C79.6877 163.597 72.1613 167.78 72.1613 169.034C72.1613 167.78 64.6405 163.182 64.6405 159.419ZM71.7469 170.283H72.5813V179.478C75.5045 176.555 81.3565 171.958 88.8773 171.958V148.135C87.1973 148.135 85.1197 147.721 83.0309 147.721C76.3445 147.721 73.4157 150.224 73.4157 150.224C73.4157 150.224 72.5813 151.064 72.5813 153.987H71.7469C71.7469 151.064 70.9069 150.224 70.9069 150.224C70.9069 150.224 67.9837 147.721 61.2973 147.721C59.6173 147.721 57.1197 147.721 55.4453 148.135V171.958C62.5517 171.958 68.8181 176.555 71.7469 179.478V170.283Z" fill="white"></path>
  <path d="M98.923 145.212C98.923 145.212 100.177 143.532 100.177 141.852C100.177 139.343 97.2542 135.58 93.0766 135.58C91.8222 135.58 90.9822 136 89.7166 136L98.4918 122.207L84.2958 131.419C84.2958 129.739 84.2958 127.656 85.5502 126.379C86.8046 125.102 89.3134 125.13 89.3134 125.13C88.5481 124.354 87.8493 123.515 87.2246 122.622C85.1358 120.942 80.5382 120.533 77.6094 123.876C76.9094 124.607 76.341 125.454 75.9294 126.379L72.1662 110.503L67.9998 128.076C66.7454 126.822 65.491 125.567 65.491 123.898C65.491 122.644 67.171 120.97 67.171 120.97C66.7853 120.606 66.318 120.341 65.8083 120.196C65.2987 120.05 64.7616 120.03 64.2422 120.135C61.739 120.135 57.9759 123.064 58.3959 127.656C58.4761 128.678 58.7598 129.674 59.2303 130.585L46.6919 122.644L55.8815 137.691C53.7927 137.691 51.7039 138.531 50.0295 137.277C48.3495 136.442 48.3495 133.917 48.3495 133.917C47.1795 134.288 46.1578 135.022 45.4319 136.011C44.1775 137.691 44.1775 142.278 47.9407 145.206C49.7939 146.15 51.7606 146.852 53.7927 147.295V146.875C55.5935 146.629 57.4074 146.491 59.2247 146.461V145.621C56.2959 146.041 52.1183 146.041 49.6095 144.366C46.6863 141.443 47.1063 138.52 47.1063 138.52C47.3934 139.051 47.8293 139.487 48.3607 139.774C51.7207 142.278 55.4615 138.934 58.3903 141.454C59.2247 141.874 59.6446 142.709 60.0702 143.134C60.4902 142.294 60.4903 141.88 60.9047 141.04L53.3839 130.176L63.8222 137.691C64.2366 137.277 65.0766 136.857 65.5022 136.442C64.2478 135.602 60.9047 131.402 60.9047 128.082C60.9047 124.318 63.4134 123.07 63.4134 123.07C63.1608 123.595 63.0179 124.167 62.9934 124.75C63.4134 129.347 68.0334 129.347 68.0334 133.525V135.205C68.6744 134.866 69.4 134.72 70.1222 134.785L72.211 120.992L74.2998 134.785C75.1398 134.785 75.5542 135.205 76.3942 135.205C76.3942 133.116 76.8086 128.933 79.3174 126.424C80.0035 125.703 80.8632 125.169 81.8142 124.875C82.7653 124.581 83.7759 124.536 84.7494 124.744C84.7494 124.744 83.495 124.744 83.0694 125.578C80.1406 128.938 83.0694 132.265 80.5606 135.194L79.3062 136.448C79.7262 136.862 80.5606 137.282 80.9862 137.697L91.4358 130.176L83.4614 141.051C83.9033 141.514 84.1942 142.1 84.2958 142.731C85.9758 141.051 88.479 138.554 92.2366 138.554C93.2687 138.506 94.2927 138.756 95.1864 139.274C96.0801 139.793 96.8058 140.557 97.2766 141.477C96.7509 141.224 96.1793 141.082 95.5966 141.057C91.419 141.057 90.1646 145.654 86.407 145.654H85.1358V146.494C87.2246 146.494 89.3134 146.909 90.1758 146.909C92.2646 145.654 93.5358 143.549 95.6078 143.549C97.2878 143.134 98.9678 145.229 98.9678 145.229" fill="white"></path>
  <path d="M90.5684 150.224H93.4916V168.194C97.2548 162.762 99.7635 156.91 99.7635 151.898V148.135H90.5684V150.224Z" fill="white"></path>
  <path d="M44.5977 151.478C44.5977 156.91 47.1064 162.342 50.864 167.78V150.224H53.7928V148.135H44.5977V151.478Z" fill="white"></path>
  <path d="M72.1784 149.39C72.781 148.832 73.4921 148.405 74.2672 148.135C75.9472 147.301 78.4504 146.455 82.628 146.455C82.208 141.415 77.588 137.26 72.1784 137.26C66.7688 137.26 62.5688 141.438 61.7344 146.455C64.6095 146.389 67.4633 146.963 70.0896 148.135C71.7696 148.555 72.1784 149.39 72.1784 149.39Z" fill="white"></path>
  <path d="M72.1778 182.402C70.5378 180.283 68.5608 178.448 66.3258 176.97H58.3906C62.9882 182.01 68.0002 186.165 72.1778 188.674C77.0947 185.165 81.7085 181.25 85.9706 176.97H78.0298C74.6698 179.898 72.1778 182.402 72.1778 182.402Z" fill="white"></path>
  <path d="M137.372 174.046V174.881H138.627C139.047 174.881 139.461 174.881 139.461 175.301C139.461 175.721 139.881 176.135 139.881 176.981V184.922C139.881 189.099 137.372 189.962 134.841 189.962C131.481 189.962 129.829 189.122 129.829 185.364V176.97C129.829 176.135 129.829 175.29 130.244 175.29C130.244 174.87 130.664 174.87 131.084 174.87H132.338V174.035H125.254V174.87H126.508C126.923 174.87 127.343 174.87 127.343 175.29C127.343 175.71 127.763 176.124 127.763 176.97V185.75C127.763 190.342 130.266 191.597 134.449 191.597C139.461 191.597 141.55 189.508 141.55 184.496V177.39C141.55 176.555 141.55 175.71 141.97 175.71C141.97 175.295 142.39 175.295 142.804 175.295H144.059V174.461H141.135C139.455 174.461 138.207 174.041 137.372 174.041" fill="white"></path>
  <path d="M178.32 174.046V174.881H179.569C179.989 174.881 180.409 174.881 180.409 175.301C180.409 175.721 180.824 176.135 180.824 176.981V188.265L169.136 174.046H164.953V174.881H166.208C166.628 174.881 167.048 174.881 167.048 175.301C167.048 175.721 167.462 176.135 167.462 176.981V187.85C167.462 188.685 167.462 189.53 167.048 189.53C167.048 189.95 166.628 189.95 166.208 189.95H164.953V190.785H170.805V189.95H169.551C169.136 189.95 168.716 189.95 168.716 189.53C168.716 189.11 168.296 188.696 168.296 187.85V176.555L179.58 190.762L181.675 191.182V176.97C181.675 176.135 181.675 175.29 182.089 175.29C182.089 174.87 182.509 174.87 182.924 174.87H184.178V174.035H181.255C180 174.455 179.166 174.035 178.332 174.035" fill="white"></path>
  <path d="M205.49 174.046V174.881H206.745C207.165 174.881 207.579 174.881 207.579 175.301C207.579 175.721 207.999 176.135 207.999 176.981V187.85C207.999 188.685 207.999 189.53 207.579 189.53C207.579 189.95 207.165 189.95 206.745 189.95H205.49V190.785H212.597V189.95H211.359C210.945 189.95 210.525 189.95 210.525 189.53C210.525 189.11 210.105 188.696 210.105 187.85V176.97C210.105 176.135 210.105 175.29 210.525 175.29C210.525 174.87 210.945 174.87 211.359 174.87H212.613V174.035H209.253C208.034 174.455 206.71 174.455 205.49 174.035" fill="white"></path>
  <path d="M245.614 174.046V174.881H246.863C247.283 174.881 247.703 174.881 247.703 175.715C247.703 176.135 247.703 176.135 247.283 176.555L242.685 188.254L238.088 175.715V175.301C238.088 174.881 238.508 174.881 238.922 174.881H240.177V174.046H233.49V174.881H234.319C234.733 174.881 235.153 175.301 235.568 175.715L240.165 186.999C240.585 188.254 241 189.508 241.42 191.182H242.674C242.976 189.698 243.545 188.28 244.354 186.999L248.532 176.555C248.946 175.301 249.366 174.875 249.786 174.875H250.621V174.041H248.112C247.277 174.461 246.432 174.041 245.609 174.041" fill="white"></path>
  <path d="M284.06 189.928C283.645 190.348 281.137 190.348 279.02 190.348H276.925V183.662H279.854C281.534 183.662 282.363 183.662 282.363 184.076V185.756H283.617V180.324H282.777V182.413C282.363 182.413 281.523 182.827 280.274 182.827H277.345V175.301H279.434C281.114 175.301 282.794 175.301 284.032 175.721C284.26 175.945 284.408 176.238 284.452 176.555V178.235H285.286C285.218 176.968 285.36 175.698 285.706 174.478H272.361V175.312H273.61C274.03 175.312 274.45 175.312 274.45 175.732C274.45 176.152 274.865 176.566 274.865 177.412V188.276C274.865 189.116 274.865 189.956 274.45 189.956C274.45 190.376 274.03 190.376 273.61 190.376H272.776V191.21H285.734C285.666 189.803 285.806 188.394 286.149 187.027H285.314C284.894 188.707 284.48 189.536 284.06 189.956" fill="white"></path>
  <path d="M316.639 182.402C319.148 181.987 321.237 180.313 321.237 177.81C321.237 176.13 320.403 174.046 316.639 174.046H307.881V174.881H308.715C309.135 174.881 309.55 174.881 309.55 175.301C309.55 175.721 309.97 176.135 309.97 176.981V187.85C309.97 188.685 309.97 189.53 309.55 189.53C309.55 189.95 309.135 189.95 308.715 189.95H307.461V190.785H314.567V189.95H313.313C312.893 189.95 312.479 189.95 312.479 189.53C312.479 189.11 312.059 188.696 312.059 187.85V175.301C312.893 175.301 313.313 174.881 314.567 174.881C316.656 174.881 318.325 175.721 318.325 178.241C318.325 179.921 317.076 181.17 314.965 181.601H312.456V182.021C312.972 182.5 313.397 183.069 313.711 183.701L318.303 189.553C318.723 189.973 319.143 190.387 319.143 190.807H322.503V189.973C322.171 190.016 321.833 189.959 321.534 189.809C321.235 189.66 320.987 189.424 320.823 189.133L316.639 182.402Z" fill="white"></path>
  <path d="M350.923 181.567C347.999 181.153 346.745 180.313 346.745 178.644C346.741 178.149 346.835 177.657 347.022 177.199C347.21 176.74 347.487 176.323 347.837 175.973C348.188 175.623 348.604 175.346 349.063 175.158C349.521 174.971 350.013 174.876 350.508 174.881C351.343 174.881 352.597 174.881 353.011 175.301C353.851 175.721 353.851 176.135 354.266 176.555V177.81H355.106C355.037 176.674 355.177 175.535 355.52 174.45C354.064 173.848 352.497 173.561 350.923 173.61C347.999 173.61 344.656 175.29 344.656 179.047C344.656 181.55 346.336 182.805 350.088 183.225C352.597 183.639 354.266 184.059 354.266 186.585C354.266 189.11 352.177 190.348 350.088 190.348C347.999 190.348 346.331 189.508 345.911 188.254V186.574H345.076V190.751C346.397 191.314 347.819 191.598 349.254 191.586C353.011 191.586 356.775 189.497 356.775 185.319C356.36 182.81 354.266 181.959 350.923 181.556" fill="white"></path>
  <path d="M378.09 174.046V174.881H379.361C379.781 174.881 380.195 174.881 380.195 175.301C380.195 175.721 380.615 176.135 380.615 176.981V187.85C380.615 188.685 380.615 189.53 380.195 189.53C380.195 189.95 379.781 189.95 379.361 189.95H378.107V190.785H385.213V189.95H383.959C383.539 189.95 383.124 189.95 383.124 189.53C383.124 189.11 382.704 188.696 382.704 187.85V176.97C382.704 176.135 382.704 175.29 383.124 175.29C383.124 174.87 383.539 174.87 383.959 174.87H385.213V174.035H381.853C380.634 174.455 379.309 174.455 378.09 174.035" fill="white"></path>
  <path d="M415.285 174.466H406.51V178.224H407.361V176.135C407.377 175.919 407.469 175.716 407.623 175.562C407.776 175.409 407.979 175.316 408.195 175.301H411.959V188.253C411.959 189.093 411.959 189.933 411.539 189.933C411.539 190.348 411.124 190.348 410.704 190.348H409.433V191.188H416.539V190.331H415.285C414.865 190.331 414.451 190.331 414.451 189.917C414.451 189.502 414.031 189.082 414.031 188.237V175.301H417.794C418.628 175.301 418.628 175.721 418.628 176.135V178.224H419.463V174.466H415.285Z" fill="white"></path>
  <path d="M452.895 178.644L450.391 182.822L447.031 176.555C446.611 176.135 446.197 175.301 445.777 174.875C445.357 174.45 444.937 174.041 444.523 174.041L441.594 174.461V175.295H442.434C442.848 175.295 444.114 176.13 445.357 178.655L448.286 184.087C448.286 184.507 448.7 184.507 448.7 184.922V188.282C448.7 189.116 448.7 189.962 448.286 189.962C448.286 190.376 447.866 190.376 447.446 190.376H446.197V191.216H453.298V190.331H452.043C451.629 190.331 451.209 190.331 451.209 189.917C451.209 189.502 450.789 189.077 450.789 188.237V184.877C450.789 184.462 450.789 183.622 451.209 183.197C452.043 181.108 454.967 176.925 457.061 174.422V174.002H454.961C454.889 175.748 454.14 177.397 452.872 178.599" fill="white"></path>
  <path d="M170.39 148.97H167.882L167.047 153.153C166.627 154.833 166.207 157.75 165.367 158.585C164.113 159.839 153.669 160.265 146.983 160.265C144.888 160.265 142.385 160.265 139.876 159.43V115.958C139.876 112.598 139.876 110.526 140.711 109.686C140.711 108.851 141.965 108.437 143.634 108.437L147.817 108.017V105.928C143.634 105.928 139.456 106.342 135.699 106.342C131.515 106.342 127.758 106.343 123.16 105.928V108.437L127.338 108.851C129.427 108.851 130.261 109.271 130.698 110.106C131.135 110.94 131.532 113.029 131.532 116.372V156.076C131.532 158.165 130.698 160.254 129.443 161.116L126.923 162.331V164.426C129.018 164.426 131.107 164.006 134.03 164.006C139.07 164.006 144.894 164.006 152.42 164.426H154.923C160.361 164.426 165.793 164.426 168.716 164.006C169.551 159.408 169.971 153.556 170.396 148.958" fill="white"></path>
  <path d="M214.272 158.999C212.592 159.839 204.237 160.254 197.551 160.254C195.462 160.254 192.959 160.254 190.45 159.419V136.459C192.959 136.039 196.296 136.039 200.06 136.039C205.1 136.039 208 136.459 208.835 136.874C209.255 137.294 209.255 137.714 209.669 138.962L210.089 144.002H212.598C212.598 141.079 212.178 137.736 212.178 134.807C212.117 131.598 212.257 128.389 212.598 125.198H210.089L209.669 129.375C209.707 129.765 209.651 130.158 209.506 130.521C209.36 130.884 209.13 131.208 208.835 131.464C208 131.884 205.077 132.298 200.06 132.298C195.882 132.298 192.959 132.298 190.45 131.884V110.106C192.788 109.621 195.164 109.342 197.551 109.271C202.988 109.271 209.669 109.271 213.852 110.951C214.687 111.371 214.687 112.206 214.687 113.046V118.478H217.61C217.61 114.294 218.03 109.282 218.864 105.939C215.504 105.939 211.764 105.519 208 105.519C203.403 105.519 195.462 105.939 188.356 105.939H174.148V108.448L178.332 108.862C180.42 108.862 181.255 109.282 181.692 110.117C182.128 110.951 182.526 113.046 182.526 116.389V153.987C182.526 157.347 182.526 159.419 181.692 160.254C181.272 161.094 180.012 161.508 178.332 161.508L175.403 161.928V164.437C178.332 164.437 181.255 164.017 184.178 164.017C189.218 164.017 195.882 164.017 202.568 164.437H205.077C210.509 164.437 215.941 164.437 218.864 164.017C218.849 159.39 219.269 154.772 220.119 150.224H217.196C216.776 154.822 215.516 158.585 214.272 158.999Z" fill="white"></path>
  <path d="M267.763 105.928V108.437L271.941 108.851C274.03 108.851 274.864 109.271 275.301 110.106C275.738 110.94 276.135 113.034 276.135 116.372V131.419H242.267V115.958C242.267 112.598 242.267 110.526 243.107 109.686C243.947 108.846 244.787 108.437 246.864 108.437L251.047 108.017V105.928C246.864 105.928 242.687 106.342 238.923 106.342C234.746 106.342 230.983 106.342 226.391 105.928V108.437L230.568 108.851C232.657 108.851 233.491 109.271 233.928 110.106C234.365 110.94 234.763 113.034 234.763 116.372V153.987C234.763 157.347 234.763 159.419 233.928 160.254C233.508 161.094 232.248 161.508 230.568 161.508L226.391 161.928V164.437C230.568 164.437 234.746 164.017 238.923 164.017C242.969 163.954 247.016 164.094 251.047 164.437V161.928L246.864 161.508C244.775 161.508 243.941 161.094 243.504 160.254C243.067 159.414 242.67 157.33 242.67 153.987V134.762H276.522V153.567C276.522 156.927 276.522 158.999 275.687 159.839C275.267 160.674 274.007 161.094 272.327 161.094L268.144 161.508V164.011C272.327 164.011 276.505 163.591 280.683 163.591C284.727 163.528 288.771 163.669 292.801 164.011V161.502L288.623 161.088C286.535 161.088 285.7 160.668 285.263 159.834C284.827 158.999 284.429 156.905 284.429 153.562V115.958C284.429 112.598 284.429 110.526 285.263 109.686C284.843 108.851 286.098 108.437 288.187 108.437H292V105.928C287.823 105.928 283.639 106.342 279.882 106.342C275.852 105.997 271.807 105.859 267.763 105.928Z" fill="white"></path>
  <path d="M299.521 105.928V108.437L303.704 108.851C305.793 108.851 306.627 109.271 307.064 110.106C307.501 110.94 307.898 113.034 307.898 116.372V153.987C307.898 157.347 307.898 159.419 307.064 160.254C306.644 161.094 305.384 161.508 303.704 161.508L299.521 161.928V164.437C303.704 164.437 307.881 164.017 312.059 164.017C316.103 163.954 320.148 164.094 324.177 164.437V161.928L320 161.508C317.911 161.508 317.077 161.094 316.64 160.254C316.203 159.414 315.805 157.33 315.805 153.987V116.372C315.805 113.012 315.805 110.94 316.64 110.106C316.64 108.851 317.894 108.426 319.563 108.426L323.746 108.006V105.917C319.563 105.917 315.385 106.331 311.628 106.331C307.596 105.986 303.55 105.848 299.504 105.917" fill="white"></path>
  <path d="M377.68 141.051H367.645V143.56L374.746 143.98C376.835 143.98 377.675 144.814 377.675 146.903V155.264C377.675 157.353 377.675 157.773 377.255 158.624C376.835 160.304 371.823 161.547 365.551 161.547C348.42 161.547 338.805 149.429 338.805 133.133C338.805 118.086 347.166 107.636 363.047 107.636C368.479 107.636 372.237 108.056 374.746 109.316C378.509 110.57 381.852 112.239 381.852 116.002V120.6H384.361C384.361 116.417 385.195 111.825 386.041 108.062C379.32 105.756 372.253 104.619 365.147 104.702C344.668 104.282 329.621 116.4 329.621 134.79C329.621 155.684 344.668 165.299 363.059 165.299C368.905 165.299 377.686 163.21 385.207 161.122V146.881C385.207 144.372 385.207 143.958 386.041 143.958L388.55 143.123L388.13 141.029L377.68 141.051Z" fill="white"></path>
  <path d="M434.51 105.928V108.437L438.688 108.851C440.777 108.851 441.611 109.271 442.048 110.106C442.485 110.94 442.882 113.035 442.882 116.372V131.419H409.041V115.958C409.041 112.598 409.041 110.526 409.876 109.686C410.71 108.846 411.965 108.437 414.053 108.437L418.231 108.017V105.928C414.053 105.928 409.876 106.343 406.113 106.343C401.935 106.343 398.172 106.343 393.574 105.928V108.437L397.757 108.851C399.846 108.851 400.681 109.271 401.117 110.106C401.554 110.94 401.952 113.035 401.952 116.372V153.987C401.952 157.347 401.952 159.419 401.117 160.254C400.697 161.094 399.437 161.508 397.757 161.508L393.574 161.928V164.437C397.757 164.437 401.935 164.017 406.113 164.017C410.157 163.954 414.201 164.094 418.231 164.437V161.928L414.053 161.508C411.965 161.508 411.13 161.094 410.693 160.254C410.257 159.414 409.859 157.33 409.859 153.987V134.762H443.705V153.567C443.705 156.927 443.705 158.999 442.865 159.839C442.451 160.674 441.185 161.094 439.505 161.094L435.328 161.508V164.011C439.505 164.011 443.689 163.591 447.866 163.591C451.916 163.528 455.966 163.668 460.001 164.011V161.502L455.824 161.088C453.735 161.088 452.895 160.668 452.464 159.834C452.033 158.999 451.624 156.905 451.624 153.562V115.958C451.624 112.598 451.624 110.526 452.464 109.686C452.044 108.851 453.298 108.437 454.967 108.437L459.15 108.017V105.928C454.967 105.928 450.789 106.343 447.032 106.343C442.862 105.991 438.677 105.852 434.493 105.928" fill="white"></path>
</svg>
