<?xml version="1.0" encoding="UTF-8"?>
<svg xmlns="http://www.w3.org/2000/svg" width="500" height="300" viewBox="0 0 500 300" fill="none">
  <path d="M72.1896 192.318C43.1414 192.318 40.0137 173.444 40.0137 165.355H55.3287C55.3287 169.202 57.1622 178.154 71.0032 178.154C74.6239 178.32 78.2328 177.631 81.5368 176.14C83.0775 175.416 84.3682 174.25 85.2451 172.791C86.122 171.331 86.5455 169.644 86.462 167.944C86.462 161.976 81.393 160.286 73.0524 158.165L65.0354 156.152C52.7402 153.096 41.1641 150.22 41.1641 132.424C41.0847 126.716 42.9482 121.151 46.4489 116.642C51.3741 110.674 59.4271 107.582 70.2123 107.582C74.5493 107.278 78.8989 107.961 82.9339 109.58C86.9689 111.199 90.5843 113.712 93.5084 116.93C97.3042 121.691 99.3817 127.594 99.4043 133.683H84.0893C83.6938 130.411 82.6513 121.747 68.9181 121.747C65.8987 121.685 62.9144 122.403 60.2539 123.832C58.9457 124.555 57.8635 125.627 57.1274 126.928C56.3912 128.229 56.0299 129.708 56.0837 131.202C56.0837 137.457 60.937 138.68 63.849 139.435L82.076 144.252C92.322 146.948 101.813 151.442 101.813 165.823C102.13 170.332 101.134 174.836 98.9455 178.792C96.7573 182.747 93.4703 185.985 89.4819 188.112C84.1315 190.862 78.2052 192.303 72.1896 192.318Z" fill="white"></path>
  <path d="M200.82 190.233L196.039 173.732H168.644L163.432 190.233H146.643L173.39 109.74H191.653L218.149 190.233H200.82ZM172.923 159.531H191.545L182.378 128.218L172.923 159.531Z" fill="white"></path>
  <path d="M395.459 190.233H338.369V109.704H393.769V124.3H354.223V140.837H390.462V155.217H353.972V175.529H395.459V190.233Z" fill="white"></path>
  <path d="M282.829 181.282V122.394C282.904 118.396 284.563 114.591 287.441 111.814C290.319 109.037 294.181 107.515 298.18 107.582C301.963 107.509 305.639 108.838 308.5 111.314C311.361 113.79 313.205 117.238 313.675 120.992L318.78 147.236L304.184 150.22L298.755 122.322C298.755 122.322 298.755 121.963 298.395 121.999C298.036 122.035 298.144 122.25 298.144 122.358V175.637H334.921V190.233H290.882C288.66 190.026 286.598 188.989 285.106 187.331C283.614 185.672 282.801 183.512 282.829 181.282Z" fill="white"></path>
  <path d="M237.562 190.233H221.6V109.74H255.969C270.349 109.74 279.336 119.626 279.336 135.588C279.274 141.085 277.761 146.467 274.951 151.191C272.899 154.488 269.997 157.17 266.548 158.954C263.1 160.739 259.233 161.559 255.357 161.329H237.562V190.233ZM237.562 147.092H251.942C263.446 147.092 263.446 138.464 263.446 134.761C263.446 127.032 259.492 123.976 249.857 123.976H237.526L237.562 147.092Z" fill="white"></path>
  <path d="M139.347 190.233H123.385V124.228H100.736V109.848H161.853V124.228H139.347V190.233Z" fill="white"></path>
  <path d="M430.333 192.318C401.321 192.318 398.193 173.444 398.193 165.355H413.508C413.508 169.202 415.342 178.154 429.183 178.154C432.803 178.316 436.411 177.627 439.716 176.14C441.257 175.416 442.548 174.25 443.425 172.791C444.302 171.331 444.725 169.644 444.642 167.944C444.642 161.976 439.573 160.286 431.232 158.165L423.215 156.152C410.92 153.096 399.308 150.184 399.308 132.424C399.218 126.721 401.069 121.156 404.557 116.642C409.518 110.674 417.463 107.582 428.176 107.582C432.513 107.278 436.863 107.961 440.898 109.58C444.933 111.199 448.548 113.712 451.472 116.93C455.333 121.667 457.474 127.572 457.548 133.683H442.197C441.802 130.411 440.795 121.747 427.062 121.747C424.042 121.685 421.058 122.403 418.398 123.832C417.08 124.547 415.988 125.616 415.245 126.918C414.502 128.22 414.137 129.704 414.191 131.202C414.191 137.457 419.081 138.68 421.993 139.399L440.22 144.216C450.466 146.913 459.921 151.406 459.957 165.787C460.27 170.3 459.269 174.807 457.074 178.763C454.879 182.719 451.585 185.954 447.59 188.076C442.256 190.841 436.341 192.295 430.333 192.318Z" fill="white"></path>
</svg>
