<?xml version="1.0" encoding="UTF-8"?>
<svg xmlns="http://www.w3.org/2000/svg" width="500" height="300" viewBox="0 0 500 300" fill="none">
  <g clip-path="url(#clip0_269_4926)">
    <path d="M87.7733 102V198.6H116.14V123.467L87.7733 102ZM76.4267 110.51V198.6H82.2533V106.14L76.4267 110.51ZM65.1567 119.097V198.6H70.9833V114.65L65.1567 119.097ZM53.8867 127.607V198.6H59.7133V123.237L53.8867 127.607ZM121.583 198.6H150.027V166.783L121.583 145.24V198.6ZM42.6167 153.75V198.6H48.3667V149.303L42.6167 153.75ZM31.27 162.26V198.6H37.0967V157.89L31.27 162.26ZM20 170.847V198.6H25.8267V166.4L20 170.847Z" fill="white"></path>
    <path d="M223.32 155.82C214.81 155.82 209.597 151.067 209.597 141.713V123.467H216.574V141.483C216.574 146.697 219.18 149.303 223.397 149.303C227.69 149.303 230.22 146.697 230.22 141.637V123.39H237.197V141.33C237.274 151.067 231.83 155.82 223.32 155.82ZM258.28 155.743C253.45 155.743 248.62 154.057 244.787 150.683L248.927 145.7C251.764 148.077 254.754 149.533 258.434 149.533C261.27 149.533 263.034 148.383 263.034 146.543V146.467C263.034 144.703 261.96 143.783 256.594 142.403C250.154 140.793 246.09 138.877 246.09 132.59V132.513C246.09 126.763 250.69 122.93 257.207 122.93C261.807 122.93 265.794 124.387 269.014 126.993L265.41 132.283C262.574 130.367 259.814 129.14 257.13 129.14C254.447 129.14 253.067 130.367 253.067 131.9C253.067 133.97 254.447 134.813 259.89 136.193C266.33 137.88 270.01 140.18 270.01 145.7V145.777C269.934 152.217 265.18 155.743 258.28 155.743ZM299.374 155.283V142.48H286.417V155.283H279.44V123.467H286.417V136.04H299.374V123.467H306.35V155.283H299.374ZM420.66 155.283L405.71 135.35V155.283H398.81V123.467H405.25L420.124 143.63V123.467H427.024V155.283H420.66ZM283.887 198.6L274.074 185.03L270.394 188.863V198.6H263.34V166.783H270.394V180.66L283.274 166.783H291.707L278.75 180.277L292.32 198.6H283.887ZM300.14 198.6V166.783H323.907V172.993H307.117V179.433H321.837V185.643H307.117V192.39H324.137V198.6H300.14ZM367.76 166.783H374.737V198.6H367.76V166.783ZM385.01 198.523V166.707H408.777V172.993H391.987V179.433H406.784V185.643H391.987V192.313H409.007V198.523H385.01ZM419.51 198.6V166.783H426.487V192.237H442.357V198.6H419.51ZM463.134 198.6H450.714V166.783H463.134C473.1 166.783 480 173.607 480 182.577V182.653C480 191.623 473.1 198.6 463.134 198.6ZM472.717 182.653C472.717 177.057 468.884 173.07 463.134 173.07H457.69V192.237H463.134C468.884 192.237 472.717 188.403 472.717 182.73V182.653ZM188.744 149.303C182.917 149.38 179.007 144.933 178.93 139.49V139.413C178.854 133.97 182.687 129.447 188.284 129.37C191.427 129.293 194.264 130.673 196.104 132.897L200.55 127.607C197.484 124.617 193.19 122.853 188.284 122.93C178.47 123.083 171.494 130.597 171.647 139.643V139.72C171.8 148.767 179.007 155.973 188.744 155.743C193.88 155.667 198.25 153.29 201.24 149.917L196.564 145.317C194.8 147.693 192.04 149.227 188.744 149.303ZM341.924 123.467H349.36V155.283H342.69V134.43L333.72 148.077H333.49L324.444 134.43V155.283H317.85V123.467H325.287L333.567 136.807L341.924 123.467ZM370.75 123.467L357.257 155.207H364.387L367.3 148.077H380.717L383.63 155.207H390.914L377.42 123.39H370.75V123.467ZM369.754 141.943L373.97 131.67L378.187 141.943H369.754ZM235.357 166.783L221.864 198.6H228.994L231.907 191.47H245.324L248.237 198.6H255.52L242.027 166.783H235.357ZM234.36 185.26L238.577 174.987L242.794 185.26H234.36ZM341.004 173.147V179.893H355.954V186.257H341.004V198.6H333.95V166.783H358.177V173.147H341.004ZM214.35 166.783L206.99 188.94L199.554 166.783H192.807L185.447 188.94L178.087 166.783H170.65L182.074 198.6H189.05L196.18 176.75L203.387 198.6H210.364L221.787 166.783H214.35ZM471.644 147.387L475.324 143.323L470.877 138.57L467.657 142.403L463.67 137.727C466.277 136.193 467.964 133.357 467.81 130.443C467.657 126.15 464.13 122.93 459.607 122.93C457.46 122.93 455.467 123.773 454.01 125.307C452.554 126.84 451.787 128.833 451.864 130.98C451.94 133.357 453.55 135.427 454.7 136.807C450.944 138.34 448.184 142.327 448.337 146.16C448.49 151.603 453.244 156.05 458.84 156.05C461.984 156.05 465.434 154.363 467.58 151.987L470.417 155.437H478.62L471.644 147.387ZM463.824 147.08C462.367 148.997 460.527 150.07 458.917 150.07C456.617 150.07 454.624 148.153 454.547 145.853C454.47 144.473 455.544 142.327 458.764 140.87L463.824 147.08ZM459.914 133.893C459.07 133.127 458.074 132.053 457.92 130.903C457.767 129.753 458.457 128.45 459.99 128.373C461.6 128.297 462.444 129.447 462.444 130.75C462.367 132.207 460.91 133.357 459.914 133.893Z" fill="white"></path>
  </g>
  <defs>
    <clipPath id="clip0_269_4926">
      <rect width="460" height="96.6" fill="white" transform="translate(20 102)"></rect>
    </clipPath>
  </defs>
</svg>
