<?xml version="1.0" encoding="UTF-8"?>
<svg xmlns="http://www.w3.org/2000/svg" width="500" height="300" viewBox="0 0 500 300" fill="none">
  <path d="M165.506 138.916H127.706V146.031C127.706 154.369 134.377 161.262 142.715 161.262H151.943V179.606C151.943 182.052 149.941 183.942 147.607 183.942H90.2399C86.5711 183.942 83.6805 180.94 83.6805 177.383V138.916V123.24C83.6805 119.571 86.5711 116.681 90.2399 116.681H151.831V93H88.4611C84.014 93 79.6782 94.0006 75.6758 96.0018C70.117 98.67 65.67 103.228 63.0018 108.676C61.0006 112.678 60 117.014 60 121.461V179.05C60 183.497 61.0006 187.833 63.0018 191.836C65.67 197.394 70.2282 201.841 75.6758 204.51C79.6782 206.511 84.014 207.511 88.4611 207.511H136.267C145.161 207.511 152.387 200.285 152.387 191.391V184.943C152.387 184.387 152.832 183.831 153.388 183.831H153.499C166.284 183.497 174.511 177.272 174.511 166.487V138.916H165.506Z" fill="white"></path>
  <path d="M191.743 137.47C191.743 152.146 203.973 161.262 220.649 161.262H276.571C279.906 161.04 282.908 163.597 283.13 166.932C283.13 167.266 283.13 167.488 283.13 167.822V177.383C283.352 180.718 280.795 183.72 277.46 183.942C277.126 183.942 276.904 183.942 276.571 183.942H197.858V207.511H277.238C292.913 207.956 305.921 195.504 306.366 179.829C306.366 179.384 306.366 178.828 306.366 178.383V167.933C306.81 152.257 294.359 139.249 278.683 138.805C278.238 138.805 277.682 138.805 277.238 138.805H221.427C218.092 139.027 215.09 136.47 214.868 133.135C214.868 132.801 214.868 132.579 214.868 132.245V121.016C214.645 118.793 216.313 116.792 218.537 116.681C218.759 116.681 218.981 116.681 219.315 116.681H296.805V93H230.432C221.65 93 214.423 100.115 214.312 108.898V115.458C214.312 116.013 213.867 116.569 213.311 116.569H213.2C201.86 117.014 191.743 123.351 191.743 137.47Z" fill="white"></path>
  <path d="M325.488 174.047V207.511H349.058V155.036C349.058 152.702 350.836 152.257 352.171 153.591L407.759 207.511H440L381.076 150.256L440 93H407.759L352.171 146.92C350.836 148.255 349.058 147.81 349.058 145.475V93H325.488V126.686C325.488 138.805 333.382 146.031 347.39 149.922C347.946 150.145 347.946 150.7 347.39 150.812C333.382 154.592 325.488 161.929 325.488 174.047Z" fill="white"></path>
</svg>
