<?xml version="1.0" encoding="UTF-8"?>
<svg xmlns="http://www.w3.org/2000/svg" width="500" height="300" viewBox="0 0 500 300" fill="none">
  <path d="M128.758 106.03C124.043 106.03 117.238 107.529 104.932 111.622V189.26C115.752 192.789 124.043 194.853 128.758 194.853C139.626 194.853 145.753 187.696 145.753 176.215V124.668C145.753 113.187 139.626 106.03 128.758 106.03ZM132.3 174.22C132.3 178.713 129.792 180.208 126.794 180.208C124.46 180.208 120.858 179.295 117.92 178.431V122.421C120.858 121.587 124.46 120.674 126.794 120.674C129.792 120.674 132.3 122.169 132.3 126.663V174.22Z" fill="white"></path>
  <path d="M284.144 92.053C270.382 91.3361 262.187 97.8759 262.187 112.851V187.246C262.187 203.055 269.609 209.561 284.144 208.879C298.372 208.213 305.794 202.39 305.794 185.582V114.567C305.794 98.5409 299.08 92.8352 284.144 92.053ZM290.793 185.917C290.793 190.41 289.403 192.739 284.144 192.904C278.734 193.074 277.266 190.575 277.266 185.917V115.015C277.266 110.356 278.734 107.775 284.144 107.945C289.403 108.11 290.793 110.522 290.793 115.015V185.917Z" fill="white"></path>
  <path d="M417.929 121.089V179.693C434.815 171.058 444.51 161.024 444.51 150.273C444.51 139.64 434.815 129.658 417.929 121.089Z" fill="white"></path>
  <path d="M55 150.275C55 161.008 64.6818 171.06 81.5642 179.677V121.108C64.6818 129.659 55 139.641 55 150.275Z" fill="white"></path>
  <path d="M183.635 183.321C183.635 187.814 182.196 190.661 176.986 189.979C171.867 189.313 170.489 186.98 170.489 181.657V97.162C167.091 97.5611 159.513 98.6917 156.267 99.1914V184.651C156.267 198.296 162.42 203.606 176.986 205.401C190.314 207.048 198.479 199.795 198.479 184.651V94.3635C195.698 94.5323 186.572 95.3626 183.635 95.6977V183.321Z" fill="white"></path>
  <path d="M347.002 155.4L330.533 97.5782C326.048 96.9438 320.638 96.2962 316.462 95.879V205.017C319.4 204.722 326.887 203.805 330.75 203.27L329.576 138.961L347.002 200.759C350.713 200.128 356.123 199.112 359.682 198.382V102.484C355.971 101.702 349.227 100.472 345.981 99.9421L347.002 155.4Z" fill="white"></path>
  <path d="M230.737 92.6851C228.156 92.6851 218.739 93.0324 210.078 93.5843V207.316C213.016 207.481 220.746 207.916 224.922 208.033V169.409L230.737 169.397C246.294 169.348 252.756 161.845 252.756 147.4V113.887C252.756 99.7468 245.49 92.6851 230.737 92.6851ZM237.755 146.201C237.755 151.094 236.164 153.575 230.133 153.593L224.922 153.605V108.728C227.243 108.598 228.477 108.563 229.872 108.563C236.395 108.563 237.755 111.227 237.755 116.216V146.201Z" fill="white"></path>
  <path d="M367.026 119.259C370.703 119.967 374.322 120.754 377.851 121.588V194.154C381.097 193.337 387.129 191.642 391.149 190.36V125.012C395.007 126.09 398.645 127.168 401.973 128.193V114.201C391.475 110.255 380.202 107.043 367.026 104.084V119.259Z" fill="white"></path>
</svg>
