<?xml version="1.0" encoding="UTF-8"?>
<svg xmlns="http://www.w3.org/2000/svg" width="500" height="300" viewBox="0 0 500 300" fill="none">
  <path fill-rule="evenodd" clip-rule="evenodd" d="M25 109.204H45.2831V136.01H61.0815V109H81.1607V173.824H61.0815V144.164H45.0792V173.519H25V109.204Z" fill="white"></path>
  <path fill-rule="evenodd" clip-rule="evenodd" d="M113.268 125.002C117.243 124.798 121.218 125.41 124.989 126.633C130.493 128.366 135.08 132.137 137.832 137.131C141.501 144.062 142.011 152.216 139.361 159.657C137.424 165.161 133.347 169.747 128.149 172.397C123.664 174.436 118.772 175.353 113.879 175.149C107.866 175.353 102.056 173.722 97.0618 170.461C92.5771 167.301 89.4174 162.715 87.8886 157.516C85.6462 149.872 86.8693 141.616 91.4559 134.991C95.431 129.691 101.343 126.327 107.968 125.41C109.701 125.206 111.535 125.002 113.268 125.002ZM119.995 135.806C120.81 138.354 121.218 141.004 121.218 143.655V159.045C121.116 162.613 119.689 165.976 117.243 168.626C115.204 170.461 112.045 170.257 110.21 168.218C109.904 167.913 109.701 167.505 109.497 167.097C107.56 164.141 106.847 161.39 106.949 153.134C107.152 144.878 106.643 139.17 108.274 135.806C109.904 132.443 111.433 131.016 112.962 130.71C116.02 129.997 118.466 132.035 119.995 135.806Z" fill="white"></path>
  <path fill-rule="evenodd" clip-rule="evenodd" d="M165.351 139.781V173.62H146.597V126.531H165.351V132.85C167.084 130.608 169.326 128.671 171.874 127.448C177.276 124.798 183.494 124.594 189.099 126.735C193.584 128.671 196.642 132.952 196.948 137.743V173.518H178.499V140.902C178.601 139.17 178.092 137.335 176.97 135.908C175.136 134.277 172.384 134.073 170.243 135.195C167.593 136.724 165.045 139.374 165.351 139.781Z" fill="white"></path>
  <path fill-rule="evenodd" clip-rule="evenodd" d="M222.429 146.712C222.327 143.655 222.531 140.699 222.837 137.641C223.244 135.195 224.569 132.85 226.506 131.22C228.85 129.793 231.806 129.997 233.845 131.729C235.17 132.952 236.087 134.481 236.495 136.214C237.004 138.252 237.208 140.291 237.208 142.33V146.61L222.429 146.712ZM205.611 137.743C210.708 129.079 220.492 124.085 230.583 125.002C242.304 125.614 249.133 129.793 253.21 137.539C255.555 142.33 256.574 147.63 256.37 152.93H222.429V162.511C222.633 163.632 222.939 164.651 223.55 165.568C224.366 166.588 227.423 170.461 236.597 169.034C246.891 167.403 246.483 160.268 246.891 160.268H254.943C254.841 163.224 253.618 165.976 251.478 168.117C247.095 172.092 241.489 174.538 235.577 175.149C228.952 175.761 219.473 175.965 211.931 169.747C208.363 166.792 205.611 162.918 204.184 158.536C202.146 151.707 202.656 144.368 205.815 137.845L205.611 137.743Z" fill="white"></path>
  <path fill-rule="evenodd" clip-rule="evenodd" d="M393.664 146.712C393.562 143.655 393.766 140.699 394.072 137.641C394.479 135.195 395.804 132.85 397.741 131.22C400.085 129.793 403.041 129.997 405.08 131.729C406.303 132.952 407.22 134.481 407.73 136.214C408.239 138.252 408.545 140.291 408.443 142.33V146.61L393.664 146.712ZM376.948 137.743C382.044 129.079 391.829 124.085 401.92 125.002C413.743 125.614 420.47 129.793 424.649 137.539C426.892 142.33 427.911 147.63 427.605 152.93H393.868V162.511C394.072 163.632 394.377 164.651 394.989 165.568C395.702 166.588 398.862 170.461 408.035 169.034C418.228 167.403 417.922 160.268 418.126 160.268H426.178C425.974 163.224 424.751 165.976 422.713 168.117C418.33 172.092 412.724 174.538 406.812 175.149C400.187 175.761 390.708 175.965 383.166 169.747C379.598 166.792 376.846 162.918 375.419 158.536C373.381 151.707 373.992 144.368 377.05 137.845L376.948 137.743Z" fill="white"></path>
  <path fill-rule="evenodd" clip-rule="evenodd" d="M254.739 126.633H275.226L283.991 149.057L293.368 126.735H319.155L327.411 153.032L334.75 126.633H351.262L359.416 152.624L366.652 126.633H375.01L361.964 173.621H346.369L337.706 146.203L330.265 173.621H314.365L300.197 128.264L280.322 176.169C278.997 180.144 276.856 183.813 274.104 187.075C270.537 190.744 265.441 192.273 260.345 191.355C254.127 190.234 251.477 186.973 250.967 183.1C250.254 179.023 252.904 175.149 256.981 174.334C260.243 173.315 263.708 174.538 265.441 177.392C266.46 179.226 266.664 181.367 266.052 183.405C265.645 184.221 265.135 184.934 264.524 185.648C266.358 185.953 268.193 185.24 269.416 183.915C271.251 181.876 272.576 179.43 273.289 176.882C273.493 176.271 273.595 175.659 273.697 175.047L254.739 126.633Z" fill="white"></path>
  <path d="M451.251 109H433.21V173.62H451.251V109Z" fill="white"></path>
  <path d="M475 109.102H456.959V173.722H475V109.102Z" fill="white"></path>
</svg>
